<?xml version="1.0" encoding="utf-8" standalone="no"?>
<!DOCTYPE svg PUBLIC "-//W3C//DTD SVG 1.1//EN"
  "http://www.w3.org/Graphics/SVG/1.1/DTD/svg11.dtd">
<svg xmlns:xlink="http://www.w3.org/1999/xlink" width="1152pt" height="1152pt" viewBox="0 0 1152 1152" xmlns="http://www.w3.org/2000/svg" version="1.1">
 <metadata>
  <rdf:RDF xmlns:dc="http://purl.org/dc/elements/1.1/" xmlns:cc="http://creativecommons.org/ns#" xmlns:rdf="http://www.w3.org/1999/02/22-rdf-syntax-ns#">
   <cc:Work>
    <dc:type rdf:resource="http://purl.org/dc/dcmitype/StillImage"/>
    <dc:date>2023-04-26T18:26:45.807037</dc:date>
    <dc:format>image/svg+xml</dc:format>
    <dc:creator>
     <cc:Agent>
      <dc:title>Matplotlib v3.5.3, https://matplotlib.org/</dc:title>
     </cc:Agent>
    </dc:creator>
   </cc:Work>
  </rdf:RDF>
 </metadata>
 <defs>
  <style type="text/css">*{stroke-linejoin: round; stroke-linecap: butt}</style>
 </defs>
 <g id="figure_1">
  <g id="patch_1">
   <path d="M 0 1152 
L 1152 1152 
L 1152 0 
L 0 0 
z
" style="fill: #ffffff"/>
  </g>
  <g id="axes_1">
   <g id="patch_2">
    <path d="M 144 1008 
L 1036.8 1008 
L 1036.8 138.24 
L 144 138.24 
z
" style="fill: #ffffff"/>
   </g>
   <g id="matplotlib.axis_1">
    <g id="xtick_1">
     <g id="line2d_1">
      <path d="M 184.581818 1008 
L 184.581818 138.24 
" clip-path="url(#pb9e2901ef8)" style="fill: none; stroke: #cccccc; stroke-width: 0.8; stroke-linecap: round"/>
     </g>
     <g id="line2d_2"/>
     <g id="text_1">
      <!-- 0 -->
      <g style="fill: #262626" transform="translate(180.133068 1022.9525)scale(0.16 -0.16)">
       <defs>
        <path id="ArialMT-30" d="M 266 2259 
Q 266 3072 433 3567 
Q 600 4063 929 4331 
Q 1259 4600 1759 4600 
Q 2128 4600 2406 4451 
Q 2684 4303 2865 4023 
Q 3047 3744 3150 3342 
Q 3253 2941 3253 2259 
Q 3253 1453 3087 958 
Q 2922 463 2592 192 
Q 2263 -78 1759 -78 
Q 1097 -78 719 397 
Q 266 969 266 2259 
z
M 844 2259 
Q 844 1131 1108 757 
Q 1372 384 1759 384 
Q 2147 384 2411 759 
Q 2675 1134 2675 2259 
Q 2675 3391 2411 3762 
Q 2147 4134 1753 4134 
Q 1366 4134 1134 3806 
Q 844 3388 844 2259 
z
" transform="scale(0.015625)"/>
       </defs>
       <use xlink:href="#ArialMT-30"/>
      </g>
     </g>
    </g>
    <g id="xtick_2">
     <g id="line2d_3">
      <path d="M 372.67831 1008 
L 372.67831 138.24 
" clip-path="url(#pb9e2901ef8)" style="fill: none; stroke: #cccccc; stroke-width: 0.8; stroke-linecap: round"/>
     </g>
     <g id="line2d_4"/>
     <g id="text_2">
      <!-- 200 -->
      <g style="fill: #262626" transform="translate(359.33206 1022.9525)scale(0.16 -0.16)">
       <defs>
        <path id="ArialMT-32" d="M 3222 541 
L 3222 0 
L 194 0 
Q 188 203 259 391 
Q 375 700 629 1000 
Q 884 1300 1366 1694 
Q 2113 2306 2375 2664 
Q 2638 3022 2638 3341 
Q 2638 3675 2398 3904 
Q 2159 4134 1775 4134 
Q 1369 4134 1125 3890 
Q 881 3647 878 3216 
L 300 3275 
Q 359 3922 746 4261 
Q 1134 4600 1788 4600 
Q 2447 4600 2831 4234 
Q 3216 3869 3216 3328 
Q 3216 3053 3103 2787 
Q 2991 2522 2730 2228 
Q 2469 1934 1863 1422 
Q 1356 997 1212 845 
Q 1069 694 975 541 
L 3222 541 
z
" transform="scale(0.015625)"/>
       </defs>
       <use xlink:href="#ArialMT-32"/>
       <use xlink:href="#ArialMT-30" x="55.615234"/>
       <use xlink:href="#ArialMT-30" x="111.230469"/>
      </g>
     </g>
    </g>
    <g id="xtick_3">
     <g id="line2d_5">
      <path d="M 560.774802 1008 
L 560.774802 138.24 
" clip-path="url(#pb9e2901ef8)" style="fill: none; stroke: #cccccc; stroke-width: 0.8; stroke-linecap: round"/>
     </g>
     <g id="line2d_6"/>
     <g id="text_3">
      <!-- 400 -->
      <g style="fill: #262626" transform="translate(547.428552 1022.9525)scale(0.16 -0.16)">
       <defs>
        <path id="ArialMT-34" d="M 2069 0 
L 2069 1097 
L 81 1097 
L 81 1613 
L 2172 4581 
L 2631 4581 
L 2631 1613 
L 3250 1613 
L 3250 1097 
L 2631 1097 
L 2631 0 
L 2069 0 
z
M 2069 1613 
L 2069 3678 
L 634 1613 
L 2069 1613 
z
" transform="scale(0.015625)"/>
       </defs>
       <use xlink:href="#ArialMT-34"/>
       <use xlink:href="#ArialMT-30" x="55.615234"/>
       <use xlink:href="#ArialMT-30" x="111.230469"/>
      </g>
     </g>
    </g>
    <g id="xtick_4">
     <g id="line2d_7">
      <path d="M 748.871295 1008 
L 748.871295 138.24 
" clip-path="url(#pb9e2901ef8)" style="fill: none; stroke: #cccccc; stroke-width: 0.8; stroke-linecap: round"/>
     </g>
     <g id="line2d_8"/>
     <g id="text_4">
      <!-- 600 -->
      <g style="fill: #262626" transform="translate(735.525045 1022.9525)scale(0.16 -0.16)">
       <defs>
        <path id="ArialMT-36" d="M 3184 3459 
L 2625 3416 
Q 2550 3747 2413 3897 
Q 2184 4138 1850 4138 
Q 1581 4138 1378 3988 
Q 1113 3794 959 3422 
Q 806 3050 800 2363 
Q 1003 2672 1297 2822 
Q 1591 2972 1913 2972 
Q 2475 2972 2870 2558 
Q 3266 2144 3266 1488 
Q 3266 1056 3080 686 
Q 2894 316 2569 119 
Q 2244 -78 1831 -78 
Q 1128 -78 684 439 
Q 241 956 241 2144 
Q 241 3472 731 4075 
Q 1159 4600 1884 4600 
Q 2425 4600 2770 4297 
Q 3116 3994 3184 3459 
z
M 888 1484 
Q 888 1194 1011 928 
Q 1134 663 1356 523 
Q 1578 384 1822 384 
Q 2178 384 2434 671 
Q 2691 959 2691 1453 
Q 2691 1928 2437 2201 
Q 2184 2475 1800 2475 
Q 1419 2475 1153 2201 
Q 888 1928 888 1484 
z
" transform="scale(0.015625)"/>
       </defs>
       <use xlink:href="#ArialMT-36"/>
       <use xlink:href="#ArialMT-30" x="55.615234"/>
       <use xlink:href="#ArialMT-30" x="111.230469"/>
      </g>
     </g>
    </g>
    <g id="xtick_5">
     <g id="line2d_9">
      <path d="M 936.967787 1008 
L 936.967787 138.24 
" clip-path="url(#pb9e2901ef8)" style="fill: none; stroke: #cccccc; stroke-width: 0.8; stroke-linecap: round"/>
     </g>
     <g id="line2d_10"/>
     <g id="text_5">
      <!-- 800 -->
      <g style="fill: #262626" transform="translate(923.621537 1022.9525)scale(0.16 -0.16)">
       <defs>
        <path id="ArialMT-38" d="M 1131 2484 
Q 781 2613 612 2850 
Q 444 3088 444 3419 
Q 444 3919 803 4259 
Q 1163 4600 1759 4600 
Q 2359 4600 2725 4251 
Q 3091 3903 3091 3403 
Q 3091 3084 2923 2848 
Q 2756 2613 2416 2484 
Q 2838 2347 3058 2040 
Q 3278 1734 3278 1309 
Q 3278 722 2862 322 
Q 2447 -78 1769 -78 
Q 1091 -78 675 323 
Q 259 725 259 1325 
Q 259 1772 486 2073 
Q 713 2375 1131 2484 
z
M 1019 3438 
Q 1019 3113 1228 2906 
Q 1438 2700 1772 2700 
Q 2097 2700 2305 2904 
Q 2513 3109 2513 3406 
Q 2513 3716 2298 3927 
Q 2084 4138 1766 4138 
Q 1444 4138 1231 3931 
Q 1019 3725 1019 3438 
z
M 838 1322 
Q 838 1081 952 856 
Q 1066 631 1291 507 
Q 1516 384 1775 384 
Q 2178 384 2440 643 
Q 2703 903 2703 1303 
Q 2703 1709 2433 1975 
Q 2163 2241 1756 2241 
Q 1359 2241 1098 1978 
Q 838 1716 838 1322 
z
" transform="scale(0.015625)"/>
       </defs>
       <use xlink:href="#ArialMT-38"/>
       <use xlink:href="#ArialMT-30" x="55.615234"/>
       <use xlink:href="#ArialMT-30" x="111.230469"/>
      </g>
     </g>
    </g>
   </g>
   <g id="matplotlib.axis_2">
    <g id="ytick_1">
     <g id="line2d_11">
      <path d="M 144 968.548887 
L 1036.8 968.548887 
" clip-path="url(#pb9e2901ef8)" style="fill: none; stroke: #cccccc; stroke-width: 0.8; stroke-linecap: round"/>
     </g>
     <g id="line2d_12"/>
     <g id="text_6">
      <!-- 0 -->
      <g style="fill: #262626" transform="translate(131.6025 974.275137)scale(0.16 -0.16)">
       <use xlink:href="#ArialMT-30"/>
      </g>
     </g>
    </g>
    <g id="ytick_2">
     <g id="line2d_13">
      <path d="M 144 801.683654 
L 1036.8 801.683654 
" clip-path="url(#pb9e2901ef8)" style="fill: none; stroke: #cccccc; stroke-width: 0.8; stroke-linecap: round"/>
     </g>
     <g id="line2d_14"/>
     <g id="text_7">
      <!-- 2000 -->
      <g style="fill: #262626" transform="translate(104.91 807.409904)scale(0.16 -0.16)">
       <use xlink:href="#ArialMT-32"/>
       <use xlink:href="#ArialMT-30" x="55.615234"/>
       <use xlink:href="#ArialMT-30" x="111.230469"/>
       <use xlink:href="#ArialMT-30" x="166.845703"/>
      </g>
     </g>
    </g>
    <g id="ytick_3">
     <g id="line2d_15">
      <path d="M 144 634.81842 
L 1036.8 634.81842 
" clip-path="url(#pb9e2901ef8)" style="fill: none; stroke: #cccccc; stroke-width: 0.8; stroke-linecap: round"/>
     </g>
     <g id="line2d_16"/>
     <g id="text_8">
      <!-- 4000 -->
      <g style="fill: #262626" transform="translate(104.91 640.54467)scale(0.16 -0.16)">
       <use xlink:href="#ArialMT-34"/>
       <use xlink:href="#ArialMT-30" x="55.615234"/>
       <use xlink:href="#ArialMT-30" x="111.230469"/>
       <use xlink:href="#ArialMT-30" x="166.845703"/>
      </g>
     </g>
    </g>
    <g id="ytick_4">
     <g id="line2d_17">
      <path d="M 144 467.953187 
L 1036.8 467.953187 
" clip-path="url(#pb9e2901ef8)" style="fill: none; stroke: #cccccc; stroke-width: 0.8; stroke-linecap: round"/>
     </g>
     <g id="line2d_18"/>
     <g id="text_9">
      <!-- 6000 -->
      <g style="fill: #262626" transform="translate(104.91 473.679437)scale(0.16 -0.16)">
       <use xlink:href="#ArialMT-36"/>
       <use xlink:href="#ArialMT-30" x="55.615234"/>
       <use xlink:href="#ArialMT-30" x="111.230469"/>
       <use xlink:href="#ArialMT-30" x="166.845703"/>
      </g>
     </g>
    </g>
    <g id="ytick_5">
     <g id="line2d_19">
      <path d="M 144 301.087953 
L 1036.8 301.087953 
" clip-path="url(#pb9e2901ef8)" style="fill: none; stroke: #cccccc; stroke-width: 0.8; stroke-linecap: round"/>
     </g>
     <g id="line2d_20"/>
     <g id="text_10">
      <!-- 8000 -->
      <g style="fill: #262626" transform="translate(104.91 306.814203)scale(0.16 -0.16)">
       <use xlink:href="#ArialMT-38"/>
       <use xlink:href="#ArialMT-30" x="55.615234"/>
       <use xlink:href="#ArialMT-30" x="111.230469"/>
       <use xlink:href="#ArialMT-30" x="166.845703"/>
      </g>
     </g>
    </g>
   </g>
   <g id="line2d_21">
    <path d="M 184.581818 968.465455 
L 218.439187 968.382022 
L 219.379669 968.215157 
L 241.010766 968.215157 
L 241.951248 967.881426 
L 263.582345 967.881426 
L 264.522827 967.213965 
L 286.153924 967.213965 
L 287.094406 965.879043 
L 308.725503 965.879043 
L 309.665985 963.2092 
L 331.297082 963.2092 
L 332.237565 957.869512 
L 353.868661 957.869512 
L 354.809144 947.190137 
L 376.44024 947.190137 
L 377.380723 925.831387 
L 399.011819 925.831387 
L 399.952302 883.113888 
L 421.583398 883.113888 
L 422.523881 797.678888 
L 444.154977 797.678888 
L 445.09546 626.808889 
L 449.797872 626.808889 
L 450.738355 631.230818 
L 453.559802 651.588376 
L 454.500284 657.345227 
L 455.440767 662.184318 
L 457.321732 676.451296 
L 458.262214 678.203381 
L 459.202697 684.210529 
L 460.143179 685.962614 
L 461.083662 687.380969 
L 462.024144 689.299919 
L 462.964627 695.307067 
L 463.905109 699.728996 
L 464.845591 701.814811 
L 465.786074 704.31779 
L 466.726556 708.15569 
L 467.667039 452.601585 
L 468.607521 505.99846 
L 470.488486 533.197493 
L 471.428969 542.541946 
L 472.369451 549.550286 
L 473.309934 555.140271 
L 474.250416 564.150994 
L 475.190899 569.824412 
L 480.833793 589.514509 
L 481.774276 596.439416 
L 483.655241 602.863728 
L 484.595723 605.783869 
L 485.536206 610.956692 
L 486.476688 612.541911 
L 487.417171 624.472776 
L 488.357653 626.558591 
L 489.298135 631.397683 
L 490.238618 297.083187 
L 491.1791 381.516996 
L 493.060065 428.906722 
L 494.000548 445.342947 
L 494.94103 453.352479 
L 495.881513 471.624222 
L 496.821995 482.303597 
L 497.762478 494.735057 
L 499.643443 513.423963 
L 500.583925 520.599168 
L 501.524407 526.773181 
L 502.46489 534.031819 
L 504.345855 544.794627 
L 505.286337 549.550286 
L 506.22682 550.801775 
L 507.167302 555.724299 
L 508.107785 558.811306 
L 509.98875 563.566965 
L 510.929232 566.069944 
L 511.869715 569.574114 
L 512.810197 177.774545 
L 513.750679 308.096293 
L 514.691162 649.585993 
L 515.631644 649.836291 
L 532.560329 649.836291 
L 533.500811 653.340461 
L 534.441294 657.929255 
L 535.381776 648.334504 
L 536.322259 631.731413 
L 537.262741 747.619318 
L 538.203223 747.285587 
L 539.143706 746.117531 
L 540.084188 745.283205 
L 541.024671 743.030524 
L 542.905636 737.607404 
L 543.846118 734.687262 
L 544.786601 730.515632 
L 546.667566 720.169987 
L 547.608048 714.079406 
L 549.489013 698.560939 
L 550.429495 689.883947 
L 551.369978 680.122331 
L 552.31046 671.528771 
L 554.191425 651.171213 
L 558.893838 606.367898 
L 559.83432 745.032907 
L 560.774802 744.949474 
L 561.715285 744.615744 
L 562.655767 744.031715 
L 563.59625 742.947091 
L 564.536732 742.196198 
L 565.477215 740.610978 
L 566.417697 738.108 
L 567.35818 735.187858 
L 569.239145 727.845788 
L 570.179627 723.256994 
L 573.001074 704.818386 
L 573.941557 696.391691 
L 574.882039 690.885139 
L 575.822522 682.124714 
L 577.703487 661.850588 
L 578.643969 650.336887 
L 580.524934 632.482307 
L 581.465417 621.052038 
L 582.405899 755.378551 
L 583.346382 755.295119 
L 584.286864 754.794523 
L 585.227346 753.793332 
L 587.108311 751.123488 
L 588.048794 749.454836 
L 588.989276 747.36902 
L 590.870241 741.695602 
L 592.751206 733.519206 
L 593.691689 728.846979 
L 594.632171 722.839831 
L 595.572654 715.998356 
L 596.513136 710.241506 
L 597.453618 702.982868 
L 598.394101 694.472741 
L 599.334583 687.631267 
L 602.156031 661.183127 
L 604.036996 640.24154 
L 604.977478 769.311798 
L 606.858443 768.477472 
L 607.798926 767.643146 
L 608.739408 766.641955 
L 609.67989 765.307033 
L 610.620373 763.721813 
L 612.501338 759.717047 
L 615.322785 748.95424 
L 616.263268 743.53112 
L 620.025198 717.583576 
L 622.846645 694.472741 
L 623.787127 684.87799 
L 624.72761 677.86965 
L 626.608575 659.764773 
L 627.549057 781.15923 
L 628.48954 781.075797 
L 629.430022 780.658634 
L 631.310987 778.906549 
L 634.132434 773.984025 
L 636.013399 769.645529 
L 638.834847 756.963771 
L 640.715812 747.285587 
L 642.596777 734.186667 
L 645.418224 710.908967 
L 647.299189 696.725422 
L 649.180154 679.12114 
L 650.120636 792.756364 
L 651.061119 792.589498 
L 652.001601 791.838605 
L 652.942084 791.254577 
L 653.882566 790.837413 
L 654.823049 789.752789 
L 655.763531 788.16757 
L 656.704013 785.748024 
L 657.644496 783.995939 
L 659.525461 777.905358 
L 662.346908 763.972111 
L 664.227873 752.124679 
L 669.870768 711.65986 
L 671.751733 695.891096 
L 672.692215 804.1032 
L 673.632698 804.1032 
L 674.57318 803.852902 
L 675.513663 802.85171 
L 676.454145 802.017384 
L 677.394628 801.016193 
L 678.33511 799.681271 
L 679.275593 797.845753 
L 681.156557 793.090094 
L 682.09704 790.253385 
L 683.037522 786.665783 
L 683.978005 782.327287 
L 684.918487 778.989982 
L 686.799452 768.143742 
L 691.501865 736.606213 
L 694.323312 712.410754 
L 695.263794 811.862433 
L 697.144759 811.111539 
L 699.025724 809.609752 
L 699.966207 808.608561 
L 700.906689 807.774235 
L 701.847172 805.938717 
L 703.728137 800.765895 
L 704.668619 797.42859 
L 705.609101 793.59069 
L 706.549584 788.918463 
L 707.490066 785.080563 
L 708.430549 780.408336 
L 709.371031 774.901784 
L 710.311514 771.230749 
L 711.251996 765.807628 
L 712.192479 759.633615 
L 714.073444 748.453644 
L 715.954409 735.187858 
L 716.894891 727.178327 
L 717.835373 819.871964 
L 718.775856 819.788531 
L 719.716338 819.454801 
L 720.656821 818.954205 
L 721.597303 818.036447 
L 722.537786 817.702716 
L 723.478268 816.86839 
L 725.359233 812.529894 
L 726.299716 809.693185 
L 728.180681 803.102008 
L 730.061645 796.010236 
L 731.94261 784.162804 
L 733.823575 774.067457 
L 735.70454 761.469132 
L 738.525988 744.532311 
L 739.46647 738.024567 
L 740.406952 831.051935 
L 741.347435 831.051935 
L 742.287917 830.801637 
L 743.2284 830.384474 
L 745.109365 828.882687 
L 746.049847 827.547765 
L 746.99033 825.879112 
L 748.871295 821.874347 
L 753.573707 803.602604 
L 754.514189 799.180675 
L 755.454672 795.593073 
L 756.395154 791.087711 
L 757.335637 785.080563 
L 758.276119 780.491769 
L 762.038049 754.293927 
L 762.978532 835.891027 
L 763.919014 835.807594 
L 764.859496 835.390431 
L 765.799979 834.72297 
L 766.740461 833.888644 
L 767.680944 832.470289 
L 768.621426 831.469098 
L 769.561909 830.301041 
L 770.502391 828.882687 
L 771.442874 827.047169 
L 773.323839 821.040021 
L 777.085768 806.606178 
L 778.026251 801.516788 
L 778.966733 797.595455 
L 780.847698 786.165187 
L 782.728663 777.32133 
L 784.609628 765.473898 
L 785.550111 842.148473 
L 786.490593 842.06504 
L 788.371558 841.230714 
L 790.252523 839.979225 
L 791.193005 839.061466 
L 794.014453 834.72297 
L 795.895418 828.715821 
L 797.776383 822.541808 
L 798.716865 819.037638 
L 800.59783 810.110348 
L 802.478795 800.015001 
L 803.419277 795.259342 
L 804.35976 789.168761 
L 805.300242 784.746832 
L 807.181207 774.568053 
L 808.12169 845.23548 
L 810.002655 844.901749 
L 810.943137 844.401153 
L 811.88362 844.067423 
L 812.824102 843.566827 
L 815.645549 840.14609 
L 816.586032 838.477438 
L 817.526514 835.724161 
L 818.466997 833.888644 
L 819.407479 830.301041 
L 820.347962 827.297467 
L 821.288444 823.793297 
L 822.228927 819.621666 
L 824.109891 812.196163 
L 825.990856 801.433356 
L 827.871821 792.172335 
L 829.752786 780.658634 
L 830.693269 854.997096 
L 831.633751 854.997096 
L 832.574234 854.830231 
L 833.514716 854.4965 
L 834.455199 853.995904 
L 836.336163 852.410685 
L 837.276646 851.492926 
L 838.217128 849.991139 
L 841.038576 843.233097 
L 841.979058 841.147281 
L 842.919541 837.809977 
L 843.860023 833.888644 
L 844.800506 830.634772 
L 845.740988 826.796871 
L 849.502918 808.691993 
L 850.4434 802.85171 
L 852.324365 793.173527 
L 853.264848 863.256925 
L 855.145813 862.923194 
L 856.086295 862.506031 
L 857.026778 862.339166 
L 857.96726 862.005436 
L 858.907743 861.337975 
L 859.848225 860.503648 
L 860.788707 859.252159 
L 861.72919 857.500074 
L 862.669672 855.998287 
L 864.550637 850.825465 
L 865.49112 848.823082 
L 866.431602 846.403536 
L 869.25305 835.223566 
L 871.134015 826.796871 
L 872.074497 821.457184 
L 873.014979 817.118688 
L 874.895944 807.106774 
L 875.836427 873.101974 
L 877.717392 872.768243 
L 878.657874 872.184215 
L 879.598357 871.433321 
L 880.538839 870.849293 
L 882.419804 868.930343 
L 885.241251 865.00901 
L 886.181734 863.006627 
L 887.122216 861.671705 
L 888.062699 859.168727 
L 889.003181 856.165152 
L 889.943664 853.578741 
L 890.884146 850.6586 
L 891.824629 847.237862 
L 892.765111 843.149664 
L 893.705594 838.143707 
L 894.646076 833.972076 
L 895.586559 830.801637 
L 897.467523 822.374943 
L 898.408006 881.111505 
L 899.348488 881.111505 
L 901.229453 880.694342 
L 903.110418 879.35942 
L 904.991383 877.44047 
L 905.931866 875.938683 
L 906.872348 874.937491 
L 907.812831 873.519137 
L 908.753313 871.767052 
L 911.57476 864.508414 
L 913.455725 858.167535 
L 915.33669 851.159195 
L 916.277173 848.239054 
L 917.217655 844.067423 
L 918.158138 840.980416 
L 920.039102 831.886261 
L 920.979585 885.950597 
L 922.86055 885.700299 
L 924.741515 885.199703 
L 925.681997 884.198512 
L 926.62248 883.864781 
L 927.562962 882.86359 
L 930.38441 878.858824 
L 931.324892 876.856441 
L 932.265374 874.27003 
L 935.086822 867.845719 
L 936.027304 865.00901 
L 936.967787 863.006627 
L 937.908269 858.834996 
L 938.848752 857.249776 
L 940.729717 849.40711 
L 941.670199 844.317721 
L 942.610682 839.895792 
L 943.551164 891.540582 
L 944.491646 891.540582 
L 945.432129 891.206851 
L 946.372611 891.123419 
L 947.313094 890.455958 
L 949.194059 889.87193 
L 951.075024 887.786114 
L 952.955989 884.949405 
L 953.896471 882.613292 
L 954.836954 881.27837 
L 956.717918 876.606143 
L 957.658401 873.769435 
L 958.598883 871.433321 
L 960.479848 865.926769 
L 961.420331 862.506031 
L 963.301296 856.498883 
L 965.182261 849.240245 
L 966.122743 895.712213 
L 968.94419 895.62878 
L 969.884673 895.211617 
L 970.825155 894.961319 
L 971.765638 894.126993 
L 972.70612 894.04356 
L 973.646603 893.042369 
L 976.46805 888.870738 
L 978.349015 884.949405 
L 979.289498 883.447618 
L 980.22998 881.361803 
L 981.170462 878.858824 
L 983.051427 872.601378 
L 983.99191 869.180641 
L 985.872875 864.174684 
L 986.813357 860.503648 
L 987.75384 857.583507 
L 988.694322 899.550113 
L 990.575287 899.383248 
L 991.51577 899.049517 
L 992.456252 898.882652 
L 993.396734 898.131759 
L 996.218182 896.629972 
L 996.218182 896.629972 
" clip-path="url(#pb9e2901ef8)" style="fill: none; stroke: #ff0000; stroke-width: 1.5; stroke-linecap: round"/>
   </g>
   <g id="text_11">
    <!-- Cancer Cells at time 863 -->
    <g style="fill: #262626" transform="translate(152.45625 68.6592)scale(0.8 -0.8)">
     <defs>
      <path id="ArialMT-43" d="M 3763 1606 
L 4369 1453 
Q 4178 706 3683 314 
Q 3188 -78 2472 -78 
Q 1731 -78 1267 223 
Q 803 525 561 1097 
Q 319 1669 319 2325 
Q 319 3041 592 3573 
Q 866 4106 1370 4382 
Q 1875 4659 2481 4659 
Q 3169 4659 3637 4309 
Q 4106 3959 4291 3325 
L 3694 3184 
Q 3534 3684 3231 3912 
Q 2928 4141 2469 4141 
Q 1941 4141 1586 3887 
Q 1231 3634 1087 3207 
Q 944 2781 944 2328 
Q 944 1744 1114 1308 
Q 1284 872 1643 656 
Q 2003 441 2422 441 
Q 2931 441 3284 734 
Q 3638 1028 3763 1606 
z
" transform="scale(0.015625)"/>
      <path id="ArialMT-61" d="M 2588 409 
Q 2275 144 1986 34 
Q 1697 -75 1366 -75 
Q 819 -75 525 192 
Q 231 459 231 875 
Q 231 1119 342 1320 
Q 453 1522 633 1644 
Q 813 1766 1038 1828 
Q 1203 1872 1538 1913 
Q 2219 1994 2541 2106 
Q 2544 2222 2544 2253 
Q 2544 2597 2384 2738 
Q 2169 2928 1744 2928 
Q 1347 2928 1158 2789 
Q 969 2650 878 2297 
L 328 2372 
Q 403 2725 575 2942 
Q 747 3159 1072 3276 
Q 1397 3394 1825 3394 
Q 2250 3394 2515 3294 
Q 2781 3194 2906 3042 
Q 3031 2891 3081 2659 
Q 3109 2516 3109 2141 
L 3109 1391 
Q 3109 606 3145 398 
Q 3181 191 3288 0 
L 2700 0 
Q 2613 175 2588 409 
z
M 2541 1666 
Q 2234 1541 1622 1453 
Q 1275 1403 1131 1340 
Q 988 1278 909 1158 
Q 831 1038 831 891 
Q 831 666 1001 516 
Q 1172 366 1500 366 
Q 1825 366 2078 508 
Q 2331 650 2450 897 
Q 2541 1088 2541 1459 
L 2541 1666 
z
" transform="scale(0.015625)"/>
      <path id="ArialMT-6e" d="M 422 0 
L 422 3319 
L 928 3319 
L 928 2847 
Q 1294 3394 1984 3394 
Q 2284 3394 2536 3286 
Q 2788 3178 2913 3003 
Q 3038 2828 3088 2588 
Q 3119 2431 3119 2041 
L 3119 0 
L 2556 0 
L 2556 2019 
Q 2556 2363 2490 2533 
Q 2425 2703 2258 2804 
Q 2091 2906 1866 2906 
Q 1506 2906 1245 2678 
Q 984 2450 984 1813 
L 984 0 
L 422 0 
z
" transform="scale(0.015625)"/>
      <path id="ArialMT-63" d="M 2588 1216 
L 3141 1144 
Q 3050 572 2676 248 
Q 2303 -75 1759 -75 
Q 1078 -75 664 370 
Q 250 816 250 1647 
Q 250 2184 428 2587 
Q 606 2991 970 3192 
Q 1334 3394 1763 3394 
Q 2303 3394 2647 3120 
Q 2991 2847 3088 2344 
L 2541 2259 
Q 2463 2594 2264 2762 
Q 2066 2931 1784 2931 
Q 1359 2931 1093 2626 
Q 828 2322 828 1663 
Q 828 994 1084 691 
Q 1341 388 1753 388 
Q 2084 388 2306 591 
Q 2528 794 2588 1216 
z
" transform="scale(0.015625)"/>
      <path id="ArialMT-65" d="M 2694 1069 
L 3275 997 
Q 3138 488 2766 206 
Q 2394 -75 1816 -75 
Q 1088 -75 661 373 
Q 234 822 234 1631 
Q 234 2469 665 2931 
Q 1097 3394 1784 3394 
Q 2450 3394 2872 2941 
Q 3294 2488 3294 1666 
Q 3294 1616 3291 1516 
L 816 1516 
Q 847 969 1125 678 
Q 1403 388 1819 388 
Q 2128 388 2347 550 
Q 2566 713 2694 1069 
z
M 847 1978 
L 2700 1978 
Q 2663 2397 2488 2606 
Q 2219 2931 1791 2931 
Q 1403 2931 1139 2672 
Q 875 2413 847 1978 
z
" transform="scale(0.015625)"/>
      <path id="ArialMT-72" d="M 416 0 
L 416 3319 
L 922 3319 
L 922 2816 
Q 1116 3169 1280 3281 
Q 1444 3394 1641 3394 
Q 1925 3394 2219 3213 
L 2025 2691 
Q 1819 2813 1613 2813 
Q 1428 2813 1281 2702 
Q 1134 2591 1072 2394 
Q 978 2094 978 1738 
L 978 0 
L 416 0 
z
" transform="scale(0.015625)"/>
      <path id="ArialMT-20" transform="scale(0.015625)"/>
      <path id="ArialMT-6c" d="M 409 0 
L 409 4581 
L 972 4581 
L 972 0 
L 409 0 
z
" transform="scale(0.015625)"/>
      <path id="ArialMT-73" d="M 197 991 
L 753 1078 
Q 800 744 1014 566 
Q 1228 388 1613 388 
Q 2000 388 2187 545 
Q 2375 703 2375 916 
Q 2375 1106 2209 1216 
Q 2094 1291 1634 1406 
Q 1016 1563 777 1677 
Q 538 1791 414 1992 
Q 291 2194 291 2438 
Q 291 2659 392 2848 
Q 494 3038 669 3163 
Q 800 3259 1026 3326 
Q 1253 3394 1513 3394 
Q 1903 3394 2198 3281 
Q 2494 3169 2634 2976 
Q 2775 2784 2828 2463 
L 2278 2388 
Q 2241 2644 2061 2787 
Q 1881 2931 1553 2931 
Q 1166 2931 1000 2803 
Q 834 2675 834 2503 
Q 834 2394 903 2306 
Q 972 2216 1119 2156 
Q 1203 2125 1616 2013 
Q 2213 1853 2448 1751 
Q 2684 1650 2818 1456 
Q 2953 1263 2953 975 
Q 2953 694 2789 445 
Q 2625 197 2315 61 
Q 2006 -75 1616 -75 
Q 969 -75 630 194 
Q 291 463 197 991 
z
" transform="scale(0.015625)"/>
      <path id="ArialMT-74" d="M 1650 503 
L 1731 6 
Q 1494 -44 1306 -44 
Q 1000 -44 831 53 
Q 663 150 594 308 
Q 525 466 525 972 
L 525 2881 
L 113 2881 
L 113 3319 
L 525 3319 
L 525 4141 
L 1084 4478 
L 1084 3319 
L 1650 3319 
L 1650 2881 
L 1084 2881 
L 1084 941 
Q 1084 700 1114 631 
Q 1144 563 1211 522 
Q 1278 481 1403 481 
Q 1497 481 1650 503 
z
" transform="scale(0.015625)"/>
      <path id="ArialMT-69" d="M 425 3934 
L 425 4581 
L 988 4581 
L 988 3934 
L 425 3934 
z
M 425 0 
L 425 3319 
L 988 3319 
L 988 0 
L 425 0 
z
" transform="scale(0.015625)"/>
      <path id="ArialMT-6d" d="M 422 0 
L 422 3319 
L 925 3319 
L 925 2853 
Q 1081 3097 1340 3245 
Q 1600 3394 1931 3394 
Q 2300 3394 2536 3241 
Q 2772 3088 2869 2813 
Q 3263 3394 3894 3394 
Q 4388 3394 4653 3120 
Q 4919 2847 4919 2278 
L 4919 0 
L 4359 0 
L 4359 2091 
Q 4359 2428 4304 2576 
Q 4250 2725 4106 2815 
Q 3963 2906 3769 2906 
Q 3419 2906 3187 2673 
Q 2956 2441 2956 1928 
L 2956 0 
L 2394 0 
L 2394 2156 
Q 2394 2531 2256 2718 
Q 2119 2906 1806 2906 
Q 1569 2906 1367 2781 
Q 1166 2656 1075 2415 
Q 984 2175 984 1722 
L 984 0 
L 422 0 
z
" transform="scale(0.015625)"/>
      <path id="ArialMT-33" d="M 269 1209 
L 831 1284 
Q 928 806 1161 595 
Q 1394 384 1728 384 
Q 2125 384 2398 659 
Q 2672 934 2672 1341 
Q 2672 1728 2419 1979 
Q 2166 2231 1775 2231 
Q 1616 2231 1378 2169 
L 1441 2663 
Q 1497 2656 1531 2656 
Q 1891 2656 2178 2843 
Q 2466 3031 2466 3422 
Q 2466 3731 2256 3934 
Q 2047 4138 1716 4138 
Q 1388 4138 1169 3931 
Q 950 3725 888 3313 
L 325 3413 
Q 428 3978 793 4289 
Q 1159 4600 1703 4600 
Q 2078 4600 2393 4439 
Q 2709 4278 2876 4000 
Q 3044 3722 3044 3409 
Q 3044 3113 2884 2869 
Q 2725 2625 2413 2481 
Q 2819 2388 3044 2092 
Q 3269 1797 3269 1353 
Q 3269 753 2831 336 
Q 2394 -81 1725 -81 
Q 1122 -81 723 278 
Q 325 638 269 1209 
z
" transform="scale(0.015625)"/>
     </defs>
     <use xlink:href="#ArialMT-43"/>
     <use xlink:href="#ArialMT-61" x="72.216797"/>
     <use xlink:href="#ArialMT-6e" x="127.832031"/>
     <use xlink:href="#ArialMT-63" x="183.447266"/>
     <use xlink:href="#ArialMT-65" x="233.447266"/>
     <use xlink:href="#ArialMT-72" x="289.0625"/>
     <use xlink:href="#ArialMT-20" x="322.363281"/>
     <use xlink:href="#ArialMT-43" x="350.146484"/>
     <use xlink:href="#ArialMT-65" x="422.363281"/>
     <use xlink:href="#ArialMT-6c" x="477.978516"/>
     <use xlink:href="#ArialMT-6c" x="500.195312"/>
     <use xlink:href="#ArialMT-73" x="522.412109"/>
     <use xlink:href="#ArialMT-20" x="572.412109"/>
     <use xlink:href="#ArialMT-61" x="600.195312"/>
     <use xlink:href="#ArialMT-74" x="655.810547"/>
     <use xlink:href="#ArialMT-20" x="683.59375"/>
     <use xlink:href="#ArialMT-74" x="711.376953"/>
     <use xlink:href="#ArialMT-69" x="739.160156"/>
     <use xlink:href="#ArialMT-6d" x="761.376953"/>
     <use xlink:href="#ArialMT-65" x="844.677734"/>
     <use xlink:href="#ArialMT-20" x="900.292969"/>
     <use xlink:href="#ArialMT-38" x="928.076172"/>
     <use xlink:href="#ArialMT-36" x="983.691406"/>
     <use xlink:href="#ArialMT-33" x="1039.306641"/>
    </g>
   </g>
  </g>
 </g>
 <defs>
  <clipPath id="pb9e2901ef8">
   <rect x="144" y="138.24" width="892.8" height="869.76"/>
  </clipPath>
 </defs>
</svg>
