<?xml version="1.0" encoding="utf-8" standalone="no"?>
<!DOCTYPE svg PUBLIC "-//W3C//DTD SVG 1.1//EN"
  "http://www.w3.org/Graphics/SVG/1.1/DTD/svg11.dtd">
<svg xmlns:xlink="http://www.w3.org/1999/xlink" width="1152pt" height="1152pt" viewBox="0 0 1152 1152" xmlns="http://www.w3.org/2000/svg" version="1.1">
 <metadata>
  <rdf:RDF xmlns:dc="http://purl.org/dc/elements/1.1/" xmlns:cc="http://creativecommons.org/ns#" xmlns:rdf="http://www.w3.org/1999/02/22-rdf-syntax-ns#">
   <cc:Work>
    <dc:type rdf:resource="http://purl.org/dc/dcmitype/StillImage"/>
    <dc:date>2023-04-26T18:26:45.847830</dc:date>
    <dc:format>image/svg+xml</dc:format>
    <dc:creator>
     <cc:Agent>
      <dc:title>Matplotlib v3.5.3, https://matplotlib.org/</dc:title>
     </cc:Agent>
    </dc:creator>
   </cc:Work>
  </rdf:RDF>
 </metadata>
 <defs>
  <style type="text/css">*{stroke-linejoin: round; stroke-linecap: butt}</style>
 </defs>
 <g id="figure_1">
  <g id="patch_1">
   <path d="M 0 1152 
L 1152 1152 
L 1152 0 
L 0 0 
z
" style="fill: #ffffff"/>
  </g>
  <g id="axes_1">
   <g id="patch_2">
    <path d="M 144 1008 
L 1036.8 1008 
L 1036.8 138.24 
L 144 138.24 
z
" style="fill: #ffffff"/>
   </g>
   <g id="matplotlib.axis_1">
    <g id="xtick_1">
     <g id="line2d_1">
      <path d="M 184.581818 1008 
L 184.581818 138.24 
" clip-path="url(#p59c6e3e562)" style="fill: none; stroke: #cccccc; stroke-width: 0.8; stroke-linecap: round"/>
     </g>
     <g id="line2d_2"/>
     <g id="text_1">
      <!-- 0 -->
      <g style="fill: #262626" transform="translate(180.133068 1022.9525)scale(0.16 -0.16)">
       <defs>
        <path id="ArialMT-30" d="M 266 2259 
Q 266 3072 433 3567 
Q 600 4063 929 4331 
Q 1259 4600 1759 4600 
Q 2128 4600 2406 4451 
Q 2684 4303 2865 4023 
Q 3047 3744 3150 3342 
Q 3253 2941 3253 2259 
Q 3253 1453 3087 958 
Q 2922 463 2592 192 
Q 2263 -78 1759 -78 
Q 1097 -78 719 397 
Q 266 969 266 2259 
z
M 844 2259 
Q 844 1131 1108 757 
Q 1372 384 1759 384 
Q 2147 384 2411 759 
Q 2675 1134 2675 2259 
Q 2675 3391 2411 3762 
Q 2147 4134 1753 4134 
Q 1366 4134 1134 3806 
Q 844 3388 844 2259 
z
" transform="scale(0.015625)"/>
       </defs>
       <use xlink:href="#ArialMT-30"/>
      </g>
     </g>
    </g>
    <g id="xtick_2">
     <g id="line2d_3">
      <path d="M 372.67831 1008 
L 372.67831 138.24 
" clip-path="url(#p59c6e3e562)" style="fill: none; stroke: #cccccc; stroke-width: 0.8; stroke-linecap: round"/>
     </g>
     <g id="line2d_4"/>
     <g id="text_2">
      <!-- 200 -->
      <g style="fill: #262626" transform="translate(359.33206 1022.9525)scale(0.16 -0.16)">
       <defs>
        <path id="ArialMT-32" d="M 3222 541 
L 3222 0 
L 194 0 
Q 188 203 259 391 
Q 375 700 629 1000 
Q 884 1300 1366 1694 
Q 2113 2306 2375 2664 
Q 2638 3022 2638 3341 
Q 2638 3675 2398 3904 
Q 2159 4134 1775 4134 
Q 1369 4134 1125 3890 
Q 881 3647 878 3216 
L 300 3275 
Q 359 3922 746 4261 
Q 1134 4600 1788 4600 
Q 2447 4600 2831 4234 
Q 3216 3869 3216 3328 
Q 3216 3053 3103 2787 
Q 2991 2522 2730 2228 
Q 2469 1934 1863 1422 
Q 1356 997 1212 845 
Q 1069 694 975 541 
L 3222 541 
z
" transform="scale(0.015625)"/>
       </defs>
       <use xlink:href="#ArialMT-32"/>
       <use xlink:href="#ArialMT-30" x="55.615234"/>
       <use xlink:href="#ArialMT-30" x="111.230469"/>
      </g>
     </g>
    </g>
    <g id="xtick_3">
     <g id="line2d_5">
      <path d="M 560.774802 1008 
L 560.774802 138.24 
" clip-path="url(#p59c6e3e562)" style="fill: none; stroke: #cccccc; stroke-width: 0.8; stroke-linecap: round"/>
     </g>
     <g id="line2d_6"/>
     <g id="text_3">
      <!-- 400 -->
      <g style="fill: #262626" transform="translate(547.428552 1022.9525)scale(0.16 -0.16)">
       <defs>
        <path id="ArialMT-34" d="M 2069 0 
L 2069 1097 
L 81 1097 
L 81 1613 
L 2172 4581 
L 2631 4581 
L 2631 1613 
L 3250 1613 
L 3250 1097 
L 2631 1097 
L 2631 0 
L 2069 0 
z
M 2069 1613 
L 2069 3678 
L 634 1613 
L 2069 1613 
z
" transform="scale(0.015625)"/>
       </defs>
       <use xlink:href="#ArialMT-34"/>
       <use xlink:href="#ArialMT-30" x="55.615234"/>
       <use xlink:href="#ArialMT-30" x="111.230469"/>
      </g>
     </g>
    </g>
    <g id="xtick_4">
     <g id="line2d_7">
      <path d="M 748.871295 1008 
L 748.871295 138.24 
" clip-path="url(#p59c6e3e562)" style="fill: none; stroke: #cccccc; stroke-width: 0.8; stroke-linecap: round"/>
     </g>
     <g id="line2d_8"/>
     <g id="text_4">
      <!-- 600 -->
      <g style="fill: #262626" transform="translate(735.525045 1022.9525)scale(0.16 -0.16)">
       <defs>
        <path id="ArialMT-36" d="M 3184 3459 
L 2625 3416 
Q 2550 3747 2413 3897 
Q 2184 4138 1850 4138 
Q 1581 4138 1378 3988 
Q 1113 3794 959 3422 
Q 806 3050 800 2363 
Q 1003 2672 1297 2822 
Q 1591 2972 1913 2972 
Q 2475 2972 2870 2558 
Q 3266 2144 3266 1488 
Q 3266 1056 3080 686 
Q 2894 316 2569 119 
Q 2244 -78 1831 -78 
Q 1128 -78 684 439 
Q 241 956 241 2144 
Q 241 3472 731 4075 
Q 1159 4600 1884 4600 
Q 2425 4600 2770 4297 
Q 3116 3994 3184 3459 
z
M 888 1484 
Q 888 1194 1011 928 
Q 1134 663 1356 523 
Q 1578 384 1822 384 
Q 2178 384 2434 671 
Q 2691 959 2691 1453 
Q 2691 1928 2437 2201 
Q 2184 2475 1800 2475 
Q 1419 2475 1153 2201 
Q 888 1928 888 1484 
z
" transform="scale(0.015625)"/>
       </defs>
       <use xlink:href="#ArialMT-36"/>
       <use xlink:href="#ArialMT-30" x="55.615234"/>
       <use xlink:href="#ArialMT-30" x="111.230469"/>
      </g>
     </g>
    </g>
    <g id="xtick_5">
     <g id="line2d_9">
      <path d="M 936.967787 1008 
L 936.967787 138.24 
" clip-path="url(#p59c6e3e562)" style="fill: none; stroke: #cccccc; stroke-width: 0.8; stroke-linecap: round"/>
     </g>
     <g id="line2d_10"/>
     <g id="text_5">
      <!-- 800 -->
      <g style="fill: #262626" transform="translate(923.621537 1022.9525)scale(0.16 -0.16)">
       <defs>
        <path id="ArialMT-38" d="M 1131 2484 
Q 781 2613 612 2850 
Q 444 3088 444 3419 
Q 444 3919 803 4259 
Q 1163 4600 1759 4600 
Q 2359 4600 2725 4251 
Q 3091 3903 3091 3403 
Q 3091 3084 2923 2848 
Q 2756 2613 2416 2484 
Q 2838 2347 3058 2040 
Q 3278 1734 3278 1309 
Q 3278 722 2862 322 
Q 2447 -78 1769 -78 
Q 1091 -78 675 323 
Q 259 725 259 1325 
Q 259 1772 486 2073 
Q 713 2375 1131 2484 
z
M 1019 3438 
Q 1019 3113 1228 2906 
Q 1438 2700 1772 2700 
Q 2097 2700 2305 2904 
Q 2513 3109 2513 3406 
Q 2513 3716 2298 3927 
Q 2084 4138 1766 4138 
Q 1444 4138 1231 3931 
Q 1019 3725 1019 3438 
z
M 838 1322 
Q 838 1081 952 856 
Q 1066 631 1291 507 
Q 1516 384 1775 384 
Q 2178 384 2440 643 
Q 2703 903 2703 1303 
Q 2703 1709 2433 1975 
Q 2163 2241 1756 2241 
Q 1359 2241 1098 1978 
Q 838 1716 838 1322 
z
" transform="scale(0.015625)"/>
       </defs>
       <use xlink:href="#ArialMT-38"/>
       <use xlink:href="#ArialMT-30" x="55.615234"/>
       <use xlink:href="#ArialMT-30" x="111.230469"/>
      </g>
     </g>
    </g>
   </g>
   <g id="matplotlib.axis_2">
    <g id="ytick_1">
     <g id="line2d_11">
      <path d="M 144 972.783548 
L 1036.8 972.783548 
" clip-path="url(#p59c6e3e562)" style="fill: none; stroke: #cccccc; stroke-width: 0.8; stroke-linecap: round"/>
     </g>
     <g id="line2d_12"/>
     <g id="text_6">
      <!-- 1000 -->
      <g style="fill: #262626" transform="translate(104.91 978.509798)scale(0.16 -0.16)">
       <defs>
        <path id="ArialMT-31" d="M 2384 0 
L 1822 0 
L 1822 3584 
Q 1619 3391 1289 3197 
Q 959 3003 697 2906 
L 697 3450 
Q 1169 3672 1522 3987 
Q 1875 4303 2022 4600 
L 2384 4600 
L 2384 0 
z
" transform="scale(0.015625)"/>
       </defs>
       <use xlink:href="#ArialMT-31"/>
       <use xlink:href="#ArialMT-30" x="55.615234"/>
       <use xlink:href="#ArialMT-30" x="111.230469"/>
       <use xlink:href="#ArialMT-30" x="166.845703"/>
      </g>
     </g>
    </g>
    <g id="ytick_2">
     <g id="line2d_13">
      <path d="M 144 852.836505 
L 1036.8 852.836505 
" clip-path="url(#p59c6e3e562)" style="fill: none; stroke: #cccccc; stroke-width: 0.8; stroke-linecap: round"/>
     </g>
     <g id="line2d_14"/>
     <g id="text_7">
      <!-- 1500 -->
      <g style="fill: #262626" transform="translate(104.91 858.562755)scale(0.16 -0.16)">
       <defs>
        <path id="ArialMT-35" d="M 266 1200 
L 856 1250 
Q 922 819 1161 601 
Q 1400 384 1738 384 
Q 2144 384 2425 690 
Q 2706 997 2706 1503 
Q 2706 1984 2436 2262 
Q 2166 2541 1728 2541 
Q 1456 2541 1237 2417 
Q 1019 2294 894 2097 
L 366 2166 
L 809 4519 
L 3088 4519 
L 3088 3981 
L 1259 3981 
L 1013 2750 
Q 1425 3038 1878 3038 
Q 2478 3038 2890 2622 
Q 3303 2206 3303 1553 
Q 3303 931 2941 478 
Q 2500 -78 1738 -78 
Q 1113 -78 717 272 
Q 322 622 266 1200 
z
" transform="scale(0.015625)"/>
       </defs>
       <use xlink:href="#ArialMT-31"/>
       <use xlink:href="#ArialMT-35" x="55.615234"/>
       <use xlink:href="#ArialMT-30" x="111.230469"/>
       <use xlink:href="#ArialMT-30" x="166.845703"/>
      </g>
     </g>
    </g>
    <g id="ytick_3">
     <g id="line2d_15">
      <path d="M 144 732.889462 
L 1036.8 732.889462 
" clip-path="url(#p59c6e3e562)" style="fill: none; stroke: #cccccc; stroke-width: 0.8; stroke-linecap: round"/>
     </g>
     <g id="line2d_16"/>
     <g id="text_8">
      <!-- 2000 -->
      <g style="fill: #262626" transform="translate(104.91 738.615712)scale(0.16 -0.16)">
       <use xlink:href="#ArialMT-32"/>
       <use xlink:href="#ArialMT-30" x="55.615234"/>
       <use xlink:href="#ArialMT-30" x="111.230469"/>
       <use xlink:href="#ArialMT-30" x="166.845703"/>
      </g>
     </g>
    </g>
    <g id="ytick_4">
     <g id="line2d_17">
      <path d="M 144 612.942418 
L 1036.8 612.942418 
" clip-path="url(#p59c6e3e562)" style="fill: none; stroke: #cccccc; stroke-width: 0.8; stroke-linecap: round"/>
     </g>
     <g id="line2d_18"/>
     <g id="text_9">
      <!-- 2500 -->
      <g style="fill: #262626" transform="translate(104.91 618.668668)scale(0.16 -0.16)">
       <use xlink:href="#ArialMT-32"/>
       <use xlink:href="#ArialMT-35" x="55.615234"/>
       <use xlink:href="#ArialMT-30" x="111.230469"/>
       <use xlink:href="#ArialMT-30" x="166.845703"/>
      </g>
     </g>
    </g>
    <g id="ytick_5">
     <g id="line2d_19">
      <path d="M 144 492.995375 
L 1036.8 492.995375 
" clip-path="url(#p59c6e3e562)" style="fill: none; stroke: #cccccc; stroke-width: 0.8; stroke-linecap: round"/>
     </g>
     <g id="line2d_20"/>
     <g id="text_10">
      <!-- 3000 -->
      <g style="fill: #262626" transform="translate(104.91 498.721625)scale(0.16 -0.16)">
       <defs>
        <path id="ArialMT-33" d="M 269 1209 
L 831 1284 
Q 928 806 1161 595 
Q 1394 384 1728 384 
Q 2125 384 2398 659 
Q 2672 934 2672 1341 
Q 2672 1728 2419 1979 
Q 2166 2231 1775 2231 
Q 1616 2231 1378 2169 
L 1441 2663 
Q 1497 2656 1531 2656 
Q 1891 2656 2178 2843 
Q 2466 3031 2466 3422 
Q 2466 3731 2256 3934 
Q 2047 4138 1716 4138 
Q 1388 4138 1169 3931 
Q 950 3725 888 3313 
L 325 3413 
Q 428 3978 793 4289 
Q 1159 4600 1703 4600 
Q 2078 4600 2393 4439 
Q 2709 4278 2876 4000 
Q 3044 3722 3044 3409 
Q 3044 3113 2884 2869 
Q 2725 2625 2413 2481 
Q 2819 2388 3044 2092 
Q 3269 1797 3269 1353 
Q 3269 753 2831 336 
Q 2394 -81 1725 -81 
Q 1122 -81 723 278 
Q 325 638 269 1209 
z
" transform="scale(0.015625)"/>
       </defs>
       <use xlink:href="#ArialMT-33"/>
       <use xlink:href="#ArialMT-30" x="55.615234"/>
       <use xlink:href="#ArialMT-30" x="111.230469"/>
       <use xlink:href="#ArialMT-30" x="166.845703"/>
      </g>
     </g>
    </g>
    <g id="ytick_6">
     <g id="line2d_21">
      <path d="M 144 373.048332 
L 1036.8 373.048332 
" clip-path="url(#p59c6e3e562)" style="fill: none; stroke: #cccccc; stroke-width: 0.8; stroke-linecap: round"/>
     </g>
     <g id="line2d_22"/>
     <g id="text_11">
      <!-- 3500 -->
      <g style="fill: #262626" transform="translate(104.91 378.774582)scale(0.16 -0.16)">
       <use xlink:href="#ArialMT-33"/>
       <use xlink:href="#ArialMT-35" x="55.615234"/>
       <use xlink:href="#ArialMT-30" x="111.230469"/>
       <use xlink:href="#ArialMT-30" x="166.845703"/>
      </g>
     </g>
    </g>
    <g id="ytick_7">
     <g id="line2d_23">
      <path d="M 144 253.101289 
L 1036.8 253.101289 
" clip-path="url(#p59c6e3e562)" style="fill: none; stroke: #cccccc; stroke-width: 0.8; stroke-linecap: round"/>
     </g>
     <g id="line2d_24"/>
     <g id="text_12">
      <!-- 4000 -->
      <g style="fill: #262626" transform="translate(104.91 258.827539)scale(0.16 -0.16)">
       <use xlink:href="#ArialMT-34"/>
       <use xlink:href="#ArialMT-30" x="55.615234"/>
       <use xlink:href="#ArialMT-30" x="111.230469"/>
       <use xlink:href="#ArialMT-30" x="166.845703"/>
      </g>
     </g>
    </g>
   </g>
   <g id="line2d_25">
    <path d="M 184.581818 968.465455 
L 185.522301 921.686108 
L 188.343748 921.686108 
L 189.28423 872.50782 
L 195.867608 872.50782 
L 196.80809 825.728473 
L 199.629538 825.728473 
L 200.57002 826.208261 
L 201.510502 826.208261 
L 202.450985 826.448155 
L 203.391467 826.448155 
L 204.33195 827.407732 
L 206.212915 827.407732 
L 207.153397 804.138005 
L 208.09388 757.118764 
L 209.034362 732.169779 
L 209.974845 732.169779 
L 210.915327 731.929885 
L 212.796292 665.719117 
L 213.736774 662.3606 
L 214.677257 657.322824 
L 215.617739 654.923883 
L 217.498704 644.608438 
L 218.439187 639.090874 
L 219.379669 604.546125 
L 220.320152 562.804554 
L 221.260634 556.327414 
L 222.201117 554.408261 
L 223.141599 550.569956 
L 224.082082 545.772074 
L 225.022564 541.933769 
L 226.903529 536.176311 
L 227.844011 534.736946 
L 228.784494 531.378429 
L 229.724976 516.74489 
L 230.665459 476.922471 
L 231.605941 432.062277 
L 232.546424 419.347891 
L 233.486906 417.188844 
L 234.427389 408.552657 
L 235.367871 382.164307 
L 236.308354 366.811086 
L 238.189318 359.854157 
L 239.129801 355.775958 
L 241.010766 344.500936 
L 241.951248 330.10729 
L 242.891731 300.360424 
L 243.832213 284.527414 
L 244.772696 280.20932 
L 246.653661 273.492286 
L 247.594143 270.613557 
L 248.534626 268.45451 
L 249.475108 266.775252 
L 250.41559 266.535357 
L 251.356073 264.136417 
L 252.296555 261.257688 
L 253.237038 255.980018 
L 254.17752 246.624148 
L 255.118003 240.386902 
L 256.998968 236.788491 
L 257.93945 232.950185 
L 258.879933 230.31135 
L 259.820415 228.392198 
L 260.760898 227.672515 
L 262.641862 224.074104 
L 264.522827 220.715587 
L 265.46331 218.316646 
L 266.403792 215.437917 
L 267.344275 211.839506 
L 268.284757 209.920353 
L 269.22524 208.480989 
L 270.165722 207.521412 
L 271.106205 207.281518 
L 272.046687 206.321942 
L 272.987169 206.082048 
L 273.927652 205.362365 
L 274.868134 204.162895 
L 275.808617 203.203319 
L 276.749099 202.003848 
L 277.689582 201.044272 
L 278.630064 199.844801 
L 279.570547 198.405437 
L 280.511029 196.726178 
L 281.451512 195.286814 
L 283.332477 194.327237 
L 284.272959 193.127767 
L 285.213441 192.887873 
L 286.153924 191.448508 
L 287.094406 190.488932 
L 288.975371 190.009144 
L 289.915854 189.049568 
L 291.796819 188.569779 
L 292.737301 188.569779 
L 294.618266 187.610203 
L 295.558749 187.370309 
L 296.499231 187.370309 
L 298.380196 185.451156 
L 299.320678 185.451156 
L 301.201643 184.971368 
L 302.142126 184.971368 
L 303.082608 184.731474 
L 304.963573 184.731474 
L 306.844538 184.251686 
L 308.725503 182.812321 
L 309.665985 182.572427 
L 310.606468 182.572427 
L 311.54695 182.092639 
L 313.427915 182.092639 
L 314.368398 181.852745 
L 316.249363 180.893169 
L 317.189845 180.653274 
L 319.07081 180.653274 
L 320.011293 180.41338 
L 320.951775 180.41338 
L 321.892257 180.173486 
L 322.83274 180.173486 
L 323.773222 179.933592 
L 324.713705 179.933592 
L 325.654187 179.693698 
L 326.59467 179.693698 
L 328.475635 179.21391 
L 329.416117 179.21391 
L 332.237565 178.494228 
L 333.178047 178.494228 
L 334.118529 178.254334 
L 335.999494 178.254334 
L 336.939977 178.01444 
L 348.225766 178.01444 
L 349.166249 177.774545 
L 449.797872 177.774545 
L 450.738355 178.494228 
L 451.678837 178.494228 
L 452.619319 178.974016 
L 453.559802 179.21391 
L 454.500284 179.693698 
L 458.262214 180.653274 
L 461.083662 180.653274 
L 462.024144 181.133063 
L 462.964627 181.372957 
L 463.905109 181.852745 
L 464.845591 181.852745 
L 465.786074 182.572427 
L 466.726556 183.052215 
L 467.667039 183.052215 
L 469.548004 184.011792 
L 470.488486 184.251686 
L 471.428969 184.971368 
L 473.309934 184.971368 
L 474.250416 186.650627 
L 477.071863 186.650627 
L 478.012346 187.130415 
L 478.952828 187.130415 
L 479.893311 187.370309 
L 480.833793 187.850097 
L 482.714758 188.329885 
L 483.655241 188.329885 
L 484.595723 189.049568 
L 485.536206 189.049568 
L 486.476688 189.289462 
L 488.357653 189.289462 
L 489.298135 189.529356 
L 490.238618 189.529356 
L 491.1791 190.249038 
L 492.119583 191.928297 
L 493.060065 192.408085 
L 494.000548 193.367661 
L 494.94103 193.847449 
L 495.881513 194.807026 
L 496.821995 195.526708 
L 497.762478 195.766602 
L 498.70296 195.766602 
L 499.643443 196.24639 
L 501.524407 196.24639 
L 502.46489 196.966072 
L 504.345855 196.966072 
L 505.286337 197.205966 
L 506.22682 197.205966 
L 507.167302 197.685755 
L 509.98875 197.685755 
L 510.929232 198.645331 
L 511.869715 198.645331 
L 512.810197 199.365013 
L 513.750679 199.604907 
L 514.691162 267.734828 
L 536.322259 267.734828 
L 537.262741 315.713645 
L 540.084188 313.554598 
L 541.024671 312.595022 
L 541.965153 311.395552 
L 543.846118 309.956187 
L 545.727083 308.037034 
L 546.667566 306.837564 
L 548.54853 304.918411 
L 549.489013 304.438623 
L 550.429495 303.718941 
L 551.369978 302.51947 
L 553.250943 300.600318 
L 555.131908 298.201377 
L 557.012873 297.241801 
L 557.953355 296.522118 
L 558.893838 296.522118 
L 559.83432 347.379665 
L 561.715285 340.902524 
L 564.536732 331.786549 
L 566.417697 325.789197 
L 569.239145 315.953539 
L 570.179627 313.554598 
L 571.12011 310.675869 
L 572.060592 309.236505 
L 573.001074 306.59767 
L 573.941557 304.678517 
L 574.882039 303.479047 
L 575.822522 299.880635 
L 577.703487 297.481695 
L 578.643969 295.802436 
L 580.524934 293.403495 
L 581.465417 292.443919 
L 582.405899 339.703054 
L 583.346382 335.624854 
L 586.167829 326.268985 
L 587.108311 323.63015 
L 588.048794 319.791845 
L 588.989276 316.913116 
L 589.929759 314.514175 
L 590.870241 311.395552 
L 591.810724 308.756717 
L 592.751206 305.398199 
L 593.691689 303.479047 
L 594.632171 302.279576 
L 595.572654 299.160953 
L 596.513136 297.721589 
L 598.394101 294.123177 
L 599.334583 292.923707 
L 600.275066 291.004554 
L 601.215548 288.605613 
L 602.156031 288.125825 
L 603.096513 287.885931 
L 604.036996 286.446567 
L 604.977478 331.066867 
L 606.858443 327.468455 
L 607.798926 325.789197 
L 608.739408 324.589726 
L 609.67989 322.670574 
L 612.501338 318.35248 
L 614.382303 314.754069 
L 616.263268 311.87534 
L 617.20375 310.675869 
L 618.144233 309.716293 
L 619.084715 308.037034 
L 620.025198 306.117882 
L 620.96568 305.398199 
L 621.906162 304.198729 
L 622.846645 302.51947 
L 623.787127 301.799788 
L 625.668092 300.840212 
L 626.608575 300.12053 
L 627.549057 349.538711 
L 628.48954 346.899876 
L 630.370505 343.541359 
L 632.25147 339.942948 
L 633.191952 338.503583 
L 634.132434 336.584431 
L 635.072917 335.38496 
L 636.013399 334.425384 
L 636.953882 332.986019 
L 638.834847 330.587079 
L 639.775329 329.147714 
L 640.715812 327.948244 
L 641.656294 327.228561 
L 642.596777 324.82962 
L 643.537259 323.150362 
L 644.477741 321.950891 
L 647.299189 317.632798 
L 648.239671 317.392904 
L 649.180154 316.913116 
L 650.120636 365.371721 
L 651.061119 358.894581 
L 652.942084 350.978076 
L 654.823049 344.980724 
L 656.704013 339.46316 
L 659.525461 330.826973 
L 660.465943 327.468455 
L 661.406426 325.309409 
L 662.346908 323.63015 
L 663.287391 322.190786 
L 666.108838 316.673222 
L 667.049321 315.713645 
L 667.989803 315.473751 
L 668.930285 314.514175 
L 669.870768 312.595022 
L 670.81125 311.395552 
L 671.751733 308.756717 
L 672.692215 366.331297 
L 673.632698 363.932357 
L 674.57318 362.013204 
L 675.513663 359.614263 
L 677.394628 356.015852 
L 678.33511 354.336593 
L 679.275593 353.377017 
L 680.216075 352.177546 
L 682.09704 350.258394 
L 683.037522 350.0185 
L 683.978005 349.298817 
L 684.918487 349.058923 
L 685.85897 347.859453 
L 686.799452 347.379665 
L 687.739935 346.659982 
L 688.680417 345.700406 
L 689.6209 344.261041 
L 690.561382 343.301465 
L 691.501865 341.862101 
L 692.442347 340.182842 
L 693.382829 339.703054 
L 694.323312 338.023795 
L 695.263794 386.962189 
L 696.204277 382.164307 
L 700.906689 370.169603 
L 702.787654 366.571192 
L 704.668619 363.692462 
L 705.609101 362.732886 
L 707.490066 358.414793 
L 708.430549 356.735534 
L 709.371031 355.775958 
L 710.311514 354.096699 
L 712.192479 351.697758 
L 714.073444 348.339241 
L 715.013926 346.420088 
L 715.954409 344.021147 
L 716.894891 342.581783 
L 717.835373 396.557952 
L 718.775856 391.520177 
L 719.716338 388.401553 
L 720.656821 384.803142 
L 721.597303 381.684519 
L 722.537786 379.045684 
L 724.418751 373.048332 
L 727.240198 365.611615 
L 728.180681 361.77331 
L 729.121163 359.374369 
L 730.061645 357.455216 
L 731.002128 356.015852 
L 731.94261 353.856805 
L 732.883093 350.978076 
L 733.823575 348.579135 
L 734.764058 346.899876 
L 735.70454 345.460512 
L 736.645023 344.74083 
L 738.525988 341.862101 
L 739.46647 341.382312 
L 740.406952 395.358482 
L 742.287917 386.242507 
L 746.049847 370.409497 
L 747.930812 364.412145 
L 749.811777 359.854157 
L 750.75226 356.255746 
L 751.692742 353.137123 
L 753.573707 348.339241 
L 754.514189 347.379665 
L 755.454672 345.700406 
L 756.395154 344.500936 
L 758.276119 338.983372 
L 759.216602 338.263689 
L 760.157084 336.104643 
L 761.097567 335.864748 
L 762.038049 334.18549 
L 762.978532 390.080812 
L 763.919014 386.002613 
L 764.859496 385.043036 
L 765.799979 383.603672 
L 767.680944 381.204731 
L 768.621426 380.245154 
L 770.502391 376.886637 
L 771.442874 374.967485 
L 773.323839 372.088756 
L 774.264321 370.889285 
L 775.204804 368.010556 
L 776.145286 366.091403 
L 777.085768 364.891933 
L 778.026251 362.013204 
L 778.966733 359.854157 
L 779.907216 359.374369 
L 780.847698 357.455216 
L 781.788181 356.975428 
L 782.728663 356.015852 
L 784.609628 352.657335 
L 785.550111 415.029797 
L 786.490593 412.151068 
L 790.252523 402.31541 
L 791.193005 399.436681 
L 792.133488 397.757423 
L 796.8359 387.202083 
L 797.776383 385.28293 
L 798.716865 384.803142 
L 799.657348 383.123883 
L 801.538312 379.525472 
L 802.478795 378.326002 
L 803.419277 376.646743 
L 804.35976 376.406849 
L 805.300242 375.207379 
L 806.240725 373.288226 
L 807.181207 371.848861 
L 808.12169 432.542065 
L 809.062172 426.784607 
L 810.943137 418.14842 
L 814.705067 401.355834 
L 815.645549 397.517529 
L 816.586032 394.398906 
L 817.526514 391.760071 
L 818.466997 387.921765 
L 819.407479 384.803142 
L 820.347962 382.404201 
L 821.288444 379.285578 
L 822.228927 376.646743 
L 823.169409 372.808438 
L 824.109891 371.369073 
L 825.050374 367.530768 
L 826.931339 363.932357 
L 827.871821 362.253098 
L 828.812304 360.333945 
L 829.752786 358.894581 
L 830.693269 437.579841 
L 831.633751 432.542065 
L 833.514716 424.385666 
L 836.336163 412.630856 
L 838.217128 406.153716 
L 839.157611 401.595728 
L 840.098093 397.757423 
L 841.038576 394.6388 
L 842.919541 390.5606 
L 843.860023 388.881342 
L 844.800506 385.28293 
L 845.740988 383.363778 
L 846.681471 382.164307 
L 850.4434 372.808438 
L 851.383883 372.088756 
L 852.324365 370.889285 
L 853.264848 436.860159 
L 855.145813 426.544713 
L 861.72919 392.959541 
L 862.669672 389.601024 
L 863.610155 384.323354 
L 865.49112 376.166955 
L 866.431602 373.288226 
L 867.372085 369.929709 
L 868.312567 367.530768 
L 869.25305 363.212674 
L 870.193532 361.77331 
L 871.134015 360.094051 
L 872.074497 357.935004 
L 873.014979 354.336593 
L 873.955462 352.897229 
L 874.895944 351.697758 
L 875.836427 433.021853 
L 876.776909 428.70376 
L 877.717392 425.105349 
L 879.598357 418.868102 
L 881.479322 413.830327 
L 887.122216 393.919117 
L 888.062699 391.520177 
L 889.943664 385.043036 
L 890.884146 383.843566 
L 891.824629 381.204731 
L 892.765111 380.245154 
L 893.705594 378.086108 
L 894.646076 376.886637 
L 896.527041 372.808438 
L 897.467523 371.848861 
L 898.408006 452.693169 
L 899.348488 446.455922 
L 903.110418 428.70376 
L 904.991383 420.787255 
L 905.931866 417.668632 
L 906.872348 413.590432 
L 907.812831 410.711703 
L 908.753313 406.633504 
L 911.57476 399.196787 
L 912.515243 396.078164 
L 913.455725 392.239859 
L 914.396208 388.881342 
L 915.33669 384.803142 
L 916.277173 381.684519 
L 917.217655 379.285578 
L 918.158138 374.967485 
L 919.09862 373.288226 
L 920.039102 372.568544 
L 920.979585 463.728297 
L 921.920067 457.730944 
L 925.681997 443.097405 
L 928.503445 430.862807 
L 929.443927 425.585137 
L 931.324892 417.668632 
L 932.265374 414.550009 
L 933.205857 410.231915 
L 934.146339 407.59308 
L 935.086822 402.555305 
L 936.027304 399.91647 
L 936.967787 396.797846 
L 937.908269 392.719647 
L 939.789234 387.202083 
L 940.729717 386.242507 
L 941.670199 382.883989 
L 942.610682 380.485049 
L 943.551164 478.361836 
L 944.491646 472.604378 
L 945.432129 469.005966 
L 947.313094 462.76872 
L 948.253576 459.170309 
L 949.194059 456.051686 
L 950.134541 452.21338 
L 952.015506 446.695816 
L 955.777436 433.021853 
L 956.717918 430.383019 
L 957.658401 426.304819 
L 959.539366 419.827679 
L 961.420331 415.749479 
L 963.301296 409.992021 
L 964.241778 408.552657 
L 965.182261 406.39361 
L 966.122743 496.83368 
L 967.063226 488.437387 
L 969.884673 474.043742 
L 971.765638 466.367132 
L 973.646603 459.410203 
L 976.46805 447.655393 
L 977.408533 442.617617 
L 979.289498 437.100053 
L 981.170462 430.622913 
L 982.110945 427.024501 
L 983.051427 424.385666 
L 983.99191 421.267043 
L 984.932392 417.188844 
L 985.872875 414.550009 
L 986.813357 412.87075 
L 987.75384 409.992021 
L 988.694322 492.515587 
L 989.634805 485.558658 
L 990.575287 481.960247 
L 992.456252 473.32406 
L 993.396734 468.766072 
L 995.277699 461.089462 
L 996.218182 457.730944 
L 996.218182 457.730944 
" clip-path="url(#p59c6e3e562)" style="fill: none; stroke: #0000ff; stroke-width: 1.5; stroke-linecap: round"/>
   </g>
   <g id="text_13">
    <!-- Healthy Cells at time 863 -->
    <g style="fill: #262626" transform="translate(145.775 68.6592)scale(0.8 -0.8)">
     <defs>
      <path id="ArialMT-48" d="M 513 0 
L 513 4581 
L 1119 4581 
L 1119 2700 
L 3500 2700 
L 3500 4581 
L 4106 4581 
L 4106 0 
L 3500 0 
L 3500 2159 
L 1119 2159 
L 1119 0 
L 513 0 
z
" transform="scale(0.015625)"/>
      <path id="ArialMT-65" d="M 2694 1069 
L 3275 997 
Q 3138 488 2766 206 
Q 2394 -75 1816 -75 
Q 1088 -75 661 373 
Q 234 822 234 1631 
Q 234 2469 665 2931 
Q 1097 3394 1784 3394 
Q 2450 3394 2872 2941 
Q 3294 2488 3294 1666 
Q 3294 1616 3291 1516 
L 816 1516 
Q 847 969 1125 678 
Q 1403 388 1819 388 
Q 2128 388 2347 550 
Q 2566 713 2694 1069 
z
M 847 1978 
L 2700 1978 
Q 2663 2397 2488 2606 
Q 2219 2931 1791 2931 
Q 1403 2931 1139 2672 
Q 875 2413 847 1978 
z
" transform="scale(0.015625)"/>
      <path id="ArialMT-61" d="M 2588 409 
Q 2275 144 1986 34 
Q 1697 -75 1366 -75 
Q 819 -75 525 192 
Q 231 459 231 875 
Q 231 1119 342 1320 
Q 453 1522 633 1644 
Q 813 1766 1038 1828 
Q 1203 1872 1538 1913 
Q 2219 1994 2541 2106 
Q 2544 2222 2544 2253 
Q 2544 2597 2384 2738 
Q 2169 2928 1744 2928 
Q 1347 2928 1158 2789 
Q 969 2650 878 2297 
L 328 2372 
Q 403 2725 575 2942 
Q 747 3159 1072 3276 
Q 1397 3394 1825 3394 
Q 2250 3394 2515 3294 
Q 2781 3194 2906 3042 
Q 3031 2891 3081 2659 
Q 3109 2516 3109 2141 
L 3109 1391 
Q 3109 606 3145 398 
Q 3181 191 3288 0 
L 2700 0 
Q 2613 175 2588 409 
z
M 2541 1666 
Q 2234 1541 1622 1453 
Q 1275 1403 1131 1340 
Q 988 1278 909 1158 
Q 831 1038 831 891 
Q 831 666 1001 516 
Q 1172 366 1500 366 
Q 1825 366 2078 508 
Q 2331 650 2450 897 
Q 2541 1088 2541 1459 
L 2541 1666 
z
" transform="scale(0.015625)"/>
      <path id="ArialMT-6c" d="M 409 0 
L 409 4581 
L 972 4581 
L 972 0 
L 409 0 
z
" transform="scale(0.015625)"/>
      <path id="ArialMT-74" d="M 1650 503 
L 1731 6 
Q 1494 -44 1306 -44 
Q 1000 -44 831 53 
Q 663 150 594 308 
Q 525 466 525 972 
L 525 2881 
L 113 2881 
L 113 3319 
L 525 3319 
L 525 4141 
L 1084 4478 
L 1084 3319 
L 1650 3319 
L 1650 2881 
L 1084 2881 
L 1084 941 
Q 1084 700 1114 631 
Q 1144 563 1211 522 
Q 1278 481 1403 481 
Q 1497 481 1650 503 
z
" transform="scale(0.015625)"/>
      <path id="ArialMT-68" d="M 422 0 
L 422 4581 
L 984 4581 
L 984 2938 
Q 1378 3394 1978 3394 
Q 2347 3394 2619 3248 
Q 2891 3103 3008 2847 
Q 3125 2591 3125 2103 
L 3125 0 
L 2563 0 
L 2563 2103 
Q 2563 2525 2380 2717 
Q 2197 2909 1863 2909 
Q 1613 2909 1392 2779 
Q 1172 2650 1078 2428 
Q 984 2206 984 1816 
L 984 0 
L 422 0 
z
" transform="scale(0.015625)"/>
      <path id="ArialMT-79" d="M 397 -1278 
L 334 -750 
Q 519 -800 656 -800 
Q 844 -800 956 -737 
Q 1069 -675 1141 -563 
Q 1194 -478 1313 -144 
Q 1328 -97 1363 -6 
L 103 3319 
L 709 3319 
L 1400 1397 
Q 1534 1031 1641 628 
Q 1738 1016 1872 1384 
L 2581 3319 
L 3144 3319 
L 1881 -56 
Q 1678 -603 1566 -809 
Q 1416 -1088 1222 -1217 
Q 1028 -1347 759 -1347 
Q 597 -1347 397 -1278 
z
" transform="scale(0.015625)"/>
      <path id="ArialMT-20" transform="scale(0.015625)"/>
      <path id="ArialMT-43" d="M 3763 1606 
L 4369 1453 
Q 4178 706 3683 314 
Q 3188 -78 2472 -78 
Q 1731 -78 1267 223 
Q 803 525 561 1097 
Q 319 1669 319 2325 
Q 319 3041 592 3573 
Q 866 4106 1370 4382 
Q 1875 4659 2481 4659 
Q 3169 4659 3637 4309 
Q 4106 3959 4291 3325 
L 3694 3184 
Q 3534 3684 3231 3912 
Q 2928 4141 2469 4141 
Q 1941 4141 1586 3887 
Q 1231 3634 1087 3207 
Q 944 2781 944 2328 
Q 944 1744 1114 1308 
Q 1284 872 1643 656 
Q 2003 441 2422 441 
Q 2931 441 3284 734 
Q 3638 1028 3763 1606 
z
" transform="scale(0.015625)"/>
      <path id="ArialMT-73" d="M 197 991 
L 753 1078 
Q 800 744 1014 566 
Q 1228 388 1613 388 
Q 2000 388 2187 545 
Q 2375 703 2375 916 
Q 2375 1106 2209 1216 
Q 2094 1291 1634 1406 
Q 1016 1563 777 1677 
Q 538 1791 414 1992 
Q 291 2194 291 2438 
Q 291 2659 392 2848 
Q 494 3038 669 3163 
Q 800 3259 1026 3326 
Q 1253 3394 1513 3394 
Q 1903 3394 2198 3281 
Q 2494 3169 2634 2976 
Q 2775 2784 2828 2463 
L 2278 2388 
Q 2241 2644 2061 2787 
Q 1881 2931 1553 2931 
Q 1166 2931 1000 2803 
Q 834 2675 834 2503 
Q 834 2394 903 2306 
Q 972 2216 1119 2156 
Q 1203 2125 1616 2013 
Q 2213 1853 2448 1751 
Q 2684 1650 2818 1456 
Q 2953 1263 2953 975 
Q 2953 694 2789 445 
Q 2625 197 2315 61 
Q 2006 -75 1616 -75 
Q 969 -75 630 194 
Q 291 463 197 991 
z
" transform="scale(0.015625)"/>
      <path id="ArialMT-69" d="M 425 3934 
L 425 4581 
L 988 4581 
L 988 3934 
L 425 3934 
z
M 425 0 
L 425 3319 
L 988 3319 
L 988 0 
L 425 0 
z
" transform="scale(0.015625)"/>
      <path id="ArialMT-6d" d="M 422 0 
L 422 3319 
L 925 3319 
L 925 2853 
Q 1081 3097 1340 3245 
Q 1600 3394 1931 3394 
Q 2300 3394 2536 3241 
Q 2772 3088 2869 2813 
Q 3263 3394 3894 3394 
Q 4388 3394 4653 3120 
Q 4919 2847 4919 2278 
L 4919 0 
L 4359 0 
L 4359 2091 
Q 4359 2428 4304 2576 
Q 4250 2725 4106 2815 
Q 3963 2906 3769 2906 
Q 3419 2906 3187 2673 
Q 2956 2441 2956 1928 
L 2956 0 
L 2394 0 
L 2394 2156 
Q 2394 2531 2256 2718 
Q 2119 2906 1806 2906 
Q 1569 2906 1367 2781 
Q 1166 2656 1075 2415 
Q 984 2175 984 1722 
L 984 0 
L 422 0 
z
" transform="scale(0.015625)"/>
     </defs>
     <use xlink:href="#ArialMT-48"/>
     <use xlink:href="#ArialMT-65" x="72.216797"/>
     <use xlink:href="#ArialMT-61" x="127.832031"/>
     <use xlink:href="#ArialMT-6c" x="183.447266"/>
     <use xlink:href="#ArialMT-74" x="205.664062"/>
     <use xlink:href="#ArialMT-68" x="233.447266"/>
     <use xlink:href="#ArialMT-79" x="289.0625"/>
     <use xlink:href="#ArialMT-20" x="339.0625"/>
     <use xlink:href="#ArialMT-43" x="366.845703"/>
     <use xlink:href="#ArialMT-65" x="439.0625"/>
     <use xlink:href="#ArialMT-6c" x="494.677734"/>
     <use xlink:href="#ArialMT-6c" x="516.894531"/>
     <use xlink:href="#ArialMT-73" x="539.111328"/>
     <use xlink:href="#ArialMT-20" x="589.111328"/>
     <use xlink:href="#ArialMT-61" x="616.894531"/>
     <use xlink:href="#ArialMT-74" x="672.509766"/>
     <use xlink:href="#ArialMT-20" x="700.292969"/>
     <use xlink:href="#ArialMT-74" x="728.076172"/>
     <use xlink:href="#ArialMT-69" x="755.859375"/>
     <use xlink:href="#ArialMT-6d" x="778.076172"/>
     <use xlink:href="#ArialMT-65" x="861.376953"/>
     <use xlink:href="#ArialMT-20" x="916.992188"/>
     <use xlink:href="#ArialMT-38" x="944.775391"/>
     <use xlink:href="#ArialMT-36" x="1000.390625"/>
     <use xlink:href="#ArialMT-33" x="1056.005859"/>
    </g>
   </g>
  </g>
 </g>
 <defs>
  <clipPath id="p59c6e3e562">
   <rect x="144" y="138.24" width="892.8" height="869.76"/>
  </clipPath>
 </defs>
</svg>
