<?xml version="1.0" encoding="utf-8" standalone="no"?>
<!DOCTYPE svg PUBLIC "-//W3C//DTD SVG 1.1//EN"
  "http://www.w3.org/Graphics/SVG/1.1/DTD/svg11.dtd">
<svg xmlns:xlink="http://www.w3.org/1999/xlink" width="955.469062pt" height="727.128281pt" viewBox="0 0 955.469062 727.128281" xmlns="http://www.w3.org/2000/svg" version="1.1">
 <metadata>
  <rdf:RDF xmlns:dc="http://purl.org/dc/elements/1.1/" xmlns:cc="http://creativecommons.org/ns#" xmlns:rdf="http://www.w3.org/1999/02/22-rdf-syntax-ns#">
   <cc:Work>
    <dc:type rdf:resource="http://purl.org/dc/dcmitype/StillImage"/>
    <dc:date>2023-04-19T15:23:20.631233</dc:date>
    <dc:format>image/svg+xml</dc:format>
    <dc:creator>
     <cc:Agent>
      <dc:title>Matplotlib v3.5.3, https://matplotlib.org/</dc:title>
     </cc:Agent>
    </dc:creator>
   </cc:Work>
  </rdf:RDF>
 </metadata>
 <defs>
  <style type="text/css">*{stroke-linejoin: round; stroke-linecap: butt}</style>
 </defs>
 <g id="figure_1">
  <g id="patch_1">
   <path d="M 0 727.128281 
L 955.469062 727.128281 
L 955.469062 0 
L 0 0 
z
" style="fill: #ffffff"/>
  </g>
  <g id="axes_1">
   <g id="patch_2">
    <path d="M 55.469063 683.719219 
L 948.269063 683.719219 
L 948.269063 31.399219 
L 55.469063 31.399219 
z
" style="fill: #ffffff"/>
   </g>
   <g id="matplotlib.axis_1">
    <g id="xtick_1">
     <g id="line2d_1">
      <path d="M 96.050881 683.719219 
L 96.050881 31.399219 
" clip-path="url(#p9b04e975a0)" style="fill: none; stroke: #cccccc; stroke-width: 0.8; stroke-linecap: round"/>
     </g>
     <g id="line2d_2"/>
     <g id="text_1">
      <!-- 16 -->
      <g style="fill: #262626" transform="translate(87.153381 698.671719)scale(0.16 -0.16)">
       <defs>
        <path id="ArialMT-31" d="M 2384 0 
L 1822 0 
L 1822 3584 
Q 1619 3391 1289 3197 
Q 959 3003 697 2906 
L 697 3450 
Q 1169 3672 1522 3987 
Q 1875 4303 2022 4600 
L 2384 4600 
L 2384 0 
z
" transform="scale(0.015625)"/>
        <path id="ArialMT-36" d="M 3184 3459 
L 2625 3416 
Q 2550 3747 2413 3897 
Q 2184 4138 1850 4138 
Q 1581 4138 1378 3988 
Q 1113 3794 959 3422 
Q 806 3050 800 2363 
Q 1003 2672 1297 2822 
Q 1591 2972 1913 2972 
Q 2475 2972 2870 2558 
Q 3266 2144 3266 1488 
Q 3266 1056 3080 686 
Q 2894 316 2569 119 
Q 2244 -78 1831 -78 
Q 1128 -78 684 439 
Q 241 956 241 2144 
Q 241 3472 731 4075 
Q 1159 4600 1884 4600 
Q 2425 4600 2770 4297 
Q 3116 3994 3184 3459 
z
M 888 1484 
Q 888 1194 1011 928 
Q 1134 663 1356 523 
Q 1578 384 1822 384 
Q 2178 384 2434 671 
Q 2691 959 2691 1453 
Q 2691 1928 2437 2201 
Q 2184 2475 1800 2475 
Q 1419 2475 1153 2201 
Q 888 1928 888 1484 
z
" transform="scale(0.015625)"/>
       </defs>
       <use xlink:href="#ArialMT-31"/>
       <use xlink:href="#ArialMT-36" x="55.615234"/>
      </g>
     </g>
    </g>
    <g id="xtick_2">
     <g id="line2d_3">
      <path d="M 276.414517 683.719219 
L 276.414517 31.399219 
" clip-path="url(#p9b04e975a0)" style="fill: none; stroke: #cccccc; stroke-width: 0.8; stroke-linecap: round"/>
     </g>
     <g id="line2d_4"/>
     <g id="text_2">
      <!-- 18 -->
      <g style="fill: #262626" transform="translate(267.517017 698.671719)scale(0.16 -0.16)">
       <defs>
        <path id="ArialMT-38" d="M 1131 2484 
Q 781 2613 612 2850 
Q 444 3088 444 3419 
Q 444 3919 803 4259 
Q 1163 4600 1759 4600 
Q 2359 4600 2725 4251 
Q 3091 3903 3091 3403 
Q 3091 3084 2923 2848 
Q 2756 2613 2416 2484 
Q 2838 2347 3058 2040 
Q 3278 1734 3278 1309 
Q 3278 722 2862 322 
Q 2447 -78 1769 -78 
Q 1091 -78 675 323 
Q 259 725 259 1325 
Q 259 1772 486 2073 
Q 713 2375 1131 2484 
z
M 1019 3438 
Q 1019 3113 1228 2906 
Q 1438 2700 1772 2700 
Q 2097 2700 2305 2904 
Q 2513 3109 2513 3406 
Q 2513 3716 2298 3927 
Q 2084 4138 1766 4138 
Q 1444 4138 1231 3931 
Q 1019 3725 1019 3438 
z
M 838 1322 
Q 838 1081 952 856 
Q 1066 631 1291 507 
Q 1516 384 1775 384 
Q 2178 384 2440 643 
Q 2703 903 2703 1303 
Q 2703 1709 2433 1975 
Q 2163 2241 1756 2241 
Q 1359 2241 1098 1978 
Q 838 1716 838 1322 
z
" transform="scale(0.015625)"/>
       </defs>
       <use xlink:href="#ArialMT-31"/>
       <use xlink:href="#ArialMT-38" x="55.615234"/>
      </g>
     </g>
    </g>
    <g id="xtick_3">
     <g id="line2d_5">
      <path d="M 456.778153 683.719219 
L 456.778153 31.399219 
" clip-path="url(#p9b04e975a0)" style="fill: none; stroke: #cccccc; stroke-width: 0.8; stroke-linecap: round"/>
     </g>
     <g id="line2d_6"/>
     <g id="text_3">
      <!-- 20 -->
      <g style="fill: #262626" transform="translate(447.880653 698.671719)scale(0.16 -0.16)">
       <defs>
        <path id="ArialMT-32" d="M 3222 541 
L 3222 0 
L 194 0 
Q 188 203 259 391 
Q 375 700 629 1000 
Q 884 1300 1366 1694 
Q 2113 2306 2375 2664 
Q 2638 3022 2638 3341 
Q 2638 3675 2398 3904 
Q 2159 4134 1775 4134 
Q 1369 4134 1125 3890 
Q 881 3647 878 3216 
L 300 3275 
Q 359 3922 746 4261 
Q 1134 4600 1788 4600 
Q 2447 4600 2831 4234 
Q 3216 3869 3216 3328 
Q 3216 3053 3103 2787 
Q 2991 2522 2730 2228 
Q 2469 1934 1863 1422 
Q 1356 997 1212 845 
Q 1069 694 975 541 
L 3222 541 
z
" transform="scale(0.015625)"/>
        <path id="ArialMT-30" d="M 266 2259 
Q 266 3072 433 3567 
Q 600 4063 929 4331 
Q 1259 4600 1759 4600 
Q 2128 4600 2406 4451 
Q 2684 4303 2865 4023 
Q 3047 3744 3150 3342 
Q 3253 2941 3253 2259 
Q 3253 1453 3087 958 
Q 2922 463 2592 192 
Q 2263 -78 1759 -78 
Q 1097 -78 719 397 
Q 266 969 266 2259 
z
M 844 2259 
Q 844 1131 1108 757 
Q 1372 384 1759 384 
Q 2147 384 2411 759 
Q 2675 1134 2675 2259 
Q 2675 3391 2411 3762 
Q 2147 4134 1753 4134 
Q 1366 4134 1134 3806 
Q 844 3388 844 2259 
z
" transform="scale(0.015625)"/>
       </defs>
       <use xlink:href="#ArialMT-32"/>
       <use xlink:href="#ArialMT-30" x="55.615234"/>
      </g>
     </g>
    </g>
    <g id="xtick_4">
     <g id="line2d_7">
      <path d="M 637.14179 683.719219 
L 637.14179 31.399219 
" clip-path="url(#p9b04e975a0)" style="fill: none; stroke: #cccccc; stroke-width: 0.8; stroke-linecap: round"/>
     </g>
     <g id="line2d_8"/>
     <g id="text_4">
      <!-- 22 -->
      <g style="fill: #262626" transform="translate(628.24429 698.671719)scale(0.16 -0.16)">
       <use xlink:href="#ArialMT-32"/>
       <use xlink:href="#ArialMT-32" x="55.615234"/>
      </g>
     </g>
    </g>
    <g id="xtick_5">
     <g id="line2d_9">
      <path d="M 817.505426 683.719219 
L 817.505426 31.399219 
" clip-path="url(#p9b04e975a0)" style="fill: none; stroke: #cccccc; stroke-width: 0.8; stroke-linecap: round"/>
     </g>
     <g id="line2d_10"/>
     <g id="text_5">
      <!-- 24 -->
      <g style="fill: #262626" transform="translate(808.607926 698.671719)scale(0.16 -0.16)">
       <defs>
        <path id="ArialMT-34" d="M 2069 0 
L 2069 1097 
L 81 1097 
L 81 1613 
L 2172 4581 
L 2631 4581 
L 2631 1613 
L 3250 1613 
L 3250 1097 
L 2631 1097 
L 2631 0 
L 2069 0 
z
M 2069 1613 
L 2069 3678 
L 634 1613 
L 2069 1613 
z
" transform="scale(0.015625)"/>
       </defs>
       <use xlink:href="#ArialMT-32"/>
       <use xlink:href="#ArialMT-34" x="55.615234"/>
      </g>
     </g>
    </g>
    <g id="text_6">
     <!-- Cell Cycle Duration (hours) -->
     <g style="fill: #262626" transform="translate(411.844453 716.77125)scale(0.15 -0.15)">
      <defs>
       <path id="ArialMT-43" d="M 3763 1606 
L 4369 1453 
Q 4178 706 3683 314 
Q 3188 -78 2472 -78 
Q 1731 -78 1267 223 
Q 803 525 561 1097 
Q 319 1669 319 2325 
Q 319 3041 592 3573 
Q 866 4106 1370 4382 
Q 1875 4659 2481 4659 
Q 3169 4659 3637 4309 
Q 4106 3959 4291 3325 
L 3694 3184 
Q 3534 3684 3231 3912 
Q 2928 4141 2469 4141 
Q 1941 4141 1586 3887 
Q 1231 3634 1087 3207 
Q 944 2781 944 2328 
Q 944 1744 1114 1308 
Q 1284 872 1643 656 
Q 2003 441 2422 441 
Q 2931 441 3284 734 
Q 3638 1028 3763 1606 
z
" transform="scale(0.015625)"/>
       <path id="ArialMT-65" d="M 2694 1069 
L 3275 997 
Q 3138 488 2766 206 
Q 2394 -75 1816 -75 
Q 1088 -75 661 373 
Q 234 822 234 1631 
Q 234 2469 665 2931 
Q 1097 3394 1784 3394 
Q 2450 3394 2872 2941 
Q 3294 2488 3294 1666 
Q 3294 1616 3291 1516 
L 816 1516 
Q 847 969 1125 678 
Q 1403 388 1819 388 
Q 2128 388 2347 550 
Q 2566 713 2694 1069 
z
M 847 1978 
L 2700 1978 
Q 2663 2397 2488 2606 
Q 2219 2931 1791 2931 
Q 1403 2931 1139 2672 
Q 875 2413 847 1978 
z
" transform="scale(0.015625)"/>
       <path id="ArialMT-6c" d="M 409 0 
L 409 4581 
L 972 4581 
L 972 0 
L 409 0 
z
" transform="scale(0.015625)"/>
       <path id="ArialMT-20" transform="scale(0.015625)"/>
       <path id="ArialMT-79" d="M 397 -1278 
L 334 -750 
Q 519 -800 656 -800 
Q 844 -800 956 -737 
Q 1069 -675 1141 -563 
Q 1194 -478 1313 -144 
Q 1328 -97 1363 -6 
L 103 3319 
L 709 3319 
L 1400 1397 
Q 1534 1031 1641 628 
Q 1738 1016 1872 1384 
L 2581 3319 
L 3144 3319 
L 1881 -56 
Q 1678 -603 1566 -809 
Q 1416 -1088 1222 -1217 
Q 1028 -1347 759 -1347 
Q 597 -1347 397 -1278 
z
" transform="scale(0.015625)"/>
       <path id="ArialMT-63" d="M 2588 1216 
L 3141 1144 
Q 3050 572 2676 248 
Q 2303 -75 1759 -75 
Q 1078 -75 664 370 
Q 250 816 250 1647 
Q 250 2184 428 2587 
Q 606 2991 970 3192 
Q 1334 3394 1763 3394 
Q 2303 3394 2647 3120 
Q 2991 2847 3088 2344 
L 2541 2259 
Q 2463 2594 2264 2762 
Q 2066 2931 1784 2931 
Q 1359 2931 1093 2626 
Q 828 2322 828 1663 
Q 828 994 1084 691 
Q 1341 388 1753 388 
Q 2084 388 2306 591 
Q 2528 794 2588 1216 
z
" transform="scale(0.015625)"/>
       <path id="ArialMT-44" d="M 494 0 
L 494 4581 
L 2072 4581 
Q 2606 4581 2888 4516 
Q 3281 4425 3559 4188 
Q 3922 3881 4101 3404 
Q 4281 2928 4281 2316 
Q 4281 1794 4159 1391 
Q 4038 988 3847 723 
Q 3656 459 3429 307 
Q 3203 156 2883 78 
Q 2563 0 2147 0 
L 494 0 
z
M 1100 541 
L 2078 541 
Q 2531 541 2789 625 
Q 3047 709 3200 863 
Q 3416 1078 3536 1442 
Q 3656 1806 3656 2325 
Q 3656 3044 3420 3430 
Q 3184 3816 2847 3947 
Q 2603 4041 2063 4041 
L 1100 4041 
L 1100 541 
z
" transform="scale(0.015625)"/>
       <path id="ArialMT-75" d="M 2597 0 
L 2597 488 
Q 2209 -75 1544 -75 
Q 1250 -75 995 37 
Q 741 150 617 320 
Q 494 491 444 738 
Q 409 903 409 1263 
L 409 3319 
L 972 3319 
L 972 1478 
Q 972 1038 1006 884 
Q 1059 663 1231 536 
Q 1403 409 1656 409 
Q 1909 409 2131 539 
Q 2353 669 2445 892 
Q 2538 1116 2538 1541 
L 2538 3319 
L 3100 3319 
L 3100 0 
L 2597 0 
z
" transform="scale(0.015625)"/>
       <path id="ArialMT-72" d="M 416 0 
L 416 3319 
L 922 3319 
L 922 2816 
Q 1116 3169 1280 3281 
Q 1444 3394 1641 3394 
Q 1925 3394 2219 3213 
L 2025 2691 
Q 1819 2813 1613 2813 
Q 1428 2813 1281 2702 
Q 1134 2591 1072 2394 
Q 978 2094 978 1738 
L 978 0 
L 416 0 
z
" transform="scale(0.015625)"/>
       <path id="ArialMT-61" d="M 2588 409 
Q 2275 144 1986 34 
Q 1697 -75 1366 -75 
Q 819 -75 525 192 
Q 231 459 231 875 
Q 231 1119 342 1320 
Q 453 1522 633 1644 
Q 813 1766 1038 1828 
Q 1203 1872 1538 1913 
Q 2219 1994 2541 2106 
Q 2544 2222 2544 2253 
Q 2544 2597 2384 2738 
Q 2169 2928 1744 2928 
Q 1347 2928 1158 2789 
Q 969 2650 878 2297 
L 328 2372 
Q 403 2725 575 2942 
Q 747 3159 1072 3276 
Q 1397 3394 1825 3394 
Q 2250 3394 2515 3294 
Q 2781 3194 2906 3042 
Q 3031 2891 3081 2659 
Q 3109 2516 3109 2141 
L 3109 1391 
Q 3109 606 3145 398 
Q 3181 191 3288 0 
L 2700 0 
Q 2613 175 2588 409 
z
M 2541 1666 
Q 2234 1541 1622 1453 
Q 1275 1403 1131 1340 
Q 988 1278 909 1158 
Q 831 1038 831 891 
Q 831 666 1001 516 
Q 1172 366 1500 366 
Q 1825 366 2078 508 
Q 2331 650 2450 897 
Q 2541 1088 2541 1459 
L 2541 1666 
z
" transform="scale(0.015625)"/>
       <path id="ArialMT-74" d="M 1650 503 
L 1731 6 
Q 1494 -44 1306 -44 
Q 1000 -44 831 53 
Q 663 150 594 308 
Q 525 466 525 972 
L 525 2881 
L 113 2881 
L 113 3319 
L 525 3319 
L 525 4141 
L 1084 4478 
L 1084 3319 
L 1650 3319 
L 1650 2881 
L 1084 2881 
L 1084 941 
Q 1084 700 1114 631 
Q 1144 563 1211 522 
Q 1278 481 1403 481 
Q 1497 481 1650 503 
z
" transform="scale(0.015625)"/>
       <path id="ArialMT-69" d="M 425 3934 
L 425 4581 
L 988 4581 
L 988 3934 
L 425 3934 
z
M 425 0 
L 425 3319 
L 988 3319 
L 988 0 
L 425 0 
z
" transform="scale(0.015625)"/>
       <path id="ArialMT-6f" d="M 213 1659 
Q 213 2581 725 3025 
Q 1153 3394 1769 3394 
Q 2453 3394 2887 2945 
Q 3322 2497 3322 1706 
Q 3322 1066 3130 698 
Q 2938 331 2570 128 
Q 2203 -75 1769 -75 
Q 1072 -75 642 372 
Q 213 819 213 1659 
z
M 791 1659 
Q 791 1022 1069 705 
Q 1347 388 1769 388 
Q 2188 388 2466 706 
Q 2744 1025 2744 1678 
Q 2744 2294 2464 2611 
Q 2184 2928 1769 2928 
Q 1347 2928 1069 2612 
Q 791 2297 791 1659 
z
" transform="scale(0.015625)"/>
       <path id="ArialMT-6e" d="M 422 0 
L 422 3319 
L 928 3319 
L 928 2847 
Q 1294 3394 1984 3394 
Q 2284 3394 2536 3286 
Q 2788 3178 2913 3003 
Q 3038 2828 3088 2588 
Q 3119 2431 3119 2041 
L 3119 0 
L 2556 0 
L 2556 2019 
Q 2556 2363 2490 2533 
Q 2425 2703 2258 2804 
Q 2091 2906 1866 2906 
Q 1506 2906 1245 2678 
Q 984 2450 984 1813 
L 984 0 
L 422 0 
z
" transform="scale(0.015625)"/>
       <path id="ArialMT-28" d="M 1497 -1347 
Q 1031 -759 709 28 
Q 388 816 388 1659 
Q 388 2403 628 3084 
Q 909 3875 1497 4659 
L 1900 4659 
Q 1522 4009 1400 3731 
Q 1209 3300 1100 2831 
Q 966 2247 966 1656 
Q 966 153 1900 -1347 
L 1497 -1347 
z
" transform="scale(0.015625)"/>
       <path id="ArialMT-68" d="M 422 0 
L 422 4581 
L 984 4581 
L 984 2938 
Q 1378 3394 1978 3394 
Q 2347 3394 2619 3248 
Q 2891 3103 3008 2847 
Q 3125 2591 3125 2103 
L 3125 0 
L 2563 0 
L 2563 2103 
Q 2563 2525 2380 2717 
Q 2197 2909 1863 2909 
Q 1613 2909 1392 2779 
Q 1172 2650 1078 2428 
Q 984 2206 984 1816 
L 984 0 
L 422 0 
z
" transform="scale(0.015625)"/>
       <path id="ArialMT-73" d="M 197 991 
L 753 1078 
Q 800 744 1014 566 
Q 1228 388 1613 388 
Q 2000 388 2187 545 
Q 2375 703 2375 916 
Q 2375 1106 2209 1216 
Q 2094 1291 1634 1406 
Q 1016 1563 777 1677 
Q 538 1791 414 1992 
Q 291 2194 291 2438 
Q 291 2659 392 2848 
Q 494 3038 669 3163 
Q 800 3259 1026 3326 
Q 1253 3394 1513 3394 
Q 1903 3394 2198 3281 
Q 2494 3169 2634 2976 
Q 2775 2784 2828 2463 
L 2278 2388 
Q 2241 2644 2061 2787 
Q 1881 2931 1553 2931 
Q 1166 2931 1000 2803 
Q 834 2675 834 2503 
Q 834 2394 903 2306 
Q 972 2216 1119 2156 
Q 1203 2125 1616 2013 
Q 2213 1853 2448 1751 
Q 2684 1650 2818 1456 
Q 2953 1263 2953 975 
Q 2953 694 2789 445 
Q 2625 197 2315 61 
Q 2006 -75 1616 -75 
Q 969 -75 630 194 
Q 291 463 197 991 
z
" transform="scale(0.015625)"/>
       <path id="ArialMT-29" d="M 791 -1347 
L 388 -1347 
Q 1322 153 1322 1656 
Q 1322 2244 1188 2822 
Q 1081 3291 891 3722 
Q 769 4003 388 4659 
L 791 4659 
Q 1378 3875 1659 3084 
Q 1900 2403 1900 1659 
Q 1900 816 1576 28 
Q 1253 -759 791 -1347 
z
" transform="scale(0.015625)"/>
      </defs>
      <use xlink:href="#ArialMT-43"/>
      <use xlink:href="#ArialMT-65" x="72.216797"/>
      <use xlink:href="#ArialMT-6c" x="127.832031"/>
      <use xlink:href="#ArialMT-6c" x="150.048828"/>
      <use xlink:href="#ArialMT-20" x="172.265625"/>
      <use xlink:href="#ArialMT-43" x="200.048828"/>
      <use xlink:href="#ArialMT-79" x="272.265625"/>
      <use xlink:href="#ArialMT-63" x="322.265625"/>
      <use xlink:href="#ArialMT-6c" x="372.265625"/>
      <use xlink:href="#ArialMT-65" x="394.482422"/>
      <use xlink:href="#ArialMT-20" x="450.097656"/>
      <use xlink:href="#ArialMT-44" x="477.880859"/>
      <use xlink:href="#ArialMT-75" x="550.097656"/>
      <use xlink:href="#ArialMT-72" x="605.712891"/>
      <use xlink:href="#ArialMT-61" x="639.013672"/>
      <use xlink:href="#ArialMT-74" x="694.628906"/>
      <use xlink:href="#ArialMT-69" x="722.412109"/>
      <use xlink:href="#ArialMT-6f" x="744.628906"/>
      <use xlink:href="#ArialMT-6e" x="800.244141"/>
      <use xlink:href="#ArialMT-20" x="855.859375"/>
      <use xlink:href="#ArialMT-28" x="883.642578"/>
      <use xlink:href="#ArialMT-68" x="916.943359"/>
      <use xlink:href="#ArialMT-6f" x="972.558594"/>
      <use xlink:href="#ArialMT-75" x="1028.173828"/>
      <use xlink:href="#ArialMT-72" x="1083.789062"/>
      <use xlink:href="#ArialMT-73" x="1117.089844"/>
      <use xlink:href="#ArialMT-29" x="1167.089844"/>
     </g>
    </g>
   </g>
   <g id="matplotlib.axis_2">
    <g id="ytick_1">
     <g id="line2d_11">
      <path d="M 55.469063 654.06831 
L 948.269063 654.06831 
" clip-path="url(#p9b04e975a0)" style="fill: none; stroke: #cccccc; stroke-opacity: 0.5; stroke-width: 0.8; stroke-linecap: round"/>
     </g>
     <g id="line2d_12"/>
     <g id="text_7">
      <!-- 0 -->
      <g style="fill: #262626" transform="translate(43.071563 659.79456)scale(0.16 -0.16)">
       <use xlink:href="#ArialMT-30"/>
      </g>
     </g>
    </g>
    <g id="ytick_2">
     <g id="line2d_13">
      <path d="M 55.469063 535.464673 
L 948.269063 535.464673 
" clip-path="url(#p9b04e975a0)" style="fill: none; stroke: #cccccc; stroke-opacity: 0.5; stroke-width: 0.8; stroke-linecap: round"/>
     </g>
     <g id="line2d_14"/>
     <g id="text_8">
      <!-- 20 -->
      <g style="fill: #262626" transform="translate(34.174063 541.190923)scale(0.16 -0.16)">
       <use xlink:href="#ArialMT-32"/>
       <use xlink:href="#ArialMT-30" x="55.615234"/>
      </g>
     </g>
    </g>
    <g id="ytick_3">
     <g id="line2d_15">
      <path d="M 55.469063 416.861037 
L 948.269063 416.861037 
" clip-path="url(#p9b04e975a0)" style="fill: none; stroke: #cccccc; stroke-opacity: 0.5; stroke-width: 0.8; stroke-linecap: round"/>
     </g>
     <g id="line2d_16"/>
     <g id="text_9">
      <!-- 40 -->
      <g style="fill: #262626" transform="translate(34.174063 422.587287)scale(0.16 -0.16)">
       <use xlink:href="#ArialMT-34"/>
       <use xlink:href="#ArialMT-30" x="55.615234"/>
      </g>
     </g>
    </g>
    <g id="ytick_4">
     <g id="line2d_17">
      <path d="M 55.469063 298.257401 
L 948.269063 298.257401 
" clip-path="url(#p9b04e975a0)" style="fill: none; stroke: #cccccc; stroke-opacity: 0.5; stroke-width: 0.8; stroke-linecap: round"/>
     </g>
     <g id="line2d_18"/>
     <g id="text_10">
      <!-- 60 -->
      <g style="fill: #262626" transform="translate(34.174063 303.983651)scale(0.16 -0.16)">
       <use xlink:href="#ArialMT-36"/>
       <use xlink:href="#ArialMT-30" x="55.615234"/>
      </g>
     </g>
    </g>
    <g id="ytick_5">
     <g id="line2d_19">
      <path d="M 55.469063 179.653764 
L 948.269063 179.653764 
" clip-path="url(#p9b04e975a0)" style="fill: none; stroke: #cccccc; stroke-opacity: 0.5; stroke-width: 0.8; stroke-linecap: round"/>
     </g>
     <g id="line2d_20"/>
     <g id="text_11">
      <!-- 80 -->
      <g style="fill: #262626" transform="translate(34.174063 185.380014)scale(0.16 -0.16)">
       <use xlink:href="#ArialMT-38"/>
       <use xlink:href="#ArialMT-30" x="55.615234"/>
      </g>
     </g>
    </g>
    <g id="ytick_6">
     <g id="line2d_21">
      <path d="M 55.469063 61.050128 
L 948.269063 61.050128 
" clip-path="url(#p9b04e975a0)" style="fill: none; stroke: #cccccc; stroke-opacity: 0.5; stroke-width: 0.8; stroke-linecap: round"/>
     </g>
     <g id="line2d_22"/>
     <g id="text_12">
      <!-- 100 -->
      <g style="fill: #262626" transform="translate(25.276563 66.776378)scale(0.16 -0.16)">
       <use xlink:href="#ArialMT-31"/>
       <use xlink:href="#ArialMT-30" x="55.615234"/>
       <use xlink:href="#ArialMT-30" x="111.230469"/>
      </g>
     </g>
    </g>
    <g id="text_13">
     <!-- TCP (%) -->
     <g style="fill: #262626" transform="translate(18.119531 386.175234)rotate(-90)scale(0.15 -0.15)">
      <defs>
       <path id="ArialMT-54" d="M 1659 0 
L 1659 4041 
L 150 4041 
L 150 4581 
L 3781 4581 
L 3781 4041 
L 2266 4041 
L 2266 0 
L 1659 0 
z
" transform="scale(0.015625)"/>
       <path id="ArialMT-50" d="M 494 0 
L 494 4581 
L 2222 4581 
Q 2678 4581 2919 4538 
Q 3256 4481 3484 4323 
Q 3713 4166 3852 3881 
Q 3991 3597 3991 3256 
Q 3991 2672 3619 2267 
Q 3247 1863 2275 1863 
L 1100 1863 
L 1100 0 
L 494 0 
z
M 1100 2403 
L 2284 2403 
Q 2872 2403 3119 2622 
Q 3366 2841 3366 3238 
Q 3366 3525 3220 3729 
Q 3075 3934 2838 4000 
Q 2684 4041 2272 4041 
L 1100 4041 
L 1100 2403 
z
" transform="scale(0.015625)"/>
       <path id="ArialMT-25" d="M 372 3481 
Q 372 3972 619 4315 
Q 866 4659 1334 4659 
Q 1766 4659 2048 4351 
Q 2331 4044 2331 3447 
Q 2331 2866 2045 2552 
Q 1759 2238 1341 2238 
Q 925 2238 648 2547 
Q 372 2856 372 3481 
z
M 1350 4272 
Q 1141 4272 1002 4090 
Q 863 3909 863 3425 
Q 863 2984 1003 2804 
Q 1144 2625 1350 2625 
Q 1563 2625 1702 2806 
Q 1841 2988 1841 3469 
Q 1841 3913 1700 4092 
Q 1559 4272 1350 4272 
z
M 1353 -169 
L 3859 4659 
L 4316 4659 
L 1819 -169 
L 1353 -169 
z
M 3334 1075 
Q 3334 1569 3581 1911 
Q 3828 2253 4300 2253 
Q 4731 2253 5014 1945 
Q 5297 1638 5297 1041 
Q 5297 459 5011 145 
Q 4725 -169 4303 -169 
Q 3888 -169 3611 142 
Q 3334 453 3334 1075 
z
M 4316 1866 
Q 4103 1866 3964 1684 
Q 3825 1503 3825 1019 
Q 3825 581 3965 400 
Q 4106 219 4313 219 
Q 4528 219 4667 400 
Q 4806 581 4806 1063 
Q 4806 1506 4665 1686 
Q 4525 1866 4316 1866 
z
" transform="scale(0.015625)"/>
      </defs>
      <use xlink:href="#ArialMT-54"/>
      <use xlink:href="#ArialMT-43" x="61.083984"/>
      <use xlink:href="#ArialMT-50" x="133.300781"/>
      <use xlink:href="#ArialMT-20" x="198.25"/>
      <use xlink:href="#ArialMT-28" x="226.033203"/>
      <use xlink:href="#ArialMT-25" x="259.333984"/>
      <use xlink:href="#ArialMT-29" x="348.25"/>
     </g>
    </g>
   </g>
   <g id="PathCollection_1">
    <path d="M 96.050881 659.757774 
C 97.559744 659.757774 99.007012 659.158296 100.073939 658.091368 
C 101.140867 657.024441 101.740345 655.577173 101.740345 654.06831 
C 101.740345 652.559446 101.140867 651.112179 100.073939 650.045251 
C 99.007012 648.978323 97.559744 648.378846 96.050881 648.378846 
C 94.542017 648.378846 93.09475 648.978323 92.027822 650.045251 
C 90.960894 651.112179 90.361417 652.559446 90.361417 654.06831 
C 90.361417 655.577173 90.960894 657.024441 92.027822 658.091368 
C 93.09475 659.158296 94.542017 659.757774 96.050881 659.757774 
z
" clip-path="url(#p9b04e975a0)" style="fill: #1f77b4; stroke: #1f77b4"/>
    <path d="M 186.232699 623.833788 
C 187.650626 623.833788 189.010669 623.27044 190.013294 622.267814 
C 191.01592 621.265189 191.579268 619.905145 191.579268 618.487219 
C 191.579268 617.069292 191.01592 615.709249 190.013294 614.706623 
C 189.010669 613.703998 187.650626 613.140649 186.232699 613.140649 
C 184.814772 613.140649 183.454729 613.703998 182.452103 614.706623 
C 181.449478 615.709249 180.88613 617.069292 180.88613 618.487219 
C 180.88613 619.905145 181.449478 621.265189 182.452103 622.267814 
C 183.454729 623.27044 184.814772 623.833788 186.232699 623.833788 
z
" clip-path="url(#p9b04e975a0)" style="fill: #1f77b4; stroke: #1f77b4"/>
    <path d="M 96.050881 659.833516 
C 97.579831 659.833516 99.046366 659.226058 100.127497 658.144926 
C 101.208629 657.063795 101.816087 655.59726 101.816087 654.06831 
C 101.816087 652.539359 101.208629 651.072824 100.127497 649.991693 
C 99.046366 648.910561 97.579831 648.303103 96.050881 648.303103 
C 94.52193 648.303103 93.055395 648.910561 91.974264 649.991693 
C 90.893132 651.072824 90.285674 652.539359 90.285674 654.06831 
C 90.285674 655.59726 90.893132 657.063795 91.974264 658.144926 
C 93.055395 659.226058 94.52193 659.833516 96.050881 659.833516 
z
" clip-path="url(#p9b04e975a0)" style="fill: #1f77b4; stroke: #1f77b4"/>
    <path d="M 186.232699 635.731214 
C 187.660455 635.731214 189.029926 635.163961 190.039501 634.154385 
C 191.049077 633.144809 191.616331 631.775338 191.616331 630.347582 
C 191.616331 628.919827 191.049077 627.550356 190.039501 626.54078 
C 189.029926 625.531204 187.660455 624.963951 186.232699 624.963951 
C 184.804943 624.963951 183.435472 625.531204 182.425896 626.54078 
C 181.416321 627.550356 180.849067 628.919827 180.849067 630.347582 
C 180.849067 631.775338 181.416321 633.144809 182.425896 634.154385 
C 183.435472 635.163961 184.804943 635.731214 186.232699 635.731214 
z
" clip-path="url(#p9b04e975a0)" style="fill: #1f77b4; stroke: #1f77b4"/>
    <path d="M 96.050881 635.97787 
C 97.54405 635.97787 98.976265 635.384628 100.032095 634.328797 
C 101.087926 633.272967 101.681169 631.840752 101.681169 630.347582 
C 101.681169 628.854413 101.087926 627.422198 100.032095 626.366368 
C 98.976265 625.310537 97.54405 624.717294 96.050881 624.717294 
C 94.557711 624.717294 93.125496 625.310537 92.069666 626.366368 
C 91.013835 627.422198 90.420593 628.854413 90.420593 630.347582 
C 90.420593 631.840752 91.013835 633.272967 92.069666 634.328797 
C 93.125496 635.384628 94.557711 635.97787 96.050881 635.97787 
z
" clip-path="url(#p9b04e975a0)" style="fill: #1f77b4; stroke: #1f77b4"/>
    <path d="M 186.232699 623.887404 
C 187.664845 623.887404 189.038526 623.318406 190.051206 622.305726 
C 191.063887 621.293046 191.632884 619.919365 191.632884 618.487219 
C 191.632884 617.055073 191.063887 615.681391 190.051206 614.668711 
C 189.038526 613.656031 187.664845 613.087033 186.232699 613.087033 
C 184.800553 613.087033 183.426871 613.656031 182.414191 614.668711 
C 181.401511 615.681391 180.832514 617.055073 180.832514 618.487219 
C 180.832514 619.919365 181.401511 621.293046 182.414191 622.305726 
C 183.426871 623.318406 184.800553 623.887404 186.232699 623.887404 
z
" clip-path="url(#p9b04e975a0)" style="fill: #1f77b4; stroke: #1f77b4"/>
    <path d="M 727.323608 68.627973 
C 729.333276 68.627973 731.260904 67.829524 732.681954 66.408474 
C 734.103004 64.987424 734.901453 63.059796 734.901453 61.050128 
C 734.901453 59.04046 734.103004 57.112832 732.681954 55.691782 
C 731.260904 54.270732 729.333276 53.472282 727.323608 53.472282 
C 725.31394 53.472282 723.386312 54.270732 721.965262 55.691782 
C 720.544212 57.112832 719.745763 59.04046 719.745763 61.050128 
C 719.745763 63.059796 720.544212 64.987424 721.965262 66.408474 
C 723.386312 67.829524 725.31394 68.627973 727.323608 68.627973 
z
" clip-path="url(#p9b04e975a0)" style="fill: #1f77b4; stroke: #1f77b4"/>
    <path d="M 817.505426 69.059 
C 819.629404 69.059 821.666675 68.215135 823.168554 66.713256 
C 824.670433 65.211377 825.514298 63.174106 825.514298 61.050128 
C 825.514298 58.92615 824.670433 56.888879 823.168554 55.387 
C 821.666675 53.885121 819.629404 53.041256 817.505426 53.041256 
C 815.381448 53.041256 813.344177 53.885121 811.842298 55.387 
C 810.340419 56.888879 809.496554 58.92615 809.496554 61.050128 
C 809.496554 63.174106 810.340419 65.211377 811.842298 66.713256 
C 813.344177 68.215135 815.381448 69.059 817.505426 69.059 
z
" clip-path="url(#p9b04e975a0)" style="fill: #1f77b4; stroke: #1f77b4"/>
    <path d="M 907.687244 69.614987 
C 909.958671 69.614987 912.137373 68.712539 913.743514 67.106398 
C 915.349656 65.500256 916.252103 63.321555 916.252103 61.050128 
C 916.252103 58.778701 915.349656 56.6 913.743514 54.993858 
C 912.137373 53.387717 909.958671 52.485269 907.687244 52.485269 
C 905.415817 52.485269 903.237116 53.387717 901.630975 54.993858 
C 900.024833 56.6 899.122385 58.778701 899.122385 61.050128 
C 899.122385 63.321555 900.024833 65.500256 901.630975 67.106398 
C 903.237116 68.712539 905.415817 69.614987 907.687244 69.614987 
z
" clip-path="url(#p9b04e975a0)" style="fill: #1f77b4; stroke: #1f77b4"/>
    <path d="M 546.959972 67.719285 
C 548.728653 67.719285 550.425131 67.01658 551.675778 65.765934 
C 552.926424 64.515288 553.629129 62.818809 553.629129 61.050128 
C 553.629129 59.281447 552.926424 57.584968 551.675778 56.334322 
C 550.425131 55.083675 548.728653 54.380971 546.959972 54.380971 
C 545.19129 54.380971 543.494812 55.083675 542.244165 56.334322 
C 540.993519 57.584968 540.290815 59.281447 540.290815 61.050128 
C 540.290815 62.818809 540.993519 64.515288 542.244165 65.765934 
C 543.494812 67.01658 545.19129 67.719285 546.959972 67.719285 
z
" clip-path="url(#p9b04e975a0)" style="fill: #1f77b4; stroke: #1f77b4"/>
    <path d="M 637.14179 68.501701 
C 639.11797 68.501701 641.013477 67.716556 642.410848 66.319186 
C 643.808218 64.921815 644.593363 63.026308 644.593363 61.050128 
C 644.593363 59.073948 643.808218 57.17844 642.410848 55.78107 
C 641.013477 54.383699 639.11797 53.598555 637.14179 53.598555 
C 635.165609 53.598555 633.270102 54.383699 631.872732 55.78107 
C 630.475361 57.17844 629.690217 59.073948 629.690217 61.050128 
C 629.690217 63.026308 630.475361 64.921815 631.872732 66.319186 
C 633.270102 67.716556 635.165609 68.501701 637.14179 68.501701 
z
" clip-path="url(#p9b04e975a0)" style="fill: #1f77b4; stroke: #1f77b4"/>
    <path d="M 727.323608 69.059 
C 729.447586 69.059 731.484857 68.215135 732.986736 66.713256 
C 734.488615 65.211377 735.33248 63.174106 735.33248 61.050128 
C 735.33248 58.92615 734.488615 56.888879 732.986736 55.387 
C 731.484857 53.885121 729.447586 53.041256 727.323608 53.041256 
C 725.19963 53.041256 723.162359 53.885121 721.66048 55.387 
C 720.158601 56.888879 719.314736 58.92615 719.314736 61.050128 
C 719.314736 63.174106 720.158601 65.211377 721.66048 66.713256 
C 723.162359 68.215135 725.19963 69.059 727.323608 69.059 
z
" clip-path="url(#p9b04e975a0)" style="fill: #1f77b4; stroke: #1f77b4"/>
    <path d="M 637.14179 68.30703 
C 639.066343 68.30703 640.91233 67.542397 642.273194 66.181532 
C 643.634059 64.820668 644.398691 62.974681 644.398691 61.050128 
C 644.398691 59.125575 643.634059 57.279588 642.273194 55.918723 
C 640.91233 54.557859 639.066343 53.793226 637.14179 53.793226 
C 635.217237 53.793226 633.37125 54.557859 632.010385 55.918723 
C 630.649521 57.279588 629.884888 59.125575 629.884888 61.050128 
C 629.884888 62.974681 630.649521 64.820668 632.010385 66.181532 
C 633.37125 67.542397 635.217237 68.30703 637.14179 68.30703 
z
" clip-path="url(#p9b04e975a0)" style="fill: #1f77b4; stroke: #1f77b4"/>
    <path d="M 727.323608 68.823255 
C 729.385065 68.823255 731.362368 68.004229 732.820039 66.546559 
C 734.277709 65.088888 735.096735 63.111585 735.096735 61.050128 
C 735.096735 58.988671 734.277709 57.011368 732.820039 55.553697 
C 731.362368 54.096027 729.385065 53.277001 727.323608 53.277001 
C 725.262151 53.277001 723.284848 54.096027 721.827177 55.553697 
C 720.369507 57.011368 719.550481 58.988671 719.550481 61.050128 
C 719.550481 63.111585 720.369507 65.088888 721.827177 66.546559 
C 723.284848 68.004229 725.262151 68.823255 727.323608 68.823255 
z
" clip-path="url(#p9b04e975a0)" style="fill: #1f77b4; stroke: #1f77b4"/>
    <path d="M 817.505426 69.108776 
C 819.642605 69.108776 821.692538 68.259666 823.203751 66.748453 
C 824.714964 65.237239 825.564074 63.187306 825.564074 61.050128 
C 825.564074 58.912949 824.714964 56.863016 823.203751 55.351803 
C 821.692538 53.84059 819.642605 52.99148 817.505426 52.99148 
C 815.368248 52.99148 813.318315 53.84059 811.807101 55.351803 
C 810.295888 56.863016 809.446778 58.912949 809.446778 61.050128 
C 809.446778 63.187306 810.295888 65.237239 811.807101 66.748453 
C 813.318315 68.259666 815.368248 69.108776 817.505426 69.108776 
z
" clip-path="url(#p9b04e975a0)" style="fill: #1f77b4; stroke: #1f77b4"/>
    <path d="M 276.414517 528.839984 
C 277.803034 528.839984 279.134868 528.28832 280.116698 527.30649 
C 281.098527 526.32466 281.650191 524.992827 281.650191 523.60431 
C 281.650191 522.215793 281.098527 520.883959 280.116698 519.902129 
C 279.134868 518.920299 277.803034 518.368636 276.414517 518.368636 
C 275.026 518.368636 273.694166 518.920299 272.712337 519.902129 
C 271.730507 520.883959 271.178843 522.215793 271.178843 523.60431 
C 271.178843 524.992827 271.730507 526.32466 272.712337 527.30649 
C 273.694166 528.28832 275.026 528.839984 276.414517 528.839984 
z
" clip-path="url(#p9b04e975a0)" style="fill: #1f77b4; stroke: #1f77b4"/>
    <path d="M 366.596335 422.05586 
C 367.974018 422.05586 369.295461 421.5085 370.26963 420.534331 
C 371.243799 419.560162 371.791158 418.23872 371.791158 416.861037 
C 371.791158 415.483354 371.243799 414.161912 370.26963 413.187743 
C 369.295461 412.213574 367.974018 411.666214 366.596335 411.666214 
C 365.218652 411.666214 363.89721 412.213574 362.923041 413.187743 
C 361.948872 414.161912 361.401513 415.483354 361.401513 416.861037 
C 361.401513 418.23872 361.948872 419.560162 362.923041 420.534331 
C 363.89721 421.5085 365.218652 422.05586 366.596335 422.05586 
z
" clip-path="url(#p9b04e975a0)" style="fill: #1f77b4; stroke: #1f77b4"/>
    <path d="M 456.778153 173.571528 
C 458.310531 173.571528 459.780352 172.962708 460.863906 171.879153 
C 461.947461 170.795599 462.55628 169.325778 462.55628 167.793401 
C 462.55628 166.261023 461.947461 164.791202 460.863906 163.707648 
C 459.780352 162.624093 458.310531 162.015274 456.778153 162.015274 
C 455.245776 162.015274 453.775955 162.624093 452.692401 163.707648 
C 451.608846 164.791202 451.000026 166.261023 451.000026 167.793401 
C 451.000026 169.325778 451.608846 170.795599 452.692401 171.879153 
C 453.775955 172.962708 455.245776 173.571528 456.778153 173.571528 
z
" clip-path="url(#p9b04e975a0)" style="fill: #1f77b4; stroke: #1f77b4"/>
    <path d="M 546.959972 67.839196 
C 548.760453 67.839196 550.487435 67.123857 551.760568 65.850724 
C 553.033701 64.577591 553.74904 62.85061 553.74904 61.050128 
C 553.74904 59.249646 553.033701 57.522665 551.760568 56.249532 
C 550.487435 54.976399 548.760453 54.26106 546.959972 54.26106 
C 545.15949 54.26106 543.432508 54.976399 542.159376 56.249532 
C 540.886243 57.522665 540.170904 59.249646 540.170904 61.050128 
C 540.170904 62.85061 540.886243 64.577591 542.159376 65.850724 
C 543.432508 67.123857 545.15949 67.839196 546.959972 67.839196 
z
" clip-path="url(#p9b04e975a0)" style="fill: #1f77b4; stroke: #1f77b4"/>
    <path d="M 186.232699 647.547194 
C 187.648684 647.547194 189.006865 646.984617 190.008117 645.983365 
C 191.00937 644.982112 191.571947 643.623931 191.571947 642.207946 
C 191.571947 640.791961 191.00937 639.43378 190.008117 638.432527 
C 189.006865 637.431275 187.648684 636.868698 186.232699 636.868698 
C 184.816714 636.868698 183.458533 637.431275 182.45728 638.432527 
C 181.456028 639.43378 180.893451 640.791961 180.893451 642.207946 
C 180.893451 643.623931 181.456028 644.982112 182.45728 645.983365 
C 183.458533 646.984617 184.816714 647.547194 186.232699 647.547194 
z
" clip-path="url(#p9b04e975a0)" style="fill: #1f77b4; stroke: #1f77b4"/>
    <path d="M 276.414517 469.666755 
C 277.837136 469.666755 279.20168 469.101542 280.207624 468.095599 
C 281.213568 467.089655 281.77878 465.725111 281.77878 464.302491 
C 281.77878 462.879872 281.213568 461.515328 280.207624 460.509384 
C 279.20168 459.503441 277.837136 458.938228 276.414517 458.938228 
C 274.991898 458.938228 273.627354 459.503441 272.62141 460.509384 
C 271.615466 461.515328 271.050254 462.879872 271.050254 464.302491 
C 271.050254 465.725111 271.615466 467.089655 272.62141 468.095599 
C 273.627354 469.101542 274.991898 469.666755 276.414517 469.666755 
z
" clip-path="url(#p9b04e975a0)" style="fill: #1f77b4; stroke: #1f77b4"/>
    <path d="M 366.596335 327.57614 
C 368.080946 327.57614 369.50495 326.986299 370.554728 325.936521 
C 371.604506 324.886743 372.194348 323.462738 372.194348 321.978128 
C 372.194348 320.493518 371.604506 319.069513 370.554728 318.019735 
C 369.50495 316.969957 368.080946 316.380115 366.596335 316.380115 
C 365.111725 316.380115 363.687721 316.969957 362.637943 318.019735 
C 361.588164 319.069513 360.998323 320.493518 360.998323 321.978128 
C 360.998323 323.462738 361.588164 324.886743 362.637943 325.936521 
C 363.687721 326.986299 365.111725 327.57614 366.596335 327.57614 
z
" clip-path="url(#p9b04e975a0)" style="fill: #1f77b4; stroke: #1f77b4"/>
    <path d="M 276.414517 623.551227 
C 277.757508 623.551227 279.045674 623.017651 279.995312 622.068013 
C 280.94495 621.118376 281.478526 619.830209 281.478526 618.487219 
C 281.478526 617.144228 280.94495 615.856062 279.995312 614.906424 
C 279.045674 613.956786 277.757508 613.42321 276.414517 613.42321 
C 275.071526 613.42321 273.78336 613.956786 272.833722 614.906424 
C 271.884084 615.856062 271.350509 617.144228 271.350509 618.487219 
C 271.350509 619.830209 271.884084 621.118376 272.833722 622.068013 
C 273.78336 623.017651 275.071526 623.551227 276.414517 623.551227 
z
" clip-path="url(#p9b04e975a0)" style="fill: #1f77b4; stroke: #1f77b4"/>
    <path d="M 366.596335 362.953367 
C 368.02688 362.953367 369.399026 362.385005 370.410574 361.373457 
C 371.422122 360.36191 371.990483 358.989764 371.990483 357.559219 
C 371.990483 356.128674 371.422122 354.756528 370.410574 353.74498 
C 369.399026 352.733432 368.02688 352.165071 366.596335 352.165071 
C 365.16579 352.165071 363.793644 352.733432 362.782096 353.74498 
C 361.770549 354.756528 361.202187 356.128674 361.202187 357.559219 
C 361.202187 358.989764 361.770549 360.36191 362.782096 361.373457 
C 363.793644 362.385005 365.16579 362.953367 366.596335 362.953367 
z
" clip-path="url(#p9b04e975a0)" style="fill: #1f77b4; stroke: #1f77b4"/>
    <path d="M 456.778153 126.686442 
C 458.458081 126.686442 460.06943 126.018999 461.257318 124.831111 
C 462.445207 123.643222 463.112649 122.031874 463.112649 120.351946 
C 463.112649 118.672018 462.445207 117.06067 461.257318 115.872781 
C 460.06943 114.684893 458.458081 114.01745 456.778153 114.01745 
C 455.098226 114.01745 453.486877 114.684893 452.298989 115.872781 
C 451.1111 117.06067 450.443658 118.672018 450.443658 120.351946 
C 450.443658 122.031874 451.1111 123.643222 452.298989 124.831111 
C 453.486877 126.018999 455.098226 126.686442 456.778153 126.686442 
z
" clip-path="url(#p9b04e975a0)" style="fill: #1f77b4; stroke: #1f77b4"/>
    <path d="M 546.959972 67.438998 
C 548.65432 67.438998 550.2795 66.765826 551.477585 65.567741 
C 552.67567 64.369656 553.348842 62.744476 553.348842 61.050128 
C 553.348842 59.35578 552.67567 57.7306 551.477585 56.532515 
C 550.2795 55.33443 548.65432 54.661258 546.959972 54.661258 
C 545.265623 54.661258 543.640443 55.33443 542.442358 56.532515 
C 541.244273 57.7306 540.571102 59.35578 540.571102 61.050128 
C 540.571102 62.744476 541.244273 64.369656 542.442358 65.567741 
C 543.640443 66.765826 545.265623 67.438998 546.959972 67.438998 
z
" clip-path="url(#p9b04e975a0)" style="fill: #1f77b4; stroke: #1f77b4"/>
    <path d="M 637.14179 68.171508 
C 639.030402 68.171508 640.841916 67.421154 642.177366 66.085704 
C 643.512816 64.750254 644.26317 62.93874 644.26317 61.050128 
C 644.26317 59.161516 643.512816 57.350002 642.177366 56.014552 
C 640.841916 54.679101 639.030402 53.928748 637.14179 53.928748 
C 635.253178 53.928748 633.441664 54.679101 632.106214 56.014552 
C 630.770763 57.350002 630.02041 59.161516 630.02041 61.050128 
C 630.02041 62.93874 630.770763 64.750254 632.106214 66.085704 
C 633.441664 67.421154 635.253178 68.171508 637.14179 68.171508 
z
" clip-path="url(#p9b04e975a0)" style="fill: #1f77b4; stroke: #1f77b4"/>
    <path d="M 727.323608 68.708613 
C 729.354662 68.708613 731.302803 67.901667 732.738975 66.465495 
C 734.175147 65.029323 734.982094 63.081182 734.982094 61.050128 
C 734.982094 59.019074 734.175147 57.070933 732.738975 55.634761 
C 731.302803 54.198589 729.354662 53.391642 727.323608 53.391642 
C 725.292554 53.391642 723.344413 54.198589 721.908241 55.634761 
C 720.472069 57.070933 719.665122 59.019074 719.665122 61.050128 
C 719.665122 63.081182 720.472069 65.029323 721.908241 66.465495 
C 723.344413 67.901667 725.292554 68.708613 727.323608 68.708613 
z
" clip-path="url(#p9b04e975a0)" style="fill: #1f77b4; stroke: #1f77b4"/>
    <path d="M 366.596335 256.432576 
C 368.085883 256.432576 369.514623 255.840773 370.567893 254.787503 
C 371.621162 253.734234 372.212966 252.305494 372.212966 250.815946 
C 372.212966 249.326398 371.621162 247.897658 370.567893 246.844389 
C 369.514623 245.791119 368.085883 245.199316 366.596335 245.199316 
C 365.106787 245.199316 363.678047 245.791119 362.624778 246.844389 
C 361.571508 247.897658 360.979705 249.326398 360.979705 250.815946 
C 360.979705 252.305494 361.571508 253.734234 362.624778 254.787503 
C 363.678047 255.840773 365.106787 256.432576 366.596335 256.432576 
z
" clip-path="url(#p9b04e975a0)" style="fill: #1f77b4; stroke: #1f77b4"/>
    <path d="M 456.778153 138.340202 
C 458.40329 138.340202 459.962083 137.694529 461.111228 136.545384 
C 462.260373 135.396239 462.906046 133.837446 462.906046 132.21231 
C 462.906046 130.587174 462.260373 129.02838 461.111228 127.879235 
C 459.962083 126.73009 458.40329 126.084417 456.778153 126.084417 
C 455.153017 126.084417 453.594224 126.73009 452.445079 127.879235 
C 451.295934 129.02838 450.650261 130.587174 450.650261 132.21231 
C 450.650261 133.837446 451.295934 135.396239 452.445079 136.545384 
C 453.594224 137.694529 455.153017 138.340202 456.778153 138.340202 
z
" clip-path="url(#p9b04e975a0)" style="fill: #1f77b4; stroke: #1f77b4"/>
    <path d="M 546.959972 79.684589 
C 548.756483 79.684589 550.479656 78.970827 551.749982 77.700502 
C 553.020308 76.430176 553.734069 74.707003 553.734069 72.910491 
C 553.734069 71.11398 553.020308 69.390807 551.749982 68.120481 
C 550.479656 66.850155 548.756483 66.136394 546.959972 66.136394 
C 545.16346 66.136394 543.440287 66.850155 542.169961 68.120481 
C 540.899636 69.390807 540.185874 71.11398 540.185874 72.910491 
C 540.185874 74.707003 540.899636 76.430176 542.169961 77.700502 
C 543.440287 78.970827 545.16346 79.684589 546.959972 79.684589 
z
" clip-path="url(#p9b04e975a0)" style="fill: #1f77b4; stroke: #1f77b4"/>
    <path d="M 456.778153 173.727643 
C 458.351933 173.727643 459.861466 173.102374 460.974297 171.989544 
C 462.087127 170.876714 462.712396 169.36718 462.712396 167.793401 
C 462.712396 166.219621 462.087127 164.710088 460.974297 163.597257 
C 459.861466 162.484427 458.351933 161.859158 456.778153 161.859158 
C 455.204374 161.859158 453.69484 162.484427 452.58201 163.597257 
C 451.46918 164.710088 450.843911 166.219621 450.843911 167.793401 
C 450.843911 169.36718 451.46918 170.876714 452.58201 171.989544 
C 453.69484 173.102374 455.204374 173.727643 456.778153 173.727643 
z
" clip-path="url(#p9b04e975a0)" style="fill: #1f77b4; stroke: #1f77b4"/>
    <path d="M 546.959972 67.875534 
C 548.77009 67.875534 550.506315 67.156366 551.786262 65.876419 
C 553.06621 64.596471 553.785377 62.860247 553.785377 61.050128 
C 553.785377 59.240009 553.06621 57.503784 551.786262 56.223837 
C 550.506315 54.94389 548.77009 54.224722 546.959972 54.224722 
C 545.149853 54.224722 543.413628 54.94389 542.133681 56.223837 
C 540.853734 57.503784 540.134566 59.240009 540.134566 61.050128 
C 540.134566 62.860247 540.853734 64.596471 542.133681 65.876419 
C 543.413628 67.156366 545.149853 67.875534 546.959972 67.875534 
z
" clip-path="url(#p9b04e975a0)" style="fill: #1f77b4; stroke: #1f77b4"/>
    <path d="M 637.14179 68.442825 
C 639.102356 68.442825 640.982887 67.663884 642.369216 66.277554 
C 643.755546 64.891225 644.534487 63.010694 644.534487 61.050128 
C 644.534487 59.089562 643.755546 57.209031 642.369216 55.822701 
C 640.982887 54.436372 639.102356 53.65743 637.14179 53.65743 
C 635.181223 53.65743 633.300693 54.436372 631.914363 55.822701 
C 630.528034 57.209031 629.749092 59.089562 629.749092 61.050128 
C 629.749092 63.010694 630.528034 64.891225 631.914363 66.277554 
C 633.300693 67.663884 635.181223 68.442825 637.14179 68.442825 
z
" clip-path="url(#p9b04e975a0)" style="fill: #1f77b4; stroke: #1f77b4"/>
   </g>
   <g id="text_14">
    <!-- TCP w.r.t. the Cell Cycle Duration -->
    <g style="fill: #262626" transform="translate(316.61125 25.399219)scale(0.25 -0.25)">
     <defs>
      <path id="ArialMT-77" d="M 1034 0 
L 19 3319 
L 600 3319 
L 1128 1403 
L 1325 691 
Q 1338 744 1497 1375 
L 2025 3319 
L 2603 3319 
L 3100 1394 
L 3266 759 
L 3456 1400 
L 4025 3319 
L 4572 3319 
L 3534 0 
L 2950 0 
L 2422 1988 
L 2294 2553 
L 1622 0 
L 1034 0 
z
" transform="scale(0.015625)"/>
      <path id="ArialMT-2e" d="M 581 0 
L 581 641 
L 1222 641 
L 1222 0 
L 581 0 
z
" transform="scale(0.015625)"/>
     </defs>
     <use xlink:href="#ArialMT-54"/>
     <use xlink:href="#ArialMT-43" x="61.083984"/>
     <use xlink:href="#ArialMT-50" x="133.300781"/>
     <use xlink:href="#ArialMT-20" x="198.25"/>
     <use xlink:href="#ArialMT-77" x="226.033203"/>
     <use xlink:href="#ArialMT-2e" x="292.75"/>
     <use xlink:href="#ArialMT-72" x="320.533203"/>
     <use xlink:href="#ArialMT-2e" x="348.333984"/>
     <use xlink:href="#ArialMT-74" x="376.117188"/>
     <use xlink:href="#ArialMT-2e" x="403.900391"/>
     <use xlink:href="#ArialMT-20" x="431.683594"/>
     <use xlink:href="#ArialMT-74" x="459.466797"/>
     <use xlink:href="#ArialMT-68" x="487.25"/>
     <use xlink:href="#ArialMT-65" x="542.865234"/>
     <use xlink:href="#ArialMT-20" x="598.480469"/>
     <use xlink:href="#ArialMT-43" x="626.263672"/>
     <use xlink:href="#ArialMT-65" x="698.480469"/>
     <use xlink:href="#ArialMT-6c" x="754.095703"/>
     <use xlink:href="#ArialMT-6c" x="776.3125"/>
     <use xlink:href="#ArialMT-20" x="798.529297"/>
     <use xlink:href="#ArialMT-43" x="826.3125"/>
     <use xlink:href="#ArialMT-79" x="898.529297"/>
     <use xlink:href="#ArialMT-63" x="948.529297"/>
     <use xlink:href="#ArialMT-6c" x="998.529297"/>
     <use xlink:href="#ArialMT-65" x="1020.746094"/>
     <use xlink:href="#ArialMT-20" x="1076.361328"/>
     <use xlink:href="#ArialMT-44" x="1104.144531"/>
     <use xlink:href="#ArialMT-75" x="1176.361328"/>
     <use xlink:href="#ArialMT-72" x="1231.976562"/>
     <use xlink:href="#ArialMT-61" x="1265.277344"/>
     <use xlink:href="#ArialMT-74" x="1320.892578"/>
     <use xlink:href="#ArialMT-69" x="1348.675781"/>
     <use xlink:href="#ArialMT-6f" x="1370.892578"/>
     <use xlink:href="#ArialMT-6e" x="1426.507812"/>
    </g>
   </g>
  </g>
 </g>
 <defs>
  <clipPath id="p9b04e975a0">
   <rect x="55.469063" y="31.399219" width="892.8" height="652.32"/>
  </clipPath>
 </defs>
</svg>
