<?xml version="1.0" encoding="utf-8" standalone="no"?>
<!DOCTYPE svg PUBLIC "-//W3C//DTD SVG 1.1//EN"
  "http://www.w3.org/Graphics/SVG/1.1/DTD/svg11.dtd">
<svg xmlns:xlink="http://www.w3.org/1999/xlink" width="776.074362pt" height="597.991406pt" viewBox="0 0 776.074362 597.991406" xmlns="http://www.w3.org/2000/svg" version="1.1">
 <metadata>
  <rdf:RDF xmlns:dc="http://purl.org/dc/elements/1.1/" xmlns:cc="http://creativecommons.org/ns#" xmlns:rdf="http://www.w3.org/1999/02/22-rdf-syntax-ns#">
   <cc:Work>
    <dc:type rdf:resource="http://purl.org/dc/dcmitype/StillImage"/>
    <dc:date>2023-04-21T16:13:30.030133</dc:date>
    <dc:format>image/svg+xml</dc:format>
    <dc:creator>
     <cc:Agent>
      <dc:title>Matplotlib v3.5.3, https://matplotlib.org/</dc:title>
     </cc:Agent>
    </dc:creator>
   </cc:Work>
  </rdf:RDF>
 </metadata>
 <defs>
  <style type="text/css">*{stroke-linejoin: round; stroke-linecap: butt}</style>
 </defs>
 <g id="figure_1">
  <g id="patch_1">
   <path d="M 0 597.991406 
L 776.074362 597.991406 
L 776.074362 0 
L 0 0 
z
" style="fill: #ffffff"/>
  </g>
  <g id="axes_1">
   <g id="patch_2">
    <path d="M 45.442188 555.596094 
L 702.160612 555.596094 
L 702.160612 32.196094 
L 45.442188 32.196094 
z
" style="fill: #ffffff"/>
   </g>
   <g id="PathCollection_1">
    <path d="M 672.309775 533.386323 
C 672.729097 533.386323 673.131302 533.219725 673.427808 532.923219 
C 673.724315 532.626713 673.890913 532.224508 673.890913 531.805185 
C 673.890913 531.385862 673.724315 530.983657 673.427808 530.687151 
C 673.131302 530.390645 672.729097 530.224046 672.309775 530.224046 
C 671.890452 530.224046 671.488247 530.390645 671.191741 530.687151 
C 670.895234 530.983657 670.728636 531.385862 670.728636 531.805185 
C 670.728636 532.224508 670.895234 532.626713 671.191741 532.923219 
C 671.488247 533.219725 671.890452 533.386323 672.309775 533.386323 
z
" clip-path="url(#p018d2b19a0)" style="fill: #cc4778; stroke: #ffffff; stroke-width: 0.635133"/>
    <path d="M 493.625184 478.043991 
C 494.857477 478.043991 496.039465 477.554396 496.910828 476.683033 
C 497.782191 475.81167 498.271786 474.629682 498.271786 473.397389 
C 498.271786 472.165096 497.782191 470.983108 496.910828 470.111746 
C 496.039465 469.240383 494.857477 468.750787 493.625184 468.750787 
C 492.392891 468.750787 491.210903 469.240383 490.33954 470.111746 
C 489.468177 470.983108 488.978582 472.165096 488.978582 473.397389 
C 488.978582 474.629682 489.468177 475.81167 490.33954 476.683033 
C 491.210903 477.554396 492.392891 478.043991 493.625184 478.043991 
z
" clip-path="url(#p018d2b19a0)" style="fill: #cc4778; stroke: #ffffff; stroke-width: 0.635133"/>
    <path d="M 602.93811 208.512677 
C 603.773573 208.512677 604.57493 208.180744 605.165692 207.589982 
C 605.756453 206.999221 606.088387 206.197864 606.088387 205.3624 
C 606.088387 204.526937 605.756453 203.72558 605.165692 203.134819 
C 604.57493 202.544057 603.773573 202.212124 602.93811 202.212124 
C 602.102647 202.212124 601.30129 202.544057 600.710528 203.134819 
C 600.119766 203.72558 599.787833 204.526937 599.787833 205.3624 
C 599.787833 206.197864 600.119766 206.999221 600.710528 207.589982 
C 601.30129 208.180744 602.102647 208.512677 602.93811 208.512677 
z
" clip-path="url(#p018d2b19a0)" style="fill: #cc4778; stroke: #ffffff; stroke-width: 0.635133"/>
    <path d="M 165.848112 167.19036 
C 167.472142 167.19036 169.029875 166.545126 170.178239 165.396763 
C 171.326602 164.2484 171.971836 162.690666 171.971836 161.066636 
C 171.971836 159.442605 171.326602 157.884872 170.178239 156.736509 
C 169.029875 155.588146 167.472142 154.942911 165.848112 154.942911 
C 164.224081 154.942911 162.666348 155.588146 161.517985 156.736509 
C 160.369621 157.884872 159.724387 159.442605 159.724387 161.066636 
C 159.724387 162.690666 160.369621 164.2484 161.517985 165.396763 
C 162.666348 166.545126 164.224081 167.19036 165.848112 167.19036 
z
" clip-path="url(#p018d2b19a0)" style="fill: #cc4778; stroke: #ffffff; stroke-width: 0.635133"/>
    <path d="M 179.269669 176.555549 
C 180.8937 176.555549 182.451433 175.910315 183.599796 174.761952 
C 184.748159 173.613589 185.393393 172.055856 185.393393 170.431825 
C 185.393393 168.807794 184.748159 167.250061 183.599796 166.101698 
C 182.451433 164.953335 180.8937 164.308101 179.269669 164.308101 
C 177.645638 164.308101 176.087905 164.953335 174.939542 166.101698 
C 173.791179 167.250061 173.145945 168.807794 173.145945 170.431825 
C 173.145945 172.055856 173.791179 173.613589 174.939542 174.761952 
C 176.087905 175.910315 177.645638 176.555549 179.269669 176.555549 
z
" clip-path="url(#p018d2b19a0)" style="fill: #cc4778; stroke: #ffffff; stroke-width: 0.635133"/>
    <path d="M 126.391967 256.655565 
C 128.015997 256.655565 129.573731 256.01033 130.722094 254.861967 
C 131.870457 253.713604 132.515691 252.155871 132.515691 250.53184 
C 132.515691 248.907809 131.870457 247.350076 130.722094 246.201713 
C 129.573731 245.05335 128.015997 244.408116 126.391967 244.408116 
C 124.767936 244.408116 123.210203 245.05335 122.06184 246.201713 
C 120.913477 247.350076 120.268242 248.907809 120.268242 250.53184 
C 120.268242 252.155871 120.913477 253.713604 122.06184 254.861967 
C 123.210203 256.01033 124.767936 256.655565 126.391967 256.655565 
z
" clip-path="url(#p018d2b19a0)" style="fill: #cc4778; stroke: #ffffff; stroke-width: 0.635133"/>
    <path d="M 318.336409 103.477237 
C 319.929524 103.477237 321.457604 102.844285 322.584106 101.717783 
C 323.710609 100.59128 324.34356 99.063201 324.34356 97.470086 
C 324.34356 95.876971 323.710609 94.348891 322.584106 93.222389 
C 321.457604 92.095887 319.929524 91.462935 318.336409 91.462935 
C 316.743294 91.462935 315.215215 92.095887 314.088712 93.222389 
C 312.96221 94.348891 312.329259 95.876971 312.329259 97.470086 
C 312.329259 99.063201 312.96221 100.59128 314.088712 101.717783 
C 315.215215 102.844285 316.743294 103.477237 318.336409 103.477237 
z
" clip-path="url(#p018d2b19a0)" style="fill: #cc4778; stroke: #ffffff; stroke-width: 0.635133"/>
    <path d="M 147.575389 209.551275 
C 149.199419 209.551275 150.757153 208.906041 151.905516 207.757678 
C 153.053879 206.609315 153.699113 205.051582 153.699113 203.427551 
C 153.699113 201.80352 153.053879 200.245787 151.905516 199.097424 
C 150.757153 197.949061 149.199419 197.303827 147.575389 197.303827 
C 145.951358 197.303827 144.393625 197.949061 143.245262 199.097424 
C 142.096899 200.245787 141.451664 201.80352 141.451664 203.427551 
C 141.451664 205.051582 142.096899 206.609315 143.245262 207.757678 
C 144.393625 208.906041 145.951358 209.551275 147.575389 209.551275 
z
" clip-path="url(#p018d2b19a0)" style="fill: #cc4778; stroke: #ffffff; stroke-width: 0.635133"/>
    <path d="M 138.034764 179.323476 
C 139.658794 179.323476 141.216527 178.678241 142.364891 177.529878 
C 143.513254 176.381515 144.158488 174.823782 144.158488 173.199751 
C 144.158488 171.575721 143.513254 170.017987 142.364891 168.869624 
C 141.216527 167.721261 139.658794 167.076027 138.034764 167.076027 
C 136.410733 167.076027 134.853 167.721261 133.704637 168.869624 
C 132.556273 170.017987 131.911039 171.575721 131.911039 173.199751 
C 131.911039 174.823782 132.556273 176.381515 133.704637 177.529878 
C 134.853 178.678241 136.410733 179.323476 138.034764 179.323476 
z
" clip-path="url(#p018d2b19a0)" style="fill: #cc4778; stroke: #ffffff; stroke-width: 0.635133"/>
    <path d="M 95.344508 257.773207 
C 96.968539 257.773207 98.526272 257.127973 99.674635 255.97961 
C 100.822999 254.831247 101.468233 253.273514 101.468233 251.649483 
C 101.468233 250.025452 100.822999 248.467719 99.674635 247.319356 
C 98.526272 246.170993 96.968539 245.525759 95.344508 245.525759 
C 93.720478 245.525759 92.162745 246.170993 91.014381 247.319356 
C 89.866018 248.467719 89.220784 250.025452 89.220784 251.649483 
C 89.220784 253.273514 89.866018 254.831247 91.014381 255.97961 
C 92.162745 257.127973 93.720478 257.773207 95.344508 257.773207 
z
" clip-path="url(#p018d2b19a0)" style="fill: #cc4778; stroke: #ffffff; stroke-width: 0.635133"/>
    <path d="M 75.293025 258.246512 
C 76.917056 258.246512 78.474789 257.601278 79.623152 256.452915 
C 80.771515 255.304552 81.416749 253.746819 81.416749 252.122788 
C 81.416749 250.498757 80.771515 248.941024 79.623152 247.792661 
C 78.474789 246.644298 76.917056 245.999063 75.293025 245.999063 
C 73.668994 245.999063 72.111261 246.644298 70.962898 247.792661 
C 69.814535 248.941024 69.169301 250.498757 69.169301 252.122788 
C 69.169301 253.746819 69.814535 255.304552 70.962898 256.452915 
C 72.111261 257.601278 73.668994 258.246512 75.293025 258.246512 
z
" clip-path="url(#p018d2b19a0)" style="fill: #cc4778; stroke: #ffffff; stroke-width: 0.635133"/>
    <path d="M 298.284926 62.081793 
C 299.901283 62.081793 301.451656 61.439607 302.594593 60.29667 
C 303.73753 59.153733 304.379716 57.60336 304.379716 55.987003 
C 304.379716 54.370646 303.73753 52.820273 302.594593 51.677336 
C 301.451656 50.534398 299.901283 49.892213 298.284926 49.892213 
C 296.668569 49.892213 295.118196 50.534398 293.975258 51.677336 
C 292.832321 52.820273 292.190136 54.370646 292.190136 55.987003 
C 292.190136 57.60336 292.832321 59.153733 293.975258 60.29667 
C 295.118196 61.439607 296.668569 62.081793 298.284926 62.081793 
z
" clip-path="url(#p018d2b19a0)" style="fill: #cc4778; stroke: #ffffff; stroke-width: 0.635133"/>
    <path d="M 448.02423 271.000575 
C 449.362909 271.000575 450.64694 270.468712 451.593529 269.522122 
C 452.540118 268.575533 453.071981 267.291502 453.071981 265.952823 
C 453.071981 264.614143 452.540118 263.330113 451.593529 262.383523 
C 450.64694 261.436934 449.362909 260.905071 448.02423 260.905071 
C 446.68555 260.905071 445.401519 261.436934 444.45493 262.383523 
C 443.508341 263.330113 442.976478 264.614143 442.976478 265.952823 
C 442.976478 267.291502 443.508341 268.575533 444.45493 269.522122 
C 445.401519 270.468712 446.68555 271.000575 448.02423 271.000575 
z
" clip-path="url(#p018d2b19a0)" style="fill: #cc4778; stroke: #ffffff; stroke-width: 0.635133"/>
    <path d="M 162.29059 177.04606 
C 163.914621 177.04606 165.472354 176.400826 166.620717 175.252463 
C 167.76908 174.1041 168.414315 172.546367 168.414315 170.922336 
C 168.414315 169.298305 167.76908 167.740572 166.620717 166.592209 
C 165.472354 165.443846 163.914621 164.798612 162.29059 164.798612 
C 160.66656 164.798612 159.108826 165.443846 157.960463 166.592209 
C 156.8121 167.740572 156.166866 169.298305 156.166866 170.922336 
C 156.166866 172.546367 156.8121 174.1041 157.960463 175.252463 
C 159.108826 176.400826 160.66656 177.04606 162.29059 177.04606 
z
" clip-path="url(#p018d2b19a0)" style="fill: #cc4778; stroke: #ffffff; stroke-width: 0.635133"/>
    <path d="M 226.002562 91.503562 
C 227.626593 91.503562 229.184326 90.858328 230.332689 89.709965 
C 231.481052 88.561602 232.126286 87.003869 232.126286 85.379838 
C 232.126286 83.755807 231.481052 82.198074 230.332689 81.049711 
C 229.184326 79.901348 227.626593 79.256113 226.002562 79.256113 
C 224.378531 79.256113 222.820798 79.901348 221.672435 81.049711 
C 220.524072 82.198074 219.878838 83.755807 219.878838 85.379838 
C 219.878838 87.003869 220.524072 88.561602 221.672435 89.709965 
C 222.820798 90.858328 224.378531 91.503562 226.002562 91.503562 
z
" clip-path="url(#p018d2b19a0)" style="fill: #cc4778; stroke: #ffffff; stroke-width: 0.635133"/>
    <path d="M 119.600335 260.938385 
C 121.224366 260.938385 122.782099 260.293151 123.930462 259.144788 
C 125.078825 257.996425 125.72406 256.438692 125.72406 254.814661 
C 125.72406 253.19063 125.078825 251.632897 123.930462 250.484534 
C 122.782099 249.336171 121.224366 248.690937 119.600335 248.690937 
C 117.976305 248.690937 116.418571 249.336171 115.270208 250.484534 
C 114.121845 251.632897 113.476611 253.19063 113.476611 254.814661 
C 113.476611 256.438692 114.121845 257.996425 115.270208 259.144788 
C 116.418571 260.293151 117.976305 260.938385 119.600335 260.938385 
z
" clip-path="url(#p018d2b19a0)" style="fill: #cc4778; stroke: #ffffff; stroke-width: 0.635133"/>
   </g>
   <g id="PathCollection_2"/>
   <g id="PathCollection_3"/>
   <g id="PathCollection_4"/>
   <g id="PathCollection_5"/>
   <g id="PathCollection_6"/>
   <g id="PathCollection_7"/>
   <g id="matplotlib.axis_1">
    <g id="xtick_1">
     <g id="line2d_1">
      <defs>
       <path id="m421a0bd707" d="M 0 0 
L 0 3.5 
" style="stroke: #000000; stroke-width: 0.8"/>
      </defs>
      <g>
       <use xlink:href="#m421a0bd707" x="117.120851" y="555.596094" style="stroke: #000000; stroke-width: 0.8"/>
      </g>
     </g>
     <g id="text_1">
      <!-- 400 -->
      <g transform="translate(107.577101 570.194531)scale(0.1 -0.1)">
       <defs>
        <path id="DejaVuSans-34" d="M 2419 4116 
L 825 1625 
L 2419 1625 
L 2419 4116 
z
M 2253 4666 
L 3047 4666 
L 3047 1625 
L 3713 1625 
L 3713 1100 
L 3047 1100 
L 3047 0 
L 2419 0 
L 2419 1100 
L 313 1100 
L 313 1709 
L 2253 4666 
z
" transform="scale(0.015625)"/>
        <path id="DejaVuSans-30" d="M 2034 4250 
Q 1547 4250 1301 3770 
Q 1056 3291 1056 2328 
Q 1056 1369 1301 889 
Q 1547 409 2034 409 
Q 2525 409 2770 889 
Q 3016 1369 3016 2328 
Q 3016 3291 2770 3770 
Q 2525 4250 2034 4250 
z
M 2034 4750 
Q 2819 4750 3233 4129 
Q 3647 3509 3647 2328 
Q 3647 1150 3233 529 
Q 2819 -91 2034 -91 
Q 1250 -91 836 529 
Q 422 1150 422 2328 
Q 422 3509 836 4129 
Q 1250 4750 2034 4750 
z
" transform="scale(0.015625)"/>
       </defs>
       <use xlink:href="#DejaVuSans-34"/>
       <use xlink:href="#DejaVuSans-30" x="63.623047"/>
       <use xlink:href="#DejaVuSans-30" x="127.246094"/>
      </g>
     </g>
    </g>
    <g id="xtick_2">
     <g id="line2d_2">
      <g>
       <use xlink:href="#m421a0bd707" x="251.875444" y="555.596094" style="stroke: #000000; stroke-width: 0.8"/>
      </g>
     </g>
     <g id="text_2">
      <!-- 600 -->
      <g transform="translate(242.331694 570.194531)scale(0.1 -0.1)">
       <defs>
        <path id="DejaVuSans-36" d="M 2113 2584 
Q 1688 2584 1439 2293 
Q 1191 2003 1191 1497 
Q 1191 994 1439 701 
Q 1688 409 2113 409 
Q 2538 409 2786 701 
Q 3034 994 3034 1497 
Q 3034 2003 2786 2293 
Q 2538 2584 2113 2584 
z
M 3366 4563 
L 3366 3988 
Q 3128 4100 2886 4159 
Q 2644 4219 2406 4219 
Q 1781 4219 1451 3797 
Q 1122 3375 1075 2522 
Q 1259 2794 1537 2939 
Q 1816 3084 2150 3084 
Q 2853 3084 3261 2657 
Q 3669 2231 3669 1497 
Q 3669 778 3244 343 
Q 2819 -91 2113 -91 
Q 1303 -91 875 529 
Q 447 1150 447 2328 
Q 447 3434 972 4092 
Q 1497 4750 2381 4750 
Q 2619 4750 2861 4703 
Q 3103 4656 3366 4563 
z
" transform="scale(0.015625)"/>
       </defs>
       <use xlink:href="#DejaVuSans-36"/>
       <use xlink:href="#DejaVuSans-30" x="63.623047"/>
       <use xlink:href="#DejaVuSans-30" x="127.246094"/>
      </g>
     </g>
    </g>
    <g id="xtick_3">
     <g id="line2d_3">
      <g>
       <use xlink:href="#m421a0bd707" x="386.630037" y="555.596094" style="stroke: #000000; stroke-width: 0.8"/>
      </g>
     </g>
     <g id="text_3">
      <!-- 800 -->
      <g transform="translate(377.086287 570.194531)scale(0.1 -0.1)">
       <defs>
        <path id="DejaVuSans-38" d="M 2034 2216 
Q 1584 2216 1326 1975 
Q 1069 1734 1069 1313 
Q 1069 891 1326 650 
Q 1584 409 2034 409 
Q 2484 409 2743 651 
Q 3003 894 3003 1313 
Q 3003 1734 2745 1975 
Q 2488 2216 2034 2216 
z
M 1403 2484 
Q 997 2584 770 2862 
Q 544 3141 544 3541 
Q 544 4100 942 4425 
Q 1341 4750 2034 4750 
Q 2731 4750 3128 4425 
Q 3525 4100 3525 3541 
Q 3525 3141 3298 2862 
Q 3072 2584 2669 2484 
Q 3125 2378 3379 2068 
Q 3634 1759 3634 1313 
Q 3634 634 3220 271 
Q 2806 -91 2034 -91 
Q 1263 -91 848 271 
Q 434 634 434 1313 
Q 434 1759 690 2068 
Q 947 2378 1403 2484 
z
M 1172 3481 
Q 1172 3119 1398 2916 
Q 1625 2713 2034 2713 
Q 2441 2713 2670 2916 
Q 2900 3119 2900 3481 
Q 2900 3844 2670 4047 
Q 2441 4250 2034 4250 
Q 1625 4250 1398 4047 
Q 1172 3844 1172 3481 
z
" transform="scale(0.015625)"/>
       </defs>
       <use xlink:href="#DejaVuSans-38"/>
       <use xlink:href="#DejaVuSans-30" x="63.623047"/>
       <use xlink:href="#DejaVuSans-30" x="127.246094"/>
      </g>
     </g>
    </g>
    <g id="xtick_4">
     <g id="line2d_4">
      <g>
       <use xlink:href="#m421a0bd707" x="521.38463" y="555.596094" style="stroke: #000000; stroke-width: 0.8"/>
      </g>
     </g>
     <g id="text_4">
      <!-- 1000 -->
      <g transform="translate(508.65963 570.194531)scale(0.1 -0.1)">
       <defs>
        <path id="DejaVuSans-31" d="M 794 531 
L 1825 531 
L 1825 4091 
L 703 3866 
L 703 4441 
L 1819 4666 
L 2450 4666 
L 2450 531 
L 3481 531 
L 3481 0 
L 794 0 
L 794 531 
z
" transform="scale(0.015625)"/>
       </defs>
       <use xlink:href="#DejaVuSans-31"/>
       <use xlink:href="#DejaVuSans-30" x="63.623047"/>
       <use xlink:href="#DejaVuSans-30" x="127.246094"/>
       <use xlink:href="#DejaVuSans-30" x="190.869141"/>
      </g>
     </g>
    </g>
    <g id="xtick_5">
     <g id="line2d_5">
      <g>
       <use xlink:href="#m421a0bd707" x="656.139223" y="555.596094" style="stroke: #000000; stroke-width: 0.8"/>
      </g>
     </g>
     <g id="text_5">
      <!-- 1200 -->
      <g transform="translate(643.414223 570.194531)scale(0.1 -0.1)">
       <defs>
        <path id="DejaVuSans-32" d="M 1228 531 
L 3431 531 
L 3431 0 
L 469 0 
L 469 531 
Q 828 903 1448 1529 
Q 2069 2156 2228 2338 
Q 2531 2678 2651 2914 
Q 2772 3150 2772 3378 
Q 2772 3750 2511 3984 
Q 2250 4219 1831 4219 
Q 1534 4219 1204 4116 
Q 875 4013 500 3803 
L 500 4441 
Q 881 4594 1212 4672 
Q 1544 4750 1819 4750 
Q 2544 4750 2975 4387 
Q 3406 4025 3406 3419 
Q 3406 3131 3298 2873 
Q 3191 2616 2906 2266 
Q 2828 2175 2409 1742 
Q 1991 1309 1228 531 
z
" transform="scale(0.015625)"/>
       </defs>
       <use xlink:href="#DejaVuSans-31"/>
       <use xlink:href="#DejaVuSans-32" x="63.623047"/>
       <use xlink:href="#DejaVuSans-30" x="127.246094"/>
       <use xlink:href="#DejaVuSans-30" x="190.869141"/>
      </g>
     </g>
    </g>
    <g id="text_6">
     <!-- Treatment Duration [hours] -->
     <g transform="translate(271.368978 587.671875)scale(0.15 -0.15)">
      <defs>
       <path id="DejaVuSans-54" d="M -19 4666 
L 3928 4666 
L 3928 4134 
L 2272 4134 
L 2272 0 
L 1638 0 
L 1638 4134 
L -19 4134 
L -19 4666 
z
" transform="scale(0.015625)"/>
       <path id="DejaVuSans-72" d="M 2631 2963 
Q 2534 3019 2420 3045 
Q 2306 3072 2169 3072 
Q 1681 3072 1420 2755 
Q 1159 2438 1159 1844 
L 1159 0 
L 581 0 
L 581 3500 
L 1159 3500 
L 1159 2956 
Q 1341 3275 1631 3429 
Q 1922 3584 2338 3584 
Q 2397 3584 2469 3576 
Q 2541 3569 2628 3553 
L 2631 2963 
z
" transform="scale(0.015625)"/>
       <path id="DejaVuSans-65" d="M 3597 1894 
L 3597 1613 
L 953 1613 
Q 991 1019 1311 708 
Q 1631 397 2203 397 
Q 2534 397 2845 478 
Q 3156 559 3463 722 
L 3463 178 
Q 3153 47 2828 -22 
Q 2503 -91 2169 -91 
Q 1331 -91 842 396 
Q 353 884 353 1716 
Q 353 2575 817 3079 
Q 1281 3584 2069 3584 
Q 2775 3584 3186 3129 
Q 3597 2675 3597 1894 
z
M 3022 2063 
Q 3016 2534 2758 2815 
Q 2500 3097 2075 3097 
Q 1594 3097 1305 2825 
Q 1016 2553 972 2059 
L 3022 2063 
z
" transform="scale(0.015625)"/>
       <path id="DejaVuSans-61" d="M 2194 1759 
Q 1497 1759 1228 1600 
Q 959 1441 959 1056 
Q 959 750 1161 570 
Q 1363 391 1709 391 
Q 2188 391 2477 730 
Q 2766 1069 2766 1631 
L 2766 1759 
L 2194 1759 
z
M 3341 1997 
L 3341 0 
L 2766 0 
L 2766 531 
Q 2569 213 2275 61 
Q 1981 -91 1556 -91 
Q 1019 -91 701 211 
Q 384 513 384 1019 
Q 384 1609 779 1909 
Q 1175 2209 1959 2209 
L 2766 2209 
L 2766 2266 
Q 2766 2663 2505 2880 
Q 2244 3097 1772 3097 
Q 1472 3097 1187 3025 
Q 903 2953 641 2809 
L 641 3341 
Q 956 3463 1253 3523 
Q 1550 3584 1831 3584 
Q 2591 3584 2966 3190 
Q 3341 2797 3341 1997 
z
" transform="scale(0.015625)"/>
       <path id="DejaVuSans-74" d="M 1172 4494 
L 1172 3500 
L 2356 3500 
L 2356 3053 
L 1172 3053 
L 1172 1153 
Q 1172 725 1289 603 
Q 1406 481 1766 481 
L 2356 481 
L 2356 0 
L 1766 0 
Q 1100 0 847 248 
Q 594 497 594 1153 
L 594 3053 
L 172 3053 
L 172 3500 
L 594 3500 
L 594 4494 
L 1172 4494 
z
" transform="scale(0.015625)"/>
       <path id="DejaVuSans-6d" d="M 3328 2828 
Q 3544 3216 3844 3400 
Q 4144 3584 4550 3584 
Q 5097 3584 5394 3201 
Q 5691 2819 5691 2113 
L 5691 0 
L 5113 0 
L 5113 2094 
Q 5113 2597 4934 2840 
Q 4756 3084 4391 3084 
Q 3944 3084 3684 2787 
Q 3425 2491 3425 1978 
L 3425 0 
L 2847 0 
L 2847 2094 
Q 2847 2600 2669 2842 
Q 2491 3084 2119 3084 
Q 1678 3084 1418 2786 
Q 1159 2488 1159 1978 
L 1159 0 
L 581 0 
L 581 3500 
L 1159 3500 
L 1159 2956 
Q 1356 3278 1631 3431 
Q 1906 3584 2284 3584 
Q 2666 3584 2933 3390 
Q 3200 3197 3328 2828 
z
" transform="scale(0.015625)"/>
       <path id="DejaVuSans-6e" d="M 3513 2113 
L 3513 0 
L 2938 0 
L 2938 2094 
Q 2938 2591 2744 2837 
Q 2550 3084 2163 3084 
Q 1697 3084 1428 2787 
Q 1159 2491 1159 1978 
L 1159 0 
L 581 0 
L 581 3500 
L 1159 3500 
L 1159 2956 
Q 1366 3272 1645 3428 
Q 1925 3584 2291 3584 
Q 2894 3584 3203 3211 
Q 3513 2838 3513 2113 
z
" transform="scale(0.015625)"/>
       <path id="DejaVuSans-20" transform="scale(0.015625)"/>
       <path id="DejaVuSans-44" d="M 1259 4147 
L 1259 519 
L 2022 519 
Q 2988 519 3436 956 
Q 3884 1394 3884 2338 
Q 3884 3275 3436 3711 
Q 2988 4147 2022 4147 
L 1259 4147 
z
M 628 4666 
L 1925 4666 
Q 3281 4666 3915 4102 
Q 4550 3538 4550 2338 
Q 4550 1131 3912 565 
Q 3275 0 1925 0 
L 628 0 
L 628 4666 
z
" transform="scale(0.015625)"/>
       <path id="DejaVuSans-75" d="M 544 1381 
L 544 3500 
L 1119 3500 
L 1119 1403 
Q 1119 906 1312 657 
Q 1506 409 1894 409 
Q 2359 409 2629 706 
Q 2900 1003 2900 1516 
L 2900 3500 
L 3475 3500 
L 3475 0 
L 2900 0 
L 2900 538 
Q 2691 219 2414 64 
Q 2138 -91 1772 -91 
Q 1169 -91 856 284 
Q 544 659 544 1381 
z
M 1991 3584 
L 1991 3584 
z
" transform="scale(0.015625)"/>
       <path id="DejaVuSans-69" d="M 603 3500 
L 1178 3500 
L 1178 0 
L 603 0 
L 603 3500 
z
M 603 4863 
L 1178 4863 
L 1178 4134 
L 603 4134 
L 603 4863 
z
" transform="scale(0.015625)"/>
       <path id="DejaVuSans-6f" d="M 1959 3097 
Q 1497 3097 1228 2736 
Q 959 2375 959 1747 
Q 959 1119 1226 758 
Q 1494 397 1959 397 
Q 2419 397 2687 759 
Q 2956 1122 2956 1747 
Q 2956 2369 2687 2733 
Q 2419 3097 1959 3097 
z
M 1959 3584 
Q 2709 3584 3137 3096 
Q 3566 2609 3566 1747 
Q 3566 888 3137 398 
Q 2709 -91 1959 -91 
Q 1206 -91 779 398 
Q 353 888 353 1747 
Q 353 2609 779 3096 
Q 1206 3584 1959 3584 
z
" transform="scale(0.015625)"/>
       <path id="DejaVuSans-5b" d="M 550 4863 
L 1875 4863 
L 1875 4416 
L 1125 4416 
L 1125 -397 
L 1875 -397 
L 1875 -844 
L 550 -844 
L 550 4863 
z
" transform="scale(0.015625)"/>
       <path id="DejaVuSans-68" d="M 3513 2113 
L 3513 0 
L 2938 0 
L 2938 2094 
Q 2938 2591 2744 2837 
Q 2550 3084 2163 3084 
Q 1697 3084 1428 2787 
Q 1159 2491 1159 1978 
L 1159 0 
L 581 0 
L 581 4863 
L 1159 4863 
L 1159 2956 
Q 1366 3272 1645 3428 
Q 1925 3584 2291 3584 
Q 2894 3584 3203 3211 
Q 3513 2838 3513 2113 
z
" transform="scale(0.015625)"/>
       <path id="DejaVuSans-73" d="M 2834 3397 
L 2834 2853 
Q 2591 2978 2328 3040 
Q 2066 3103 1784 3103 
Q 1356 3103 1142 2972 
Q 928 2841 928 2578 
Q 928 2378 1081 2264 
Q 1234 2150 1697 2047 
L 1894 2003 
Q 2506 1872 2764 1633 
Q 3022 1394 3022 966 
Q 3022 478 2636 193 
Q 2250 -91 1575 -91 
Q 1294 -91 989 -36 
Q 684 19 347 128 
L 347 722 
Q 666 556 975 473 
Q 1284 391 1588 391 
Q 1994 391 2212 530 
Q 2431 669 2431 922 
Q 2431 1156 2273 1281 
Q 2116 1406 1581 1522 
L 1381 1569 
Q 847 1681 609 1914 
Q 372 2147 372 2553 
Q 372 3047 722 3315 
Q 1072 3584 1716 3584 
Q 2034 3584 2315 3537 
Q 2597 3491 2834 3397 
z
" transform="scale(0.015625)"/>
       <path id="DejaVuSans-5d" d="M 1947 4863 
L 1947 -844 
L 622 -844 
L 622 -397 
L 1369 -397 
L 1369 4416 
L 622 4416 
L 622 4863 
L 1947 4863 
z
" transform="scale(0.015625)"/>
      </defs>
      <use xlink:href="#DejaVuSans-54"/>
      <use xlink:href="#DejaVuSans-72" x="46.333984"/>
      <use xlink:href="#DejaVuSans-65" x="85.197266"/>
      <use xlink:href="#DejaVuSans-61" x="146.720703"/>
      <use xlink:href="#DejaVuSans-74" x="208"/>
      <use xlink:href="#DejaVuSans-6d" x="247.208984"/>
      <use xlink:href="#DejaVuSans-65" x="344.621094"/>
      <use xlink:href="#DejaVuSans-6e" x="406.144531"/>
      <use xlink:href="#DejaVuSans-74" x="469.523438"/>
      <use xlink:href="#DejaVuSans-20" x="508.732422"/>
      <use xlink:href="#DejaVuSans-44" x="540.519531"/>
      <use xlink:href="#DejaVuSans-75" x="617.521484"/>
      <use xlink:href="#DejaVuSans-72" x="680.900391"/>
      <use xlink:href="#DejaVuSans-61" x="722.013672"/>
      <use xlink:href="#DejaVuSans-74" x="783.292969"/>
      <use xlink:href="#DejaVuSans-69" x="822.501953"/>
      <use xlink:href="#DejaVuSans-6f" x="850.285156"/>
      <use xlink:href="#DejaVuSans-6e" x="911.466797"/>
      <use xlink:href="#DejaVuSans-20" x="974.845703"/>
      <use xlink:href="#DejaVuSans-5b" x="1006.632812"/>
      <use xlink:href="#DejaVuSans-68" x="1045.646484"/>
      <use xlink:href="#DejaVuSans-6f" x="1109.025391"/>
      <use xlink:href="#DejaVuSans-75" x="1170.207031"/>
      <use xlink:href="#DejaVuSans-72" x="1233.585938"/>
      <use xlink:href="#DejaVuSans-73" x="1274.699219"/>
      <use xlink:href="#DejaVuSans-5d" x="1326.798828"/>
     </g>
    </g>
   </g>
   <g id="matplotlib.axis_2">
    <g id="ytick_1">
     <g id="line2d_6">
      <path d="M 45.442188 149.508402 
L 702.160612 149.508402 
" clip-path="url(#p018d2b19a0)" style="fill: none; stroke: #b0b0b0; stroke-opacity: 0.5; stroke-width: 0.8; stroke-linecap: square"/>
     </g>
     <g id="line2d_7">
      <defs>
       <path id="m1540327c0c" d="M 0 0 
L -3.5 0 
" style="stroke: #000000; stroke-width: 0.8"/>
      </defs>
      <g>
       <use xlink:href="#m1540327c0c" x="45.442188" y="149.508402" style="stroke: #000000; stroke-width: 0.8"/>
      </g>
     </g>
     <g id="text_7">
      <!-- 90 -->
      <g transform="translate(25.717188 153.307621)scale(0.1 -0.1)">
       <defs>
        <path id="DejaVuSans-39" d="M 703 97 
L 703 672 
Q 941 559 1184 500 
Q 1428 441 1663 441 
Q 2288 441 2617 861 
Q 2947 1281 2994 2138 
Q 2813 1869 2534 1725 
Q 2256 1581 1919 1581 
Q 1219 1581 811 2004 
Q 403 2428 403 3163 
Q 403 3881 828 4315 
Q 1253 4750 1959 4750 
Q 2769 4750 3195 4129 
Q 3622 3509 3622 2328 
Q 3622 1225 3098 567 
Q 2575 -91 1691 -91 
Q 1453 -91 1209 -44 
Q 966 3 703 97 
z
M 1959 2075 
Q 2384 2075 2632 2365 
Q 2881 2656 2881 3163 
Q 2881 3666 2632 3958 
Q 2384 4250 1959 4250 
Q 1534 4250 1286 3958 
Q 1038 3666 1038 3163 
Q 1038 2656 1286 2365 
Q 1534 2075 1959 2075 
z
" transform="scale(0.015625)"/>
       </defs>
       <use xlink:href="#DejaVuSans-39"/>
       <use xlink:href="#DejaVuSans-30" x="63.623047"/>
      </g>
     </g>
    </g>
    <g id="ytick_2">
     <g id="line2d_8">
      <path d="M 45.442188 139.5346 
L 702.160612 139.5346 
" clip-path="url(#p018d2b19a0)" style="fill: none; stroke: #b0b0b0; stroke-opacity: 0.5; stroke-width: 0.8; stroke-linecap: square"/>
     </g>
     <g id="line2d_9">
      <g>
       <use xlink:href="#m1540327c0c" x="45.442188" y="139.5346" style="stroke: #000000; stroke-width: 0.8"/>
      </g>
     </g>
     <g id="text_8">
      <!-- 91 -->
      <g transform="translate(25.717188 143.333818)scale(0.1 -0.1)">
       <use xlink:href="#DejaVuSans-39"/>
       <use xlink:href="#DejaVuSans-31" x="63.623047"/>
      </g>
     </g>
    </g>
    <g id="ytick_3">
     <g id="line2d_10">
      <path d="M 45.442188 129.560797 
L 702.160612 129.560797 
" clip-path="url(#p018d2b19a0)" style="fill: none; stroke: #b0b0b0; stroke-opacity: 0.5; stroke-width: 0.8; stroke-linecap: square"/>
     </g>
     <g id="line2d_11">
      <g>
       <use xlink:href="#m1540327c0c" x="45.442188" y="129.560797" style="stroke: #000000; stroke-width: 0.8"/>
      </g>
     </g>
     <g id="text_9">
      <!-- 92 -->
      <g transform="translate(25.717188 133.360016)scale(0.1 -0.1)">
       <use xlink:href="#DejaVuSans-39"/>
       <use xlink:href="#DejaVuSans-32" x="63.623047"/>
      </g>
     </g>
    </g>
    <g id="ytick_4">
     <g id="line2d_12">
      <path d="M 45.442188 119.586994 
L 702.160612 119.586994 
" clip-path="url(#p018d2b19a0)" style="fill: none; stroke: #b0b0b0; stroke-opacity: 0.5; stroke-width: 0.8; stroke-linecap: square"/>
     </g>
     <g id="line2d_13">
      <g>
       <use xlink:href="#m1540327c0c" x="45.442188" y="119.586994" style="stroke: #000000; stroke-width: 0.8"/>
      </g>
     </g>
     <g id="text_10">
      <!-- 93 -->
      <g transform="translate(25.717188 123.386213)scale(0.1 -0.1)">
       <defs>
        <path id="DejaVuSans-33" d="M 2597 2516 
Q 3050 2419 3304 2112 
Q 3559 1806 3559 1356 
Q 3559 666 3084 287 
Q 2609 -91 1734 -91 
Q 1441 -91 1130 -33 
Q 819 25 488 141 
L 488 750 
Q 750 597 1062 519 
Q 1375 441 1716 441 
Q 2309 441 2620 675 
Q 2931 909 2931 1356 
Q 2931 1769 2642 2001 
Q 2353 2234 1838 2234 
L 1294 2234 
L 1294 2753 
L 1863 2753 
Q 2328 2753 2575 2939 
Q 2822 3125 2822 3475 
Q 2822 3834 2567 4026 
Q 2313 4219 1838 4219 
Q 1578 4219 1281 4162 
Q 984 4106 628 3988 
L 628 4550 
Q 988 4650 1302 4700 
Q 1616 4750 1894 4750 
Q 2613 4750 3031 4423 
Q 3450 4097 3450 3541 
Q 3450 3153 3228 2886 
Q 3006 2619 2597 2516 
z
" transform="scale(0.015625)"/>
       </defs>
       <use xlink:href="#DejaVuSans-39"/>
       <use xlink:href="#DejaVuSans-33" x="63.623047"/>
      </g>
     </g>
    </g>
    <g id="ytick_5">
     <g id="line2d_14">
      <path d="M 45.442188 109.613192 
L 702.160612 109.613192 
" clip-path="url(#p018d2b19a0)" style="fill: none; stroke: #b0b0b0; stroke-opacity: 0.5; stroke-width: 0.8; stroke-linecap: square"/>
     </g>
     <g id="line2d_15">
      <g>
       <use xlink:href="#m1540327c0c" x="45.442188" y="109.613192" style="stroke: #000000; stroke-width: 0.8"/>
      </g>
     </g>
     <g id="text_11">
      <!-- 94 -->
      <g transform="translate(25.717188 113.412411)scale(0.1 -0.1)">
       <use xlink:href="#DejaVuSans-39"/>
       <use xlink:href="#DejaVuSans-34" x="63.623047"/>
      </g>
     </g>
    </g>
    <g id="ytick_6">
     <g id="line2d_16">
      <path d="M 45.442188 99.639389 
L 702.160612 99.639389 
" clip-path="url(#p018d2b19a0)" style="fill: none; stroke: #b0b0b0; stroke-opacity: 0.5; stroke-width: 0.8; stroke-linecap: square"/>
     </g>
     <g id="line2d_17">
      <g>
       <use xlink:href="#m1540327c0c" x="45.442188" y="99.639389" style="stroke: #000000; stroke-width: 0.8"/>
      </g>
     </g>
     <g id="text_12">
      <!-- 95 -->
      <g transform="translate(25.717188 103.438608)scale(0.1 -0.1)">
       <defs>
        <path id="DejaVuSans-35" d="M 691 4666 
L 3169 4666 
L 3169 4134 
L 1269 4134 
L 1269 2991 
Q 1406 3038 1543 3061 
Q 1681 3084 1819 3084 
Q 2600 3084 3056 2656 
Q 3513 2228 3513 1497 
Q 3513 744 3044 326 
Q 2575 -91 1722 -91 
Q 1428 -91 1123 -41 
Q 819 9 494 109 
L 494 744 
Q 775 591 1075 516 
Q 1375 441 1709 441 
Q 2250 441 2565 725 
Q 2881 1009 2881 1497 
Q 2881 1984 2565 2268 
Q 2250 2553 1709 2553 
Q 1456 2553 1204 2497 
Q 953 2441 691 2322 
L 691 4666 
z
" transform="scale(0.015625)"/>
       </defs>
       <use xlink:href="#DejaVuSans-39"/>
       <use xlink:href="#DejaVuSans-35" x="63.623047"/>
      </g>
     </g>
    </g>
    <g id="ytick_7">
     <g id="line2d_18">
      <path d="M 45.442188 89.665587 
L 702.160612 89.665587 
" clip-path="url(#p018d2b19a0)" style="fill: none; stroke: #b0b0b0; stroke-opacity: 0.5; stroke-width: 0.8; stroke-linecap: square"/>
     </g>
     <g id="line2d_19">
      <g>
       <use xlink:href="#m1540327c0c" x="45.442188" y="89.665587" style="stroke: #000000; stroke-width: 0.8"/>
      </g>
     </g>
     <g id="text_13">
      <!-- 96 -->
      <g transform="translate(25.717188 93.464805)scale(0.1 -0.1)">
       <use xlink:href="#DejaVuSans-39"/>
       <use xlink:href="#DejaVuSans-36" x="63.623047"/>
      </g>
     </g>
    </g>
    <g id="ytick_8">
     <g id="line2d_20">
      <path d="M 45.442188 79.691784 
L 702.160612 79.691784 
" clip-path="url(#p018d2b19a0)" style="fill: none; stroke: #b0b0b0; stroke-opacity: 0.5; stroke-width: 0.8; stroke-linecap: square"/>
     </g>
     <g id="line2d_21">
      <g>
       <use xlink:href="#m1540327c0c" x="45.442188" y="79.691784" style="stroke: #000000; stroke-width: 0.8"/>
      </g>
     </g>
     <g id="text_14">
      <!-- 97 -->
      <g transform="translate(25.717188 83.491003)scale(0.1 -0.1)">
       <defs>
        <path id="DejaVuSans-37" d="M 525 4666 
L 3525 4666 
L 3525 4397 
L 1831 0 
L 1172 0 
L 2766 4134 
L 525 4134 
L 525 4666 
z
" transform="scale(0.015625)"/>
       </defs>
       <use xlink:href="#DejaVuSans-39"/>
       <use xlink:href="#DejaVuSans-37" x="63.623047"/>
      </g>
     </g>
    </g>
    <g id="ytick_9">
     <g id="line2d_22">
      <path d="M 45.442188 69.717981 
L 702.160612 69.717981 
" clip-path="url(#p018d2b19a0)" style="fill: none; stroke: #b0b0b0; stroke-opacity: 0.5; stroke-width: 0.8; stroke-linecap: square"/>
     </g>
     <g id="line2d_23">
      <g>
       <use xlink:href="#m1540327c0c" x="45.442188" y="69.717981" style="stroke: #000000; stroke-width: 0.8"/>
      </g>
     </g>
     <g id="text_15">
      <!-- 98 -->
      <g transform="translate(25.717188 73.5172)scale(0.1 -0.1)">
       <use xlink:href="#DejaVuSans-39"/>
       <use xlink:href="#DejaVuSans-38" x="63.623047"/>
      </g>
     </g>
    </g>
    <g id="ytick_10">
     <g id="line2d_24">
      <path d="M 45.442188 59.744179 
L 702.160612 59.744179 
" clip-path="url(#p018d2b19a0)" style="fill: none; stroke: #b0b0b0; stroke-opacity: 0.5; stroke-width: 0.8; stroke-linecap: square"/>
     </g>
     <g id="line2d_25">
      <g>
       <use xlink:href="#m1540327c0c" x="45.442188" y="59.744179" style="stroke: #000000; stroke-width: 0.8"/>
      </g>
     </g>
     <g id="text_16">
      <!-- 99 -->
      <g transform="translate(25.717188 63.543397)scale(0.1 -0.1)">
       <use xlink:href="#DejaVuSans-39"/>
       <use xlink:href="#DejaVuSans-39" x="63.623047"/>
      </g>
     </g>
    </g>
    <g id="text_17">
     <!-- Survival Percentage [%] -->
     <g transform="translate(18.597656 384.064844)rotate(-90)scale(0.15 -0.15)">
      <defs>
       <path id="DejaVuSans-53" d="M 3425 4513 
L 3425 3897 
Q 3066 4069 2747 4153 
Q 2428 4238 2131 4238 
Q 1616 4238 1336 4038 
Q 1056 3838 1056 3469 
Q 1056 3159 1242 3001 
Q 1428 2844 1947 2747 
L 2328 2669 
Q 3034 2534 3370 2195 
Q 3706 1856 3706 1288 
Q 3706 609 3251 259 
Q 2797 -91 1919 -91 
Q 1588 -91 1214 -16 
Q 841 59 441 206 
L 441 856 
Q 825 641 1194 531 
Q 1563 422 1919 422 
Q 2459 422 2753 634 
Q 3047 847 3047 1241 
Q 3047 1584 2836 1778 
Q 2625 1972 2144 2069 
L 1759 2144 
Q 1053 2284 737 2584 
Q 422 2884 422 3419 
Q 422 4038 858 4394 
Q 1294 4750 2059 4750 
Q 2388 4750 2728 4690 
Q 3069 4631 3425 4513 
z
" transform="scale(0.015625)"/>
       <path id="DejaVuSans-76" d="M 191 3500 
L 800 3500 
L 1894 563 
L 2988 3500 
L 3597 3500 
L 2284 0 
L 1503 0 
L 191 3500 
z
" transform="scale(0.015625)"/>
       <path id="DejaVuSans-6c" d="M 603 4863 
L 1178 4863 
L 1178 0 
L 603 0 
L 603 4863 
z
" transform="scale(0.015625)"/>
       <path id="DejaVuSans-50" d="M 1259 4147 
L 1259 2394 
L 2053 2394 
Q 2494 2394 2734 2622 
Q 2975 2850 2975 3272 
Q 2975 3691 2734 3919 
Q 2494 4147 2053 4147 
L 1259 4147 
z
M 628 4666 
L 2053 4666 
Q 2838 4666 3239 4311 
Q 3641 3956 3641 3272 
Q 3641 2581 3239 2228 
Q 2838 1875 2053 1875 
L 1259 1875 
L 1259 0 
L 628 0 
L 628 4666 
z
" transform="scale(0.015625)"/>
       <path id="DejaVuSans-63" d="M 3122 3366 
L 3122 2828 
Q 2878 2963 2633 3030 
Q 2388 3097 2138 3097 
Q 1578 3097 1268 2742 
Q 959 2388 959 1747 
Q 959 1106 1268 751 
Q 1578 397 2138 397 
Q 2388 397 2633 464 
Q 2878 531 3122 666 
L 3122 134 
Q 2881 22 2623 -34 
Q 2366 -91 2075 -91 
Q 1284 -91 818 406 
Q 353 903 353 1747 
Q 353 2603 823 3093 
Q 1294 3584 2113 3584 
Q 2378 3584 2631 3529 
Q 2884 3475 3122 3366 
z
" transform="scale(0.015625)"/>
       <path id="DejaVuSans-67" d="M 2906 1791 
Q 2906 2416 2648 2759 
Q 2391 3103 1925 3103 
Q 1463 3103 1205 2759 
Q 947 2416 947 1791 
Q 947 1169 1205 825 
Q 1463 481 1925 481 
Q 2391 481 2648 825 
Q 2906 1169 2906 1791 
z
M 3481 434 
Q 3481 -459 3084 -895 
Q 2688 -1331 1869 -1331 
Q 1566 -1331 1297 -1286 
Q 1028 -1241 775 -1147 
L 775 -588 
Q 1028 -725 1275 -790 
Q 1522 -856 1778 -856 
Q 2344 -856 2625 -561 
Q 2906 -266 2906 331 
L 2906 616 
Q 2728 306 2450 153 
Q 2172 0 1784 0 
Q 1141 0 747 490 
Q 353 981 353 1791 
Q 353 2603 747 3093 
Q 1141 3584 1784 3584 
Q 2172 3584 2450 3431 
Q 2728 3278 2906 2969 
L 2906 3500 
L 3481 3500 
L 3481 434 
z
" transform="scale(0.015625)"/>
       <path id="DejaVuSans-25" d="M 4653 2053 
Q 4381 2053 4226 1822 
Q 4072 1591 4072 1178 
Q 4072 772 4226 539 
Q 4381 306 4653 306 
Q 4919 306 5073 539 
Q 5228 772 5228 1178 
Q 5228 1588 5073 1820 
Q 4919 2053 4653 2053 
z
M 4653 2450 
Q 5147 2450 5437 2106 
Q 5728 1763 5728 1178 
Q 5728 594 5436 251 
Q 5144 -91 4653 -91 
Q 4153 -91 3862 251 
Q 3572 594 3572 1178 
Q 3572 1766 3864 2108 
Q 4156 2450 4653 2450 
z
M 1428 4353 
Q 1159 4353 1004 4120 
Q 850 3888 850 3481 
Q 850 3069 1003 2837 
Q 1156 2606 1428 2606 
Q 1700 2606 1854 2837 
Q 2009 3069 2009 3481 
Q 2009 3884 1853 4118 
Q 1697 4353 1428 4353 
z
M 4250 4750 
L 4750 4750 
L 1831 -91 
L 1331 -91 
L 4250 4750 
z
M 1428 4750 
Q 1922 4750 2215 4408 
Q 2509 4066 2509 3481 
Q 2509 2891 2217 2550 
Q 1925 2209 1428 2209 
Q 931 2209 642 2551 
Q 353 2894 353 3481 
Q 353 4063 643 4406 
Q 934 4750 1428 4750 
z
" transform="scale(0.015625)"/>
      </defs>
      <use xlink:href="#DejaVuSans-53"/>
      <use xlink:href="#DejaVuSans-75" x="63.476562"/>
      <use xlink:href="#DejaVuSans-72" x="126.855469"/>
      <use xlink:href="#DejaVuSans-76" x="167.96875"/>
      <use xlink:href="#DejaVuSans-69" x="227.148438"/>
      <use xlink:href="#DejaVuSans-76" x="254.931641"/>
      <use xlink:href="#DejaVuSans-61" x="314.111328"/>
      <use xlink:href="#DejaVuSans-6c" x="375.390625"/>
      <use xlink:href="#DejaVuSans-20" x="403.173828"/>
      <use xlink:href="#DejaVuSans-50" x="434.960938"/>
      <use xlink:href="#DejaVuSans-65" x="491.638672"/>
      <use xlink:href="#DejaVuSans-72" x="553.162109"/>
      <use xlink:href="#DejaVuSans-63" x="592.025391"/>
      <use xlink:href="#DejaVuSans-65" x="647.005859"/>
      <use xlink:href="#DejaVuSans-6e" x="708.529297"/>
      <use xlink:href="#DejaVuSans-74" x="771.908203"/>
      <use xlink:href="#DejaVuSans-61" x="811.117188"/>
      <use xlink:href="#DejaVuSans-67" x="872.396484"/>
      <use xlink:href="#DejaVuSans-65" x="935.873047"/>
      <use xlink:href="#DejaVuSans-20" x="997.396484"/>
      <use xlink:href="#DejaVuSans-5b" x="1029.183594"/>
      <use xlink:href="#DejaVuSans-25" x="1068.197266"/>
      <use xlink:href="#DejaVuSans-5d" x="1163.216797"/>
     </g>
    </g>
   </g>
   <g id="patch_3">
    <path d="M 45.442188 555.596094 
L 45.442188 32.196094 
" style="fill: none; stroke: #000000; stroke-width: 0.8; stroke-linejoin: miter; stroke-linecap: square"/>
   </g>
   <g id="patch_4">
    <path d="M 45.442187 555.596094 
L 702.160612 555.596094 
" style="fill: none; stroke: #000000; stroke-width: 0.8; stroke-linejoin: miter; stroke-linecap: square"/>
   </g>
   <g id="text_18">
    <!-- Survival Percentage w.r.t. duration treatment time -->
    <g transform="translate(59.79554 26.196094)scale(0.25 -0.25)">
     <defs>
      <path id="DejaVuSans-77" d="M 269 3500 
L 844 3500 
L 1563 769 
L 2278 3500 
L 2956 3500 
L 3675 769 
L 4391 3500 
L 4966 3500 
L 4050 0 
L 3372 0 
L 2619 2869 
L 1863 0 
L 1184 0 
L 269 3500 
z
" transform="scale(0.015625)"/>
      <path id="DejaVuSans-2e" d="M 684 794 
L 1344 794 
L 1344 0 
L 684 0 
L 684 794 
z
" transform="scale(0.015625)"/>
      <path id="DejaVuSans-64" d="M 2906 2969 
L 2906 4863 
L 3481 4863 
L 3481 0 
L 2906 0 
L 2906 525 
Q 2725 213 2448 61 
Q 2172 -91 1784 -91 
Q 1150 -91 751 415 
Q 353 922 353 1747 
Q 353 2572 751 3078 
Q 1150 3584 1784 3584 
Q 2172 3584 2448 3432 
Q 2725 3281 2906 2969 
z
M 947 1747 
Q 947 1113 1208 752 
Q 1469 391 1925 391 
Q 2381 391 2643 752 
Q 2906 1113 2906 1747 
Q 2906 2381 2643 2742 
Q 2381 3103 1925 3103 
Q 1469 3103 1208 2742 
Q 947 2381 947 1747 
z
" transform="scale(0.015625)"/>
     </defs>
     <use xlink:href="#DejaVuSans-53"/>
     <use xlink:href="#DejaVuSans-75" x="63.476562"/>
     <use xlink:href="#DejaVuSans-72" x="126.855469"/>
     <use xlink:href="#DejaVuSans-76" x="167.96875"/>
     <use xlink:href="#DejaVuSans-69" x="227.148438"/>
     <use xlink:href="#DejaVuSans-76" x="254.931641"/>
     <use xlink:href="#DejaVuSans-61" x="314.111328"/>
     <use xlink:href="#DejaVuSans-6c" x="375.390625"/>
     <use xlink:href="#DejaVuSans-20" x="403.173828"/>
     <use xlink:href="#DejaVuSans-50" x="434.960938"/>
     <use xlink:href="#DejaVuSans-65" x="491.638672"/>
     <use xlink:href="#DejaVuSans-72" x="553.162109"/>
     <use xlink:href="#DejaVuSans-63" x="592.025391"/>
     <use xlink:href="#DejaVuSans-65" x="647.005859"/>
     <use xlink:href="#DejaVuSans-6e" x="708.529297"/>
     <use xlink:href="#DejaVuSans-74" x="771.908203"/>
     <use xlink:href="#DejaVuSans-61" x="811.117188"/>
     <use xlink:href="#DejaVuSans-67" x="872.396484"/>
     <use xlink:href="#DejaVuSans-65" x="935.873047"/>
     <use xlink:href="#DejaVuSans-20" x="997.396484"/>
     <use xlink:href="#DejaVuSans-77" x="1029.183594"/>
     <use xlink:href="#DejaVuSans-2e" x="1101.845703"/>
     <use xlink:href="#DejaVuSans-72" x="1133.632812"/>
     <use xlink:href="#DejaVuSans-2e" x="1165.621094"/>
     <use xlink:href="#DejaVuSans-74" x="1197.408203"/>
     <use xlink:href="#DejaVuSans-2e" x="1236.617188"/>
     <use xlink:href="#DejaVuSans-20" x="1268.404297"/>
     <use xlink:href="#DejaVuSans-64" x="1300.191406"/>
     <use xlink:href="#DejaVuSans-75" x="1363.667969"/>
     <use xlink:href="#DejaVuSans-72" x="1427.046875"/>
     <use xlink:href="#DejaVuSans-61" x="1468.160156"/>
     <use xlink:href="#DejaVuSans-74" x="1529.439453"/>
     <use xlink:href="#DejaVuSans-69" x="1568.648438"/>
     <use xlink:href="#DejaVuSans-6f" x="1596.431641"/>
     <use xlink:href="#DejaVuSans-6e" x="1657.613281"/>
     <use xlink:href="#DejaVuSans-20" x="1720.992188"/>
     <use xlink:href="#DejaVuSans-74" x="1752.779297"/>
     <use xlink:href="#DejaVuSans-72" x="1791.988281"/>
     <use xlink:href="#DejaVuSans-65" x="1830.851562"/>
     <use xlink:href="#DejaVuSans-61" x="1892.375"/>
     <use xlink:href="#DejaVuSans-74" x="1953.654297"/>
     <use xlink:href="#DejaVuSans-6d" x="1992.863281"/>
     <use xlink:href="#DejaVuSans-65" x="2090.275391"/>
     <use xlink:href="#DejaVuSans-6e" x="2151.798828"/>
     <use xlink:href="#DejaVuSans-74" x="2215.177734"/>
     <use xlink:href="#DejaVuSans-20" x="2254.386719"/>
     <use xlink:href="#DejaVuSans-74" x="2286.173828"/>
     <use xlink:href="#DejaVuSans-69" x="2325.382812"/>
     <use xlink:href="#DejaVuSans-6d" x="2353.166016"/>
     <use xlink:href="#DejaVuSans-65" x="2450.578125"/>
    </g>
   </g>
  </g>
  <g id="legend_1">
   <g id="text_19">
    <!-- Agent -->
    <g transform="translate(719.149362 250.381641)scale(0.1 -0.1)">
     <defs>
      <path id="DejaVuSans-41" d="M 2188 4044 
L 1331 1722 
L 3047 1722 
L 2188 4044 
z
M 1831 4666 
L 2547 4666 
L 4325 0 
L 3669 0 
L 3244 1197 
L 1141 1197 
L 716 0 
L 50 0 
L 1831 4666 
z
" transform="scale(0.015625)"/>
     </defs>
     <use xlink:href="#DejaVuSans-41"/>
     <use xlink:href="#DejaVuSans-67" x="68.408203"/>
     <use xlink:href="#DejaVuSans-65" x="131.884766"/>
     <use xlink:href="#DejaVuSans-6e" x="193.408203"/>
     <use xlink:href="#DejaVuSans-74" x="256.787109"/>
    </g>
   </g>
   <g id="PathCollection_8">
    <defs>
     <path id="mae52293c6f" d="M 0 3 
C 0.795609 3 1.55874 2.683901 2.12132 2.12132 
C 2.683901 1.55874 3 0.795609 3 0 
C 3 -0.795609 2.683901 -1.55874 2.12132 -2.12132 
C 1.55874 -2.683901 0.795609 -3 0 -3 
C -0.795609 -3 -1.55874 -2.683901 -2.12132 -2.12132 
C -2.683901 -1.55874 -3 -0.795609 -3 0 
C -3 0.795609 -2.683901 1.55874 -2.12132 2.12132 
C -1.55874 2.683901 -0.795609 3 0 3 
z
" style="stroke: #cc4778"/>
    </defs>
    <g>
     <use xlink:href="#mae52293c6f" x="721.149362" y="262.434766" style="fill: #cc4778; stroke: #cc4778"/>
    </g>
   </g>
   <g id="text_20">
    <!-- Sarsa -->
    <g transform="translate(739.149362 265.059766)scale(0.1 -0.1)">
     <use xlink:href="#DejaVuSans-53"/>
     <use xlink:href="#DejaVuSans-61" x="63.476562"/>
     <use xlink:href="#DejaVuSans-72" x="124.755859"/>
     <use xlink:href="#DejaVuSans-73" x="165.869141"/>
     <use xlink:href="#DejaVuSans-61" x="217.96875"/>
    </g>
   </g>
   <g id="text_21">
    <!-- TCP -->
    <g transform="translate(719.149362 279.737891)scale(0.1 -0.1)">
     <defs>
      <path id="DejaVuSans-43" d="M 4122 4306 
L 4122 3641 
Q 3803 3938 3442 4084 
Q 3081 4231 2675 4231 
Q 1875 4231 1450 3742 
Q 1025 3253 1025 2328 
Q 1025 1406 1450 917 
Q 1875 428 2675 428 
Q 3081 428 3442 575 
Q 3803 722 4122 1019 
L 4122 359 
Q 3791 134 3420 21 
Q 3050 -91 2638 -91 
Q 1578 -91 968 557 
Q 359 1206 359 2328 
Q 359 3453 968 4101 
Q 1578 4750 2638 4750 
Q 3056 4750 3426 4639 
Q 3797 4528 4122 4306 
z
" transform="scale(0.015625)"/>
     </defs>
     <use xlink:href="#DejaVuSans-54"/>
     <use xlink:href="#DejaVuSans-43" x="55.208984"/>
     <use xlink:href="#DejaVuSans-50" x="125.033203"/>
    </g>
   </g>
   <g id="PathCollection_9">
    <defs>
     <path id="m54aa8ccfdc" d="M 0 3.03598 
C 0.805151 3.03598 1.577434 2.71609 2.146762 2.146762 
C 2.71609 1.577434 3.03598 0.805151 3.03598 0 
C 3.03598 -0.805151 2.71609 -1.577434 2.146762 -2.146762 
C 1.577434 -2.71609 0.805151 -3.03598 0 -3.03598 
C -0.805151 -3.03598 -1.577434 -2.71609 -2.146762 -2.146762 
C -2.71609 -1.577434 -3.03598 -0.805151 -3.03598 0 
C -3.03598 0.805151 -2.71609 1.577434 -2.146762 2.146762 
C -1.577434 2.71609 -0.805151 3.03598 0 3.03598 
z
" style="stroke: #333333"/>
    </defs>
    <g>
     <use xlink:href="#m54aa8ccfdc" x="721.149362" y="291.791016" style="fill: #333333; stroke: #333333"/>
    </g>
   </g>
   <g id="text_22">
    <!-- 20 -->
    <g transform="translate(739.149362 294.416016)scale(0.1 -0.1)">
     <use xlink:href="#DejaVuSans-32"/>
     <use xlink:href="#DejaVuSans-30" x="63.623047"/>
    </g>
   </g>
   <g id="PathCollection_10">
    <defs>
     <path id="ma577a4757e" d="M 0 4.035824 
C 1.070313 4.035824 2.096933 3.610585 2.853759 2.853759 
C 3.610585 2.096933 4.035824 1.070313 4.035824 0 
C 4.035824 -1.070313 3.610585 -2.096933 2.853759 -2.853759 
C 2.096933 -3.610585 1.070313 -4.035824 0 -4.035824 
C -1.070313 -4.035824 -2.096933 -3.610585 -2.853759 -2.853759 
C -3.610585 -2.096933 -4.035824 -1.070313 -4.035824 0 
C -4.035824 1.070313 -3.610585 2.096933 -2.853759 2.853759 
C -2.096933 3.610585 -1.070313 4.035824 0 4.035824 
z
" style="stroke: #333333"/>
    </defs>
    <g>
     <use xlink:href="#ma577a4757e" x="721.149362" y="306.469141" style="fill: #333333; stroke: #333333"/>
    </g>
   </g>
   <g id="text_23">
    <!-- 40 -->
    <g transform="translate(739.149362 309.094141)scale(0.1 -0.1)">
     <use xlink:href="#DejaVuSans-34"/>
     <use xlink:href="#DejaVuSans-30" x="63.623047"/>
    </g>
   </g>
   <g id="PathCollection_11">
    <defs>
     <path id="m3c72dc8cb9" d="M 0 4.833072 
C 1.281746 4.833072 2.511167 4.323829 3.417498 3.417498 
C 4.323829 2.511167 4.833072 1.281746 4.833072 0 
C 4.833072 -1.281746 4.323829 -2.511167 3.417498 -3.417498 
C 2.511167 -4.323829 1.281746 -4.833072 0 -4.833072 
C -1.281746 -4.833072 -2.511167 -4.323829 -3.417498 -3.417498 
C -4.323829 -2.511167 -4.833072 -1.281746 -4.833072 0 
C -4.833072 1.281746 -4.323829 2.511167 -3.417498 3.417498 
C -2.511167 4.323829 -1.281746 4.833072 0 4.833072 
z
" style="stroke: #333333"/>
    </defs>
    <g>
     <use xlink:href="#m3c72dc8cb9" x="721.149362" y="321.147266" style="fill: #333333; stroke: #333333"/>
    </g>
   </g>
   <g id="text_24">
    <!-- 60 -->
    <g transform="translate(739.149362 323.772266)scale(0.1 -0.1)">
     <use xlink:href="#DejaVuSans-36"/>
     <use xlink:href="#DejaVuSans-30" x="63.623047"/>
    </g>
   </g>
   <g id="PathCollection_12">
    <defs>
     <path id="m10e9ebc2bc" d="M 0 5.516275 
C 1.462933 5.516275 2.866146 4.935046 3.900596 3.900596 
C 4.935046 2.866146 5.516275 1.462933 5.516275 0 
C 5.516275 -1.462933 4.935046 -2.866146 3.900596 -3.900596 
C 2.866146 -4.935046 1.462933 -5.516275 0 -5.516275 
C -1.462933 -5.516275 -2.866146 -4.935046 -3.900596 -3.900596 
C -4.935046 -2.866146 -5.516275 -1.462933 -5.516275 0 
C -5.516275 1.462933 -4.935046 2.866146 -3.900596 3.900596 
C -2.866146 4.935046 -1.462933 5.516275 0 5.516275 
z
" style="stroke: #333333"/>
    </defs>
    <g>
     <use xlink:href="#m10e9ebc2bc" x="721.149362" y="335.825391" style="fill: #333333; stroke: #333333"/>
    </g>
   </g>
   <g id="text_25">
    <!-- 80 -->
    <g transform="translate(739.149362 338.450391)scale(0.1 -0.1)">
     <use xlink:href="#DejaVuSans-38"/>
     <use xlink:href="#DejaVuSans-30" x="63.623047"/>
    </g>
   </g>
   <g id="PathCollection_13">
    <defs>
     <path id="m68239a19f6" d="M 0 6.123724 
C 1.624031 6.123724 3.181764 5.47849 4.330127 4.330127 
C 5.47849 3.181764 6.123724 1.624031 6.123724 0 
C 6.123724 -1.624031 5.47849 -3.181764 4.330127 -4.330127 
C 3.181764 -5.47849 1.624031 -6.123724 0 -6.123724 
C -1.624031 -6.123724 -3.181764 -5.47849 -4.330127 -4.330127 
C -5.47849 -3.181764 -6.123724 -1.624031 -6.123724 0 
C -6.123724 1.624031 -5.47849 3.181764 -4.330127 4.330127 
C -3.181764 5.47849 -1.624031 6.123724 0 6.123724 
z
" style="stroke: #333333"/>
    </defs>
    <g>
     <use xlink:href="#m68239a19f6" x="721.149362" y="350.503516" style="fill: #333333; stroke: #333333"/>
    </g>
   </g>
   <g id="text_26">
    <!-- 100 -->
    <g transform="translate(739.149362 353.128516)scale(0.1 -0.1)">
     <use xlink:href="#DejaVuSans-31"/>
     <use xlink:href="#DejaVuSans-30" x="63.623047"/>
     <use xlink:href="#DejaVuSans-30" x="127.246094"/>
    </g>
   </g>
  </g>
 </g>
 <defs>
  <clipPath id="p018d2b19a0">
   <rect x="45.442188" y="32.196094" width="656.718424" height="523.4"/>
  </clipPath>
 </defs>
</svg>
