<?xml version="1.0" encoding="utf-8" standalone="no"?>
<!DOCTYPE svg PUBLIC "-//W3C//DTD SVG 1.1//EN"
  "http://www.w3.org/Graphics/SVG/1.1/DTD/svg11.dtd">
<svg xmlns:xlink="http://www.w3.org/1999/xlink" width="951.804687pt" height="726.911406pt" viewBox="0 0 951.804687 726.911406" xmlns="http://www.w3.org/2000/svg" version="1.1">
 <metadata>
  <rdf:RDF xmlns:dc="http://purl.org/dc/elements/1.1/" xmlns:cc="http://creativecommons.org/ns#" xmlns:rdf="http://www.w3.org/1999/02/22-rdf-syntax-ns#">
   <cc:Work>
    <dc:type rdf:resource="http://purl.org/dc/dcmitype/StillImage"/>
    <dc:date>2023-04-21T16:13:30.362211</dc:date>
    <dc:format>image/svg+xml</dc:format>
    <dc:creator>
     <cc:Agent>
      <dc:title>Matplotlib v3.5.3, https://matplotlib.org/</dc:title>
     </cc:Agent>
    </dc:creator>
   </cc:Work>
  </rdf:RDF>
 </metadata>
 <defs>
  <style type="text/css">*{stroke-linejoin: round; stroke-linecap: butt}</style>
 </defs>
 <g id="figure_1">
  <g id="patch_1">
   <path d="M 0 726.911406 
L 951.804687 726.911406 
L 951.804687 -0 
L 0 -0 
z
" style="fill: #ffffff"/>
  </g>
  <g id="axes_1">
   <g id="patch_2">
    <path d="M 51.804688 684.516094 
L 944.604687 684.516094 
L 944.604687 32.196094 
L 51.804688 32.196094 
z
" style="fill: #ffffff"/>
   </g>
   <g id="PathCollection_1">
    <path d="M 904.022869 81.370346 
C 904.155471 81.370346 904.282659 81.317663 904.376423 81.223899 
C 904.470186 81.130136 904.522869 81.002947 904.522869 80.870346 
C 904.522869 80.737744 904.470186 80.610556 904.376423 80.516793 
C 904.282659 80.423029 904.155471 80.370346 904.022869 80.370346 
C 903.890268 80.370346 903.763079 80.423029 903.669316 80.516793 
C 903.575552 80.610556 903.522869 80.737744 903.522869 80.870346 
C 903.522869 81.002947 903.575552 81.130136 903.669316 81.223899 
C 903.763079 81.317663 903.890268 81.370346 904.022869 81.370346 
z
" clip-path="url(#pacb4eef6a0)" style="fill: #1f77b4; stroke: #1f77b4"/>
    <path d="M 661.103535 206.582903 
C 662.086935 206.582903 663.030189 206.192194 663.725557 205.496826 
C 664.420926 204.801457 664.811634 203.858203 664.811634 202.874803 
C 664.811634 201.891404 664.420926 200.94815 663.725557 200.252781 
C 663.030189 199.557413 662.086935 199.166704 661.103535 199.166704 
C 660.120136 199.166704 659.176881 199.557413 658.481513 200.252781 
C 657.786145 200.94815 657.395436 201.891404 657.395436 202.874803 
C 657.395436 203.858203 657.786145 204.801457 658.481513 205.496826 
C 659.176881 206.192194 660.120136 206.582903 661.103535 206.582903 
z
" clip-path="url(#pacb4eef6a0)" style="fill: #1f77b4; stroke: #1f77b4"/>
    <path d="M 809.71301 64.192211 
C 810.334967 64.192211 810.931533 63.945105 811.371323 63.505315 
C 811.811112 63.065526 812.058218 62.468959 812.058218 61.847003 
C 812.058218 61.225046 811.811112 60.62848 811.371323 60.18869 
C 810.931533 59.748901 810.334967 59.501795 809.71301 59.501795 
C 809.091054 59.501795 808.494487 59.748901 808.054698 60.18869 
C 807.614908 60.62848 807.367802 61.225046 807.367802 61.847003 
C 807.367802 62.468959 807.614908 63.065526 808.054698 63.505315 
C 808.494487 63.945105 809.091054 64.192211 809.71301 64.192211 
z
" clip-path="url(#pacb4eef6a0)" style="fill: #1f77b4; stroke: #1f77b4"/>
    <path d="M 215.494947 539.454862 
C 216.820962 539.454862 218.092846 538.928031 219.03048 537.990396 
C 219.968115 537.052761 220.494947 535.780878 220.494947 534.454862 
C 220.494947 533.128847 219.968115 531.856963 219.03048 530.919328 
C 218.092846 529.981694 216.820962 529.454862 215.494947 529.454862 
C 214.168931 529.454862 212.897047 529.981694 211.959413 530.919328 
C 211.021778 531.856963 210.494947 533.128847 210.494947 534.454862 
C 210.494947 535.780878 211.021778 537.052761 211.959413 537.990396 
C 212.897047 538.928031 214.168931 539.454862 215.494947 539.454862 
z
" clip-path="url(#pacb4eef6a0)" style="fill: #1f77b4; stroke: #1f77b4"/>
    <path d="M 233.741376 530.102604 
C 235.067392 530.102604 236.339276 529.575772 237.27691 528.638138 
C 238.214545 527.700503 238.741376 526.42862 238.741376 525.102604 
C 238.741376 523.776589 238.214545 522.504705 237.27691 521.56707 
C 236.339276 520.629436 235.067392 520.102604 233.741376 520.102604 
C 232.415361 520.102604 231.143477 520.629436 230.205842 521.56707 
C 229.268208 522.504705 228.741376 523.776589 228.741376 525.102604 
C 228.741376 526.42862 229.268208 527.700503 230.205842 528.638138 
C 231.143477 529.575772 232.415361 530.102604 233.741376 530.102604 
z
" clip-path="url(#pacb4eef6a0)" style="fill: #1f77b4; stroke: #1f77b4"/>
    <path d="M 161.85484 598.862956 
C 163.180856 598.862956 164.45274 598.336124 165.390374 597.39849 
C 166.328009 596.460855 166.85484 595.188971 166.85484 593.862956 
C 166.85484 592.53694 166.328009 591.265057 165.390374 590.327422 
C 164.45274 589.389787 163.180856 588.862956 161.85484 588.862956 
C 160.528825 588.862956 159.256941 589.389787 158.319306 590.327422 
C 157.381672 591.265057 156.85484 592.53694 156.85484 593.862956 
C 156.85484 595.188971 157.381672 596.460855 158.319306 597.39849 
C 159.256941 598.336124 160.528825 598.862956 161.85484 598.862956 
z
" clip-path="url(#pacb4eef6a0)" style="fill: #1f77b4; stroke: #1f77b4"/>
    <path d="M 422.800767 338.811671 
C 424.099992 338.811671 425.346179 338.295484 426.264869 337.376794 
C 427.18356 336.458103 427.699747 335.211917 427.699747 333.912692 
C 427.699747 332.613467 427.18356 331.367281 426.264869 330.44859 
C 425.346179 329.5299 424.099992 329.013713 422.800767 329.013713 
C 421.501543 329.013713 420.255356 329.5299 419.336666 330.44859 
C 418.417975 331.367281 417.901788 332.613467 417.901788 333.912692 
C 417.901788 335.211917 418.417975 336.458103 419.336666 337.376794 
C 420.255356 338.295484 421.501543 338.811671 422.800767 338.811671 
z
" clip-path="url(#pacb4eef6a0)" style="fill: #1f77b4; stroke: #1f77b4"/>
    <path d="M 190.653422 575.482311 
C 191.979437 575.482311 193.251321 574.955479 194.188956 574.017845 
C 195.12659 573.08021 195.653422 571.808326 195.653422 570.482311 
C 195.653422 569.156295 195.12659 567.884411 194.188956 566.946777 
C 193.251321 566.009142 191.979437 565.482311 190.653422 565.482311 
C 189.327406 565.482311 188.055523 566.009142 187.117888 566.946777 
C 186.180253 567.884411 185.653422 569.156295 185.653422 570.482311 
C 185.653422 571.808326 186.180253 573.08021 187.117888 574.017845 
C 188.055523 574.955479 189.327406 575.482311 190.653422 575.482311 
z
" clip-path="url(#pacb4eef6a0)" style="fill: #1f77b4; stroke: #1f77b4"/>
    <path d="M 177.683068 579.627061 
C 179.009084 579.627061 180.280968 579.10023 181.218602 578.162595 
C 182.156237 577.224961 182.683068 575.953077 182.683068 574.627061 
C 182.683068 573.301046 182.156237 572.029162 181.218602 571.091528 
C 180.280968 570.153893 179.009084 569.627061 177.683068 569.627061 
C 176.357053 569.627061 175.085169 570.153893 174.147534 571.091528 
C 173.2099 572.029162 172.683068 573.301046 172.683068 574.627061 
C 172.683068 575.953077 173.2099 577.224961 174.147534 578.162595 
C 175.085169 579.10023 176.357053 579.627061 177.683068 579.627061 
z
" clip-path="url(#pacb4eef6a0)" style="fill: #1f77b4; stroke: #1f77b4"/>
    <path d="M 119.646232 630.958205 
C 120.972247 630.958205 122.244131 630.431374 123.181766 629.493739 
C 124.1194 628.556105 124.646232 627.284221 124.646232 625.958205 
C 124.646232 624.63219 124.1194 623.360306 123.181766 622.422671 
C 122.244131 621.485037 120.972247 620.958205 119.646232 620.958205 
C 118.320216 620.958205 117.048333 621.485037 116.110698 622.422671 
C 115.173063 623.360306 114.646232 624.63219 114.646232 625.958205 
C 114.646232 627.284221 115.173063 628.556105 116.110698 629.493739 
C 117.048333 630.431374 118.320216 630.958205 119.646232 630.958205 
z
" clip-path="url(#pacb4eef6a0)" style="fill: #1f77b4; stroke: #1f77b4"/>
    <path d="M 92.386506 659.865185 
C 93.712521 659.865185 94.984405 659.338353 95.92204 658.400719 
C 96.859674 657.463084 97.386506 656.1912 97.386506 654.865185 
C 97.386506 653.539169 96.859674 652.267285 95.92204 651.329651 
C 94.984405 650.392016 93.712521 649.865185 92.386506 649.865185 
C 91.06049 649.865185 89.788606 650.392016 88.850972 651.329651 
C 87.913337 652.267285 87.386506 653.539169 87.386506 654.865185 
C 87.386506 656.1912 87.913337 657.463084 88.850972 658.400719 
C 89.788606 659.338353 91.06049 659.865185 92.386506 659.865185 
z
" clip-path="url(#pacb4eef6a0)" style="fill: #1f77b4; stroke: #1f77b4"/>
    <path d="M 395.541041 366.200474 
C 396.86041 366.200474 398.125919 365.676283 399.058853 364.743348 
C 399.991788 363.810414 400.515978 362.544905 400.515978 361.225537 
C 400.515978 359.906168 399.991788 358.640659 399.058853 357.707725 
C 398.125919 356.77479 396.86041 356.250599 395.541041 356.250599 
C 394.221673 356.250599 392.956164 356.77479 392.023229 357.707725 
C 391.090295 358.640659 390.566104 359.906168 390.566104 361.225537 
C 390.566104 362.544905 391.090295 363.810414 392.023229 364.743348 
C 392.956164 365.676283 394.221673 366.200474 395.541041 366.200474 
z
" clip-path="url(#pacb4eef6a0)" style="fill: #1f77b4; stroke: #1f77b4"/>
    <path d="M 599.109642 227.448025 
C 600.186902 227.448025 601.220185 227.020025 601.981923 226.258287 
C 602.743661 225.496549 603.171661 224.463266 603.171661 223.386006 
C 603.171661 222.308746 602.743661 221.275462 601.981923 220.513724 
C 601.220185 219.751987 600.186902 219.323987 599.109642 219.323987 
C 598.032382 219.323987 596.999098 219.751987 596.23736 220.513724 
C 595.475622 221.275462 595.047622 222.308746 595.047622 223.386006 
C 595.047622 224.463266 595.475622 225.496549 596.23736 226.258287 
C 596.999098 227.020025 598.032382 227.448025 599.109642 227.448025 
z
" clip-path="url(#pacb4eef6a0)" style="fill: #1f77b4; stroke: #1f77b4"/>
    <path d="M 210.658544 556.88407 
C 211.984559 556.88407 213.256443 556.357239 214.194077 555.419604 
C 215.131712 554.48197 215.658544 553.210086 215.658544 551.88407 
C 215.658544 550.558055 215.131712 549.286171 214.194077 548.348536 
C 213.256443 547.410902 211.984559 546.88407 210.658544 546.88407 
C 209.332528 546.88407 208.060644 547.410902 207.12301 548.348536 
C 206.185375 549.286171 205.658544 550.558055 205.658544 551.88407 
C 205.658544 553.210086 206.185375 554.48197 207.12301 555.419604 
C 208.060644 556.357239 209.332528 556.88407 210.658544 556.88407 
z
" clip-path="url(#pacb4eef6a0)" style="fill: #1f77b4; stroke: #1f77b4"/>
    <path d="M 297.274125 467.825067 
C 298.600141 467.825067 299.872024 467.298236 300.809659 466.360601 
C 301.747294 465.422967 302.274125 464.151083 302.274125 462.825067 
C 302.274125 461.499052 301.747294 460.227168 300.809659 459.289533 
C 299.872024 458.351899 298.600141 457.825067 297.274125 457.825067 
C 295.94811 457.825067 294.676226 458.351899 293.738591 459.289533 
C 292.800957 460.227168 292.274125 461.499052 292.274125 462.825067 
C 292.274125 464.151083 292.800957 465.422967 293.738591 466.360601 
C 294.676226 467.298236 295.94811 467.825067 297.274125 467.825067 
z
" clip-path="url(#pacb4eef6a0)" style="fill: #1f77b4; stroke: #1f77b4"/>
    <path d="M 152.621707 613.316446 
C 153.947723 613.316446 155.219606 612.789614 156.157241 611.85198 
C 157.094876 610.914345 157.621707 609.642461 157.621707 608.316446 
C 157.621707 606.99043 157.094876 605.718546 156.157241 604.780912 
C 155.219606 603.843277 153.947723 603.316446 152.621707 603.316446 
C 151.295692 603.316446 150.023808 603.843277 149.086173 604.780912 
C 148.148539 605.718546 147.621707 606.99043 147.621707 608.316446 
C 147.621707 609.642461 148.148539 610.914345 149.086173 611.85198 
C 150.023808 612.789614 151.295692 613.316446 152.621707 613.316446 
z
" clip-path="url(#pacb4eef6a0)" style="fill: #1f77b4; stroke: #1f77b4"/>
   </g>
   <g id="matplotlib.axis_1">
    <g id="xtick_1">
     <g id="line2d_1">
      <defs>
       <path id="me57f2cabed" d="M 0 0 
L 0 3.5 
" style="stroke: #000000; stroke-width: 0.8"/>
      </defs>
      <g>
       <use xlink:href="#me57f2cabed" x="149.250881" y="684.516094" style="stroke: #000000; stroke-width: 0.8"/>
      </g>
     </g>
     <g id="text_1">
      <!-- 400 -->
      <g transform="translate(139.707131 699.114531)scale(0.1 -0.1)">
       <defs>
        <path id="DejaVuSans-34" d="M 2419 4116 
L 825 1625 
L 2419 1625 
L 2419 4116 
z
M 2253 4666 
L 3047 4666 
L 3047 1625 
L 3713 1625 
L 3713 1100 
L 3047 1100 
L 3047 0 
L 2419 0 
L 2419 1100 
L 313 1100 
L 313 1709 
L 2253 4666 
z
" transform="scale(0.015625)"/>
        <path id="DejaVuSans-30" d="M 2034 4250 
Q 1547 4250 1301 3770 
Q 1056 3291 1056 2328 
Q 1056 1369 1301 889 
Q 1547 409 2034 409 
Q 2525 409 2770 889 
Q 3016 1369 3016 2328 
Q 3016 3291 2770 3770 
Q 2525 4250 2034 4250 
z
M 2034 4750 
Q 2819 4750 3233 4129 
Q 3647 3509 3647 2328 
Q 3647 1150 3233 529 
Q 2819 -91 2034 -91 
Q 1250 -91 836 529 
Q 422 1150 422 2328 
Q 422 3509 836 4129 
Q 1250 4750 2034 4750 
z
" transform="scale(0.015625)"/>
       </defs>
       <use xlink:href="#DejaVuSans-34"/>
       <use xlink:href="#DejaVuSans-30" x="63.623047"/>
       <use xlink:href="#DejaVuSans-30" x="127.246094"/>
      </g>
     </g>
    </g>
    <g id="xtick_2">
     <g id="line2d_2">
      <g>
       <use xlink:href="#me57f2cabed" x="332.447965" y="684.516094" style="stroke: #000000; stroke-width: 0.8"/>
      </g>
     </g>
     <g id="text_2">
      <!-- 600 -->
      <g transform="translate(322.904215 699.114531)scale(0.1 -0.1)">
       <defs>
        <path id="DejaVuSans-36" d="M 2113 2584 
Q 1688 2584 1439 2293 
Q 1191 2003 1191 1497 
Q 1191 994 1439 701 
Q 1688 409 2113 409 
Q 2538 409 2786 701 
Q 3034 994 3034 1497 
Q 3034 2003 2786 2293 
Q 2538 2584 2113 2584 
z
M 3366 4563 
L 3366 3988 
Q 3128 4100 2886 4159 
Q 2644 4219 2406 4219 
Q 1781 4219 1451 3797 
Q 1122 3375 1075 2522 
Q 1259 2794 1537 2939 
Q 1816 3084 2150 3084 
Q 2853 3084 3261 2657 
Q 3669 2231 3669 1497 
Q 3669 778 3244 343 
Q 2819 -91 2113 -91 
Q 1303 -91 875 529 
Q 447 1150 447 2328 
Q 447 3434 972 4092 
Q 1497 4750 2381 4750 
Q 2619 4750 2861 4703 
Q 3103 4656 3366 4563 
z
" transform="scale(0.015625)"/>
       </defs>
       <use xlink:href="#DejaVuSans-36"/>
       <use xlink:href="#DejaVuSans-30" x="63.623047"/>
       <use xlink:href="#DejaVuSans-30" x="127.246094"/>
      </g>
     </g>
    </g>
    <g id="xtick_3">
     <g id="line2d_3">
      <g>
       <use xlink:href="#me57f2cabed" x="515.64505" y="684.516094" style="stroke: #000000; stroke-width: 0.8"/>
      </g>
     </g>
     <g id="text_3">
      <!-- 800 -->
      <g transform="translate(506.1013 699.114531)scale(0.1 -0.1)">
       <defs>
        <path id="DejaVuSans-38" d="M 2034 2216 
Q 1584 2216 1326 1975 
Q 1069 1734 1069 1313 
Q 1069 891 1326 650 
Q 1584 409 2034 409 
Q 2484 409 2743 651 
Q 3003 894 3003 1313 
Q 3003 1734 2745 1975 
Q 2488 2216 2034 2216 
z
M 1403 2484 
Q 997 2584 770 2862 
Q 544 3141 544 3541 
Q 544 4100 942 4425 
Q 1341 4750 2034 4750 
Q 2731 4750 3128 4425 
Q 3525 4100 3525 3541 
Q 3525 3141 3298 2862 
Q 3072 2584 2669 2484 
Q 3125 2378 3379 2068 
Q 3634 1759 3634 1313 
Q 3634 634 3220 271 
Q 2806 -91 2034 -91 
Q 1263 -91 848 271 
Q 434 634 434 1313 
Q 434 1759 690 2068 
Q 947 2378 1403 2484 
z
M 1172 3481 
Q 1172 3119 1398 2916 
Q 1625 2713 2034 2713 
Q 2441 2713 2670 2916 
Q 2900 3119 2900 3481 
Q 2900 3844 2670 4047 
Q 2441 4250 2034 4250 
Q 1625 4250 1398 4047 
Q 1172 3844 1172 3481 
z
" transform="scale(0.015625)"/>
       </defs>
       <use xlink:href="#DejaVuSans-38"/>
       <use xlink:href="#DejaVuSans-30" x="63.623047"/>
       <use xlink:href="#DejaVuSans-30" x="127.246094"/>
      </g>
     </g>
    </g>
    <g id="xtick_4">
     <g id="line2d_4">
      <g>
       <use xlink:href="#me57f2cabed" x="698.842135" y="684.516094" style="stroke: #000000; stroke-width: 0.8"/>
      </g>
     </g>
     <g id="text_4">
      <!-- 1000 -->
      <g transform="translate(686.117135 699.114531)scale(0.1 -0.1)">
       <defs>
        <path id="DejaVuSans-31" d="M 794 531 
L 1825 531 
L 1825 4091 
L 703 3866 
L 703 4441 
L 1819 4666 
L 2450 4666 
L 2450 531 
L 3481 531 
L 3481 0 
L 794 0 
L 794 531 
z
" transform="scale(0.015625)"/>
       </defs>
       <use xlink:href="#DejaVuSans-31"/>
       <use xlink:href="#DejaVuSans-30" x="63.623047"/>
       <use xlink:href="#DejaVuSans-30" x="127.246094"/>
       <use xlink:href="#DejaVuSans-30" x="190.869141"/>
      </g>
     </g>
    </g>
    <g id="xtick_5">
     <g id="line2d_5">
      <g>
       <use xlink:href="#me57f2cabed" x="882.039219" y="684.516094" style="stroke: #000000; stroke-width: 0.8"/>
      </g>
     </g>
     <g id="text_5">
      <!-- 1200 -->
      <g transform="translate(869.314219 699.114531)scale(0.1 -0.1)">
       <defs>
        <path id="DejaVuSans-32" d="M 1228 531 
L 3431 531 
L 3431 0 
L 469 0 
L 469 531 
Q 828 903 1448 1529 
Q 2069 2156 2228 2338 
Q 2531 2678 2651 2914 
Q 2772 3150 2772 3378 
Q 2772 3750 2511 3984 
Q 2250 4219 1831 4219 
Q 1534 4219 1204 4116 
Q 875 4013 500 3803 
L 500 4441 
Q 881 4594 1212 4672 
Q 1544 4750 1819 4750 
Q 2544 4750 2975 4387 
Q 3406 4025 3406 3419 
Q 3406 3131 3298 2873 
Q 3191 2616 2906 2266 
Q 2828 2175 2409 1742 
Q 1991 1309 1228 531 
z
" transform="scale(0.015625)"/>
       </defs>
       <use xlink:href="#DejaVuSans-31"/>
       <use xlink:href="#DejaVuSans-32" x="63.623047"/>
       <use xlink:href="#DejaVuSans-30" x="127.246094"/>
       <use xlink:href="#DejaVuSans-30" x="190.869141"/>
      </g>
     </g>
    </g>
    <g id="text_6">
     <!-- Treatment Duration [hours] -->
     <g transform="translate(395.772266 716.591875)scale(0.15 -0.15)">
      <defs>
       <path id="DejaVuSans-54" d="M -19 4666 
L 3928 4666 
L 3928 4134 
L 2272 4134 
L 2272 0 
L 1638 0 
L 1638 4134 
L -19 4134 
L -19 4666 
z
" transform="scale(0.015625)"/>
       <path id="DejaVuSans-72" d="M 2631 2963 
Q 2534 3019 2420 3045 
Q 2306 3072 2169 3072 
Q 1681 3072 1420 2755 
Q 1159 2438 1159 1844 
L 1159 0 
L 581 0 
L 581 3500 
L 1159 3500 
L 1159 2956 
Q 1341 3275 1631 3429 
Q 1922 3584 2338 3584 
Q 2397 3584 2469 3576 
Q 2541 3569 2628 3553 
L 2631 2963 
z
" transform="scale(0.015625)"/>
       <path id="DejaVuSans-65" d="M 3597 1894 
L 3597 1613 
L 953 1613 
Q 991 1019 1311 708 
Q 1631 397 2203 397 
Q 2534 397 2845 478 
Q 3156 559 3463 722 
L 3463 178 
Q 3153 47 2828 -22 
Q 2503 -91 2169 -91 
Q 1331 -91 842 396 
Q 353 884 353 1716 
Q 353 2575 817 3079 
Q 1281 3584 2069 3584 
Q 2775 3584 3186 3129 
Q 3597 2675 3597 1894 
z
M 3022 2063 
Q 3016 2534 2758 2815 
Q 2500 3097 2075 3097 
Q 1594 3097 1305 2825 
Q 1016 2553 972 2059 
L 3022 2063 
z
" transform="scale(0.015625)"/>
       <path id="DejaVuSans-61" d="M 2194 1759 
Q 1497 1759 1228 1600 
Q 959 1441 959 1056 
Q 959 750 1161 570 
Q 1363 391 1709 391 
Q 2188 391 2477 730 
Q 2766 1069 2766 1631 
L 2766 1759 
L 2194 1759 
z
M 3341 1997 
L 3341 0 
L 2766 0 
L 2766 531 
Q 2569 213 2275 61 
Q 1981 -91 1556 -91 
Q 1019 -91 701 211 
Q 384 513 384 1019 
Q 384 1609 779 1909 
Q 1175 2209 1959 2209 
L 2766 2209 
L 2766 2266 
Q 2766 2663 2505 2880 
Q 2244 3097 1772 3097 
Q 1472 3097 1187 3025 
Q 903 2953 641 2809 
L 641 3341 
Q 956 3463 1253 3523 
Q 1550 3584 1831 3584 
Q 2591 3584 2966 3190 
Q 3341 2797 3341 1997 
z
" transform="scale(0.015625)"/>
       <path id="DejaVuSans-74" d="M 1172 4494 
L 1172 3500 
L 2356 3500 
L 2356 3053 
L 1172 3053 
L 1172 1153 
Q 1172 725 1289 603 
Q 1406 481 1766 481 
L 2356 481 
L 2356 0 
L 1766 0 
Q 1100 0 847 248 
Q 594 497 594 1153 
L 594 3053 
L 172 3053 
L 172 3500 
L 594 3500 
L 594 4494 
L 1172 4494 
z
" transform="scale(0.015625)"/>
       <path id="DejaVuSans-6d" d="M 3328 2828 
Q 3544 3216 3844 3400 
Q 4144 3584 4550 3584 
Q 5097 3584 5394 3201 
Q 5691 2819 5691 2113 
L 5691 0 
L 5113 0 
L 5113 2094 
Q 5113 2597 4934 2840 
Q 4756 3084 4391 3084 
Q 3944 3084 3684 2787 
Q 3425 2491 3425 1978 
L 3425 0 
L 2847 0 
L 2847 2094 
Q 2847 2600 2669 2842 
Q 2491 3084 2119 3084 
Q 1678 3084 1418 2786 
Q 1159 2488 1159 1978 
L 1159 0 
L 581 0 
L 581 3500 
L 1159 3500 
L 1159 2956 
Q 1356 3278 1631 3431 
Q 1906 3584 2284 3584 
Q 2666 3584 2933 3390 
Q 3200 3197 3328 2828 
z
" transform="scale(0.015625)"/>
       <path id="DejaVuSans-6e" d="M 3513 2113 
L 3513 0 
L 2938 0 
L 2938 2094 
Q 2938 2591 2744 2837 
Q 2550 3084 2163 3084 
Q 1697 3084 1428 2787 
Q 1159 2491 1159 1978 
L 1159 0 
L 581 0 
L 581 3500 
L 1159 3500 
L 1159 2956 
Q 1366 3272 1645 3428 
Q 1925 3584 2291 3584 
Q 2894 3584 3203 3211 
Q 3513 2838 3513 2113 
z
" transform="scale(0.015625)"/>
       <path id="DejaVuSans-20" transform="scale(0.015625)"/>
       <path id="DejaVuSans-44" d="M 1259 4147 
L 1259 519 
L 2022 519 
Q 2988 519 3436 956 
Q 3884 1394 3884 2338 
Q 3884 3275 3436 3711 
Q 2988 4147 2022 4147 
L 1259 4147 
z
M 628 4666 
L 1925 4666 
Q 3281 4666 3915 4102 
Q 4550 3538 4550 2338 
Q 4550 1131 3912 565 
Q 3275 0 1925 0 
L 628 0 
L 628 4666 
z
" transform="scale(0.015625)"/>
       <path id="DejaVuSans-75" d="M 544 1381 
L 544 3500 
L 1119 3500 
L 1119 1403 
Q 1119 906 1312 657 
Q 1506 409 1894 409 
Q 2359 409 2629 706 
Q 2900 1003 2900 1516 
L 2900 3500 
L 3475 3500 
L 3475 0 
L 2900 0 
L 2900 538 
Q 2691 219 2414 64 
Q 2138 -91 1772 -91 
Q 1169 -91 856 284 
Q 544 659 544 1381 
z
M 1991 3584 
L 1991 3584 
z
" transform="scale(0.015625)"/>
       <path id="DejaVuSans-69" d="M 603 3500 
L 1178 3500 
L 1178 0 
L 603 0 
L 603 3500 
z
M 603 4863 
L 1178 4863 
L 1178 4134 
L 603 4134 
L 603 4863 
z
" transform="scale(0.015625)"/>
       <path id="DejaVuSans-6f" d="M 1959 3097 
Q 1497 3097 1228 2736 
Q 959 2375 959 1747 
Q 959 1119 1226 758 
Q 1494 397 1959 397 
Q 2419 397 2687 759 
Q 2956 1122 2956 1747 
Q 2956 2369 2687 2733 
Q 2419 3097 1959 3097 
z
M 1959 3584 
Q 2709 3584 3137 3096 
Q 3566 2609 3566 1747 
Q 3566 888 3137 398 
Q 2709 -91 1959 -91 
Q 1206 -91 779 398 
Q 353 888 353 1747 
Q 353 2609 779 3096 
Q 1206 3584 1959 3584 
z
" transform="scale(0.015625)"/>
       <path id="DejaVuSans-5b" d="M 550 4863 
L 1875 4863 
L 1875 4416 
L 1125 4416 
L 1125 -397 
L 1875 -397 
L 1875 -844 
L 550 -844 
L 550 4863 
z
" transform="scale(0.015625)"/>
       <path id="DejaVuSans-68" d="M 3513 2113 
L 3513 0 
L 2938 0 
L 2938 2094 
Q 2938 2591 2744 2837 
Q 2550 3084 2163 3084 
Q 1697 3084 1428 2787 
Q 1159 2491 1159 1978 
L 1159 0 
L 581 0 
L 581 4863 
L 1159 4863 
L 1159 2956 
Q 1366 3272 1645 3428 
Q 1925 3584 2291 3584 
Q 2894 3584 3203 3211 
Q 3513 2838 3513 2113 
z
" transform="scale(0.015625)"/>
       <path id="DejaVuSans-73" d="M 2834 3397 
L 2834 2853 
Q 2591 2978 2328 3040 
Q 2066 3103 1784 3103 
Q 1356 3103 1142 2972 
Q 928 2841 928 2578 
Q 928 2378 1081 2264 
Q 1234 2150 1697 2047 
L 1894 2003 
Q 2506 1872 2764 1633 
Q 3022 1394 3022 966 
Q 3022 478 2636 193 
Q 2250 -91 1575 -91 
Q 1294 -91 989 -36 
Q 684 19 347 128 
L 347 722 
Q 666 556 975 473 
Q 1284 391 1588 391 
Q 1994 391 2212 530 
Q 2431 669 2431 922 
Q 2431 1156 2273 1281 
Q 2116 1406 1581 1522 
L 1381 1569 
Q 847 1681 609 1914 
Q 372 2147 372 2553 
Q 372 3047 722 3315 
Q 1072 3584 1716 3584 
Q 2034 3584 2315 3537 
Q 2597 3491 2834 3397 
z
" transform="scale(0.015625)"/>
       <path id="DejaVuSans-5d" d="M 1947 4863 
L 1947 -844 
L 622 -844 
L 622 -397 
L 1369 -397 
L 1369 4416 
L 622 4416 
L 622 4863 
L 1947 4863 
z
" transform="scale(0.015625)"/>
      </defs>
      <use xlink:href="#DejaVuSans-54"/>
      <use xlink:href="#DejaVuSans-72" x="46.333984"/>
      <use xlink:href="#DejaVuSans-65" x="85.197266"/>
      <use xlink:href="#DejaVuSans-61" x="146.720703"/>
      <use xlink:href="#DejaVuSans-74" x="208"/>
      <use xlink:href="#DejaVuSans-6d" x="247.208984"/>
      <use xlink:href="#DejaVuSans-65" x="344.621094"/>
      <use xlink:href="#DejaVuSans-6e" x="406.144531"/>
      <use xlink:href="#DejaVuSans-74" x="469.523438"/>
      <use xlink:href="#DejaVuSans-20" x="508.732422"/>
      <use xlink:href="#DejaVuSans-44" x="540.519531"/>
      <use xlink:href="#DejaVuSans-75" x="617.521484"/>
      <use xlink:href="#DejaVuSans-72" x="680.900391"/>
      <use xlink:href="#DejaVuSans-61" x="722.013672"/>
      <use xlink:href="#DejaVuSans-74" x="783.292969"/>
      <use xlink:href="#DejaVuSans-69" x="822.501953"/>
      <use xlink:href="#DejaVuSans-6f" x="850.285156"/>
      <use xlink:href="#DejaVuSans-6e" x="911.466797"/>
      <use xlink:href="#DejaVuSans-20" x="974.845703"/>
      <use xlink:href="#DejaVuSans-5b" x="1006.632812"/>
      <use xlink:href="#DejaVuSans-68" x="1045.646484"/>
      <use xlink:href="#DejaVuSans-6f" x="1109.025391"/>
      <use xlink:href="#DejaVuSans-75" x="1170.207031"/>
      <use xlink:href="#DejaVuSans-72" x="1233.585938"/>
      <use xlink:href="#DejaVuSans-73" x="1274.699219"/>
      <use xlink:href="#DejaVuSans-5d" x="1326.798828"/>
     </g>
    </g>
   </g>
   <g id="matplotlib.axis_2">
    <g id="ytick_1">
     <g id="line2d_6">
      <path d="M 51.804688 666.98061 
L 944.604687 666.98061 
" clip-path="url(#pacb4eef6a0)" style="fill: none; stroke: #b0b0b0; stroke-opacity: 0.5; stroke-width: 0.8; stroke-linecap: square"/>
     </g>
     <g id="line2d_7">
      <defs>
       <path id="m7fbda8dc96" d="M 0 0 
L -3.5 0 
" style="stroke: #000000; stroke-width: 0.8"/>
      </defs>
      <g>
       <use xlink:href="#m7fbda8dc96" x="51.804688" y="666.98061" style="stroke: #000000; stroke-width: 0.8"/>
      </g>
     </g>
     <g id="text_7">
      <!-- 50 -->
      <g transform="translate(32.079688 670.779829)scale(0.1 -0.1)">
       <defs>
        <path id="DejaVuSans-35" d="M 691 4666 
L 3169 4666 
L 3169 4134 
L 1269 4134 
L 1269 2991 
Q 1406 3038 1543 3061 
Q 1681 3084 1819 3084 
Q 2600 3084 3056 2656 
Q 3513 2228 3513 1497 
Q 3513 744 3044 326 
Q 2575 -91 1722 -91 
Q 1428 -91 1123 -41 
Q 819 9 494 109 
L 494 744 
Q 775 591 1075 516 
Q 1375 441 1709 441 
Q 2250 441 2565 725 
Q 2881 1009 2881 1497 
Q 2881 1984 2565 2268 
Q 2250 2553 1709 2553 
Q 1456 2553 1204 2497 
Q 953 2441 691 2322 
L 691 4666 
z
" transform="scale(0.015625)"/>
       </defs>
       <use xlink:href="#DejaVuSans-35"/>
       <use xlink:href="#DejaVuSans-30" x="63.623047"/>
      </g>
     </g>
    </g>
    <g id="ytick_2">
     <g id="line2d_8">
      <path d="M 51.804688 560.70495 
L 944.604687 560.70495 
" clip-path="url(#pacb4eef6a0)" style="fill: none; stroke: #b0b0b0; stroke-opacity: 0.5; stroke-width: 0.8; stroke-linecap: square"/>
     </g>
     <g id="line2d_9">
      <g>
       <use xlink:href="#m7fbda8dc96" x="51.804688" y="560.70495" style="stroke: #000000; stroke-width: 0.8"/>
      </g>
     </g>
     <g id="text_8">
      <!-- 60 -->
      <g transform="translate(32.079688 564.504169)scale(0.1 -0.1)">
       <use xlink:href="#DejaVuSans-36"/>
       <use xlink:href="#DejaVuSans-30" x="63.623047"/>
      </g>
     </g>
    </g>
    <g id="ytick_3">
     <g id="line2d_10">
      <path d="M 51.804688 454.42929 
L 944.604687 454.42929 
" clip-path="url(#pacb4eef6a0)" style="fill: none; stroke: #b0b0b0; stroke-opacity: 0.5; stroke-width: 0.8; stroke-linecap: square"/>
     </g>
     <g id="line2d_11">
      <g>
       <use xlink:href="#m7fbda8dc96" x="51.804688" y="454.42929" style="stroke: #000000; stroke-width: 0.8"/>
      </g>
     </g>
     <g id="text_9">
      <!-- 70 -->
      <g transform="translate(32.079688 458.228509)scale(0.1 -0.1)">
       <defs>
        <path id="DejaVuSans-37" d="M 525 4666 
L 3525 4666 
L 3525 4397 
L 1831 0 
L 1172 0 
L 2766 4134 
L 525 4134 
L 525 4666 
z
" transform="scale(0.015625)"/>
       </defs>
       <use xlink:href="#DejaVuSans-37"/>
       <use xlink:href="#DejaVuSans-30" x="63.623047"/>
      </g>
     </g>
    </g>
    <g id="ytick_4">
     <g id="line2d_12">
      <path d="M 51.804688 348.15363 
L 944.604687 348.15363 
" clip-path="url(#pacb4eef6a0)" style="fill: none; stroke: #b0b0b0; stroke-opacity: 0.5; stroke-width: 0.8; stroke-linecap: square"/>
     </g>
     <g id="line2d_13">
      <g>
       <use xlink:href="#m7fbda8dc96" x="51.804688" y="348.15363" style="stroke: #000000; stroke-width: 0.8"/>
      </g>
     </g>
     <g id="text_10">
      <!-- 80 -->
      <g transform="translate(32.079688 351.952849)scale(0.1 -0.1)">
       <use xlink:href="#DejaVuSans-38"/>
       <use xlink:href="#DejaVuSans-30" x="63.623047"/>
      </g>
     </g>
    </g>
    <g id="ytick_5">
     <g id="line2d_14">
      <path d="M 51.804688 241.877971 
L 944.604687 241.877971 
" clip-path="url(#pacb4eef6a0)" style="fill: none; stroke: #b0b0b0; stroke-opacity: 0.5; stroke-width: 0.8; stroke-linecap: square"/>
     </g>
     <g id="line2d_15">
      <g>
       <use xlink:href="#m7fbda8dc96" x="51.804688" y="241.877971" style="stroke: #000000; stroke-width: 0.8"/>
      </g>
     </g>
     <g id="text_11">
      <!-- 90 -->
      <g transform="translate(32.079688 245.677189)scale(0.1 -0.1)">
       <defs>
        <path id="DejaVuSans-39" d="M 703 97 
L 703 672 
Q 941 559 1184 500 
Q 1428 441 1663 441 
Q 2288 441 2617 861 
Q 2947 1281 2994 2138 
Q 2813 1869 2534 1725 
Q 2256 1581 1919 1581 
Q 1219 1581 811 2004 
Q 403 2428 403 3163 
Q 403 3881 828 4315 
Q 1253 4750 1959 4750 
Q 2769 4750 3195 4129 
Q 3622 3509 3622 2328 
Q 3622 1225 3098 567 
Q 2575 -91 1691 -91 
Q 1453 -91 1209 -44 
Q 966 3 703 97 
z
M 1959 2075 
Q 2384 2075 2632 2365 
Q 2881 2656 2881 3163 
Q 2881 3666 2632 3958 
Q 2384 4250 1959 4250 
Q 1534 4250 1286 3958 
Q 1038 3666 1038 3163 
Q 1038 2656 1286 2365 
Q 1534 2075 1959 2075 
z
" transform="scale(0.015625)"/>
       </defs>
       <use xlink:href="#DejaVuSans-39"/>
       <use xlink:href="#DejaVuSans-30" x="63.623047"/>
      </g>
     </g>
    </g>
    <g id="ytick_6">
     <g id="line2d_16">
      <path d="M 51.804688 135.602311 
L 944.604687 135.602311 
" clip-path="url(#pacb4eef6a0)" style="fill: none; stroke: #b0b0b0; stroke-opacity: 0.5; stroke-width: 0.8; stroke-linecap: square"/>
     </g>
     <g id="line2d_17">
      <g>
       <use xlink:href="#m7fbda8dc96" x="51.804688" y="135.602311" style="stroke: #000000; stroke-width: 0.8"/>
      </g>
     </g>
     <g id="text_12">
      <!-- 100 -->
      <g transform="translate(25.717188 139.40153)scale(0.1 -0.1)">
       <use xlink:href="#DejaVuSans-31"/>
       <use xlink:href="#DejaVuSans-30" x="63.623047"/>
       <use xlink:href="#DejaVuSans-30" x="127.246094"/>
      </g>
     </g>
    </g>
    <g id="text_13">
     <!-- Doses [Gy] -->
     <g transform="translate(18.597656 399.635391)rotate(-90)scale(0.15 -0.15)">
      <defs>
       <path id="DejaVuSans-47" d="M 3809 666 
L 3809 1919 
L 2778 1919 
L 2778 2438 
L 4434 2438 
L 4434 434 
Q 4069 175 3628 42 
Q 3188 -91 2688 -91 
Q 1594 -91 976 548 
Q 359 1188 359 2328 
Q 359 3472 976 4111 
Q 1594 4750 2688 4750 
Q 3144 4750 3555 4637 
Q 3966 4525 4313 4306 
L 4313 3634 
Q 3963 3931 3569 4081 
Q 3175 4231 2741 4231 
Q 1884 4231 1454 3753 
Q 1025 3275 1025 2328 
Q 1025 1384 1454 906 
Q 1884 428 2741 428 
Q 3075 428 3337 486 
Q 3600 544 3809 666 
z
" transform="scale(0.015625)"/>
       <path id="DejaVuSans-79" d="M 2059 -325 
Q 1816 -950 1584 -1140 
Q 1353 -1331 966 -1331 
L 506 -1331 
L 506 -850 
L 844 -850 
Q 1081 -850 1212 -737 
Q 1344 -625 1503 -206 
L 1606 56 
L 191 3500 
L 800 3500 
L 1894 763 
L 2988 3500 
L 3597 3500 
L 2059 -325 
z
" transform="scale(0.015625)"/>
      </defs>
      <use xlink:href="#DejaVuSans-44"/>
      <use xlink:href="#DejaVuSans-6f" x="77.001953"/>
      <use xlink:href="#DejaVuSans-73" x="138.183594"/>
      <use xlink:href="#DejaVuSans-65" x="190.283203"/>
      <use xlink:href="#DejaVuSans-73" x="251.806641"/>
      <use xlink:href="#DejaVuSans-20" x="303.90625"/>
      <use xlink:href="#DejaVuSans-5b" x="335.693359"/>
      <use xlink:href="#DejaVuSans-47" x="374.707031"/>
      <use xlink:href="#DejaVuSans-79" x="452.197266"/>
      <use xlink:href="#DejaVuSans-5d" x="511.376953"/>
     </g>
    </g>
   </g>
   <g id="patch_3">
    <path d="M 51.804688 684.516094 
L 51.804688 32.196094 
" style="fill: none; stroke: #000000; stroke-width: 0.8; stroke-linejoin: miter; stroke-linecap: square"/>
   </g>
   <g id="patch_4">
    <path d="M 944.604687 684.516094 
L 944.604687 32.196094 
" style="fill: none; stroke: #000000; stroke-width: 0.8; stroke-linejoin: miter; stroke-linecap: square"/>
   </g>
   <g id="patch_5">
    <path d="M 51.804688 684.516094 
L 944.604687 684.516094 
" style="fill: none; stroke: #000000; stroke-width: 0.8; stroke-linejoin: miter; stroke-linecap: square"/>
   </g>
   <g id="patch_6">
    <path d="M 51.804688 32.196094 
L 944.604687 32.196094 
" style="fill: none; stroke: #000000; stroke-width: 0.8; stroke-linejoin: miter; stroke-linecap: square"/>
   </g>
   <g id="text_14">
    <!-- Number of doses w.r.t. duration treatment time -->
    <g transform="translate(202.36875 26.196094)scale(0.25 -0.25)">
     <defs>
      <path id="DejaVuSans-4e" d="M 628 4666 
L 1478 4666 
L 3547 763 
L 3547 4666 
L 4159 4666 
L 4159 0 
L 3309 0 
L 1241 3903 
L 1241 0 
L 628 0 
L 628 4666 
z
" transform="scale(0.015625)"/>
      <path id="DejaVuSans-62" d="M 3116 1747 
Q 3116 2381 2855 2742 
Q 2594 3103 2138 3103 
Q 1681 3103 1420 2742 
Q 1159 2381 1159 1747 
Q 1159 1113 1420 752 
Q 1681 391 2138 391 
Q 2594 391 2855 752 
Q 3116 1113 3116 1747 
z
M 1159 2969 
Q 1341 3281 1617 3432 
Q 1894 3584 2278 3584 
Q 2916 3584 3314 3078 
Q 3713 2572 3713 1747 
Q 3713 922 3314 415 
Q 2916 -91 2278 -91 
Q 1894 -91 1617 61 
Q 1341 213 1159 525 
L 1159 0 
L 581 0 
L 581 4863 
L 1159 4863 
L 1159 2969 
z
" transform="scale(0.015625)"/>
      <path id="DejaVuSans-66" d="M 2375 4863 
L 2375 4384 
L 1825 4384 
Q 1516 4384 1395 4259 
Q 1275 4134 1275 3809 
L 1275 3500 
L 2222 3500 
L 2222 3053 
L 1275 3053 
L 1275 0 
L 697 0 
L 697 3053 
L 147 3053 
L 147 3500 
L 697 3500 
L 697 3744 
Q 697 4328 969 4595 
Q 1241 4863 1831 4863 
L 2375 4863 
z
" transform="scale(0.015625)"/>
      <path id="DejaVuSans-64" d="M 2906 2969 
L 2906 4863 
L 3481 4863 
L 3481 0 
L 2906 0 
L 2906 525 
Q 2725 213 2448 61 
Q 2172 -91 1784 -91 
Q 1150 -91 751 415 
Q 353 922 353 1747 
Q 353 2572 751 3078 
Q 1150 3584 1784 3584 
Q 2172 3584 2448 3432 
Q 2725 3281 2906 2969 
z
M 947 1747 
Q 947 1113 1208 752 
Q 1469 391 1925 391 
Q 2381 391 2643 752 
Q 2906 1113 2906 1747 
Q 2906 2381 2643 2742 
Q 2381 3103 1925 3103 
Q 1469 3103 1208 2742 
Q 947 2381 947 1747 
z
" transform="scale(0.015625)"/>
      <path id="DejaVuSans-77" d="M 269 3500 
L 844 3500 
L 1563 769 
L 2278 3500 
L 2956 3500 
L 3675 769 
L 4391 3500 
L 4966 3500 
L 4050 0 
L 3372 0 
L 2619 2869 
L 1863 0 
L 1184 0 
L 269 3500 
z
" transform="scale(0.015625)"/>
      <path id="DejaVuSans-2e" d="M 684 794 
L 1344 794 
L 1344 0 
L 684 0 
L 684 794 
z
" transform="scale(0.015625)"/>
     </defs>
     <use xlink:href="#DejaVuSans-4e"/>
     <use xlink:href="#DejaVuSans-75" x="74.804688"/>
     <use xlink:href="#DejaVuSans-6d" x="138.183594"/>
     <use xlink:href="#DejaVuSans-62" x="235.595703"/>
     <use xlink:href="#DejaVuSans-65" x="299.072266"/>
     <use xlink:href="#DejaVuSans-72" x="360.595703"/>
     <use xlink:href="#DejaVuSans-20" x="401.708984"/>
     <use xlink:href="#DejaVuSans-6f" x="433.496094"/>
     <use xlink:href="#DejaVuSans-66" x="494.677734"/>
     <use xlink:href="#DejaVuSans-20" x="529.882812"/>
     <use xlink:href="#DejaVuSans-64" x="561.669922"/>
     <use xlink:href="#DejaVuSans-6f" x="625.146484"/>
     <use xlink:href="#DejaVuSans-73" x="686.328125"/>
     <use xlink:href="#DejaVuSans-65" x="738.427734"/>
     <use xlink:href="#DejaVuSans-73" x="799.951172"/>
     <use xlink:href="#DejaVuSans-20" x="852.050781"/>
     <use xlink:href="#DejaVuSans-77" x="883.837891"/>
     <use xlink:href="#DejaVuSans-2e" x="956.5"/>
     <use xlink:href="#DejaVuSans-72" x="988.287109"/>
     <use xlink:href="#DejaVuSans-2e" x="1020.275391"/>
     <use xlink:href="#DejaVuSans-74" x="1052.0625"/>
     <use xlink:href="#DejaVuSans-2e" x="1091.271484"/>
     <use xlink:href="#DejaVuSans-20" x="1123.058594"/>
     <use xlink:href="#DejaVuSans-64" x="1154.845703"/>
     <use xlink:href="#DejaVuSans-75" x="1218.322266"/>
     <use xlink:href="#DejaVuSans-72" x="1281.701172"/>
     <use xlink:href="#DejaVuSans-61" x="1322.814453"/>
     <use xlink:href="#DejaVuSans-74" x="1384.09375"/>
     <use xlink:href="#DejaVuSans-69" x="1423.302734"/>
     <use xlink:href="#DejaVuSans-6f" x="1451.085938"/>
     <use xlink:href="#DejaVuSans-6e" x="1512.267578"/>
     <use xlink:href="#DejaVuSans-20" x="1575.646484"/>
     <use xlink:href="#DejaVuSans-74" x="1607.433594"/>
     <use xlink:href="#DejaVuSans-72" x="1646.642578"/>
     <use xlink:href="#DejaVuSans-65" x="1685.505859"/>
     <use xlink:href="#DejaVuSans-61" x="1747.029297"/>
     <use xlink:href="#DejaVuSans-74" x="1808.308594"/>
     <use xlink:href="#DejaVuSans-6d" x="1847.517578"/>
     <use xlink:href="#DejaVuSans-65" x="1944.929688"/>
     <use xlink:href="#DejaVuSans-6e" x="2006.453125"/>
     <use xlink:href="#DejaVuSans-74" x="2069.832031"/>
     <use xlink:href="#DejaVuSans-20" x="2109.041016"/>
     <use xlink:href="#DejaVuSans-74" x="2140.828125"/>
     <use xlink:href="#DejaVuSans-69" x="2180.037109"/>
     <use xlink:href="#DejaVuSans-6d" x="2207.820312"/>
     <use xlink:href="#DejaVuSans-65" x="2305.232422"/>
    </g>
   </g>
   <g id="legend_1">
    <g id="patch_7">
     <path d="M 824.139687 73.016719 
L 932.004687 73.016719 
Q 935.604687 73.016719 935.604687 69.416719 
L 935.604687 44.796094 
Q 935.604687 41.196094 932.004687 41.196094 
L 824.139687 41.196094 
Q 820.539687 41.196094 820.539687 44.796094 
L 820.539687 69.416719 
Q 820.539687 73.016719 824.139687 73.016719 
z
" style="fill: #ffffff; opacity: 0.8; stroke: #cccccc; stroke-linejoin: miter"/>
    </g>
    <g id="PathCollection_2">
     <defs>
      <path id="m2dcadc5f72" d="M 0 3.553168 
C 0.942311 3.553168 1.846154 3.178783 2.512469 2.512469 
C 3.178783 1.846154 3.553168 0.942311 3.553168 0 
C 3.553168 -0.942311 3.178783 -1.846154 2.512469 -2.512469 
C 1.846154 -3.178783 0.942311 -3.553168 0 -3.553168 
C -0.942311 -3.553168 -1.846154 -3.178783 -2.512469 -2.512469 
C -3.178783 -1.846154 -3.553168 -0.942311 -3.553168 0 
C -3.553168 0.942311 -3.178783 1.846154 -2.512469 2.512469 
C -1.846154 3.178783 -0.942311 3.553168 0 3.553168 
z
" style="stroke: #1f77b4"/>
     </defs>
     <g>
      <use xlink:href="#m2dcadc5f72" x="845.739687" y="57.348281" style="fill: #1f77b4; stroke: #1f77b4"/>
     </g>
    </g>
    <g id="text_15">
     <!-- Sarsa -->
     <g transform="translate(878.139687 62.073281)scale(0.18 -0.18)">
      <defs>
       <path id="DejaVuSans-53" d="M 3425 4513 
L 3425 3897 
Q 3066 4069 2747 4153 
Q 2428 4238 2131 4238 
Q 1616 4238 1336 4038 
Q 1056 3838 1056 3469 
Q 1056 3159 1242 3001 
Q 1428 2844 1947 2747 
L 2328 2669 
Q 3034 2534 3370 2195 
Q 3706 1856 3706 1288 
Q 3706 609 3251 259 
Q 2797 -91 1919 -91 
Q 1588 -91 1214 -16 
Q 841 59 441 206 
L 441 856 
Q 825 641 1194 531 
Q 1563 422 1919 422 
Q 2459 422 2753 634 
Q 3047 847 3047 1241 
Q 3047 1584 2836 1778 
Q 2625 1972 2144 2069 
L 1759 2144 
Q 1053 2284 737 2584 
Q 422 2884 422 3419 
Q 422 4038 858 4394 
Q 1294 4750 2059 4750 
Q 2388 4750 2728 4690 
Q 3069 4631 3425 4513 
z
" transform="scale(0.015625)"/>
      </defs>
      <use xlink:href="#DejaVuSans-53"/>
      <use xlink:href="#DejaVuSans-61" x="63.476562"/>
      <use xlink:href="#DejaVuSans-72" x="124.755859"/>
      <use xlink:href="#DejaVuSans-73" x="165.869141"/>
      <use xlink:href="#DejaVuSans-61" x="217.96875"/>
     </g>
    </g>
   </g>
  </g>
 </g>
 <defs>
  <clipPath id="pacb4eef6a0">
   <rect x="51.804688" y="32.196094" width="892.8" height="652.32"/>
  </clipPath>
 </defs>
</svg>
