<?xml version="1.0" encoding="utf-8" standalone="no"?>
<!DOCTYPE svg PUBLIC "-//W3C//DTD SVG 1.1//EN"
  "http://www.w3.org/Graphics/SVG/1.1/DTD/svg11.dtd">
<svg xmlns:xlink="http://www.w3.org/1999/xlink" width="781.617165pt" height="596.349687pt" viewBox="0 0 781.617165 596.349687" xmlns="http://www.w3.org/2000/svg" version="1.1">
 <metadata>
  <rdf:RDF xmlns:dc="http://purl.org/dc/elements/1.1/" xmlns:cc="http://creativecommons.org/ns#" xmlns:rdf="http://www.w3.org/1999/02/22-rdf-syntax-ns#">
   <cc:Work>
    <dc:type rdf:resource="http://purl.org/dc/dcmitype/StillImage"/>
    <dc:date>2023-04-25T14:43:59.863496</dc:date>
    <dc:format>image/svg+xml</dc:format>
    <dc:creator>
     <cc:Agent>
      <dc:title>Matplotlib v3.5.3, https://matplotlib.org/</dc:title>
     </cc:Agent>
    </dc:creator>
   </cc:Work>
  </rdf:RDF>
 </metadata>
 <defs>
  <style type="text/css">*{stroke-linejoin: round; stroke-linecap: butt}</style>
 </defs>
 <g id="figure_1">
  <g id="patch_1">
   <path d="M -0 596.349687 
L 781.617165 596.349687 
L 781.617165 0 
L -0 0 
z
" style="fill: #ffffff"/>
  </g>
  <g id="axes_1">
   <g id="patch_2">
    <path d="M 46.571563 553.299219 
L 698.022665 553.299219 
L 698.022665 31.399219 
L 46.571563 31.399219 
z
" style="fill: #ffffff"/>
   </g>
   <g id="matplotlib.axis_1">
    <g id="xtick_1">
     <g id="line2d_1">
      <path d="M 117.675315 553.299219 
L 117.675315 31.399219 
" clip-path="url(#pd80e4e7ca6)" style="fill: none; stroke: #cccccc; stroke-width: 0.8; stroke-linecap: round"/>
     </g>
     <g id="line2d_2"/>
     <g id="text_1">
      <!-- 400 -->
      <g style="fill: #262626" transform="translate(104.329065 568.251719)scale(0.16 -0.16)">
       <defs>
        <path id="ArialMT-34" d="M 2069 0 
L 2069 1097 
L 81 1097 
L 81 1613 
L 2172 4581 
L 2631 4581 
L 2631 1613 
L 3250 1613 
L 3250 1097 
L 2631 1097 
L 2631 0 
L 2069 0 
z
M 2069 1613 
L 2069 3678 
L 634 1613 
L 2069 1613 
z
" transform="scale(0.015625)"/>
        <path id="ArialMT-30" d="M 266 2259 
Q 266 3072 433 3567 
Q 600 4063 929 4331 
Q 1259 4600 1759 4600 
Q 2128 4600 2406 4451 
Q 2684 4303 2865 4023 
Q 3047 3744 3150 3342 
Q 3253 2941 3253 2259 
Q 3253 1453 3087 958 
Q 2922 463 2592 192 
Q 2263 -78 1759 -78 
Q 1097 -78 719 397 
Q 266 969 266 2259 
z
M 844 2259 
Q 844 1131 1108 757 
Q 1372 384 1759 384 
Q 2147 384 2411 759 
Q 2675 1134 2675 2259 
Q 2675 3391 2411 3762 
Q 2147 4134 1753 4134 
Q 1366 4134 1134 3806 
Q 844 3388 844 2259 
z
" transform="scale(0.015625)"/>
       </defs>
       <use xlink:href="#ArialMT-34"/>
       <use xlink:href="#ArialMT-30" x="55.615234"/>
       <use xlink:href="#ArialMT-30" x="111.230469"/>
      </g>
     </g>
    </g>
    <g id="xtick_2">
     <g id="line2d_3">
      <path d="M 251.349086 553.299219 
L 251.349086 31.399219 
" clip-path="url(#pd80e4e7ca6)" style="fill: none; stroke: #cccccc; stroke-width: 0.8; stroke-linecap: round"/>
     </g>
     <g id="line2d_4"/>
     <g id="text_2">
      <!-- 600 -->
      <g style="fill: #262626" transform="translate(238.002836 568.251719)scale(0.16 -0.16)">
       <defs>
        <path id="ArialMT-36" d="M 3184 3459 
L 2625 3416 
Q 2550 3747 2413 3897 
Q 2184 4138 1850 4138 
Q 1581 4138 1378 3988 
Q 1113 3794 959 3422 
Q 806 3050 800 2363 
Q 1003 2672 1297 2822 
Q 1591 2972 1913 2972 
Q 2475 2972 2870 2558 
Q 3266 2144 3266 1488 
Q 3266 1056 3080 686 
Q 2894 316 2569 119 
Q 2244 -78 1831 -78 
Q 1128 -78 684 439 
Q 241 956 241 2144 
Q 241 3472 731 4075 
Q 1159 4600 1884 4600 
Q 2425 4600 2770 4297 
Q 3116 3994 3184 3459 
z
M 888 1484 
Q 888 1194 1011 928 
Q 1134 663 1356 523 
Q 1578 384 1822 384 
Q 2178 384 2434 671 
Q 2691 959 2691 1453 
Q 2691 1928 2437 2201 
Q 2184 2475 1800 2475 
Q 1419 2475 1153 2201 
Q 888 1928 888 1484 
z
" transform="scale(0.015625)"/>
       </defs>
       <use xlink:href="#ArialMT-36"/>
       <use xlink:href="#ArialMT-30" x="55.615234"/>
       <use xlink:href="#ArialMT-30" x="111.230469"/>
      </g>
     </g>
    </g>
    <g id="xtick_3">
     <g id="line2d_5">
      <path d="M 385.022857 553.299219 
L 385.022857 31.399219 
" clip-path="url(#pd80e4e7ca6)" style="fill: none; stroke: #cccccc; stroke-width: 0.8; stroke-linecap: round"/>
     </g>
     <g id="line2d_6"/>
     <g id="text_3">
      <!-- 800 -->
      <g style="fill: #262626" transform="translate(371.676607 568.251719)scale(0.16 -0.16)">
       <defs>
        <path id="ArialMT-38" d="M 1131 2484 
Q 781 2613 612 2850 
Q 444 3088 444 3419 
Q 444 3919 803 4259 
Q 1163 4600 1759 4600 
Q 2359 4600 2725 4251 
Q 3091 3903 3091 3403 
Q 3091 3084 2923 2848 
Q 2756 2613 2416 2484 
Q 2838 2347 3058 2040 
Q 3278 1734 3278 1309 
Q 3278 722 2862 322 
Q 2447 -78 1769 -78 
Q 1091 -78 675 323 
Q 259 725 259 1325 
Q 259 1772 486 2073 
Q 713 2375 1131 2484 
z
M 1019 3438 
Q 1019 3113 1228 2906 
Q 1438 2700 1772 2700 
Q 2097 2700 2305 2904 
Q 2513 3109 2513 3406 
Q 2513 3716 2298 3927 
Q 2084 4138 1766 4138 
Q 1444 4138 1231 3931 
Q 1019 3725 1019 3438 
z
M 838 1322 
Q 838 1081 952 856 
Q 1066 631 1291 507 
Q 1516 384 1775 384 
Q 2178 384 2440 643 
Q 2703 903 2703 1303 
Q 2703 1709 2433 1975 
Q 2163 2241 1756 2241 
Q 1359 2241 1098 1978 
Q 838 1716 838 1322 
z
" transform="scale(0.015625)"/>
       </defs>
       <use xlink:href="#ArialMT-38"/>
       <use xlink:href="#ArialMT-30" x="55.615234"/>
       <use xlink:href="#ArialMT-30" x="111.230469"/>
      </g>
     </g>
    </g>
    <g id="xtick_4">
     <g id="line2d_7">
      <path d="M 518.696628 553.299219 
L 518.696628 31.399219 
" clip-path="url(#pd80e4e7ca6)" style="fill: none; stroke: #cccccc; stroke-width: 0.8; stroke-linecap: round"/>
     </g>
     <g id="line2d_8"/>
     <g id="text_4">
      <!-- 1000 -->
      <g style="fill: #262626" transform="translate(500.901628 568.251719)scale(0.16 -0.16)">
       <defs>
        <path id="ArialMT-31" d="M 2384 0 
L 1822 0 
L 1822 3584 
Q 1619 3391 1289 3197 
Q 959 3003 697 2906 
L 697 3450 
Q 1169 3672 1522 3987 
Q 1875 4303 2022 4600 
L 2384 4600 
L 2384 0 
z
" transform="scale(0.015625)"/>
       </defs>
       <use xlink:href="#ArialMT-31"/>
       <use xlink:href="#ArialMT-30" x="55.615234"/>
       <use xlink:href="#ArialMT-30" x="111.230469"/>
       <use xlink:href="#ArialMT-30" x="166.845703"/>
      </g>
     </g>
    </g>
    <g id="xtick_5">
     <g id="line2d_9">
      <path d="M 652.370399 553.299219 
L 652.370399 31.399219 
" clip-path="url(#pd80e4e7ca6)" style="fill: none; stroke: #cccccc; stroke-width: 0.8; stroke-linecap: round"/>
     </g>
     <g id="line2d_10"/>
     <g id="text_5">
      <!-- 1200 -->
      <g style="fill: #262626" transform="translate(634.575399 568.251719)scale(0.16 -0.16)">
       <defs>
        <path id="ArialMT-32" d="M 3222 541 
L 3222 0 
L 194 0 
Q 188 203 259 391 
Q 375 700 629 1000 
Q 884 1300 1366 1694 
Q 2113 2306 2375 2664 
Q 2638 3022 2638 3341 
Q 2638 3675 2398 3904 
Q 2159 4134 1775 4134 
Q 1369 4134 1125 3890 
Q 881 3647 878 3216 
L 300 3275 
Q 359 3922 746 4261 
Q 1134 4600 1788 4600 
Q 2447 4600 2831 4234 
Q 3216 3869 3216 3328 
Q 3216 3053 3103 2787 
Q 2991 2522 2730 2228 
Q 2469 1934 1863 1422 
Q 1356 997 1212 845 
Q 1069 694 975 541 
L 3222 541 
z
" transform="scale(0.015625)"/>
       </defs>
       <use xlink:href="#ArialMT-31"/>
       <use xlink:href="#ArialMT-32" x="55.615234"/>
       <use xlink:href="#ArialMT-30" x="111.230469"/>
       <use xlink:href="#ArialMT-30" x="166.845703"/>
      </g>
     </g>
    </g>
    <g id="text_6">
     <!-- Treatment Duration [hours] -->
     <g style="fill: #262626" transform="translate(282.962739 586.168437)scale(0.15 -0.15)">
      <defs>
       <path id="ArialMT-54" d="M 1659 0 
L 1659 4041 
L 150 4041 
L 150 4581 
L 3781 4581 
L 3781 4041 
L 2266 4041 
L 2266 0 
L 1659 0 
z
" transform="scale(0.015625)"/>
       <path id="ArialMT-72" d="M 416 0 
L 416 3319 
L 922 3319 
L 922 2816 
Q 1116 3169 1280 3281 
Q 1444 3394 1641 3394 
Q 1925 3394 2219 3213 
L 2025 2691 
Q 1819 2813 1613 2813 
Q 1428 2813 1281 2702 
Q 1134 2591 1072 2394 
Q 978 2094 978 1738 
L 978 0 
L 416 0 
z
" transform="scale(0.015625)"/>
       <path id="ArialMT-65" d="M 2694 1069 
L 3275 997 
Q 3138 488 2766 206 
Q 2394 -75 1816 -75 
Q 1088 -75 661 373 
Q 234 822 234 1631 
Q 234 2469 665 2931 
Q 1097 3394 1784 3394 
Q 2450 3394 2872 2941 
Q 3294 2488 3294 1666 
Q 3294 1616 3291 1516 
L 816 1516 
Q 847 969 1125 678 
Q 1403 388 1819 388 
Q 2128 388 2347 550 
Q 2566 713 2694 1069 
z
M 847 1978 
L 2700 1978 
Q 2663 2397 2488 2606 
Q 2219 2931 1791 2931 
Q 1403 2931 1139 2672 
Q 875 2413 847 1978 
z
" transform="scale(0.015625)"/>
       <path id="ArialMT-61" d="M 2588 409 
Q 2275 144 1986 34 
Q 1697 -75 1366 -75 
Q 819 -75 525 192 
Q 231 459 231 875 
Q 231 1119 342 1320 
Q 453 1522 633 1644 
Q 813 1766 1038 1828 
Q 1203 1872 1538 1913 
Q 2219 1994 2541 2106 
Q 2544 2222 2544 2253 
Q 2544 2597 2384 2738 
Q 2169 2928 1744 2928 
Q 1347 2928 1158 2789 
Q 969 2650 878 2297 
L 328 2372 
Q 403 2725 575 2942 
Q 747 3159 1072 3276 
Q 1397 3394 1825 3394 
Q 2250 3394 2515 3294 
Q 2781 3194 2906 3042 
Q 3031 2891 3081 2659 
Q 3109 2516 3109 2141 
L 3109 1391 
Q 3109 606 3145 398 
Q 3181 191 3288 0 
L 2700 0 
Q 2613 175 2588 409 
z
M 2541 1666 
Q 2234 1541 1622 1453 
Q 1275 1403 1131 1340 
Q 988 1278 909 1158 
Q 831 1038 831 891 
Q 831 666 1001 516 
Q 1172 366 1500 366 
Q 1825 366 2078 508 
Q 2331 650 2450 897 
Q 2541 1088 2541 1459 
L 2541 1666 
z
" transform="scale(0.015625)"/>
       <path id="ArialMT-74" d="M 1650 503 
L 1731 6 
Q 1494 -44 1306 -44 
Q 1000 -44 831 53 
Q 663 150 594 308 
Q 525 466 525 972 
L 525 2881 
L 113 2881 
L 113 3319 
L 525 3319 
L 525 4141 
L 1084 4478 
L 1084 3319 
L 1650 3319 
L 1650 2881 
L 1084 2881 
L 1084 941 
Q 1084 700 1114 631 
Q 1144 563 1211 522 
Q 1278 481 1403 481 
Q 1497 481 1650 503 
z
" transform="scale(0.015625)"/>
       <path id="ArialMT-6d" d="M 422 0 
L 422 3319 
L 925 3319 
L 925 2853 
Q 1081 3097 1340 3245 
Q 1600 3394 1931 3394 
Q 2300 3394 2536 3241 
Q 2772 3088 2869 2813 
Q 3263 3394 3894 3394 
Q 4388 3394 4653 3120 
Q 4919 2847 4919 2278 
L 4919 0 
L 4359 0 
L 4359 2091 
Q 4359 2428 4304 2576 
Q 4250 2725 4106 2815 
Q 3963 2906 3769 2906 
Q 3419 2906 3187 2673 
Q 2956 2441 2956 1928 
L 2956 0 
L 2394 0 
L 2394 2156 
Q 2394 2531 2256 2718 
Q 2119 2906 1806 2906 
Q 1569 2906 1367 2781 
Q 1166 2656 1075 2415 
Q 984 2175 984 1722 
L 984 0 
L 422 0 
z
" transform="scale(0.015625)"/>
       <path id="ArialMT-6e" d="M 422 0 
L 422 3319 
L 928 3319 
L 928 2847 
Q 1294 3394 1984 3394 
Q 2284 3394 2536 3286 
Q 2788 3178 2913 3003 
Q 3038 2828 3088 2588 
Q 3119 2431 3119 2041 
L 3119 0 
L 2556 0 
L 2556 2019 
Q 2556 2363 2490 2533 
Q 2425 2703 2258 2804 
Q 2091 2906 1866 2906 
Q 1506 2906 1245 2678 
Q 984 2450 984 1813 
L 984 0 
L 422 0 
z
" transform="scale(0.015625)"/>
       <path id="ArialMT-20" transform="scale(0.015625)"/>
       <path id="ArialMT-44" d="M 494 0 
L 494 4581 
L 2072 4581 
Q 2606 4581 2888 4516 
Q 3281 4425 3559 4188 
Q 3922 3881 4101 3404 
Q 4281 2928 4281 2316 
Q 4281 1794 4159 1391 
Q 4038 988 3847 723 
Q 3656 459 3429 307 
Q 3203 156 2883 78 
Q 2563 0 2147 0 
L 494 0 
z
M 1100 541 
L 2078 541 
Q 2531 541 2789 625 
Q 3047 709 3200 863 
Q 3416 1078 3536 1442 
Q 3656 1806 3656 2325 
Q 3656 3044 3420 3430 
Q 3184 3816 2847 3947 
Q 2603 4041 2063 4041 
L 1100 4041 
L 1100 541 
z
" transform="scale(0.015625)"/>
       <path id="ArialMT-75" d="M 2597 0 
L 2597 488 
Q 2209 -75 1544 -75 
Q 1250 -75 995 37 
Q 741 150 617 320 
Q 494 491 444 738 
Q 409 903 409 1263 
L 409 3319 
L 972 3319 
L 972 1478 
Q 972 1038 1006 884 
Q 1059 663 1231 536 
Q 1403 409 1656 409 
Q 1909 409 2131 539 
Q 2353 669 2445 892 
Q 2538 1116 2538 1541 
L 2538 3319 
L 3100 3319 
L 3100 0 
L 2597 0 
z
" transform="scale(0.015625)"/>
       <path id="ArialMT-69" d="M 425 3934 
L 425 4581 
L 988 4581 
L 988 3934 
L 425 3934 
z
M 425 0 
L 425 3319 
L 988 3319 
L 988 0 
L 425 0 
z
" transform="scale(0.015625)"/>
       <path id="ArialMT-6f" d="M 213 1659 
Q 213 2581 725 3025 
Q 1153 3394 1769 3394 
Q 2453 3394 2887 2945 
Q 3322 2497 3322 1706 
Q 3322 1066 3130 698 
Q 2938 331 2570 128 
Q 2203 -75 1769 -75 
Q 1072 -75 642 372 
Q 213 819 213 1659 
z
M 791 1659 
Q 791 1022 1069 705 
Q 1347 388 1769 388 
Q 2188 388 2466 706 
Q 2744 1025 2744 1678 
Q 2744 2294 2464 2611 
Q 2184 2928 1769 2928 
Q 1347 2928 1069 2612 
Q 791 2297 791 1659 
z
" transform="scale(0.015625)"/>
       <path id="ArialMT-5b" d="M 434 -1272 
L 434 4581 
L 1675 4581 
L 1675 4116 
L 997 4116 
L 997 -806 
L 1675 -806 
L 1675 -1272 
L 434 -1272 
z
" transform="scale(0.015625)"/>
       <path id="ArialMT-68" d="M 422 0 
L 422 4581 
L 984 4581 
L 984 2938 
Q 1378 3394 1978 3394 
Q 2347 3394 2619 3248 
Q 2891 3103 3008 2847 
Q 3125 2591 3125 2103 
L 3125 0 
L 2563 0 
L 2563 2103 
Q 2563 2525 2380 2717 
Q 2197 2909 1863 2909 
Q 1613 2909 1392 2779 
Q 1172 2650 1078 2428 
Q 984 2206 984 1816 
L 984 0 
L 422 0 
z
" transform="scale(0.015625)"/>
       <path id="ArialMT-73" d="M 197 991 
L 753 1078 
Q 800 744 1014 566 
Q 1228 388 1613 388 
Q 2000 388 2187 545 
Q 2375 703 2375 916 
Q 2375 1106 2209 1216 
Q 2094 1291 1634 1406 
Q 1016 1563 777 1677 
Q 538 1791 414 1992 
Q 291 2194 291 2438 
Q 291 2659 392 2848 
Q 494 3038 669 3163 
Q 800 3259 1026 3326 
Q 1253 3394 1513 3394 
Q 1903 3394 2198 3281 
Q 2494 3169 2634 2976 
Q 2775 2784 2828 2463 
L 2278 2388 
Q 2241 2644 2061 2787 
Q 1881 2931 1553 2931 
Q 1166 2931 1000 2803 
Q 834 2675 834 2503 
Q 834 2394 903 2306 
Q 972 2216 1119 2156 
Q 1203 2125 1616 2013 
Q 2213 1853 2448 1751 
Q 2684 1650 2818 1456 
Q 2953 1263 2953 975 
Q 2953 694 2789 445 
Q 2625 197 2315 61 
Q 2006 -75 1616 -75 
Q 969 -75 630 194 
Q 291 463 197 991 
z
" transform="scale(0.015625)"/>
       <path id="ArialMT-5d" d="M 1363 -1272 
L 122 -1272 
L 122 -806 
L 800 -806 
L 800 4116 
L 122 4116 
L 122 4581 
L 1363 4581 
L 1363 -1272 
z
" transform="scale(0.015625)"/>
      </defs>
      <use xlink:href="#ArialMT-54"/>
      <use xlink:href="#ArialMT-72" x="57.333984"/>
      <use xlink:href="#ArialMT-65" x="90.634766"/>
      <use xlink:href="#ArialMT-61" x="146.25"/>
      <use xlink:href="#ArialMT-74" x="201.865234"/>
      <use xlink:href="#ArialMT-6d" x="229.648438"/>
      <use xlink:href="#ArialMT-65" x="312.949219"/>
      <use xlink:href="#ArialMT-6e" x="368.564453"/>
      <use xlink:href="#ArialMT-74" x="424.179688"/>
      <use xlink:href="#ArialMT-20" x="451.962891"/>
      <use xlink:href="#ArialMT-44" x="479.746094"/>
      <use xlink:href="#ArialMT-75" x="551.962891"/>
      <use xlink:href="#ArialMT-72" x="607.578125"/>
      <use xlink:href="#ArialMT-61" x="640.878906"/>
      <use xlink:href="#ArialMT-74" x="696.494141"/>
      <use xlink:href="#ArialMT-69" x="724.277344"/>
      <use xlink:href="#ArialMT-6f" x="746.494141"/>
      <use xlink:href="#ArialMT-6e" x="802.109375"/>
      <use xlink:href="#ArialMT-20" x="857.724609"/>
      <use xlink:href="#ArialMT-5b" x="885.507812"/>
      <use xlink:href="#ArialMT-68" x="913.291016"/>
      <use xlink:href="#ArialMT-6f" x="968.90625"/>
      <use xlink:href="#ArialMT-75" x="1024.521484"/>
      <use xlink:href="#ArialMT-72" x="1080.136719"/>
      <use xlink:href="#ArialMT-73" x="1113.4375"/>
      <use xlink:href="#ArialMT-5d" x="1163.4375"/>
     </g>
    </g>
   </g>
   <g id="matplotlib.axis_2">
    <g id="ytick_1">
     <g id="line2d_11">
      <path d="M 46.571563 148.375325 
L 698.022665 148.375325 
" clip-path="url(#pd80e4e7ca6)" style="fill: none; stroke: #cccccc; stroke-opacity: 0.5; stroke-width: 0.8; stroke-linecap: round"/>
     </g>
     <g id="line2d_12"/>
     <g id="text_7">
      <!-- 90 -->
      <g style="fill: #262626" transform="translate(25.276563 154.101575)scale(0.16 -0.16)">
       <defs>
        <path id="ArialMT-39" d="M 350 1059 
L 891 1109 
Q 959 728 1153 556 
Q 1347 384 1650 384 
Q 1909 384 2104 503 
Q 2300 622 2425 820 
Q 2550 1019 2634 1356 
Q 2719 1694 2719 2044 
Q 2719 2081 2716 2156 
Q 2547 1888 2255 1720 
Q 1963 1553 1622 1553 
Q 1053 1553 659 1965 
Q 266 2378 266 3053 
Q 266 3750 677 4175 
Q 1088 4600 1706 4600 
Q 2153 4600 2523 4359 
Q 2894 4119 3086 3673 
Q 3278 3228 3278 2384 
Q 3278 1506 3087 986 
Q 2897 466 2520 194 
Q 2144 -78 1638 -78 
Q 1100 -78 759 220 
Q 419 519 350 1059 
z
M 2653 3081 
Q 2653 3566 2395 3850 
Q 2138 4134 1775 4134 
Q 1400 4134 1122 3828 
Q 844 3522 844 3034 
Q 844 2597 1108 2323 
Q 1372 2050 1759 2050 
Q 2150 2050 2401 2323 
Q 2653 2597 2653 3081 
z
" transform="scale(0.015625)"/>
       </defs>
       <use xlink:href="#ArialMT-39"/>
       <use xlink:href="#ArialMT-30" x="55.615234"/>
      </g>
     </g>
    </g>
    <g id="ytick_2">
     <g id="line2d_13">
      <path d="M 46.571563 138.430106 
L 698.022665 138.430106 
" clip-path="url(#pd80e4e7ca6)" style="fill: none; stroke: #cccccc; stroke-opacity: 0.5; stroke-width: 0.8; stroke-linecap: round"/>
     </g>
     <g id="line2d_14"/>
     <g id="text_8">
      <!-- 91 -->
      <g style="fill: #262626" transform="translate(25.276563 144.156356)scale(0.16 -0.16)">
       <use xlink:href="#ArialMT-39"/>
       <use xlink:href="#ArialMT-31" x="55.615234"/>
      </g>
     </g>
    </g>
    <g id="ytick_3">
     <g id="line2d_15">
      <path d="M 46.571563 128.484887 
L 698.022665 128.484887 
" clip-path="url(#pd80e4e7ca6)" style="fill: none; stroke: #cccccc; stroke-opacity: 0.5; stroke-width: 0.8; stroke-linecap: round"/>
     </g>
     <g id="line2d_16"/>
     <g id="text_9">
      <!-- 92 -->
      <g style="fill: #262626" transform="translate(25.276563 134.211137)scale(0.16 -0.16)">
       <use xlink:href="#ArialMT-39"/>
       <use xlink:href="#ArialMT-32" x="55.615234"/>
      </g>
     </g>
    </g>
    <g id="ytick_4">
     <g id="line2d_17">
      <path d="M 46.571563 118.539668 
L 698.022665 118.539668 
" clip-path="url(#pd80e4e7ca6)" style="fill: none; stroke: #cccccc; stroke-opacity: 0.5; stroke-width: 0.8; stroke-linecap: round"/>
     </g>
     <g id="line2d_18"/>
     <g id="text_10">
      <!-- 93 -->
      <g style="fill: #262626" transform="translate(25.276563 124.265918)scale(0.16 -0.16)">
       <defs>
        <path id="ArialMT-33" d="M 269 1209 
L 831 1284 
Q 928 806 1161 595 
Q 1394 384 1728 384 
Q 2125 384 2398 659 
Q 2672 934 2672 1341 
Q 2672 1728 2419 1979 
Q 2166 2231 1775 2231 
Q 1616 2231 1378 2169 
L 1441 2663 
Q 1497 2656 1531 2656 
Q 1891 2656 2178 2843 
Q 2466 3031 2466 3422 
Q 2466 3731 2256 3934 
Q 2047 4138 1716 4138 
Q 1388 4138 1169 3931 
Q 950 3725 888 3313 
L 325 3413 
Q 428 3978 793 4289 
Q 1159 4600 1703 4600 
Q 2078 4600 2393 4439 
Q 2709 4278 2876 4000 
Q 3044 3722 3044 3409 
Q 3044 3113 2884 2869 
Q 2725 2625 2413 2481 
Q 2819 2388 3044 2092 
Q 3269 1797 3269 1353 
Q 3269 753 2831 336 
Q 2394 -81 1725 -81 
Q 1122 -81 723 278 
Q 325 638 269 1209 
z
" transform="scale(0.015625)"/>
       </defs>
       <use xlink:href="#ArialMT-39"/>
       <use xlink:href="#ArialMT-33" x="55.615234"/>
      </g>
     </g>
    </g>
    <g id="ytick_5">
     <g id="line2d_19">
      <path d="M 46.571563 108.594449 
L 698.022665 108.594449 
" clip-path="url(#pd80e4e7ca6)" style="fill: none; stroke: #cccccc; stroke-opacity: 0.5; stroke-width: 0.8; stroke-linecap: round"/>
     </g>
     <g id="line2d_20"/>
     <g id="text_11">
      <!-- 94 -->
      <g style="fill: #262626" transform="translate(25.276563 114.320699)scale(0.16 -0.16)">
       <use xlink:href="#ArialMT-39"/>
       <use xlink:href="#ArialMT-34" x="55.615234"/>
      </g>
     </g>
    </g>
    <g id="ytick_6">
     <g id="line2d_21">
      <path d="M 46.571563 98.64923 
L 698.022665 98.64923 
" clip-path="url(#pd80e4e7ca6)" style="fill: none; stroke: #cccccc; stroke-opacity: 0.5; stroke-width: 0.8; stroke-linecap: round"/>
     </g>
     <g id="line2d_22"/>
     <g id="text_12">
      <!-- 95 -->
      <g style="fill: #262626" transform="translate(25.276563 104.37548)scale(0.16 -0.16)">
       <defs>
        <path id="ArialMT-35" d="M 266 1200 
L 856 1250 
Q 922 819 1161 601 
Q 1400 384 1738 384 
Q 2144 384 2425 690 
Q 2706 997 2706 1503 
Q 2706 1984 2436 2262 
Q 2166 2541 1728 2541 
Q 1456 2541 1237 2417 
Q 1019 2294 894 2097 
L 366 2166 
L 809 4519 
L 3088 4519 
L 3088 3981 
L 1259 3981 
L 1013 2750 
Q 1425 3038 1878 3038 
Q 2478 3038 2890 2622 
Q 3303 2206 3303 1553 
Q 3303 931 2941 478 
Q 2500 -78 1738 -78 
Q 1113 -78 717 272 
Q 322 622 266 1200 
z
" transform="scale(0.015625)"/>
       </defs>
       <use xlink:href="#ArialMT-39"/>
       <use xlink:href="#ArialMT-35" x="55.615234"/>
      </g>
     </g>
    </g>
    <g id="ytick_7">
     <g id="line2d_23">
      <path d="M 46.571563 88.704011 
L 698.022665 88.704011 
" clip-path="url(#pd80e4e7ca6)" style="fill: none; stroke: #cccccc; stroke-opacity: 0.5; stroke-width: 0.8; stroke-linecap: round"/>
     </g>
     <g id="line2d_24"/>
     <g id="text_13">
      <!-- 96 -->
      <g style="fill: #262626" transform="translate(25.276563 94.430261)scale(0.16 -0.16)">
       <use xlink:href="#ArialMT-39"/>
       <use xlink:href="#ArialMT-36" x="55.615234"/>
      </g>
     </g>
    </g>
    <g id="ytick_8">
     <g id="line2d_25">
      <path d="M 46.571563 78.758792 
L 698.022665 78.758792 
" clip-path="url(#pd80e4e7ca6)" style="fill: none; stroke: #cccccc; stroke-opacity: 0.5; stroke-width: 0.8; stroke-linecap: round"/>
     </g>
     <g id="line2d_26"/>
     <g id="text_14">
      <!-- 97 -->
      <g style="fill: #262626" transform="translate(25.276563 84.485042)scale(0.16 -0.16)">
       <defs>
        <path id="ArialMT-37" d="M 303 3981 
L 303 4522 
L 3269 4522 
L 3269 4084 
Q 2831 3619 2401 2847 
Q 1972 2075 1738 1259 
Q 1569 684 1522 0 
L 944 0 
Q 953 541 1156 1306 
Q 1359 2072 1739 2783 
Q 2119 3494 2547 3981 
L 303 3981 
z
" transform="scale(0.015625)"/>
       </defs>
       <use xlink:href="#ArialMT-39"/>
       <use xlink:href="#ArialMT-37" x="55.615234"/>
      </g>
     </g>
    </g>
    <g id="ytick_9">
     <g id="line2d_27">
      <path d="M 46.571563 68.813573 
L 698.022665 68.813573 
" clip-path="url(#pd80e4e7ca6)" style="fill: none; stroke: #cccccc; stroke-opacity: 0.5; stroke-width: 0.8; stroke-linecap: round"/>
     </g>
     <g id="line2d_28"/>
     <g id="text_15">
      <!-- 98 -->
      <g style="fill: #262626" transform="translate(25.276563 74.539823)scale(0.16 -0.16)">
       <use xlink:href="#ArialMT-39"/>
       <use xlink:href="#ArialMT-38" x="55.615234"/>
      </g>
     </g>
    </g>
    <g id="ytick_10">
     <g id="line2d_29">
      <path d="M 46.571563 58.868354 
L 698.022665 58.868354 
" clip-path="url(#pd80e4e7ca6)" style="fill: none; stroke: #cccccc; stroke-opacity: 0.5; stroke-width: 0.8; stroke-linecap: round"/>
     </g>
     <g id="line2d_30"/>
     <g id="text_16">
      <!-- 99 -->
      <g style="fill: #262626" transform="translate(25.276563 64.594604)scale(0.16 -0.16)">
       <use xlink:href="#ArialMT-39"/>
       <use xlink:href="#ArialMT-39" x="55.615234"/>
      </g>
     </g>
    </g>
    <g id="text_17">
     <!-- Survival Percentage [%] -->
     <g style="fill: #262626" transform="translate(18.119531 372.384766)rotate(-90)scale(0.15 -0.15)">
      <defs>
       <path id="ArialMT-53" d="M 288 1472 
L 859 1522 
Q 900 1178 1048 958 
Q 1197 738 1509 602 
Q 1822 466 2213 466 
Q 2559 466 2825 569 
Q 3091 672 3220 851 
Q 3350 1031 3350 1244 
Q 3350 1459 3225 1620 
Q 3100 1781 2813 1891 
Q 2628 1963 1997 2114 
Q 1366 2266 1113 2400 
Q 784 2572 623 2826 
Q 463 3081 463 3397 
Q 463 3744 659 4045 
Q 856 4347 1234 4503 
Q 1613 4659 2075 4659 
Q 2584 4659 2973 4495 
Q 3363 4331 3572 4012 
Q 3781 3694 3797 3291 
L 3216 3247 
Q 3169 3681 2898 3903 
Q 2628 4125 2100 4125 
Q 1550 4125 1298 3923 
Q 1047 3722 1047 3438 
Q 1047 3191 1225 3031 
Q 1400 2872 2139 2705 
Q 2878 2538 3153 2413 
Q 3553 2228 3743 1945 
Q 3934 1663 3934 1294 
Q 3934 928 3725 604 
Q 3516 281 3123 101 
Q 2731 -78 2241 -78 
Q 1619 -78 1198 103 
Q 778 284 539 648 
Q 300 1013 288 1472 
z
" transform="scale(0.015625)"/>
       <path id="ArialMT-76" d="M 1344 0 
L 81 3319 
L 675 3319 
L 1388 1331 
Q 1503 1009 1600 663 
Q 1675 925 1809 1294 
L 2547 3319 
L 3125 3319 
L 1869 0 
L 1344 0 
z
" transform="scale(0.015625)"/>
       <path id="ArialMT-6c" d="M 409 0 
L 409 4581 
L 972 4581 
L 972 0 
L 409 0 
z
" transform="scale(0.015625)"/>
       <path id="ArialMT-50" d="M 494 0 
L 494 4581 
L 2222 4581 
Q 2678 4581 2919 4538 
Q 3256 4481 3484 4323 
Q 3713 4166 3852 3881 
Q 3991 3597 3991 3256 
Q 3991 2672 3619 2267 
Q 3247 1863 2275 1863 
L 1100 1863 
L 1100 0 
L 494 0 
z
M 1100 2403 
L 2284 2403 
Q 2872 2403 3119 2622 
Q 3366 2841 3366 3238 
Q 3366 3525 3220 3729 
Q 3075 3934 2838 4000 
Q 2684 4041 2272 4041 
L 1100 4041 
L 1100 2403 
z
" transform="scale(0.015625)"/>
       <path id="ArialMT-63" d="M 2588 1216 
L 3141 1144 
Q 3050 572 2676 248 
Q 2303 -75 1759 -75 
Q 1078 -75 664 370 
Q 250 816 250 1647 
Q 250 2184 428 2587 
Q 606 2991 970 3192 
Q 1334 3394 1763 3394 
Q 2303 3394 2647 3120 
Q 2991 2847 3088 2344 
L 2541 2259 
Q 2463 2594 2264 2762 
Q 2066 2931 1784 2931 
Q 1359 2931 1093 2626 
Q 828 2322 828 1663 
Q 828 994 1084 691 
Q 1341 388 1753 388 
Q 2084 388 2306 591 
Q 2528 794 2588 1216 
z
" transform="scale(0.015625)"/>
       <path id="ArialMT-67" d="M 319 -275 
L 866 -356 
Q 900 -609 1056 -725 
Q 1266 -881 1628 -881 
Q 2019 -881 2231 -725 
Q 2444 -569 2519 -288 
Q 2563 -116 2559 434 
Q 2191 0 1641 0 
Q 956 0 581 494 
Q 206 988 206 1678 
Q 206 2153 378 2554 
Q 550 2956 876 3175 
Q 1203 3394 1644 3394 
Q 2231 3394 2613 2919 
L 2613 3319 
L 3131 3319 
L 3131 450 
Q 3131 -325 2973 -648 
Q 2816 -972 2473 -1159 
Q 2131 -1347 1631 -1347 
Q 1038 -1347 672 -1080 
Q 306 -813 319 -275 
z
M 784 1719 
Q 784 1066 1043 766 
Q 1303 466 1694 466 
Q 2081 466 2343 764 
Q 2606 1063 2606 1700 
Q 2606 2309 2336 2618 
Q 2066 2928 1684 2928 
Q 1309 2928 1046 2623 
Q 784 2319 784 1719 
z
" transform="scale(0.015625)"/>
       <path id="ArialMT-25" d="M 372 3481 
Q 372 3972 619 4315 
Q 866 4659 1334 4659 
Q 1766 4659 2048 4351 
Q 2331 4044 2331 3447 
Q 2331 2866 2045 2552 
Q 1759 2238 1341 2238 
Q 925 2238 648 2547 
Q 372 2856 372 3481 
z
M 1350 4272 
Q 1141 4272 1002 4090 
Q 863 3909 863 3425 
Q 863 2984 1003 2804 
Q 1144 2625 1350 2625 
Q 1563 2625 1702 2806 
Q 1841 2988 1841 3469 
Q 1841 3913 1700 4092 
Q 1559 4272 1350 4272 
z
M 1353 -169 
L 3859 4659 
L 4316 4659 
L 1819 -169 
L 1353 -169 
z
M 3334 1075 
Q 3334 1569 3581 1911 
Q 3828 2253 4300 2253 
Q 4731 2253 5014 1945 
Q 5297 1638 5297 1041 
Q 5297 459 5011 145 
Q 4725 -169 4303 -169 
Q 3888 -169 3611 142 
Q 3334 453 3334 1075 
z
M 4316 1866 
Q 4103 1866 3964 1684 
Q 3825 1503 3825 1019 
Q 3825 581 3965 400 
Q 4106 219 4313 219 
Q 4528 219 4667 400 
Q 4806 581 4806 1063 
Q 4806 1506 4665 1686 
Q 4525 1866 4316 1866 
z
" transform="scale(0.015625)"/>
      </defs>
      <use xlink:href="#ArialMT-53"/>
      <use xlink:href="#ArialMT-75" x="66.699219"/>
      <use xlink:href="#ArialMT-72" x="122.314453"/>
      <use xlink:href="#ArialMT-76" x="155.615234"/>
      <use xlink:href="#ArialMT-69" x="205.615234"/>
      <use xlink:href="#ArialMT-76" x="227.832031"/>
      <use xlink:href="#ArialMT-61" x="277.832031"/>
      <use xlink:href="#ArialMT-6c" x="333.447266"/>
      <use xlink:href="#ArialMT-20" x="355.664062"/>
      <use xlink:href="#ArialMT-50" x="383.447266"/>
      <use xlink:href="#ArialMT-65" x="450.146484"/>
      <use xlink:href="#ArialMT-72" x="505.761719"/>
      <use xlink:href="#ArialMT-63" x="539.0625"/>
      <use xlink:href="#ArialMT-65" x="589.0625"/>
      <use xlink:href="#ArialMT-6e" x="644.677734"/>
      <use xlink:href="#ArialMT-74" x="700.292969"/>
      <use xlink:href="#ArialMT-61" x="728.076172"/>
      <use xlink:href="#ArialMT-67" x="783.691406"/>
      <use xlink:href="#ArialMT-65" x="839.306641"/>
      <use xlink:href="#ArialMT-20" x="894.921875"/>
      <use xlink:href="#ArialMT-5b" x="922.705078"/>
      <use xlink:href="#ArialMT-25" x="950.488281"/>
      <use xlink:href="#ArialMT-5d" x="1039.404297"/>
     </g>
    </g>
   </g>
   <g id="PathCollection_1">
    <path d="M 668.411251 531.15763 
C 668.830574 531.15763 669.232779 530.991032 669.529285 530.694525 
C 669.825791 530.398019 669.99239 529.995814 669.99239 529.576491 
C 669.99239 529.157169 669.825791 528.754964 669.529285 528.458457 
C 669.232779 528.161951 668.830574 527.995353 668.411251 527.995353 
C 667.991928 527.995353 667.589723 528.161951 667.293217 528.458457 
C 666.996711 528.754964 666.830112 529.157169 666.830112 529.576491 
C 666.830112 529.995814 666.996711 530.398019 667.293217 530.694525 
C 667.589723 530.991032 667.991928 531.15763 668.411251 531.15763 
z
" clip-path="url(#pd80e4e7ca6)" style="fill: #cc4778; stroke: #ffffff; stroke-width: 0.635133"/>
    <path d="M 491.159831 475.982687 
C 492.392124 475.982687 493.574112 475.493092 494.445475 474.621729 
C 495.316837 473.750366 495.806433 472.568379 495.806433 471.336086 
C 495.806433 470.103792 495.316837 468.921805 494.445475 468.050442 
C 493.574112 467.179079 492.392124 466.689484 491.159831 466.689484 
C 489.927538 466.689484 488.74555 467.179079 487.874187 468.050442 
C 487.002824 468.921805 486.513229 470.103792 486.513229 471.336086 
C 486.513229 472.568379 487.002824 473.750366 487.874187 474.621729 
C 488.74555 475.493092 489.927538 475.982687 491.159831 475.982687 
z
" clip-path="url(#pd80e4e7ca6)" style="fill: #cc4778; stroke: #ffffff; stroke-width: 0.635133"/>
    <path d="M 599.595994 207.219529 
C 600.431457 207.219529 601.232814 206.887596 601.823576 206.296834 
C 602.414337 205.706072 602.74627 204.904715 602.74627 204.069252 
C 602.74627 203.233789 602.414337 202.432432 601.823576 201.84167 
C 601.232814 201.250909 600.431457 200.918976 599.595994 200.918976 
C 598.760531 200.918976 597.959174 201.250909 597.368412 201.84167 
C 596.77765 202.432432 596.445717 203.233789 596.445717 204.069252 
C 596.445717 204.904715 596.77765 205.706072 597.368412 206.296834 
C 597.959174 206.887596 598.760531 207.219529 599.595994 207.219529 
z
" clip-path="url(#pd80e4e7ca6)" style="fill: #cc4778; stroke: #ffffff; stroke-width: 0.635133"/>
    <path d="M 166.01175 166.024158 
C 167.635781 166.024158 169.193514 165.378924 170.341877 164.230561 
C 171.49024 163.082197 172.135475 161.524464 172.135475 159.900434 
C 172.135475 158.276403 171.49024 156.71867 170.341877 155.570307 
C 169.193514 154.421943 167.635781 153.776709 166.01175 153.776709 
C 164.38772 153.776709 162.829986 154.421943 161.681623 155.570307 
C 160.53326 156.71867 159.888026 158.276403 159.888026 159.900434 
C 159.888026 161.524464 160.53326 163.082197 161.681623 164.230561 
C 162.829986 165.378924 164.38772 166.024158 166.01175 166.024158 
z
" clip-path="url(#pd80e4e7ca6)" style="fill: #cc4778; stroke: #ffffff; stroke-width: 0.635133"/>
    <path d="M 179.325658 175.362508 
C 180.949689 175.362508 182.507422 174.717274 183.655785 173.56891 
C 184.804148 172.420547 185.449382 170.862814 185.449382 169.238783 
C 185.449382 167.614753 184.804148 166.05702 183.655785 164.908656 
C 182.507422 163.760293 180.949689 163.115059 179.325658 163.115059 
C 177.701627 163.115059 176.143894 163.760293 174.995531 164.908656 
C 173.847168 166.05702 173.201934 167.614753 173.201934 169.238783 
C 173.201934 170.862814 173.847168 172.420547 174.995531 173.56891 
C 176.143894 174.717274 177.701627 175.362508 179.325658 175.362508 
z
" clip-path="url(#pd80e4e7ca6)" style="fill: #cc4778; stroke: #ffffff; stroke-width: 0.635133"/>
    <path d="M 126.87207 255.232966 
C 128.496101 255.232966 130.053834 254.587732 131.202197 253.439369 
C 132.35056 252.291006 132.995795 250.733272 132.995795 249.109242 
C 132.995795 247.485211 132.35056 245.927478 131.202197 244.779115 
C 130.053834 243.630752 128.496101 242.985517 126.87207 242.985517 
C 125.24804 242.985517 123.690306 243.630752 122.541943 244.779115 
C 121.39358 245.927478 120.748346 247.485211 120.748346 249.109242 
C 120.748346 250.733272 121.39358 252.291006 122.541943 253.439369 
C 123.690306 254.587732 125.24804 255.232966 126.87207 255.232966 
z
" clip-path="url(#pd80e4e7ca6)" style="fill: #cc4778; stroke: #ffffff; stroke-width: 0.635133"/>
    <path d="M 317.27699 102.493294 
C 318.870105 102.493294 320.398184 101.860343 321.524687 100.733841 
C 322.651189 99.607338 323.28414 98.079259 323.28414 96.486144 
C 323.28414 94.893029 322.651189 93.364949 321.524687 92.238447 
C 320.398184 91.111944 318.870105 90.478993 317.27699 90.478993 
C 315.683875 90.478993 314.155795 91.111944 313.029293 92.238447 
C 311.90279 93.364949 311.269839 94.893029 311.269839 96.486144 
C 311.269839 98.079259 311.90279 99.607338 313.029293 100.733841 
C 314.155795 101.860343 315.683875 102.493294 317.27699 102.493294 
z
" clip-path="url(#pd80e4e7ca6)" style="fill: #cc4778; stroke: #ffffff; stroke-width: 0.635133"/>
    <path d="M 147.885587 208.263672 
C 149.509618 208.263672 151.067351 207.618438 152.215714 206.470075 
C 153.364077 205.321712 154.009311 203.763978 154.009311 202.139948 
C 154.009311 200.515917 153.364077 198.958184 152.215714 197.809821 
C 151.067351 196.661458 149.509618 196.016223 147.885587 196.016223 
C 146.261556 196.016223 144.703823 196.661458 143.55546 197.809821 
C 142.407097 198.958184 141.761863 200.515917 141.761863 202.139948 
C 141.761863 203.763978 142.407097 205.321712 143.55546 206.470075 
C 144.703823 207.618438 146.261556 208.263672 147.885587 208.263672 
z
" clip-path="url(#pd80e4e7ca6)" style="fill: #cc4778; stroke: #ffffff; stroke-width: 0.635133"/>
    <path d="M 138.421484 178.122502 
C 140.045515 178.122502 141.603248 177.477267 142.751611 176.328904 
C 143.899974 175.180541 144.545208 173.622808 144.545208 171.998777 
C 144.545208 170.374746 143.899974 168.817013 142.751611 167.66865 
C 141.603248 166.520287 140.045515 165.875053 138.421484 165.875053 
C 136.797453 165.875053 135.23972 166.520287 134.091357 167.66865 
C 132.942994 168.817013 132.29776 170.374746 132.29776 171.998777 
C 132.29776 173.622808 132.942994 175.180541 134.091357 176.328904 
C 135.23972 177.477267 136.797453 178.122502 138.421484 178.122502 
z
" clip-path="url(#pd80e4e7ca6)" style="fill: #cc4778; stroke: #ffffff; stroke-width: 0.635133"/>
    <path d="M 96.073633 256.347406 
C 97.697664 256.347406 99.255397 255.702172 100.40376 254.553809 
C 101.552123 253.405446 102.197358 251.847712 102.197358 250.223682 
C 102.197358 248.599651 101.552123 247.041918 100.40376 245.893555 
C 99.255397 244.745192 97.697664 244.099957 96.073633 244.099957 
C 94.449603 244.099957 92.891869 244.745192 91.743506 245.893555 
C 90.595143 247.041918 89.949909 248.599651 89.949909 250.223682 
C 89.949909 251.847712 90.595143 253.405446 91.743506 254.553809 
C 92.891869 255.702172 94.449603 256.347406 96.073633 256.347406 
z
" clip-path="url(#pd80e4e7ca6)" style="fill: #cc4778; stroke: #ffffff; stroke-width: 0.635133"/>
    <path d="M 76.182976 256.819354 
C 77.807007 256.819354 79.36474 256.17412 80.513103 255.025757 
C 81.661466 253.877394 82.306701 252.319661 82.306701 250.69563 
C 82.306701 249.071599 81.661466 247.513866 80.513103 246.365503 
C 79.36474 245.21714 77.807007 244.571906 76.182976 244.571906 
C 74.558946 244.571906 73.001212 245.21714 71.852849 246.365503 
C 70.704486 247.513866 70.059252 249.071599 70.059252 250.69563 
C 70.059252 252.319661 70.704486 253.877394 71.852849 255.025757 
C 73.001212 256.17412 74.558946 256.819354 76.182976 256.819354 
z
" clip-path="url(#pd80e4e7ca6)" style="fill: #cc4778; stroke: #ffffff; stroke-width: 0.635133"/>
    <path d="M 297.386332 61.216736 
C 299.00269 61.216736 300.553063 60.57455 301.696 59.431613 
C 302.838937 58.288676 303.481122 56.738303 303.481122 55.121946 
C 303.481122 53.505589 302.838937 51.955216 301.696 50.812279 
C 300.553063 49.669342 299.00269 49.027156 297.386332 49.027156 
C 295.769975 49.027156 294.219602 49.669342 293.076665 50.812279 
C 291.933728 51.955216 291.291543 53.505589 291.291543 55.121946 
C 291.291543 56.738303 291.933728 58.288676 293.076665 59.431613 
C 294.219602 60.57455 295.769975 61.216736 297.386332 61.216736 
z
" clip-path="url(#pd80e4e7ca6)" style="fill: #cc4778; stroke: #ffffff; stroke-width: 0.635133"/>
    <path d="M 445.924627 269.533782 
C 447.263306 269.533782 448.547337 269.001919 449.493926 268.055329 
C 450.440516 267.10874 450.972379 265.824709 450.972379 264.48603 
C 450.972379 263.14735 450.440516 261.86332 449.493926 260.91673 
C 448.547337 259.970141 447.263306 259.438278 445.924627 259.438278 
C 444.585947 259.438278 443.301917 259.970141 442.355327 260.91673 
C 441.408738 261.86332 440.876875 263.14735 440.876875 264.48603 
C 440.876875 265.824709 441.408738 267.10874 442.355327 268.055329 
C 443.301917 269.001919 444.585947 269.533782 445.924627 269.533782 
z
" clip-path="url(#pd80e4e7ca6)" style="fill: #cc4778; stroke: #ffffff; stroke-width: 0.635133"/>
    <path d="M 162.482763 175.851613 
C 164.106793 175.851613 165.664527 175.206379 166.81289 174.058016 
C 167.961253 172.909653 168.606487 171.351919 168.606487 169.727889 
C 168.606487 168.103858 167.961253 166.546125 166.81289 165.397762 
C 165.664527 164.249398 164.106793 163.604164 162.482763 163.604164 
C 160.858732 163.604164 159.300999 164.249398 158.152636 165.397762 
C 157.004273 166.546125 156.359038 168.103858 156.359038 169.727889 
C 156.359038 171.351919 157.004273 172.909653 158.152636 174.058016 
C 159.300999 175.206379 160.858732 175.851613 162.482763 175.851613 
z
" clip-path="url(#pd80e4e7ca6)" style="fill: #cc4778; stroke: #ffffff; stroke-width: 0.635133"/>
    <path d="M 225.683722 90.554269 
C 227.307752 90.554269 228.865486 89.909035 230.013849 88.760672 
C 231.162212 87.612309 231.807446 86.054575 231.807446 84.430545 
C 231.807446 82.806514 231.162212 81.248781 230.013849 80.100418 
C 228.865486 78.952055 227.307752 78.30682 225.683722 78.30682 
C 224.059691 78.30682 222.501958 78.952055 221.353595 80.100418 
C 220.205232 81.248781 219.559997 82.806514 219.559997 84.430545 
C 219.559997 86.054575 220.205232 87.612309 221.353595 88.760672 
C 222.501958 89.909035 224.059691 90.554269 225.683722 90.554269 
z
" clip-path="url(#pd80e4e7ca6)" style="fill: #cc4778; stroke: #ffffff; stroke-width: 0.635133"/>
    <path d="M 120.134912 259.503513 
C 121.758943 259.503513 123.316676 258.858279 124.465039 257.709915 
C 125.613402 256.561552 126.258637 255.003819 126.258637 253.379788 
C 126.258637 251.755758 125.613402 250.198025 124.465039 249.049661 
C 123.316676 247.901298 121.758943 247.256064 120.134912 247.256064 
C 118.510881 247.256064 116.953148 247.901298 115.804785 249.049661 
C 114.656422 250.198025 114.011188 251.755758 114.011188 253.379788 
C 114.011188 255.003819 114.656422 256.561552 115.804785 257.709915 
C 116.953148 258.858279 118.510881 259.503513 120.134912 259.503513 
z
" clip-path="url(#pd80e4e7ca6)" style="fill: #cc4778; stroke: #ffffff; stroke-width: 0.635133"/>
   </g>
   <g id="PathCollection_2"/>
   <g id="PathCollection_3"/>
   <g id="PathCollection_4"/>
   <g id="PathCollection_5"/>
   <g id="PathCollection_6"/>
   <g id="PathCollection_7"/>
   <g id="patch_3">
    <path d="M 46.571563 553.299219 
L 46.571563 31.399219 
" style="fill: none; stroke: #cccccc; stroke-linejoin: miter; stroke-linecap: square"/>
   </g>
   <g id="patch_4">
    <path d="M 46.571562 553.299219 
L 698.022665 553.299219 
" style="fill: none; stroke: #cccccc; stroke-linejoin: miter; stroke-linecap: square"/>
   </g>
   <g id="text_18">
    <!-- Survival Percentage w.r.t. duration treatment time -->
    <g style="fill: #262626" transform="translate(99.263911 25.399219)scale(0.25 -0.25)">
     <defs>
      <path id="ArialMT-77" d="M 1034 0 
L 19 3319 
L 600 3319 
L 1128 1403 
L 1325 691 
Q 1338 744 1497 1375 
L 2025 3319 
L 2603 3319 
L 3100 1394 
L 3266 759 
L 3456 1400 
L 4025 3319 
L 4572 3319 
L 3534 0 
L 2950 0 
L 2422 1988 
L 2294 2553 
L 1622 0 
L 1034 0 
z
" transform="scale(0.015625)"/>
      <path id="ArialMT-2e" d="M 581 0 
L 581 641 
L 1222 641 
L 1222 0 
L 581 0 
z
" transform="scale(0.015625)"/>
      <path id="ArialMT-64" d="M 2575 0 
L 2575 419 
Q 2259 -75 1647 -75 
Q 1250 -75 917 144 
Q 584 363 401 755 
Q 219 1147 219 1656 
Q 219 2153 384 2558 
Q 550 2963 881 3178 
Q 1213 3394 1622 3394 
Q 1922 3394 2156 3267 
Q 2391 3141 2538 2938 
L 2538 4581 
L 3097 4581 
L 3097 0 
L 2575 0 
z
M 797 1656 
Q 797 1019 1065 703 
Q 1334 388 1700 388 
Q 2069 388 2326 689 
Q 2584 991 2584 1609 
Q 2584 2291 2321 2609 
Q 2059 2928 1675 2928 
Q 1300 2928 1048 2622 
Q 797 2316 797 1656 
z
" transform="scale(0.015625)"/>
     </defs>
     <use xlink:href="#ArialMT-53"/>
     <use xlink:href="#ArialMT-75" x="66.699219"/>
     <use xlink:href="#ArialMT-72" x="122.314453"/>
     <use xlink:href="#ArialMT-76" x="155.615234"/>
     <use xlink:href="#ArialMT-69" x="205.615234"/>
     <use xlink:href="#ArialMT-76" x="227.832031"/>
     <use xlink:href="#ArialMT-61" x="277.832031"/>
     <use xlink:href="#ArialMT-6c" x="333.447266"/>
     <use xlink:href="#ArialMT-20" x="355.664062"/>
     <use xlink:href="#ArialMT-50" x="383.447266"/>
     <use xlink:href="#ArialMT-65" x="450.146484"/>
     <use xlink:href="#ArialMT-72" x="505.761719"/>
     <use xlink:href="#ArialMT-63" x="539.0625"/>
     <use xlink:href="#ArialMT-65" x="589.0625"/>
     <use xlink:href="#ArialMT-6e" x="644.677734"/>
     <use xlink:href="#ArialMT-74" x="700.292969"/>
     <use xlink:href="#ArialMT-61" x="728.076172"/>
     <use xlink:href="#ArialMT-67" x="783.691406"/>
     <use xlink:href="#ArialMT-65" x="839.306641"/>
     <use xlink:href="#ArialMT-20" x="894.921875"/>
     <use xlink:href="#ArialMT-77" x="922.705078"/>
     <use xlink:href="#ArialMT-2e" x="989.421875"/>
     <use xlink:href="#ArialMT-72" x="1017.205078"/>
     <use xlink:href="#ArialMT-2e" x="1045.005859"/>
     <use xlink:href="#ArialMT-74" x="1072.789062"/>
     <use xlink:href="#ArialMT-2e" x="1100.572266"/>
     <use xlink:href="#ArialMT-20" x="1128.355469"/>
     <use xlink:href="#ArialMT-64" x="1156.138672"/>
     <use xlink:href="#ArialMT-75" x="1211.753906"/>
     <use xlink:href="#ArialMT-72" x="1267.369141"/>
     <use xlink:href="#ArialMT-61" x="1300.669922"/>
     <use xlink:href="#ArialMT-74" x="1356.285156"/>
     <use xlink:href="#ArialMT-69" x="1384.068359"/>
     <use xlink:href="#ArialMT-6f" x="1406.285156"/>
     <use xlink:href="#ArialMT-6e" x="1461.900391"/>
     <use xlink:href="#ArialMT-20" x="1517.515625"/>
     <use xlink:href="#ArialMT-74" x="1545.298828"/>
     <use xlink:href="#ArialMT-72" x="1573.082031"/>
     <use xlink:href="#ArialMT-65" x="1606.382812"/>
     <use xlink:href="#ArialMT-61" x="1661.998047"/>
     <use xlink:href="#ArialMT-74" x="1717.613281"/>
     <use xlink:href="#ArialMT-6d" x="1745.396484"/>
     <use xlink:href="#ArialMT-65" x="1828.697266"/>
     <use xlink:href="#ArialMT-6e" x="1884.3125"/>
     <use xlink:href="#ArialMT-74" x="1939.927734"/>
     <use xlink:href="#ArialMT-20" x="1967.710938"/>
     <use xlink:href="#ArialMT-74" x="1995.494141"/>
     <use xlink:href="#ArialMT-69" x="2023.277344"/>
     <use xlink:href="#ArialMT-6d" x="2045.494141"/>
     <use xlink:href="#ArialMT-65" x="2128.794922"/>
    </g>
   </g>
  </g>
  <g id="legend_1">
   <g id="text_19">
    <!-- Agent -->
    <g style="fill: #262626" transform="translate(715.470915 241.796406)scale(0.12 -0.12)">
     <defs>
      <path id="ArialMT-41" d="M -9 0 
L 1750 4581 
L 2403 4581 
L 4278 0 
L 3588 0 
L 3053 1388 
L 1138 1388 
L 634 0 
L -9 0 
z
M 1313 1881 
L 2866 1881 
L 2388 3150 
Q 2169 3728 2063 4100 
Q 1975 3659 1816 3225 
L 1313 1881 
z
" transform="scale(0.015625)"/>
     </defs>
     <use xlink:href="#ArialMT-41"/>
     <use xlink:href="#ArialMT-67" x="66.699219"/>
     <use xlink:href="#ArialMT-65" x="122.314453"/>
     <use xlink:href="#ArialMT-6e" x="177.929688"/>
     <use xlink:href="#ArialMT-74" x="233.544922"/>
    </g>
   </g>
   <g id="PathCollection_8">
    <defs>
     <path id="m9532c9f89a" d="M 0 3 
C 0.795609 3 1.55874 2.683901 2.12132 2.12132 
C 2.683901 1.55874 3 0.795609 3 0 
C 3 -0.795609 2.683901 -1.55874 2.12132 -2.12132 
C 1.55874 -2.683901 0.795609 -3 0 -3 
C -0.795609 -3 -1.55874 -2.683901 -2.12132 -2.12132 
C -2.683901 -1.55874 -3 -0.795609 -3 0 
C -3 0.795609 -2.683901 1.55874 -2.12132 2.12132 
C -1.55874 2.683901 -0.795609 3 0 3 
z
" style="stroke: #cc4778"/>
    </defs>
    <g>
     <use xlink:href="#m9532c9f89a" x="717.870915" y="255.761406" style="fill: #cc4778; stroke: #cc4778"/>
    </g>
   </g>
   <g id="text_20">
    <!-- Sarsa -->
    <g style="fill: #262626" transform="translate(739.470915 258.911406)scale(0.12 -0.12)">
     <use xlink:href="#ArialMT-53"/>
     <use xlink:href="#ArialMT-61" x="66.699219"/>
     <use xlink:href="#ArialMT-72" x="122.314453"/>
     <use xlink:href="#ArialMT-73" x="155.615234"/>
     <use xlink:href="#ArialMT-61" x="205.615234"/>
    </g>
   </g>
   <g id="text_21">
    <!-- TCP -->
    <g style="fill: #262626" transform="translate(715.470915 275.885781)scale(0.12 -0.12)">
     <defs>
      <path id="ArialMT-43" d="M 3763 1606 
L 4369 1453 
Q 4178 706 3683 314 
Q 3188 -78 2472 -78 
Q 1731 -78 1267 223 
Q 803 525 561 1097 
Q 319 1669 319 2325 
Q 319 3041 592 3573 
Q 866 4106 1370 4382 
Q 1875 4659 2481 4659 
Q 3169 4659 3637 4309 
Q 4106 3959 4291 3325 
L 3694 3184 
Q 3534 3684 3231 3912 
Q 2928 4141 2469 4141 
Q 1941 4141 1586 3887 
Q 1231 3634 1087 3207 
Q 944 2781 944 2328 
Q 944 1744 1114 1308 
Q 1284 872 1643 656 
Q 2003 441 2422 441 
Q 2931 441 3284 734 
Q 3638 1028 3763 1606 
z
" transform="scale(0.015625)"/>
     </defs>
     <use xlink:href="#ArialMT-54"/>
     <use xlink:href="#ArialMT-43" x="61.083984"/>
     <use xlink:href="#ArialMT-50" x="133.300781"/>
    </g>
   </g>
   <g id="PathCollection_9">
    <defs>
     <path id="m1c87c7439f" d="M 0 3.03598 
C 0.805151 3.03598 1.577434 2.71609 2.146762 2.146762 
C 2.71609 1.577434 3.03598 0.805151 3.03598 0 
C 3.03598 -0.805151 2.71609 -1.577434 2.146762 -2.146762 
C 1.577434 -2.71609 0.805151 -3.03598 0 -3.03598 
C -0.805151 -3.03598 -1.577434 -2.71609 -2.146762 -2.146762 
C -2.71609 -1.577434 -3.03598 -0.805151 -3.03598 0 
C -3.03598 0.805151 -2.71609 1.577434 -2.146762 2.146762 
C -1.577434 2.71609 -0.805151 3.03598 0 3.03598 
z
" style="stroke: #333333"/>
    </defs>
    <g>
     <use xlink:href="#m1c87c7439f" x="717.870915" y="289.710156" style="fill: #333333; stroke: #333333"/>
    </g>
   </g>
   <g id="text_22">
    <!-- 20 -->
    <g style="fill: #262626" transform="translate(739.470915 292.860156)scale(0.12 -0.12)">
     <use xlink:href="#ArialMT-32"/>
     <use xlink:href="#ArialMT-30" x="55.615234"/>
    </g>
   </g>
   <g id="PathCollection_10">
    <defs>
     <path id="medfb787055" d="M 0 4.035824 
C 1.070313 4.035824 2.096933 3.610585 2.853759 2.853759 
C 3.610585 2.096933 4.035824 1.070313 4.035824 0 
C 4.035824 -1.070313 3.610585 -2.096933 2.853759 -2.853759 
C 2.096933 -3.610585 1.070313 -4.035824 0 -4.035824 
C -1.070313 -4.035824 -2.096933 -3.610585 -2.853759 -2.853759 
C -3.610585 -2.096933 -4.035824 -1.070313 -4.035824 0 
C -4.035824 1.070313 -3.610585 2.096933 -2.853759 2.853759 
C -2.096933 3.610585 -1.070313 4.035824 0 4.035824 
z
" style="stroke: #333333"/>
    </defs>
    <g>
     <use xlink:href="#medfb787055" x="717.870915" y="306.684531" style="fill: #333333; stroke: #333333"/>
    </g>
   </g>
   <g id="text_23">
    <!-- 40 -->
    <g style="fill: #262626" transform="translate(739.470915 309.834531)scale(0.12 -0.12)">
     <use xlink:href="#ArialMT-34"/>
     <use xlink:href="#ArialMT-30" x="55.615234"/>
    </g>
   </g>
   <g id="PathCollection_11">
    <defs>
     <path id="m1313cf01f9" d="M 0 4.833072 
C 1.281746 4.833072 2.511167 4.323829 3.417498 3.417498 
C 4.323829 2.511167 4.833072 1.281746 4.833072 0 
C 4.833072 -1.281746 4.323829 -2.511167 3.417498 -3.417498 
C 2.511167 -4.323829 1.281746 -4.833072 0 -4.833072 
C -1.281746 -4.833072 -2.511167 -4.323829 -3.417498 -3.417498 
C -4.323829 -2.511167 -4.833072 -1.281746 -4.833072 0 
C -4.833072 1.281746 -4.323829 2.511167 -3.417498 3.417498 
C -2.511167 4.323829 -1.281746 4.833072 0 4.833072 
z
" style="stroke: #333333"/>
    </defs>
    <g>
     <use xlink:href="#m1313cf01f9" x="717.870915" y="323.658906" style="fill: #333333; stroke: #333333"/>
    </g>
   </g>
   <g id="text_24">
    <!-- 60 -->
    <g style="fill: #262626" transform="translate(739.470915 326.808906)scale(0.12 -0.12)">
     <use xlink:href="#ArialMT-36"/>
     <use xlink:href="#ArialMT-30" x="55.615234"/>
    </g>
   </g>
   <g id="PathCollection_12">
    <defs>
     <path id="m3cf8c5a343" d="M 0 5.516275 
C 1.462933 5.516275 2.866146 4.935046 3.900596 3.900596 
C 4.935046 2.866146 5.516275 1.462933 5.516275 0 
C 5.516275 -1.462933 4.935046 -2.866146 3.900596 -3.900596 
C 2.866146 -4.935046 1.462933 -5.516275 0 -5.516275 
C -1.462933 -5.516275 -2.866146 -4.935046 -3.900596 -3.900596 
C -4.935046 -2.866146 -5.516275 -1.462933 -5.516275 0 
C -5.516275 1.462933 -4.935046 2.866146 -3.900596 3.900596 
C -2.866146 4.935046 -1.462933 5.516275 0 5.516275 
z
" style="stroke: #333333"/>
    </defs>
    <g>
     <use xlink:href="#m3cf8c5a343" x="717.870915" y="340.633281" style="fill: #333333; stroke: #333333"/>
    </g>
   </g>
   <g id="text_25">
    <!-- 80 -->
    <g style="fill: #262626" transform="translate(739.470915 343.783281)scale(0.12 -0.12)">
     <use xlink:href="#ArialMT-38"/>
     <use xlink:href="#ArialMT-30" x="55.615234"/>
    </g>
   </g>
   <g id="PathCollection_13">
    <defs>
     <path id="m8f176c76ab" d="M 0 6.123724 
C 1.624031 6.123724 3.181764 5.47849 4.330127 4.330127 
C 5.47849 3.181764 6.123724 1.624031 6.123724 0 
C 6.123724 -1.624031 5.47849 -3.181764 4.330127 -4.330127 
C 3.181764 -5.47849 1.624031 -6.123724 0 -6.123724 
C -1.624031 -6.123724 -3.181764 -5.47849 -4.330127 -4.330127 
C -5.47849 -3.181764 -6.123724 -1.624031 -6.123724 0 
C -6.123724 1.624031 -5.47849 3.181764 -4.330127 4.330127 
C -3.181764 5.47849 -1.624031 6.123724 0 6.123724 
z
" style="stroke: #333333"/>
    </defs>
    <g>
     <use xlink:href="#m8f176c76ab" x="717.870915" y="357.607656" style="fill: #333333; stroke: #333333"/>
    </g>
   </g>
   <g id="text_26">
    <!-- 100 -->
    <g style="fill: #262626" transform="translate(739.470915 360.757656)scale(0.12 -0.12)">
     <use xlink:href="#ArialMT-31"/>
     <use xlink:href="#ArialMT-30" x="55.615234"/>
     <use xlink:href="#ArialMT-30" x="111.230469"/>
    </g>
   </g>
  </g>
 </g>
 <defs>
  <clipPath id="pd80e4e7ca6">
   <rect x="46.571563" y="31.399219" width="651.451102" height="521.9"/>
  </clipPath>
 </defs>
</svg>
