<?xml version="1.0" encoding="utf-8" standalone="no"?>
<!DOCTYPE svg PUBLIC "-//W3C//DTD SVG 1.1//EN"
  "http://www.w3.org/Graphics/SVG/1.1/DTD/svg11.dtd">
<svg xmlns:xlink="http://www.w3.org/1999/xlink" width="955.469062pt" height="726.465pt" viewBox="0 0 955.469062 726.465" xmlns="http://www.w3.org/2000/svg" version="1.1">
 <metadata>
  <rdf:RDF xmlns:dc="http://purl.org/dc/elements/1.1/" xmlns:cc="http://creativecommons.org/ns#" xmlns:rdf="http://www.w3.org/1999/02/22-rdf-syntax-ns#">
   <cc:Work>
    <dc:type rdf:resource="http://purl.org/dc/dcmitype/StillImage"/>
    <dc:date>2023-04-25T14:44:00.354729</dc:date>
    <dc:format>image/svg+xml</dc:format>
    <dc:creator>
     <cc:Agent>
      <dc:title>Matplotlib v3.5.3, https://matplotlib.org/</dc:title>
     </cc:Agent>
    </dc:creator>
   </cc:Work>
  </rdf:RDF>
 </metadata>
 <defs>
  <style type="text/css">*{stroke-linejoin: round; stroke-linecap: butt}</style>
 </defs>
 <g id="figure_1">
  <g id="patch_1">
   <path d="M 0 726.465 
L 955.469062 726.465 
L 955.469062 0 
L 0 0 
z
" style="fill: #ffffff"/>
  </g>
  <g id="axes_1">
   <g id="patch_2">
    <path d="M 55.469063 683.414531 
L 948.269063 683.414531 
L 948.269063 31.094531 
L 55.469063 31.094531 
z
" style="fill: #ffffff"/>
   </g>
   <g id="matplotlib.axis_1">
    <g id="xtick_1">
     <g id="line2d_1">
      <path d="M 152.915256 683.414531 
L 152.915256 31.094531 
" clip-path="url(#p6945859946)" style="fill: none; stroke: #cccccc; stroke-width: 0.8; stroke-linecap: round"/>
     </g>
     <g id="line2d_2"/>
     <g id="text_1">
      <!-- 400 -->
      <g style="fill: #262626" transform="translate(139.569006 698.367031)scale(0.16 -0.16)">
       <defs>
        <path id="ArialMT-34" d="M 2069 0 
L 2069 1097 
L 81 1097 
L 81 1613 
L 2172 4581 
L 2631 4581 
L 2631 1613 
L 3250 1613 
L 3250 1097 
L 2631 1097 
L 2631 0 
L 2069 0 
z
M 2069 1613 
L 2069 3678 
L 634 1613 
L 2069 1613 
z
" transform="scale(0.015625)"/>
        <path id="ArialMT-30" d="M 266 2259 
Q 266 3072 433 3567 
Q 600 4063 929 4331 
Q 1259 4600 1759 4600 
Q 2128 4600 2406 4451 
Q 2684 4303 2865 4023 
Q 3047 3744 3150 3342 
Q 3253 2941 3253 2259 
Q 3253 1453 3087 958 
Q 2922 463 2592 192 
Q 2263 -78 1759 -78 
Q 1097 -78 719 397 
Q 266 969 266 2259 
z
M 844 2259 
Q 844 1131 1108 757 
Q 1372 384 1759 384 
Q 2147 384 2411 759 
Q 2675 1134 2675 2259 
Q 2675 3391 2411 3762 
Q 2147 4134 1753 4134 
Q 1366 4134 1134 3806 
Q 844 3388 844 2259 
z
" transform="scale(0.015625)"/>
       </defs>
       <use xlink:href="#ArialMT-34"/>
       <use xlink:href="#ArialMT-30" x="55.615234"/>
       <use xlink:href="#ArialMT-30" x="111.230469"/>
      </g>
     </g>
    </g>
    <g id="xtick_2">
     <g id="line2d_3">
      <path d="M 336.11234 683.414531 
L 336.11234 31.094531 
" clip-path="url(#p6945859946)" style="fill: none; stroke: #cccccc; stroke-width: 0.8; stroke-linecap: round"/>
     </g>
     <g id="line2d_4"/>
     <g id="text_2">
      <!-- 600 -->
      <g style="fill: #262626" transform="translate(322.76609 698.367031)scale(0.16 -0.16)">
       <defs>
        <path id="ArialMT-36" d="M 3184 3459 
L 2625 3416 
Q 2550 3747 2413 3897 
Q 2184 4138 1850 4138 
Q 1581 4138 1378 3988 
Q 1113 3794 959 3422 
Q 806 3050 800 2363 
Q 1003 2672 1297 2822 
Q 1591 2972 1913 2972 
Q 2475 2972 2870 2558 
Q 3266 2144 3266 1488 
Q 3266 1056 3080 686 
Q 2894 316 2569 119 
Q 2244 -78 1831 -78 
Q 1128 -78 684 439 
Q 241 956 241 2144 
Q 241 3472 731 4075 
Q 1159 4600 1884 4600 
Q 2425 4600 2770 4297 
Q 3116 3994 3184 3459 
z
M 888 1484 
Q 888 1194 1011 928 
Q 1134 663 1356 523 
Q 1578 384 1822 384 
Q 2178 384 2434 671 
Q 2691 959 2691 1453 
Q 2691 1928 2437 2201 
Q 2184 2475 1800 2475 
Q 1419 2475 1153 2201 
Q 888 1928 888 1484 
z
" transform="scale(0.015625)"/>
       </defs>
       <use xlink:href="#ArialMT-36"/>
       <use xlink:href="#ArialMT-30" x="55.615234"/>
       <use xlink:href="#ArialMT-30" x="111.230469"/>
      </g>
     </g>
    </g>
    <g id="xtick_3">
     <g id="line2d_5">
      <path d="M 519.309425 683.414531 
L 519.309425 31.094531 
" clip-path="url(#p6945859946)" style="fill: none; stroke: #cccccc; stroke-width: 0.8; stroke-linecap: round"/>
     </g>
     <g id="line2d_6"/>
     <g id="text_3">
      <!-- 800 -->
      <g style="fill: #262626" transform="translate(505.963175 698.367031)scale(0.16 -0.16)">
       <defs>
        <path id="ArialMT-38" d="M 1131 2484 
Q 781 2613 612 2850 
Q 444 3088 444 3419 
Q 444 3919 803 4259 
Q 1163 4600 1759 4600 
Q 2359 4600 2725 4251 
Q 3091 3903 3091 3403 
Q 3091 3084 2923 2848 
Q 2756 2613 2416 2484 
Q 2838 2347 3058 2040 
Q 3278 1734 3278 1309 
Q 3278 722 2862 322 
Q 2447 -78 1769 -78 
Q 1091 -78 675 323 
Q 259 725 259 1325 
Q 259 1772 486 2073 
Q 713 2375 1131 2484 
z
M 1019 3438 
Q 1019 3113 1228 2906 
Q 1438 2700 1772 2700 
Q 2097 2700 2305 2904 
Q 2513 3109 2513 3406 
Q 2513 3716 2298 3927 
Q 2084 4138 1766 4138 
Q 1444 4138 1231 3931 
Q 1019 3725 1019 3438 
z
M 838 1322 
Q 838 1081 952 856 
Q 1066 631 1291 507 
Q 1516 384 1775 384 
Q 2178 384 2440 643 
Q 2703 903 2703 1303 
Q 2703 1709 2433 1975 
Q 2163 2241 1756 2241 
Q 1359 2241 1098 1978 
Q 838 1716 838 1322 
z
" transform="scale(0.015625)"/>
       </defs>
       <use xlink:href="#ArialMT-38"/>
       <use xlink:href="#ArialMT-30" x="55.615234"/>
       <use xlink:href="#ArialMT-30" x="111.230469"/>
      </g>
     </g>
    </g>
    <g id="xtick_4">
     <g id="line2d_7">
      <path d="M 702.50651 683.414531 
L 702.50651 31.094531 
" clip-path="url(#p6945859946)" style="fill: none; stroke: #cccccc; stroke-width: 0.8; stroke-linecap: round"/>
     </g>
     <g id="line2d_8"/>
     <g id="text_4">
      <!-- 1000 -->
      <g style="fill: #262626" transform="translate(684.71151 698.367031)scale(0.16 -0.16)">
       <defs>
        <path id="ArialMT-31" d="M 2384 0 
L 1822 0 
L 1822 3584 
Q 1619 3391 1289 3197 
Q 959 3003 697 2906 
L 697 3450 
Q 1169 3672 1522 3987 
Q 1875 4303 2022 4600 
L 2384 4600 
L 2384 0 
z
" transform="scale(0.015625)"/>
       </defs>
       <use xlink:href="#ArialMT-31"/>
       <use xlink:href="#ArialMT-30" x="55.615234"/>
       <use xlink:href="#ArialMT-30" x="111.230469"/>
       <use xlink:href="#ArialMT-30" x="166.845703"/>
      </g>
     </g>
    </g>
    <g id="xtick_5">
     <g id="line2d_9">
      <path d="M 885.703594 683.414531 
L 885.703594 31.094531 
" clip-path="url(#p6945859946)" style="fill: none; stroke: #cccccc; stroke-width: 0.8; stroke-linecap: round"/>
     </g>
     <g id="line2d_10"/>
     <g id="text_5">
      <!-- 1200 -->
      <g style="fill: #262626" transform="translate(867.908594 698.367031)scale(0.16 -0.16)">
       <defs>
        <path id="ArialMT-32" d="M 3222 541 
L 3222 0 
L 194 0 
Q 188 203 259 391 
Q 375 700 629 1000 
Q 884 1300 1366 1694 
Q 2113 2306 2375 2664 
Q 2638 3022 2638 3341 
Q 2638 3675 2398 3904 
Q 2159 4134 1775 4134 
Q 1369 4134 1125 3890 
Q 881 3647 878 3216 
L 300 3275 
Q 359 3922 746 4261 
Q 1134 4600 1788 4600 
Q 2447 4600 2831 4234 
Q 3216 3869 3216 3328 
Q 3216 3053 3103 2787 
Q 2991 2522 2730 2228 
Q 2469 1934 1863 1422 
Q 1356 997 1212 845 
Q 1069 694 975 541 
L 3222 541 
z
" transform="scale(0.015625)"/>
       </defs>
       <use xlink:href="#ArialMT-31"/>
       <use xlink:href="#ArialMT-32" x="55.615234"/>
       <use xlink:href="#ArialMT-30" x="111.230469"/>
       <use xlink:href="#ArialMT-30" x="166.845703"/>
      </g>
     </g>
    </g>
    <g id="text_6">
     <!-- Treatment Duration [hours] -->
     <g style="fill: #262626" transform="translate(412.534688 716.28375)scale(0.15 -0.15)">
      <defs>
       <path id="ArialMT-54" d="M 1659 0 
L 1659 4041 
L 150 4041 
L 150 4581 
L 3781 4581 
L 3781 4041 
L 2266 4041 
L 2266 0 
L 1659 0 
z
" transform="scale(0.015625)"/>
       <path id="ArialMT-72" d="M 416 0 
L 416 3319 
L 922 3319 
L 922 2816 
Q 1116 3169 1280 3281 
Q 1444 3394 1641 3394 
Q 1925 3394 2219 3213 
L 2025 2691 
Q 1819 2813 1613 2813 
Q 1428 2813 1281 2702 
Q 1134 2591 1072 2394 
Q 978 2094 978 1738 
L 978 0 
L 416 0 
z
" transform="scale(0.015625)"/>
       <path id="ArialMT-65" d="M 2694 1069 
L 3275 997 
Q 3138 488 2766 206 
Q 2394 -75 1816 -75 
Q 1088 -75 661 373 
Q 234 822 234 1631 
Q 234 2469 665 2931 
Q 1097 3394 1784 3394 
Q 2450 3394 2872 2941 
Q 3294 2488 3294 1666 
Q 3294 1616 3291 1516 
L 816 1516 
Q 847 969 1125 678 
Q 1403 388 1819 388 
Q 2128 388 2347 550 
Q 2566 713 2694 1069 
z
M 847 1978 
L 2700 1978 
Q 2663 2397 2488 2606 
Q 2219 2931 1791 2931 
Q 1403 2931 1139 2672 
Q 875 2413 847 1978 
z
" transform="scale(0.015625)"/>
       <path id="ArialMT-61" d="M 2588 409 
Q 2275 144 1986 34 
Q 1697 -75 1366 -75 
Q 819 -75 525 192 
Q 231 459 231 875 
Q 231 1119 342 1320 
Q 453 1522 633 1644 
Q 813 1766 1038 1828 
Q 1203 1872 1538 1913 
Q 2219 1994 2541 2106 
Q 2544 2222 2544 2253 
Q 2544 2597 2384 2738 
Q 2169 2928 1744 2928 
Q 1347 2928 1158 2789 
Q 969 2650 878 2297 
L 328 2372 
Q 403 2725 575 2942 
Q 747 3159 1072 3276 
Q 1397 3394 1825 3394 
Q 2250 3394 2515 3294 
Q 2781 3194 2906 3042 
Q 3031 2891 3081 2659 
Q 3109 2516 3109 2141 
L 3109 1391 
Q 3109 606 3145 398 
Q 3181 191 3288 0 
L 2700 0 
Q 2613 175 2588 409 
z
M 2541 1666 
Q 2234 1541 1622 1453 
Q 1275 1403 1131 1340 
Q 988 1278 909 1158 
Q 831 1038 831 891 
Q 831 666 1001 516 
Q 1172 366 1500 366 
Q 1825 366 2078 508 
Q 2331 650 2450 897 
Q 2541 1088 2541 1459 
L 2541 1666 
z
" transform="scale(0.015625)"/>
       <path id="ArialMT-74" d="M 1650 503 
L 1731 6 
Q 1494 -44 1306 -44 
Q 1000 -44 831 53 
Q 663 150 594 308 
Q 525 466 525 972 
L 525 2881 
L 113 2881 
L 113 3319 
L 525 3319 
L 525 4141 
L 1084 4478 
L 1084 3319 
L 1650 3319 
L 1650 2881 
L 1084 2881 
L 1084 941 
Q 1084 700 1114 631 
Q 1144 563 1211 522 
Q 1278 481 1403 481 
Q 1497 481 1650 503 
z
" transform="scale(0.015625)"/>
       <path id="ArialMT-6d" d="M 422 0 
L 422 3319 
L 925 3319 
L 925 2853 
Q 1081 3097 1340 3245 
Q 1600 3394 1931 3394 
Q 2300 3394 2536 3241 
Q 2772 3088 2869 2813 
Q 3263 3394 3894 3394 
Q 4388 3394 4653 3120 
Q 4919 2847 4919 2278 
L 4919 0 
L 4359 0 
L 4359 2091 
Q 4359 2428 4304 2576 
Q 4250 2725 4106 2815 
Q 3963 2906 3769 2906 
Q 3419 2906 3187 2673 
Q 2956 2441 2956 1928 
L 2956 0 
L 2394 0 
L 2394 2156 
Q 2394 2531 2256 2718 
Q 2119 2906 1806 2906 
Q 1569 2906 1367 2781 
Q 1166 2656 1075 2415 
Q 984 2175 984 1722 
L 984 0 
L 422 0 
z
" transform="scale(0.015625)"/>
       <path id="ArialMT-6e" d="M 422 0 
L 422 3319 
L 928 3319 
L 928 2847 
Q 1294 3394 1984 3394 
Q 2284 3394 2536 3286 
Q 2788 3178 2913 3003 
Q 3038 2828 3088 2588 
Q 3119 2431 3119 2041 
L 3119 0 
L 2556 0 
L 2556 2019 
Q 2556 2363 2490 2533 
Q 2425 2703 2258 2804 
Q 2091 2906 1866 2906 
Q 1506 2906 1245 2678 
Q 984 2450 984 1813 
L 984 0 
L 422 0 
z
" transform="scale(0.015625)"/>
       <path id="ArialMT-20" transform="scale(0.015625)"/>
       <path id="ArialMT-44" d="M 494 0 
L 494 4581 
L 2072 4581 
Q 2606 4581 2888 4516 
Q 3281 4425 3559 4188 
Q 3922 3881 4101 3404 
Q 4281 2928 4281 2316 
Q 4281 1794 4159 1391 
Q 4038 988 3847 723 
Q 3656 459 3429 307 
Q 3203 156 2883 78 
Q 2563 0 2147 0 
L 494 0 
z
M 1100 541 
L 2078 541 
Q 2531 541 2789 625 
Q 3047 709 3200 863 
Q 3416 1078 3536 1442 
Q 3656 1806 3656 2325 
Q 3656 3044 3420 3430 
Q 3184 3816 2847 3947 
Q 2603 4041 2063 4041 
L 1100 4041 
L 1100 541 
z
" transform="scale(0.015625)"/>
       <path id="ArialMT-75" d="M 2597 0 
L 2597 488 
Q 2209 -75 1544 -75 
Q 1250 -75 995 37 
Q 741 150 617 320 
Q 494 491 444 738 
Q 409 903 409 1263 
L 409 3319 
L 972 3319 
L 972 1478 
Q 972 1038 1006 884 
Q 1059 663 1231 536 
Q 1403 409 1656 409 
Q 1909 409 2131 539 
Q 2353 669 2445 892 
Q 2538 1116 2538 1541 
L 2538 3319 
L 3100 3319 
L 3100 0 
L 2597 0 
z
" transform="scale(0.015625)"/>
       <path id="ArialMT-69" d="M 425 3934 
L 425 4581 
L 988 4581 
L 988 3934 
L 425 3934 
z
M 425 0 
L 425 3319 
L 988 3319 
L 988 0 
L 425 0 
z
" transform="scale(0.015625)"/>
       <path id="ArialMT-6f" d="M 213 1659 
Q 213 2581 725 3025 
Q 1153 3394 1769 3394 
Q 2453 3394 2887 2945 
Q 3322 2497 3322 1706 
Q 3322 1066 3130 698 
Q 2938 331 2570 128 
Q 2203 -75 1769 -75 
Q 1072 -75 642 372 
Q 213 819 213 1659 
z
M 791 1659 
Q 791 1022 1069 705 
Q 1347 388 1769 388 
Q 2188 388 2466 706 
Q 2744 1025 2744 1678 
Q 2744 2294 2464 2611 
Q 2184 2928 1769 2928 
Q 1347 2928 1069 2612 
Q 791 2297 791 1659 
z
" transform="scale(0.015625)"/>
       <path id="ArialMT-5b" d="M 434 -1272 
L 434 4581 
L 1675 4581 
L 1675 4116 
L 997 4116 
L 997 -806 
L 1675 -806 
L 1675 -1272 
L 434 -1272 
z
" transform="scale(0.015625)"/>
       <path id="ArialMT-68" d="M 422 0 
L 422 4581 
L 984 4581 
L 984 2938 
Q 1378 3394 1978 3394 
Q 2347 3394 2619 3248 
Q 2891 3103 3008 2847 
Q 3125 2591 3125 2103 
L 3125 0 
L 2563 0 
L 2563 2103 
Q 2563 2525 2380 2717 
Q 2197 2909 1863 2909 
Q 1613 2909 1392 2779 
Q 1172 2650 1078 2428 
Q 984 2206 984 1816 
L 984 0 
L 422 0 
z
" transform="scale(0.015625)"/>
       <path id="ArialMT-73" d="M 197 991 
L 753 1078 
Q 800 744 1014 566 
Q 1228 388 1613 388 
Q 2000 388 2187 545 
Q 2375 703 2375 916 
Q 2375 1106 2209 1216 
Q 2094 1291 1634 1406 
Q 1016 1563 777 1677 
Q 538 1791 414 1992 
Q 291 2194 291 2438 
Q 291 2659 392 2848 
Q 494 3038 669 3163 
Q 800 3259 1026 3326 
Q 1253 3394 1513 3394 
Q 1903 3394 2198 3281 
Q 2494 3169 2634 2976 
Q 2775 2784 2828 2463 
L 2278 2388 
Q 2241 2644 2061 2787 
Q 1881 2931 1553 2931 
Q 1166 2931 1000 2803 
Q 834 2675 834 2503 
Q 834 2394 903 2306 
Q 972 2216 1119 2156 
Q 1203 2125 1616 2013 
Q 2213 1853 2448 1751 
Q 2684 1650 2818 1456 
Q 2953 1263 2953 975 
Q 2953 694 2789 445 
Q 2625 197 2315 61 
Q 2006 -75 1616 -75 
Q 969 -75 630 194 
Q 291 463 197 991 
z
" transform="scale(0.015625)"/>
       <path id="ArialMT-5d" d="M 1363 -1272 
L 122 -1272 
L 122 -806 
L 800 -806 
L 800 4116 
L 122 4116 
L 122 4581 
L 1363 4581 
L 1363 -1272 
z
" transform="scale(0.015625)"/>
      </defs>
      <use xlink:href="#ArialMT-54"/>
      <use xlink:href="#ArialMT-72" x="57.333984"/>
      <use xlink:href="#ArialMT-65" x="90.634766"/>
      <use xlink:href="#ArialMT-61" x="146.25"/>
      <use xlink:href="#ArialMT-74" x="201.865234"/>
      <use xlink:href="#ArialMT-6d" x="229.648438"/>
      <use xlink:href="#ArialMT-65" x="312.949219"/>
      <use xlink:href="#ArialMT-6e" x="368.564453"/>
      <use xlink:href="#ArialMT-74" x="424.179688"/>
      <use xlink:href="#ArialMT-20" x="451.962891"/>
      <use xlink:href="#ArialMT-44" x="479.746094"/>
      <use xlink:href="#ArialMT-75" x="551.962891"/>
      <use xlink:href="#ArialMT-72" x="607.578125"/>
      <use xlink:href="#ArialMT-61" x="640.878906"/>
      <use xlink:href="#ArialMT-74" x="696.494141"/>
      <use xlink:href="#ArialMT-69" x="724.277344"/>
      <use xlink:href="#ArialMT-6f" x="746.494141"/>
      <use xlink:href="#ArialMT-6e" x="802.109375"/>
      <use xlink:href="#ArialMT-20" x="857.724609"/>
      <use xlink:href="#ArialMT-5b" x="885.507812"/>
      <use xlink:href="#ArialMT-68" x="913.291016"/>
      <use xlink:href="#ArialMT-6f" x="968.90625"/>
      <use xlink:href="#ArialMT-75" x="1024.521484"/>
      <use xlink:href="#ArialMT-72" x="1080.136719"/>
      <use xlink:href="#ArialMT-73" x="1113.4375"/>
      <use xlink:href="#ArialMT-5d" x="1163.4375"/>
     </g>
    </g>
   </g>
   <g id="matplotlib.axis_2">
    <g id="ytick_1">
     <g id="line2d_11">
      <path d="M 55.469063 665.879047 
L 948.269063 665.879047 
" clip-path="url(#p6945859946)" style="fill: none; stroke: #cccccc; stroke-opacity: 0.5; stroke-width: 0.8; stroke-linecap: round"/>
     </g>
     <g id="line2d_12"/>
     <g id="text_7">
      <!-- 50 -->
      <g style="fill: #262626" transform="translate(34.174063 671.605297)scale(0.16 -0.16)">
       <defs>
        <path id="ArialMT-35" d="M 266 1200 
L 856 1250 
Q 922 819 1161 601 
Q 1400 384 1738 384 
Q 2144 384 2425 690 
Q 2706 997 2706 1503 
Q 2706 1984 2436 2262 
Q 2166 2541 1728 2541 
Q 1456 2541 1237 2417 
Q 1019 2294 894 2097 
L 366 2166 
L 809 4519 
L 3088 4519 
L 3088 3981 
L 1259 3981 
L 1013 2750 
Q 1425 3038 1878 3038 
Q 2478 3038 2890 2622 
Q 3303 2206 3303 1553 
Q 3303 931 2941 478 
Q 2500 -78 1738 -78 
Q 1113 -78 717 272 
Q 322 622 266 1200 
z
" transform="scale(0.015625)"/>
       </defs>
       <use xlink:href="#ArialMT-35"/>
       <use xlink:href="#ArialMT-30" x="55.615234"/>
      </g>
     </g>
    </g>
    <g id="ytick_2">
     <g id="line2d_13">
      <path d="M 55.469063 559.603388 
L 948.269063 559.603388 
" clip-path="url(#p6945859946)" style="fill: none; stroke: #cccccc; stroke-opacity: 0.5; stroke-width: 0.8; stroke-linecap: round"/>
     </g>
     <g id="line2d_14"/>
     <g id="text_8">
      <!-- 60 -->
      <g style="fill: #262626" transform="translate(34.174063 565.329638)scale(0.16 -0.16)">
       <use xlink:href="#ArialMT-36"/>
       <use xlink:href="#ArialMT-30" x="55.615234"/>
      </g>
     </g>
    </g>
    <g id="ytick_3">
     <g id="line2d_15">
      <path d="M 55.469063 453.327728 
L 948.269063 453.327728 
" clip-path="url(#p6945859946)" style="fill: none; stroke: #cccccc; stroke-opacity: 0.5; stroke-width: 0.8; stroke-linecap: round"/>
     </g>
     <g id="line2d_16"/>
     <g id="text_9">
      <!-- 70 -->
      <g style="fill: #262626" transform="translate(34.174063 459.053978)scale(0.16 -0.16)">
       <defs>
        <path id="ArialMT-37" d="M 303 3981 
L 303 4522 
L 3269 4522 
L 3269 4084 
Q 2831 3619 2401 2847 
Q 1972 2075 1738 1259 
Q 1569 684 1522 0 
L 944 0 
Q 953 541 1156 1306 
Q 1359 2072 1739 2783 
Q 2119 3494 2547 3981 
L 303 3981 
z
" transform="scale(0.015625)"/>
       </defs>
       <use xlink:href="#ArialMT-37"/>
       <use xlink:href="#ArialMT-30" x="55.615234"/>
      </g>
     </g>
    </g>
    <g id="ytick_4">
     <g id="line2d_17">
      <path d="M 55.469063 347.052068 
L 948.269063 347.052068 
" clip-path="url(#p6945859946)" style="fill: none; stroke: #cccccc; stroke-opacity: 0.5; stroke-width: 0.8; stroke-linecap: round"/>
     </g>
     <g id="line2d_18"/>
     <g id="text_10">
      <!-- 80 -->
      <g style="fill: #262626" transform="translate(34.174063 352.778318)scale(0.16 -0.16)">
       <use xlink:href="#ArialMT-38"/>
       <use xlink:href="#ArialMT-30" x="55.615234"/>
      </g>
     </g>
    </g>
    <g id="ytick_5">
     <g id="line2d_19">
      <path d="M 55.469063 240.776408 
L 948.269063 240.776408 
" clip-path="url(#p6945859946)" style="fill: none; stroke: #cccccc; stroke-opacity: 0.5; stroke-width: 0.8; stroke-linecap: round"/>
     </g>
     <g id="line2d_20"/>
     <g id="text_11">
      <!-- 90 -->
      <g style="fill: #262626" transform="translate(34.174063 246.502658)scale(0.16 -0.16)">
       <defs>
        <path id="ArialMT-39" d="M 350 1059 
L 891 1109 
Q 959 728 1153 556 
Q 1347 384 1650 384 
Q 1909 384 2104 503 
Q 2300 622 2425 820 
Q 2550 1019 2634 1356 
Q 2719 1694 2719 2044 
Q 2719 2081 2716 2156 
Q 2547 1888 2255 1720 
Q 1963 1553 1622 1553 
Q 1053 1553 659 1965 
Q 266 2378 266 3053 
Q 266 3750 677 4175 
Q 1088 4600 1706 4600 
Q 2153 4600 2523 4359 
Q 2894 4119 3086 3673 
Q 3278 3228 3278 2384 
Q 3278 1506 3087 986 
Q 2897 466 2520 194 
Q 2144 -78 1638 -78 
Q 1100 -78 759 220 
Q 419 519 350 1059 
z
M 2653 3081 
Q 2653 3566 2395 3850 
Q 2138 4134 1775 4134 
Q 1400 4134 1122 3828 
Q 844 3522 844 3034 
Q 844 2597 1108 2323 
Q 1372 2050 1759 2050 
Q 2150 2050 2401 2323 
Q 2653 2597 2653 3081 
z
" transform="scale(0.015625)"/>
       </defs>
       <use xlink:href="#ArialMT-39"/>
       <use xlink:href="#ArialMT-30" x="55.615234"/>
      </g>
     </g>
    </g>
    <g id="ytick_6">
     <g id="line2d_21">
      <path d="M 55.469063 134.500748 
L 948.269063 134.500748 
" clip-path="url(#p6945859946)" style="fill: none; stroke: #cccccc; stroke-opacity: 0.5; stroke-width: 0.8; stroke-linecap: round"/>
     </g>
     <g id="line2d_22"/>
     <g id="text_12">
      <!-- 100 -->
      <g style="fill: #262626" transform="translate(25.276563 140.226998)scale(0.16 -0.16)">
       <use xlink:href="#ArialMT-31"/>
       <use xlink:href="#ArialMT-30" x="55.615234"/>
       <use xlink:href="#ArialMT-30" x="111.230469"/>
      </g>
     </g>
    </g>
    <g id="text_13">
     <!-- Doses [Gy] -->
     <g style="fill: #262626" transform="translate(18.119531 394.346719)rotate(-90)scale(0.15 -0.15)">
      <defs>
       <path id="ArialMT-47" d="M 2638 1797 
L 2638 2334 
L 4578 2338 
L 4578 638 
Q 4131 281 3656 101 
Q 3181 -78 2681 -78 
Q 2006 -78 1454 211 
Q 903 500 622 1047 
Q 341 1594 341 2269 
Q 341 2938 620 3517 
Q 900 4097 1425 4378 
Q 1950 4659 2634 4659 
Q 3131 4659 3532 4498 
Q 3934 4338 4162 4050 
Q 4391 3763 4509 3300 
L 3963 3150 
Q 3859 3500 3706 3700 
Q 3553 3900 3268 4020 
Q 2984 4141 2638 4141 
Q 2222 4141 1919 4014 
Q 1616 3888 1430 3681 
Q 1244 3475 1141 3228 
Q 966 2803 966 2306 
Q 966 1694 1177 1281 
Q 1388 869 1791 669 
Q 2194 469 2647 469 
Q 3041 469 3416 620 
Q 3791 772 3984 944 
L 3984 1797 
L 2638 1797 
z
" transform="scale(0.015625)"/>
       <path id="ArialMT-79" d="M 397 -1278 
L 334 -750 
Q 519 -800 656 -800 
Q 844 -800 956 -737 
Q 1069 -675 1141 -563 
Q 1194 -478 1313 -144 
Q 1328 -97 1363 -6 
L 103 3319 
L 709 3319 
L 1400 1397 
Q 1534 1031 1641 628 
Q 1738 1016 1872 1384 
L 2581 3319 
L 3144 3319 
L 1881 -56 
Q 1678 -603 1566 -809 
Q 1416 -1088 1222 -1217 
Q 1028 -1347 759 -1347 
Q 597 -1347 397 -1278 
z
" transform="scale(0.015625)"/>
      </defs>
      <use xlink:href="#ArialMT-44"/>
      <use xlink:href="#ArialMT-6f" x="72.216797"/>
      <use xlink:href="#ArialMT-73" x="127.832031"/>
      <use xlink:href="#ArialMT-65" x="177.832031"/>
      <use xlink:href="#ArialMT-73" x="233.447266"/>
      <use xlink:href="#ArialMT-20" x="283.447266"/>
      <use xlink:href="#ArialMT-5b" x="311.230469"/>
      <use xlink:href="#ArialMT-47" x="339.013672"/>
      <use xlink:href="#ArialMT-79" x="416.796875"/>
      <use xlink:href="#ArialMT-5d" x="466.796875"/>
     </g>
    </g>
   </g>
   <g id="PathCollection_1">
    <path d="M 907.687244 80.268783 
C 907.819846 80.268783 907.947034 80.2161 908.040798 80.122337 
C 908.134561 80.028573 908.187244 79.901385 908.187244 79.768783 
C 908.187244 79.636182 908.134561 79.508994 908.040798 79.41523 
C 907.947034 79.321467 907.819846 79.268783 907.687244 79.268783 
C 907.554643 79.268783 907.427454 79.321467 907.333691 79.41523 
C 907.239927 79.508994 907.187244 79.636182 907.187244 79.768783 
C 907.187244 79.901385 907.239927 80.028573 907.333691 80.122337 
C 907.427454 80.2161 907.554643 80.268783 907.687244 80.268783 
z
" clip-path="url(#p6945859946)" style="fill: #1f77b4; stroke: #1f77b4"/>
    <path d="M 664.76791 205.48134 
C 665.75131 205.48134 666.694564 205.090631 667.389932 204.395263 
C 668.085301 203.699895 668.476009 202.75664 668.476009 201.773241 
C 668.476009 200.789842 668.085301 199.846587 667.389932 199.151219 
C 666.694564 198.45585 665.75131 198.065142 664.76791 198.065142 
C 663.784511 198.065142 662.841256 198.45585 662.145888 199.151219 
C 661.45052 199.846587 661.059811 200.789842 661.059811 201.773241 
C 661.059811 202.75664 661.45052 203.699895 662.145888 204.395263 
C 662.841256 205.090631 663.784511 205.48134 664.76791 205.48134 
z
" clip-path="url(#p6945859946)" style="fill: #1f77b4; stroke: #1f77b4"/>
    <path d="M 813.377385 63.090648 
C 813.999342 63.090648 814.595908 62.843542 815.035698 62.403753 
C 815.475487 61.963963 815.722593 61.367397 815.722593 60.74544 
C 815.722593 60.123484 815.475487 59.526918 815.035698 59.087128 
C 814.595908 58.647338 813.999342 58.400232 813.377385 58.400232 
C 812.755429 58.400232 812.158862 58.647338 811.719073 59.087128 
C 811.279283 59.526918 811.032177 60.123484 811.032177 60.74544 
C 811.032177 61.367397 811.279283 61.963963 811.719073 62.403753 
C 812.158862 62.843542 812.755429 63.090648 813.377385 63.090648 
z
" clip-path="url(#p6945859946)" style="fill: #1f77b4; stroke: #1f77b4"/>
    <path d="M 219.159322 538.3533 
C 220.485337 538.3533 221.757221 537.826468 222.694855 536.888833 
C 223.63249 535.951199 224.159322 534.679315 224.159322 533.3533 
C 224.159322 532.027284 223.63249 530.7554 222.694855 529.817766 
C 221.757221 528.880131 220.485337 528.3533 219.159322 528.3533 
C 217.833306 528.3533 216.561422 528.880131 215.623788 529.817766 
C 214.686153 530.7554 214.159322 532.027284 214.159322 533.3533 
C 214.159322 534.679315 214.686153 535.951199 215.623788 536.888833 
C 216.561422 537.826468 217.833306 538.3533 219.159322 538.3533 
z
" clip-path="url(#p6945859946)" style="fill: #1f77b4; stroke: #1f77b4"/>
    <path d="M 237.405751 529.001042 
C 238.731767 529.001042 240.003651 528.47421 240.941285 527.536575 
C 241.87892 526.598941 242.405751 525.327057 242.405751 524.001042 
C 242.405751 522.675026 241.87892 521.403142 240.941285 520.465508 
C 240.003651 519.527873 238.731767 519.001042 237.405751 519.001042 
C 236.079736 519.001042 234.807852 519.527873 233.870217 520.465508 
C 232.932583 521.403142 232.405751 522.675026 232.405751 524.001042 
C 232.405751 525.327057 232.932583 526.598941 233.870217 527.536575 
C 234.807852 528.47421 236.079736 529.001042 237.405751 529.001042 
z
" clip-path="url(#p6945859946)" style="fill: #1f77b4; stroke: #1f77b4"/>
    <path d="M 165.519215 597.761393 
C 166.845231 597.761393 168.117115 597.234562 169.054749 596.296927 
C 169.992384 595.359293 170.519215 594.087409 170.519215 592.761393 
C 170.519215 591.435378 169.992384 590.163494 169.054749 589.22586 
C 168.117115 588.288225 166.845231 587.761393 165.519215 587.761393 
C 164.1932 587.761393 162.921316 588.288225 161.983681 589.22586 
C 161.046047 590.163494 160.519215 591.435378 160.519215 592.761393 
C 160.519215 594.087409 161.046047 595.359293 161.983681 596.296927 
C 162.921316 597.234562 164.1932 597.761393 165.519215 597.761393 
z
" clip-path="url(#p6945859946)" style="fill: #1f77b4; stroke: #1f77b4"/>
    <path d="M 426.465142 337.710109 
C 427.764367 337.710109 429.010554 337.193922 429.929244 336.275231 
C 430.847935 335.356541 431.364122 334.110354 431.364122 332.811129 
C 431.364122 331.511905 430.847935 330.265718 429.929244 329.347028 
C 429.010554 328.428337 427.764367 327.91215 426.465142 327.91215 
C 425.165918 327.91215 423.919731 328.428337 423.001041 329.347028 
C 422.08235 330.265718 421.566163 331.511905 421.566163 332.811129 
C 421.566163 334.110354 422.08235 335.356541 423.001041 336.275231 
C 423.919731 337.193922 425.165918 337.710109 426.465142 337.710109 
z
" clip-path="url(#p6945859946)" style="fill: #1f77b4; stroke: #1f77b4"/>
    <path d="M 194.317797 574.380748 
C 195.643812 574.380748 196.915696 573.853917 197.853331 572.916282 
C 198.790965 571.978648 199.317797 570.706764 199.317797 569.380748 
C 199.317797 568.054733 198.790965 566.782849 197.853331 565.845214 
C 196.915696 564.90758 195.643812 564.380748 194.317797 564.380748 
C 192.991781 564.380748 191.719898 564.90758 190.782263 565.845214 
C 189.844628 566.782849 189.317797 568.054733 189.317797 569.380748 
C 189.317797 570.706764 189.844628 571.978648 190.782263 572.916282 
C 191.719898 573.853917 192.991781 574.380748 194.317797 574.380748 
z
" clip-path="url(#p6945859946)" style="fill: #1f77b4; stroke: #1f77b4"/>
    <path d="M 181.347443 578.525499 
C 182.673459 578.525499 183.945343 577.998667 184.882977 577.061033 
C 185.820612 576.123398 186.347443 574.851514 186.347443 573.525499 
C 186.347443 572.199483 185.820612 570.9276 184.882977 569.989965 
C 183.945343 569.052331 182.673459 568.525499 181.347443 568.525499 
C 180.021428 568.525499 178.749544 569.052331 177.811909 569.989965 
C 176.874275 570.9276 176.347443 572.199483 176.347443 573.525499 
C 176.347443 574.851514 176.874275 576.123398 177.811909 577.061033 
C 178.749544 577.998667 180.021428 578.525499 181.347443 578.525499 
z
" clip-path="url(#p6945859946)" style="fill: #1f77b4; stroke: #1f77b4"/>
    <path d="M 123.310607 629.856643 
C 124.636622 629.856643 125.908506 629.329811 126.846141 628.392177 
C 127.783775 627.454542 128.310607 626.182658 128.310607 624.856643 
C 128.310607 623.530627 127.783775 622.258743 126.846141 621.321109 
C 125.908506 620.383474 124.636622 619.856643 123.310607 619.856643 
C 121.984591 619.856643 120.712708 620.383474 119.775073 621.321109 
C 118.837438 622.258743 118.310607 623.530627 118.310607 624.856643 
C 118.310607 626.182658 118.837438 627.454542 119.775073 628.392177 
C 120.712708 629.329811 121.984591 629.856643 123.310607 629.856643 
z
" clip-path="url(#p6945859946)" style="fill: #1f77b4; stroke: #1f77b4"/>
    <path d="M 96.050881 658.763622 
C 97.376896 658.763622 98.64878 658.236791 99.586415 657.299156 
C 100.524049 656.361522 101.050881 655.089638 101.050881 653.763622 
C 101.050881 652.437607 100.524049 651.165723 99.586415 650.228088 
C 98.64878 649.290454 97.376896 648.763622 96.050881 648.763622 
C 94.724865 648.763622 93.452981 649.290454 92.515347 650.228088 
C 91.577712 651.165723 91.050881 652.437607 91.050881 653.763622 
C 91.050881 655.089638 91.577712 656.361522 92.515347 657.299156 
C 93.452981 658.236791 94.724865 658.763622 96.050881 658.763622 
z
" clip-path="url(#p6945859946)" style="fill: #1f77b4; stroke: #1f77b4"/>
    <path d="M 399.205416 365.098911 
C 400.524785 365.098911 401.790294 364.57472 402.723228 363.641786 
C 403.656163 362.708851 404.180353 361.443343 404.180353 360.123974 
C 404.180353 358.804605 403.656163 357.539097 402.723228 356.606162 
C 401.790294 355.673228 400.524785 355.149037 399.205416 355.149037 
C 397.886048 355.149037 396.620539 355.673228 395.687604 356.606162 
C 394.75467 357.539097 394.230479 358.804605 394.230479 360.123974 
C 394.230479 361.443343 394.75467 362.708851 395.687604 363.641786 
C 396.620539 364.57472 397.886048 365.098911 399.205416 365.098911 
z
" clip-path="url(#p6945859946)" style="fill: #1f77b4; stroke: #1f77b4"/>
    <path d="M 602.774017 226.346462 
C 603.851277 226.346462 604.88456 225.918463 605.646298 225.156725 
C 606.408036 224.394987 606.836036 223.361703 606.836036 222.284443 
C 606.836036 221.207183 606.408036 220.1739 605.646298 219.412162 
C 604.88456 218.650424 603.851277 218.222424 602.774017 218.222424 
C 601.696757 218.222424 600.663473 218.650424 599.901735 219.412162 
C 599.139997 220.1739 598.711997 221.207183 598.711997 222.284443 
C 598.711997 223.361703 599.139997 224.394987 599.901735 225.156725 
C 600.663473 225.918463 601.696757 226.346462 602.774017 226.346462 
z
" clip-path="url(#p6945859946)" style="fill: #1f77b4; stroke: #1f77b4"/>
    <path d="M 214.322919 555.782508 
C 215.648934 555.782508 216.920818 555.255676 217.858452 554.318042 
C 218.796087 553.380407 219.322919 552.108523 219.322919 550.782508 
C 219.322919 549.456492 218.796087 548.184608 217.858452 547.246974 
C 216.920818 546.309339 215.648934 545.782508 214.322919 545.782508 
C 212.996903 545.782508 211.725019 546.309339 210.787385 547.246974 
C 209.84975 548.184608 209.322919 549.456492 209.322919 550.782508 
C 209.322919 552.108523 209.84975 553.380407 210.787385 554.318042 
C 211.725019 555.255676 212.996903 555.782508 214.322919 555.782508 
z
" clip-path="url(#p6945859946)" style="fill: #1f77b4; stroke: #1f77b4"/>
    <path d="M 300.9385 466.723505 
C 302.264516 466.723505 303.536399 466.196673 304.474034 465.259039 
C 305.411669 464.321404 305.9385 463.04952 305.9385 461.723505 
C 305.9385 460.397489 305.411669 459.125606 304.474034 458.187971 
C 303.536399 457.250336 302.264516 456.723505 300.9385 456.723505 
C 299.612485 456.723505 298.340601 457.250336 297.402966 458.187971 
C 296.465332 459.125606 295.9385 460.397489 295.9385 461.723505 
C 295.9385 463.04952 296.465332 464.321404 297.402966 465.259039 
C 298.340601 466.196673 299.612485 466.723505 300.9385 466.723505 
z
" clip-path="url(#p6945859946)" style="fill: #1f77b4; stroke: #1f77b4"/>
    <path d="M 156.286082 612.214883 
C 157.612098 612.214883 158.883981 611.688052 159.821616 610.750417 
C 160.759251 609.812783 161.286082 608.540899 161.286082 607.214883 
C 161.286082 605.888868 160.759251 604.616984 159.821616 603.679349 
C 158.883981 602.741715 157.612098 602.214883 156.286082 602.214883 
C 154.960067 602.214883 153.688183 602.741715 152.750548 603.679349 
C 151.812914 604.616984 151.286082 605.888868 151.286082 607.214883 
C 151.286082 608.540899 151.812914 609.812783 152.750548 610.750417 
C 153.688183 611.688052 154.960067 612.214883 156.286082 612.214883 
z
" clip-path="url(#p6945859946)" style="fill: #1f77b4; stroke: #1f77b4"/>
   </g>
   <g id="patch_3">
    <path d="M 55.469063 683.414531 
L 55.469063 31.094531 
" style="fill: none; stroke: #cccccc; stroke-linejoin: miter; stroke-linecap: square"/>
   </g>
   <g id="patch_4">
    <path d="M 948.269063 683.414531 
L 948.269063 31.094531 
" style="fill: none; stroke: #cccccc; stroke-linejoin: miter; stroke-linecap: square"/>
   </g>
   <g id="patch_5">
    <path d="M 55.469063 683.414531 
L 948.269063 683.414531 
" style="fill: none; stroke: #cccccc; stroke-linejoin: miter; stroke-linecap: square"/>
   </g>
   <g id="patch_6">
    <path d="M 55.469063 31.094531 
L 948.269063 31.094531 
" style="fill: none; stroke: #cccccc; stroke-linejoin: miter; stroke-linecap: square"/>
   </g>
   <g id="text_14">
    <!-- Number of doses w.r.t. duration treatment time -->
    <g style="fill: #262626" transform="translate(245.5175 25.094531)scale(0.25 -0.25)">
     <defs>
      <path id="ArialMT-4e" d="M 488 0 
L 488 4581 
L 1109 4581 
L 3516 984 
L 3516 4581 
L 4097 4581 
L 4097 0 
L 3475 0 
L 1069 3600 
L 1069 0 
L 488 0 
z
" transform="scale(0.015625)"/>
      <path id="ArialMT-62" d="M 941 0 
L 419 0 
L 419 4581 
L 981 4581 
L 981 2947 
Q 1338 3394 1891 3394 
Q 2197 3394 2470 3270 
Q 2744 3147 2920 2923 
Q 3097 2700 3197 2384 
Q 3297 2069 3297 1709 
Q 3297 856 2875 390 
Q 2453 -75 1863 -75 
Q 1275 -75 941 416 
L 941 0 
z
M 934 1684 
Q 934 1088 1097 822 
Q 1363 388 1816 388 
Q 2184 388 2453 708 
Q 2722 1028 2722 1663 
Q 2722 2313 2464 2622 
Q 2206 2931 1841 2931 
Q 1472 2931 1203 2611 
Q 934 2291 934 1684 
z
" transform="scale(0.015625)"/>
      <path id="ArialMT-66" d="M 556 0 
L 556 2881 
L 59 2881 
L 59 3319 
L 556 3319 
L 556 3672 
Q 556 4006 616 4169 
Q 697 4388 901 4523 
Q 1106 4659 1475 4659 
Q 1713 4659 2000 4603 
L 1916 4113 
Q 1741 4144 1584 4144 
Q 1328 4144 1222 4034 
Q 1116 3925 1116 3625 
L 1116 3319 
L 1763 3319 
L 1763 2881 
L 1116 2881 
L 1116 0 
L 556 0 
z
" transform="scale(0.015625)"/>
      <path id="ArialMT-64" d="M 2575 0 
L 2575 419 
Q 2259 -75 1647 -75 
Q 1250 -75 917 144 
Q 584 363 401 755 
Q 219 1147 219 1656 
Q 219 2153 384 2558 
Q 550 2963 881 3178 
Q 1213 3394 1622 3394 
Q 1922 3394 2156 3267 
Q 2391 3141 2538 2938 
L 2538 4581 
L 3097 4581 
L 3097 0 
L 2575 0 
z
M 797 1656 
Q 797 1019 1065 703 
Q 1334 388 1700 388 
Q 2069 388 2326 689 
Q 2584 991 2584 1609 
Q 2584 2291 2321 2609 
Q 2059 2928 1675 2928 
Q 1300 2928 1048 2622 
Q 797 2316 797 1656 
z
" transform="scale(0.015625)"/>
      <path id="ArialMT-77" d="M 1034 0 
L 19 3319 
L 600 3319 
L 1128 1403 
L 1325 691 
Q 1338 744 1497 1375 
L 2025 3319 
L 2603 3319 
L 3100 1394 
L 3266 759 
L 3456 1400 
L 4025 3319 
L 4572 3319 
L 3534 0 
L 2950 0 
L 2422 1988 
L 2294 2553 
L 1622 0 
L 1034 0 
z
" transform="scale(0.015625)"/>
      <path id="ArialMT-2e" d="M 581 0 
L 581 641 
L 1222 641 
L 1222 0 
L 581 0 
z
" transform="scale(0.015625)"/>
     </defs>
     <use xlink:href="#ArialMT-4e"/>
     <use xlink:href="#ArialMT-75" x="72.216797"/>
     <use xlink:href="#ArialMT-6d" x="127.832031"/>
     <use xlink:href="#ArialMT-62" x="211.132812"/>
     <use xlink:href="#ArialMT-65" x="266.748047"/>
     <use xlink:href="#ArialMT-72" x="322.363281"/>
     <use xlink:href="#ArialMT-20" x="355.664062"/>
     <use xlink:href="#ArialMT-6f" x="383.447266"/>
     <use xlink:href="#ArialMT-66" x="439.0625"/>
     <use xlink:href="#ArialMT-20" x="466.845703"/>
     <use xlink:href="#ArialMT-64" x="494.628906"/>
     <use xlink:href="#ArialMT-6f" x="550.244141"/>
     <use xlink:href="#ArialMT-73" x="605.859375"/>
     <use xlink:href="#ArialMT-65" x="655.859375"/>
     <use xlink:href="#ArialMT-73" x="711.474609"/>
     <use xlink:href="#ArialMT-20" x="761.474609"/>
     <use xlink:href="#ArialMT-77" x="789.257812"/>
     <use xlink:href="#ArialMT-2e" x="855.974609"/>
     <use xlink:href="#ArialMT-72" x="883.757812"/>
     <use xlink:href="#ArialMT-2e" x="911.558594"/>
     <use xlink:href="#ArialMT-74" x="939.341797"/>
     <use xlink:href="#ArialMT-2e" x="967.125"/>
     <use xlink:href="#ArialMT-20" x="994.908203"/>
     <use xlink:href="#ArialMT-64" x="1022.691406"/>
     <use xlink:href="#ArialMT-75" x="1078.306641"/>
     <use xlink:href="#ArialMT-72" x="1133.921875"/>
     <use xlink:href="#ArialMT-61" x="1167.222656"/>
     <use xlink:href="#ArialMT-74" x="1222.837891"/>
     <use xlink:href="#ArialMT-69" x="1250.621094"/>
     <use xlink:href="#ArialMT-6f" x="1272.837891"/>
     <use xlink:href="#ArialMT-6e" x="1328.453125"/>
     <use xlink:href="#ArialMT-20" x="1384.068359"/>
     <use xlink:href="#ArialMT-74" x="1411.851562"/>
     <use xlink:href="#ArialMT-72" x="1439.634766"/>
     <use xlink:href="#ArialMT-65" x="1472.935547"/>
     <use xlink:href="#ArialMT-61" x="1528.550781"/>
     <use xlink:href="#ArialMT-74" x="1584.166016"/>
     <use xlink:href="#ArialMT-6d" x="1611.949219"/>
     <use xlink:href="#ArialMT-65" x="1695.25"/>
     <use xlink:href="#ArialMT-6e" x="1750.865234"/>
     <use xlink:href="#ArialMT-74" x="1806.480469"/>
     <use xlink:href="#ArialMT-20" x="1834.263672"/>
     <use xlink:href="#ArialMT-74" x="1862.046875"/>
     <use xlink:href="#ArialMT-69" x="1889.830078"/>
     <use xlink:href="#ArialMT-6d" x="1912.046875"/>
     <use xlink:href="#ArialMT-65" x="1995.347656"/>
    </g>
   </g>
   <g id="legend_1">
    <g id="PathCollection_2">
     <defs>
      <path id="m3e455fb45e" d="M 0 3.553168 
C 0.942311 3.553168 1.846154 3.178783 2.512469 2.512469 
C 3.178783 1.846154 3.553168 0.942311 3.553168 0 
C 3.553168 -0.942311 3.178783 -1.846154 2.512469 -2.512469 
C 1.846154 -3.178783 0.942311 -3.553168 0 -3.553168 
C -0.942311 -3.553168 -1.846154 -3.178783 -2.512469 -2.512469 
C -3.178783 -1.846154 -3.553168 -0.942311 -3.553168 0 
C -3.553168 0.942311 -3.178783 1.846154 -2.512469 2.512469 
C -1.846154 3.178783 -0.942311 3.553168 0 3.553168 
z
" style="stroke: #1f77b4"/>
     </defs>
     <g>
      <use xlink:href="#m3e455fb45e" x="852.649688" y="55.453594" style="fill: #1f77b4; stroke: #1f77b4"/>
     </g>
    </g>
    <g id="text_15">
     <!-- Sarsa -->
     <g style="fill: #262626" transform="translate(885.049688 60.178594)scale(0.18 -0.18)">
      <defs>
       <path id="ArialMT-53" d="M 288 1472 
L 859 1522 
Q 900 1178 1048 958 
Q 1197 738 1509 602 
Q 1822 466 2213 466 
Q 2559 466 2825 569 
Q 3091 672 3220 851 
Q 3350 1031 3350 1244 
Q 3350 1459 3225 1620 
Q 3100 1781 2813 1891 
Q 2628 1963 1997 2114 
Q 1366 2266 1113 2400 
Q 784 2572 623 2826 
Q 463 3081 463 3397 
Q 463 3744 659 4045 
Q 856 4347 1234 4503 
Q 1613 4659 2075 4659 
Q 2584 4659 2973 4495 
Q 3363 4331 3572 4012 
Q 3781 3694 3797 3291 
L 3216 3247 
Q 3169 3681 2898 3903 
Q 2628 4125 2100 4125 
Q 1550 4125 1298 3923 
Q 1047 3722 1047 3438 
Q 1047 3191 1225 3031 
Q 1400 2872 2139 2705 
Q 2878 2538 3153 2413 
Q 3553 2228 3743 1945 
Q 3934 1663 3934 1294 
Q 3934 928 3725 604 
Q 3516 281 3123 101 
Q 2731 -78 2241 -78 
Q 1619 -78 1198 103 
Q 778 284 539 648 
Q 300 1013 288 1472 
z
" transform="scale(0.015625)"/>
      </defs>
      <use xlink:href="#ArialMT-53"/>
      <use xlink:href="#ArialMT-61" x="66.699219"/>
      <use xlink:href="#ArialMT-72" x="122.314453"/>
      <use xlink:href="#ArialMT-73" x="155.615234"/>
      <use xlink:href="#ArialMT-61" x="205.615234"/>
     </g>
    </g>
   </g>
  </g>
 </g>
 <defs>
  <clipPath id="p6945859946">
   <rect x="55.469063" y="31.094531" width="892.8" height="652.32"/>
  </clipPath>
 </defs>
</svg>
