<?xml version="1.0" encoding="utf-8" standalone="no"?>
<!DOCTYPE svg PUBLIC "-//W3C//DTD SVG 1.1//EN"
  "http://www.w3.org/Graphics/SVG/1.1/DTD/svg11.dtd">
<svg xmlns:xlink="http://www.w3.org/1999/xlink" width="1152pt" height="1152pt" viewBox="0 0 1152 1152" xmlns="http://www.w3.org/2000/svg" version="1.1">
 <metadata>
  <rdf:RDF xmlns:dc="http://purl.org/dc/elements/1.1/" xmlns:cc="http://creativecommons.org/ns#" xmlns:rdf="http://www.w3.org/1999/02/22-rdf-syntax-ns#">
   <cc:Work>
    <dc:type rdf:resource="http://purl.org/dc/dcmitype/StillImage"/>
    <dc:date>2023-04-26T11:21:58.881698</dc:date>
    <dc:format>image/svg+xml</dc:format>
    <dc:creator>
     <cc:Agent>
      <dc:title>Matplotlib v3.5.3, https://matplotlib.org/</dc:title>
     </cc:Agent>
    </dc:creator>
   </cc:Work>
  </rdf:RDF>
 </metadata>
 <defs>
  <style type="text/css">*{stroke-linejoin: round; stroke-linecap: butt}</style>
 </defs>
 <g id="figure_1">
  <g id="patch_1">
   <path d="M 0 1152 
L 1152 1152 
L 1152 0 
L 0 0 
z
" style="fill: #ffffff"/>
  </g>
  <g id="axes_1">
   <g id="patch_2">
    <path d="M 144 1008 
L 1036.8 1008 
L 1036.8 138.24 
L 144 138.24 
z
" style="fill: #ffffff"/>
   </g>
   <g id="matplotlib.axis_1">
    <g id="xtick_1">
     <g id="line2d_1">
      <path d="M 184.581818 1008 
L 184.581818 138.24 
" clip-path="url(#p9d486c1dd1)" style="fill: none; stroke: #cccccc; stroke-width: 0.8; stroke-linecap: round"/>
     </g>
     <g id="line2d_2"/>
     <g id="text_1">
      <!-- 0 -->
      <g style="fill: #262626" transform="translate(180.133068 1022.9525)scale(0.16 -0.16)">
       <defs>
        <path id="ArialMT-30" d="M 266 2259 
Q 266 3072 433 3567 
Q 600 4063 929 4331 
Q 1259 4600 1759 4600 
Q 2128 4600 2406 4451 
Q 2684 4303 2865 4023 
Q 3047 3744 3150 3342 
Q 3253 2941 3253 2259 
Q 3253 1453 3087 958 
Q 2922 463 2592 192 
Q 2263 -78 1759 -78 
Q 1097 -78 719 397 
Q 266 969 266 2259 
z
M 844 2259 
Q 844 1131 1108 757 
Q 1372 384 1759 384 
Q 2147 384 2411 759 
Q 2675 1134 2675 2259 
Q 2675 3391 2411 3762 
Q 2147 4134 1753 4134 
Q 1366 4134 1134 3806 
Q 844 3388 844 2259 
z
" transform="scale(0.015625)"/>
       </defs>
       <use xlink:href="#ArialMT-30"/>
      </g>
     </g>
    </g>
    <g id="xtick_2">
     <g id="line2d_3">
      <path d="M 325.490909 1008 
L 325.490909 138.24 
" clip-path="url(#p9d486c1dd1)" style="fill: none; stroke: #cccccc; stroke-width: 0.8; stroke-linecap: round"/>
     </g>
     <g id="line2d_4"/>
     <g id="text_2">
      <!-- 100 -->
      <g style="fill: #262626" transform="translate(312.144659 1022.9525)scale(0.16 -0.16)">
       <defs>
        <path id="ArialMT-31" d="M 2384 0 
L 1822 0 
L 1822 3584 
Q 1619 3391 1289 3197 
Q 959 3003 697 2906 
L 697 3450 
Q 1169 3672 1522 3987 
Q 1875 4303 2022 4600 
L 2384 4600 
L 2384 0 
z
" transform="scale(0.015625)"/>
       </defs>
       <use xlink:href="#ArialMT-31"/>
       <use xlink:href="#ArialMT-30" x="55.615234"/>
       <use xlink:href="#ArialMT-30" x="111.230469"/>
      </g>
     </g>
    </g>
    <g id="xtick_3">
     <g id="line2d_5">
      <path d="M 466.4 1008 
L 466.4 138.24 
" clip-path="url(#p9d486c1dd1)" style="fill: none; stroke: #cccccc; stroke-width: 0.8; stroke-linecap: round"/>
     </g>
     <g id="line2d_6"/>
     <g id="text_3">
      <!-- 200 -->
      <g style="fill: #262626" transform="translate(453.05375 1022.9525)scale(0.16 -0.16)">
       <defs>
        <path id="ArialMT-32" d="M 3222 541 
L 3222 0 
L 194 0 
Q 188 203 259 391 
Q 375 700 629 1000 
Q 884 1300 1366 1694 
Q 2113 2306 2375 2664 
Q 2638 3022 2638 3341 
Q 2638 3675 2398 3904 
Q 2159 4134 1775 4134 
Q 1369 4134 1125 3890 
Q 881 3647 878 3216 
L 300 3275 
Q 359 3922 746 4261 
Q 1134 4600 1788 4600 
Q 2447 4600 2831 4234 
Q 3216 3869 3216 3328 
Q 3216 3053 3103 2787 
Q 2991 2522 2730 2228 
Q 2469 1934 1863 1422 
Q 1356 997 1212 845 
Q 1069 694 975 541 
L 3222 541 
z
" transform="scale(0.015625)"/>
       </defs>
       <use xlink:href="#ArialMT-32"/>
       <use xlink:href="#ArialMT-30" x="55.615234"/>
       <use xlink:href="#ArialMT-30" x="111.230469"/>
      </g>
     </g>
    </g>
    <g id="xtick_4">
     <g id="line2d_7">
      <path d="M 607.309091 1008 
L 607.309091 138.24 
" clip-path="url(#p9d486c1dd1)" style="fill: none; stroke: #cccccc; stroke-width: 0.8; stroke-linecap: round"/>
     </g>
     <g id="line2d_8"/>
     <g id="text_4">
      <!-- 300 -->
      <g style="fill: #262626" transform="translate(593.962841 1022.9525)scale(0.16 -0.16)">
       <defs>
        <path id="ArialMT-33" d="M 269 1209 
L 831 1284 
Q 928 806 1161 595 
Q 1394 384 1728 384 
Q 2125 384 2398 659 
Q 2672 934 2672 1341 
Q 2672 1728 2419 1979 
Q 2166 2231 1775 2231 
Q 1616 2231 1378 2169 
L 1441 2663 
Q 1497 2656 1531 2656 
Q 1891 2656 2178 2843 
Q 2466 3031 2466 3422 
Q 2466 3731 2256 3934 
Q 2047 4138 1716 4138 
Q 1388 4138 1169 3931 
Q 950 3725 888 3313 
L 325 3413 
Q 428 3978 793 4289 
Q 1159 4600 1703 4600 
Q 2078 4600 2393 4439 
Q 2709 4278 2876 4000 
Q 3044 3722 3044 3409 
Q 3044 3113 2884 2869 
Q 2725 2625 2413 2481 
Q 2819 2388 3044 2092 
Q 3269 1797 3269 1353 
Q 3269 753 2831 336 
Q 2394 -81 1725 -81 
Q 1122 -81 723 278 
Q 325 638 269 1209 
z
" transform="scale(0.015625)"/>
       </defs>
       <use xlink:href="#ArialMT-33"/>
       <use xlink:href="#ArialMT-30" x="55.615234"/>
       <use xlink:href="#ArialMT-30" x="111.230469"/>
      </g>
     </g>
    </g>
    <g id="xtick_5">
     <g id="line2d_9">
      <path d="M 748.218182 1008 
L 748.218182 138.24 
" clip-path="url(#p9d486c1dd1)" style="fill: none; stroke: #cccccc; stroke-width: 0.8; stroke-linecap: round"/>
     </g>
     <g id="line2d_10"/>
     <g id="text_5">
      <!-- 400 -->
      <g style="fill: #262626" transform="translate(734.871932 1022.9525)scale(0.16 -0.16)">
       <defs>
        <path id="ArialMT-34" d="M 2069 0 
L 2069 1097 
L 81 1097 
L 81 1613 
L 2172 4581 
L 2631 4581 
L 2631 1613 
L 3250 1613 
L 3250 1097 
L 2631 1097 
L 2631 0 
L 2069 0 
z
M 2069 1613 
L 2069 3678 
L 634 1613 
L 2069 1613 
z
" transform="scale(0.015625)"/>
       </defs>
       <use xlink:href="#ArialMT-34"/>
       <use xlink:href="#ArialMT-30" x="55.615234"/>
       <use xlink:href="#ArialMT-30" x="111.230469"/>
      </g>
     </g>
    </g>
    <g id="xtick_6">
     <g id="line2d_11">
      <path d="M 889.127273 1008 
L 889.127273 138.24 
" clip-path="url(#p9d486c1dd1)" style="fill: none; stroke: #cccccc; stroke-width: 0.8; stroke-linecap: round"/>
     </g>
     <g id="line2d_12"/>
     <g id="text_6">
      <!-- 500 -->
      <g style="fill: #262626" transform="translate(875.781023 1022.9525)scale(0.16 -0.16)">
       <defs>
        <path id="ArialMT-35" d="M 266 1200 
L 856 1250 
Q 922 819 1161 601 
Q 1400 384 1738 384 
Q 2144 384 2425 690 
Q 2706 997 2706 1503 
Q 2706 1984 2436 2262 
Q 2166 2541 1728 2541 
Q 1456 2541 1237 2417 
Q 1019 2294 894 2097 
L 366 2166 
L 809 4519 
L 3088 4519 
L 3088 3981 
L 1259 3981 
L 1013 2750 
Q 1425 3038 1878 3038 
Q 2478 3038 2890 2622 
Q 3303 2206 3303 1553 
Q 3303 931 2941 478 
Q 2500 -78 1738 -78 
Q 1113 -78 717 272 
Q 322 622 266 1200 
z
" transform="scale(0.015625)"/>
       </defs>
       <use xlink:href="#ArialMT-35"/>
       <use xlink:href="#ArialMT-30" x="55.615234"/>
       <use xlink:href="#ArialMT-30" x="111.230469"/>
      </g>
     </g>
    </g>
    <g id="xtick_7">
     <g id="line2d_13">
      <path d="M 1030.036364 1008 
L 1030.036364 138.24 
" clip-path="url(#p9d486c1dd1)" style="fill: none; stroke: #cccccc; stroke-width: 0.8; stroke-linecap: round"/>
     </g>
     <g id="line2d_14"/>
     <g id="text_7">
      <!-- 600 -->
      <g style="fill: #262626" transform="translate(1016.690114 1022.9525)scale(0.16 -0.16)">
       <defs>
        <path id="ArialMT-36" d="M 3184 3459 
L 2625 3416 
Q 2550 3747 2413 3897 
Q 2184 4138 1850 4138 
Q 1581 4138 1378 3988 
Q 1113 3794 959 3422 
Q 806 3050 800 2363 
Q 1003 2672 1297 2822 
Q 1591 2972 1913 2972 
Q 2475 2972 2870 2558 
Q 3266 2144 3266 1488 
Q 3266 1056 3080 686 
Q 2894 316 2569 119 
Q 2244 -78 1831 -78 
Q 1128 -78 684 439 
Q 241 956 241 2144 
Q 241 3472 731 4075 
Q 1159 4600 1884 4600 
Q 2425 4600 2770 4297 
Q 3116 3994 3184 3459 
z
M 888 1484 
Q 888 1194 1011 928 
Q 1134 663 1356 523 
Q 1578 384 1822 384 
Q 2178 384 2434 671 
Q 2691 959 2691 1453 
Q 2691 1928 2437 2201 
Q 2184 2475 1800 2475 
Q 1419 2475 1153 2201 
Q 888 1928 888 1484 
z
" transform="scale(0.015625)"/>
       </defs>
       <use xlink:href="#ArialMT-36"/>
       <use xlink:href="#ArialMT-30" x="55.615234"/>
       <use xlink:href="#ArialMT-30" x="111.230469"/>
      </g>
     </g>
    </g>
   </g>
   <g id="matplotlib.axis_2">
    <g id="ytick_1">
     <g id="line2d_15">
      <path d="M 144 970.369014 
L 1036.8 970.369014 
" clip-path="url(#p9d486c1dd1)" style="fill: none; stroke: #cccccc; stroke-width: 0.8; stroke-linecap: round"/>
     </g>
     <g id="line2d_16"/>
     <g id="text_8">
      <!-- 1000 -->
      <g style="fill: #262626" transform="translate(104.91 976.095264)scale(0.16 -0.16)">
       <use xlink:href="#ArialMT-31"/>
       <use xlink:href="#ArialMT-30" x="55.615234"/>
       <use xlink:href="#ArialMT-30" x="111.230469"/>
       <use xlink:href="#ArialMT-30" x="166.845703"/>
      </g>
     </g>
    </g>
    <g id="ytick_2">
     <g id="line2d_17">
      <path d="M 144 851.396563 
L 1036.8 851.396563 
" clip-path="url(#p9d486c1dd1)" style="fill: none; stroke: #cccccc; stroke-width: 0.8; stroke-linecap: round"/>
     </g>
     <g id="line2d_18"/>
     <g id="text_9">
      <!-- 1500 -->
      <g style="fill: #262626" transform="translate(104.91 857.122813)scale(0.16 -0.16)">
       <use xlink:href="#ArialMT-31"/>
       <use xlink:href="#ArialMT-35" x="55.615234"/>
       <use xlink:href="#ArialMT-30" x="111.230469"/>
       <use xlink:href="#ArialMT-30" x="166.845703"/>
      </g>
     </g>
    </g>
    <g id="ytick_3">
     <g id="line2d_19">
      <path d="M 144 732.424112 
L 1036.8 732.424112 
" clip-path="url(#p9d486c1dd1)" style="fill: none; stroke: #cccccc; stroke-width: 0.8; stroke-linecap: round"/>
     </g>
     <g id="line2d_20"/>
     <g id="text_10">
      <!-- 2000 -->
      <g style="fill: #262626" transform="translate(104.91 738.150362)scale(0.16 -0.16)">
       <use xlink:href="#ArialMT-32"/>
       <use xlink:href="#ArialMT-30" x="55.615234"/>
       <use xlink:href="#ArialMT-30" x="111.230469"/>
       <use xlink:href="#ArialMT-30" x="166.845703"/>
      </g>
     </g>
    </g>
    <g id="ytick_4">
     <g id="line2d_21">
      <path d="M 144 613.451661 
L 1036.8 613.451661 
" clip-path="url(#p9d486c1dd1)" style="fill: none; stroke: #cccccc; stroke-width: 0.8; stroke-linecap: round"/>
     </g>
     <g id="line2d_22"/>
     <g id="text_11">
      <!-- 2500 -->
      <g style="fill: #262626" transform="translate(104.91 619.177911)scale(0.16 -0.16)">
       <use xlink:href="#ArialMT-32"/>
       <use xlink:href="#ArialMT-35" x="55.615234"/>
       <use xlink:href="#ArialMT-30" x="111.230469"/>
       <use xlink:href="#ArialMT-30" x="166.845703"/>
      </g>
     </g>
    </g>
    <g id="ytick_5">
     <g id="line2d_23">
      <path d="M 144 494.47921 
L 1036.8 494.47921 
" clip-path="url(#p9d486c1dd1)" style="fill: none; stroke: #cccccc; stroke-width: 0.8; stroke-linecap: round"/>
     </g>
     <g id="line2d_24"/>
     <g id="text_12">
      <!-- 3000 -->
      <g style="fill: #262626" transform="translate(104.91 500.20546)scale(0.16 -0.16)">
       <use xlink:href="#ArialMT-33"/>
       <use xlink:href="#ArialMT-30" x="55.615234"/>
       <use xlink:href="#ArialMT-30" x="111.230469"/>
       <use xlink:href="#ArialMT-30" x="166.845703"/>
      </g>
     </g>
    </g>
    <g id="ytick_6">
     <g id="line2d_25">
      <path d="M 144 375.506759 
L 1036.8 375.506759 
" clip-path="url(#p9d486c1dd1)" style="fill: none; stroke: #cccccc; stroke-width: 0.8; stroke-linecap: round"/>
     </g>
     <g id="line2d_26"/>
     <g id="text_13">
      <!-- 3500 -->
      <g style="fill: #262626" transform="translate(104.91 381.233009)scale(0.16 -0.16)">
       <use xlink:href="#ArialMT-33"/>
       <use xlink:href="#ArialMT-35" x="55.615234"/>
       <use xlink:href="#ArialMT-30" x="111.230469"/>
       <use xlink:href="#ArialMT-30" x="166.845703"/>
      </g>
     </g>
    </g>
    <g id="ytick_7">
     <g id="line2d_27">
      <path d="M 144 256.534308 
L 1036.8 256.534308 
" clip-path="url(#p9d486c1dd1)" style="fill: none; stroke: #cccccc; stroke-width: 0.8; stroke-linecap: round"/>
     </g>
     <g id="line2d_28"/>
     <g id="text_14">
      <!-- 4000 -->
      <g style="fill: #262626" transform="translate(104.91 262.260558)scale(0.16 -0.16)">
       <use xlink:href="#ArialMT-34"/>
       <use xlink:href="#ArialMT-30" x="55.615234"/>
       <use xlink:href="#ArialMT-30" x="111.230469"/>
       <use xlink:href="#ArialMT-30" x="166.845703"/>
      </g>
     </g>
    </g>
   </g>
   <g id="line2d_29">
    <path d="M 184.581818 968.465455 
L 185.990909 917.069356 
L 190.218182 917.069356 
L 191.627273 872.811604 
L 195.854545 872.811604 
L 197.263636 873.049549 
L 201.490909 873.049549 
L 202.9 827.602073 
L 204.309091 828.077962 
L 205.718182 828.077962 
L 207.127273 828.553852 
L 208.536364 830.457411 
L 211.354545 831.409191 
L 212.763636 832.123026 
L 214.172727 832.598916 
L 216.990909 832.598916 
L 218.4 807.852646 
L 219.809091 762.167225 
L 221.218182 737.18301 
L 222.627273 737.18301 
L 224.036364 736.70712 
L 225.445455 712.198795 
L 226.854545 682.455682 
L 228.263636 679.600344 
L 229.672727 675.55528 
L 231.081818 670.082548 
L 232.490909 666.989264 
L 233.9 661.754476 
L 235.309091 655.092019 
L 236.718182 615.593165 
L 238.127273 582.280879 
L 239.536364 579.42554 
L 240.945455 574.666642 
L 242.354545 569.431854 
L 243.763636 564.672956 
L 247.990909 554.20338 
L 249.4 549.920372 
L 250.809091 548.492703 
L 252.218182 531.83656 
L 253.627273 487.102918 
L 255.036364 435.230929 
L 256.445455 419.526566 
L 257.854545 416.433282 
L 259.263636 409.05699 
L 260.672727 387.404004 
L 262.081818 372.17553 
L 263.490909 368.368412 
L 264.9 361.9439 
L 267.718182 350.760489 
L 269.127273 343.622142 
L 270.536364 330.773117 
L 271.945455 304.599178 
L 273.354545 294.129602 
L 274.763636 292.226043 
L 276.172727 288.418925 
L 277.581818 285.325641 
L 278.990909 282.946192 
L 280.4 281.756468 
L 281.809091 279.852908 
L 283.218182 276.99757 
L 284.627273 275.331955 
L 286.036364 272.714561 
L 288.854545 261.293206 
L 290.263636 256.296363 
L 291.672727 252.489245 
L 293.081818 250.347741 
L 294.490909 248.444181 
L 295.9 244.161173 
L 297.309091 242.495559 
L 298.718182 240.354055 
L 300.127273 237.498716 
L 301.536364 235.833102 
L 302.945455 234.881322 
L 304.354545 232.739818 
L 307.172727 226.55325 
L 308.581818 224.411746 
L 311.4 222.032297 
L 314.218182 221.556407 
L 318.445455 220.128738 
L 319.854545 219.414903 
L 321.263636 218.225179 
L 322.672727 215.131895 
L 324.081818 213.942171 
L 325.490909 213.704226 
L 326.9 213.228336 
L 329.718182 211.324777 
L 331.127273 209.897107 
L 332.536364 209.183273 
L 335.354545 206.803823 
L 336.763636 205.852044 
L 338.172727 205.614099 
L 339.581818 204.18643 
L 340.990909 203.948485 
L 342.4 202.996705 
L 343.809091 202.28287 
L 345.218182 201.331091 
L 348.036364 200.855201 
L 349.445455 200.379311 
L 350.854545 199.427532 
L 352.263636 198.713697 
L 353.672727 198.237807 
L 355.081818 197.048083 
L 356.490909 196.334248 
L 357.9 195.382468 
L 359.309091 194.668633 
L 360.718182 194.430689 
L 362.127273 193.954799 
L 363.536364 193.716854 
L 364.945455 193.716854 
L 366.354545 193.003019 
L 367.763636 192.05124 
L 370.581818 191.09946 
L 371.990909 191.09946 
L 374.809091 190.62357 
L 376.218182 189.909735 
L 379.036364 189.433846 
L 380.445455 188.957956 
L 384.672727 188.957956 
L 387.490909 188.006176 
L 388.9 187.768231 
L 390.309091 187.054397 
L 391.718182 187.054397 
L 393.127273 186.816452 
L 394.536364 186.816452 
L 397.354545 186.340562 
L 400.172727 186.340562 
L 401.581818 185.864672 
L 402.990909 185.864672 
L 404.4 185.388782 
L 408.627273 185.388782 
L 410.036364 185.150837 
L 411.445455 185.150837 
L 412.854545 184.674948 
L 421.309091 184.674948 
L 422.718182 183.961113 
L 424.127273 183.723168 
L 425.536364 183.723168 
L 428.354545 183.247278 
L 431.172727 183.247278 
L 432.581818 183.009333 
L 438.218182 183.009333 
L 439.627273 182.771388 
L 445.263636 182.771388 
L 446.672727 182.533443 
L 455.127273 182.533443 
L 456.536364 182.295499 
L 460.763636 182.295499 
L 462.172727 182.057554 
L 464.990909 182.057554 
L 466.4 182.295499 
L 477.672727 182.295499 
L 479.081818 182.533443 
L 480.490909 182.295499 
L 486.127273 182.295499 
L 487.536364 182.057554 
L 505.854545 182.057554 
L 507.263636 182.295499 
L 518.536364 182.295499 
L 519.945455 181.819609 
L 521.354545 181.581664 
L 529.809091 181.581664 
L 532.627273 181.105774 
L 563.627273 181.105774 
L 569.263636 180.153994 
L 570.672727 180.153994 
L 572.081818 179.91605 
L 577.718182 179.91605 
L 579.127273 179.678105 
L 587.581818 179.678105 
L 590.4 179.202215 
L 600.263636 179.202215 
L 601.672727 178.726325 
L 604.490909 178.726325 
L 608.718182 178.01249 
L 619.990909 178.01249 
L 621.4 177.774545 
L 625.627273 177.774545 
L 627.036364 287.467145 
L 628.445455 287.2292 
L 635.490909 287.2292 
L 636.9 286.991255 
L 638.309091 286.991255 
L 641.127273 286.515366 
L 653.809091 286.515366 
L 655.218182 286.277421 
L 659.445455 286.277421 
L 660.854545 341.242693 
L 662.263636 340.052969 
L 663.672727 339.339134 
L 665.081818 338.387354 
L 666.490909 337.67352 
L 673.536364 332.914622 
L 674.945455 331.724897 
L 676.354545 331.011062 
L 677.763636 329.107503 
L 679.172727 328.393668 
L 680.581818 326.728054 
L 681.990909 326.252164 
L 683.4 325.06244 
L 684.809091 324.11066 
L 686.218182 323.396825 
L 687.627273 322.445046 
L 689.036364 321.017376 
L 690.445455 319.827652 
L 691.854545 318.875872 
L 693.263636 317.686148 
L 694.672727 347.90515 
L 696.081818 344.811867 
L 700.309091 341.956528 
L 701.718182 340.766803 
L 703.127273 339.339134 
L 704.536364 337.67352 
L 705.945455 336.483795 
L 707.354545 335.532015 
L 708.763636 334.342291 
L 711.581818 330.535172 
L 712.990909 328.393668 
L 714.4 327.203944 
L 715.809091 324.58655 
L 717.218182 322.920936 
L 720.036364 320.541487 
L 721.445455 318.875872 
L 722.854545 316.496423 
L 724.263636 314.592864 
L 725.672727 313.165195 
L 727.081818 311.49958 
L 728.490909 364.085404 
L 729.9 360.278285 
L 731.309091 357.185002 
L 732.718182 354.805552 
L 734.127273 352.188159 
L 736.945455 347.429261 
L 738.354545 344.811867 
L 742.581818 336.483795 
L 743.990909 334.104346 
L 745.4 332.200787 
L 746.809091 330.535172 
L 748.218182 328.631613 
L 749.627273 327.917779 
L 751.036364 326.490109 
L 752.445455 324.824495 
L 755.263636 322.920936 
L 756.672727 322.445046 
L 758.081818 320.779432 
L 759.490909 319.589707 
L 760.9 319.351762 
L 762.309091 356.947057 
L 763.718182 354.805552 
L 765.127273 353.377883 
L 766.536364 351.712269 
L 767.945455 350.522544 
L 769.354545 348.618985 
L 770.763636 347.191316 
L 772.172727 346.001591 
L 773.581818 344.098032 
L 776.4 339.815024 
L 777.809091 337.19763 
L 779.218182 335.76996 
L 780.627273 333.866401 
L 782.036364 331.724897 
L 783.445455 329.345448 
L 784.854545 327.917779 
L 786.263636 327.441889 
L 787.672727 326.490109 
L 789.081818 326.014219 
L 790.490909 324.58655 
L 791.9 323.872715 
L 794.718182 321.493266 
L 796.127273 341.718583 
L 797.536364 340.290913 
L 798.945455 339.577079 
L 800.354545 338.625299 
L 801.763636 337.19763 
L 803.172727 336.483795 
L 804.581818 335.294071 
L 805.990909 334.342291 
L 807.4 333.866401 
L 808.809091 333.152566 
L 810.218182 332.676677 
L 811.627273 330.773117 
L 813.036364 329.583393 
L 814.445455 328.631613 
L 815.854545 328.393668 
L 817.263636 327.441889 
L 818.672727 327.441889 
L 820.081818 326.965999 
L 821.490909 325.776274 
L 822.9 325.06244 
L 824.309091 323.396825 
L 825.718182 321.017376 
L 827.127273 319.827652 
L 828.536364 318.162038 
L 829.945455 322.445046 
L 831.354545 320.303542 
L 834.172727 319.827652 
L 835.581818 319.113817 
L 838.4 317.210258 
L 839.809091 315.544644 
L 841.218182 313.641084 
L 842.627273 313.165195 
L 844.036364 312.213415 
L 845.445455 311.737525 
L 846.854545 309.833966 
L 848.263636 308.168352 
L 849.672727 307.454517 
L 851.081818 306.502737 
L 855.309091 302.933564 
L 856.718182 302.933564 
L 858.127273 301.505894 
L 859.536364 299.36439 
L 860.945455 297.936721 
L 862.354545 296.984941 
L 863.763636 313.40314 
L 866.581818 311.49958 
L 869.4 311.023691 
L 870.809091 310.547801 
L 873.627273 310.071911 
L 875.036364 309.596021 
L 876.445455 309.358076 
L 877.854545 308.644242 
L 879.263636 308.644242 
L 880.672727 308.168352 
L 882.081818 307.454517 
L 886.309091 303.171509 
L 887.718182 302.457674 
L 889.127273 301.26795 
L 890.536364 300.554115 
L 894.763636 297.698776 
L 896.172727 297.222886 
L 897.581818 302.695619 
L 900.4 300.31617 
L 901.809091 298.650556 
L 903.218182 297.698776 
L 904.627273 296.271107 
L 906.036364 294.605492 
L 907.445455 292.701933 
L 910.263636 290.322484 
L 913.081818 286.991255 
L 914.490909 285.563586 
L 915.9 283.897972 
L 917.309091 282.470302 
L 918.718182 280.566743 
L 920.127273 279.139074 
L 921.536364 278.187294 
L 922.945455 276.759625 
L 924.354545 276.283735 
L 925.763636 276.04579 
L 927.172727 274.856065 
L 928.581818 274.618121 
L 929.990909 273.904286 
L 931.4 274.856065 
L 934.218182 271.524837 
L 935.627273 271.286892 
L 937.036364 269.859222 
L 938.445455 268.669498 
L 939.854545 266.290049 
L 941.263636 264.624435 
L 942.672727 263.43471 
L 945.490909 261.531151 
L 946.9 259.865537 
L 948.309091 259.151702 
L 949.718182 257.724033 
L 951.127273 257.010198 
L 953.945455 253.678969 
L 955.354545 252.72719 
L 956.763636 252.489245 
L 959.581818 251.537465 
L 962.4 249.158016 
L 963.809091 248.682126 
L 965.218182 249.633906 
L 966.627273 248.444181 
L 968.036364 246.778567 
L 969.445455 245.588843 
L 970.854545 245.588843 
L 972.263636 244.637063 
L 973.672727 243.923228 
L 975.081818 242.257614 
L 976.490909 240.829944 
L 977.9 240.11611 
L 979.309091 239.878165 
L 980.718182 238.926385 
L 982.127273 238.212551 
L 983.536364 237.022826 
L 984.945455 236.308991 
L 986.354545 236.071046 
L 987.763636 234.881322 
L 989.172727 233.453653 
L 991.990909 232.501873 
L 994.809091 230.598314 
L 996.218182 229.884479 
L 996.218182 229.884479 
" clip-path="url(#p9d486c1dd1)" style="fill: none; stroke: #0000ff; stroke-width: 1.5; stroke-linecap: round"/>
   </g>
   <g id="text_15">
    <!-- Healthy Cells at time 576 -->
    <g style="fill: #262626" transform="translate(145.775 68.6592)scale(0.8 -0.8)">
     <defs>
      <path id="ArialMT-48" d="M 513 0 
L 513 4581 
L 1119 4581 
L 1119 2700 
L 3500 2700 
L 3500 4581 
L 4106 4581 
L 4106 0 
L 3500 0 
L 3500 2159 
L 1119 2159 
L 1119 0 
L 513 0 
z
" transform="scale(0.015625)"/>
      <path id="ArialMT-65" d="M 2694 1069 
L 3275 997 
Q 3138 488 2766 206 
Q 2394 -75 1816 -75 
Q 1088 -75 661 373 
Q 234 822 234 1631 
Q 234 2469 665 2931 
Q 1097 3394 1784 3394 
Q 2450 3394 2872 2941 
Q 3294 2488 3294 1666 
Q 3294 1616 3291 1516 
L 816 1516 
Q 847 969 1125 678 
Q 1403 388 1819 388 
Q 2128 388 2347 550 
Q 2566 713 2694 1069 
z
M 847 1978 
L 2700 1978 
Q 2663 2397 2488 2606 
Q 2219 2931 1791 2931 
Q 1403 2931 1139 2672 
Q 875 2413 847 1978 
z
" transform="scale(0.015625)"/>
      <path id="ArialMT-61" d="M 2588 409 
Q 2275 144 1986 34 
Q 1697 -75 1366 -75 
Q 819 -75 525 192 
Q 231 459 231 875 
Q 231 1119 342 1320 
Q 453 1522 633 1644 
Q 813 1766 1038 1828 
Q 1203 1872 1538 1913 
Q 2219 1994 2541 2106 
Q 2544 2222 2544 2253 
Q 2544 2597 2384 2738 
Q 2169 2928 1744 2928 
Q 1347 2928 1158 2789 
Q 969 2650 878 2297 
L 328 2372 
Q 403 2725 575 2942 
Q 747 3159 1072 3276 
Q 1397 3394 1825 3394 
Q 2250 3394 2515 3294 
Q 2781 3194 2906 3042 
Q 3031 2891 3081 2659 
Q 3109 2516 3109 2141 
L 3109 1391 
Q 3109 606 3145 398 
Q 3181 191 3288 0 
L 2700 0 
Q 2613 175 2588 409 
z
M 2541 1666 
Q 2234 1541 1622 1453 
Q 1275 1403 1131 1340 
Q 988 1278 909 1158 
Q 831 1038 831 891 
Q 831 666 1001 516 
Q 1172 366 1500 366 
Q 1825 366 2078 508 
Q 2331 650 2450 897 
Q 2541 1088 2541 1459 
L 2541 1666 
z
" transform="scale(0.015625)"/>
      <path id="ArialMT-6c" d="M 409 0 
L 409 4581 
L 972 4581 
L 972 0 
L 409 0 
z
" transform="scale(0.015625)"/>
      <path id="ArialMT-74" d="M 1650 503 
L 1731 6 
Q 1494 -44 1306 -44 
Q 1000 -44 831 53 
Q 663 150 594 308 
Q 525 466 525 972 
L 525 2881 
L 113 2881 
L 113 3319 
L 525 3319 
L 525 4141 
L 1084 4478 
L 1084 3319 
L 1650 3319 
L 1650 2881 
L 1084 2881 
L 1084 941 
Q 1084 700 1114 631 
Q 1144 563 1211 522 
Q 1278 481 1403 481 
Q 1497 481 1650 503 
z
" transform="scale(0.015625)"/>
      <path id="ArialMT-68" d="M 422 0 
L 422 4581 
L 984 4581 
L 984 2938 
Q 1378 3394 1978 3394 
Q 2347 3394 2619 3248 
Q 2891 3103 3008 2847 
Q 3125 2591 3125 2103 
L 3125 0 
L 2563 0 
L 2563 2103 
Q 2563 2525 2380 2717 
Q 2197 2909 1863 2909 
Q 1613 2909 1392 2779 
Q 1172 2650 1078 2428 
Q 984 2206 984 1816 
L 984 0 
L 422 0 
z
" transform="scale(0.015625)"/>
      <path id="ArialMT-79" d="M 397 -1278 
L 334 -750 
Q 519 -800 656 -800 
Q 844 -800 956 -737 
Q 1069 -675 1141 -563 
Q 1194 -478 1313 -144 
Q 1328 -97 1363 -6 
L 103 3319 
L 709 3319 
L 1400 1397 
Q 1534 1031 1641 628 
Q 1738 1016 1872 1384 
L 2581 3319 
L 3144 3319 
L 1881 -56 
Q 1678 -603 1566 -809 
Q 1416 -1088 1222 -1217 
Q 1028 -1347 759 -1347 
Q 597 -1347 397 -1278 
z
" transform="scale(0.015625)"/>
      <path id="ArialMT-20" transform="scale(0.015625)"/>
      <path id="ArialMT-43" d="M 3763 1606 
L 4369 1453 
Q 4178 706 3683 314 
Q 3188 -78 2472 -78 
Q 1731 -78 1267 223 
Q 803 525 561 1097 
Q 319 1669 319 2325 
Q 319 3041 592 3573 
Q 866 4106 1370 4382 
Q 1875 4659 2481 4659 
Q 3169 4659 3637 4309 
Q 4106 3959 4291 3325 
L 3694 3184 
Q 3534 3684 3231 3912 
Q 2928 4141 2469 4141 
Q 1941 4141 1586 3887 
Q 1231 3634 1087 3207 
Q 944 2781 944 2328 
Q 944 1744 1114 1308 
Q 1284 872 1643 656 
Q 2003 441 2422 441 
Q 2931 441 3284 734 
Q 3638 1028 3763 1606 
z
" transform="scale(0.015625)"/>
      <path id="ArialMT-73" d="M 197 991 
L 753 1078 
Q 800 744 1014 566 
Q 1228 388 1613 388 
Q 2000 388 2187 545 
Q 2375 703 2375 916 
Q 2375 1106 2209 1216 
Q 2094 1291 1634 1406 
Q 1016 1563 777 1677 
Q 538 1791 414 1992 
Q 291 2194 291 2438 
Q 291 2659 392 2848 
Q 494 3038 669 3163 
Q 800 3259 1026 3326 
Q 1253 3394 1513 3394 
Q 1903 3394 2198 3281 
Q 2494 3169 2634 2976 
Q 2775 2784 2828 2463 
L 2278 2388 
Q 2241 2644 2061 2787 
Q 1881 2931 1553 2931 
Q 1166 2931 1000 2803 
Q 834 2675 834 2503 
Q 834 2394 903 2306 
Q 972 2216 1119 2156 
Q 1203 2125 1616 2013 
Q 2213 1853 2448 1751 
Q 2684 1650 2818 1456 
Q 2953 1263 2953 975 
Q 2953 694 2789 445 
Q 2625 197 2315 61 
Q 2006 -75 1616 -75 
Q 969 -75 630 194 
Q 291 463 197 991 
z
" transform="scale(0.015625)"/>
      <path id="ArialMT-69" d="M 425 3934 
L 425 4581 
L 988 4581 
L 988 3934 
L 425 3934 
z
M 425 0 
L 425 3319 
L 988 3319 
L 988 0 
L 425 0 
z
" transform="scale(0.015625)"/>
      <path id="ArialMT-6d" d="M 422 0 
L 422 3319 
L 925 3319 
L 925 2853 
Q 1081 3097 1340 3245 
Q 1600 3394 1931 3394 
Q 2300 3394 2536 3241 
Q 2772 3088 2869 2813 
Q 3263 3394 3894 3394 
Q 4388 3394 4653 3120 
Q 4919 2847 4919 2278 
L 4919 0 
L 4359 0 
L 4359 2091 
Q 4359 2428 4304 2576 
Q 4250 2725 4106 2815 
Q 3963 2906 3769 2906 
Q 3419 2906 3187 2673 
Q 2956 2441 2956 1928 
L 2956 0 
L 2394 0 
L 2394 2156 
Q 2394 2531 2256 2718 
Q 2119 2906 1806 2906 
Q 1569 2906 1367 2781 
Q 1166 2656 1075 2415 
Q 984 2175 984 1722 
L 984 0 
L 422 0 
z
" transform="scale(0.015625)"/>
      <path id="ArialMT-37" d="M 303 3981 
L 303 4522 
L 3269 4522 
L 3269 4084 
Q 2831 3619 2401 2847 
Q 1972 2075 1738 1259 
Q 1569 684 1522 0 
L 944 0 
Q 953 541 1156 1306 
Q 1359 2072 1739 2783 
Q 2119 3494 2547 3981 
L 303 3981 
z
" transform="scale(0.015625)"/>
     </defs>
     <use xlink:href="#ArialMT-48"/>
     <use xlink:href="#ArialMT-65" x="72.216797"/>
     <use xlink:href="#ArialMT-61" x="127.832031"/>
     <use xlink:href="#ArialMT-6c" x="183.447266"/>
     <use xlink:href="#ArialMT-74" x="205.664062"/>
     <use xlink:href="#ArialMT-68" x="233.447266"/>
     <use xlink:href="#ArialMT-79" x="289.0625"/>
     <use xlink:href="#ArialMT-20" x="339.0625"/>
     <use xlink:href="#ArialMT-43" x="366.845703"/>
     <use xlink:href="#ArialMT-65" x="439.0625"/>
     <use xlink:href="#ArialMT-6c" x="494.677734"/>
     <use xlink:href="#ArialMT-6c" x="516.894531"/>
     <use xlink:href="#ArialMT-73" x="539.111328"/>
     <use xlink:href="#ArialMT-20" x="589.111328"/>
     <use xlink:href="#ArialMT-61" x="616.894531"/>
     <use xlink:href="#ArialMT-74" x="672.509766"/>
     <use xlink:href="#ArialMT-20" x="700.292969"/>
     <use xlink:href="#ArialMT-74" x="728.076172"/>
     <use xlink:href="#ArialMT-69" x="755.859375"/>
     <use xlink:href="#ArialMT-6d" x="778.076172"/>
     <use xlink:href="#ArialMT-65" x="861.376953"/>
     <use xlink:href="#ArialMT-20" x="916.992188"/>
     <use xlink:href="#ArialMT-35" x="944.775391"/>
     <use xlink:href="#ArialMT-37" x="1000.390625"/>
     <use xlink:href="#ArialMT-36" x="1056.005859"/>
    </g>
   </g>
  </g>
 </g>
 <defs>
  <clipPath id="p9d486c1dd1">
   <rect x="144" y="138.24" width="892.8" height="869.76"/>
  </clipPath>
 </defs>
</svg>
