<?xml version="1.0" encoding="utf-8" standalone="no"?>
<!DOCTYPE svg PUBLIC "-//W3C//DTD SVG 1.1//EN"
  "http://www.w3.org/Graphics/SVG/1.1/DTD/svg11.dtd">
<svg xmlns:xlink="http://www.w3.org/1999/xlink" width="948.304687pt" height="723.411406pt" viewBox="0 0 948.304687 723.411406" xmlns="http://www.w3.org/2000/svg" version="1.1">
 <metadata>
  <rdf:RDF xmlns:dc="http://purl.org/dc/elements/1.1/" xmlns:cc="http://creativecommons.org/ns#" xmlns:rdf="http://www.w3.org/1999/02/22-rdf-syntax-ns#">
   <cc:Work>
    <dc:type rdf:resource="http://purl.org/dc/dcmitype/StillImage"/>
    <dc:date>2023-04-22T15:35:41.396885</dc:date>
    <dc:format>image/svg+xml</dc:format>
    <dc:creator>
     <cc:Agent>
      <dc:title>Matplotlib v3.5.3, https://matplotlib.org/</dc:title>
     </cc:Agent>
    </dc:creator>
   </cc:Work>
  </rdf:RDF>
 </metadata>
 <defs>
  <style type="text/css">*{stroke-linejoin: round; stroke-linecap: butt}</style>
 </defs>
 <g id="figure_1">
  <g id="patch_1">
   <path d="M 0 723.411406 
L 948.304687 723.411406 
L 948.304687 0 
L 0 0 
z
" style="fill: #ffffff"/>
  </g>
  <g id="axes_1">
   <g id="patch_2">
    <path d="M 48.304688 684.516094 
L 941.104687 684.516094 
L 941.104687 32.196094 
L 48.304688 32.196094 
z
" style="fill: #ffffff"/>
   </g>
   <g id="PathCollection_1">
    <path d="M 320.78261 471.653948 
C 322.313515 471.653948 323.781926 471.045712 324.864439 469.963198 
C 325.946953 468.880684 326.555189 467.412274 326.555189 465.881368 
C 326.555189 464.350463 325.946953 462.882053 324.864439 461.799539 
C 323.781926 460.717025 322.313515 460.108789 320.78261 460.108789 
C 319.251704 460.108789 317.783294 460.717025 316.70078 461.799539 
C 315.618266 462.882053 315.01003 464.350463 315.01003 465.881368 
C 315.01003 467.412274 315.618266 468.880684 316.70078 469.963198 
C 317.783294 471.045712 319.251704 471.653948 320.78261 471.653948 
z
" clip-path="url(#p0ee49c986b)" style="fill: #1f77b4; stroke: #1f77b4"/>
    <path d="M 436.730662 342.02865 
C 438.449429 342.02865 440.098032 341.345777 441.313384 340.130424 
C 442.528736 338.915072 443.21161 337.26647 443.21161 335.547702 
C 443.21161 333.828935 442.528736 332.180332 441.313384 330.96498 
C 440.098032 329.749628 438.449429 329.066754 436.730662 329.066754 
C 435.011894 329.066754 433.363291 329.749628 432.147939 330.96498 
C 430.932587 332.180332 430.249713 333.828935 430.249713 335.547702 
C 430.249713 337.26647 430.932587 338.915072 432.147939 340.130424 
C 433.363291 341.345777 435.011894 342.02865 436.730662 342.02865 
z
" clip-path="url(#p0ee49c986b)" style="fill: #1f77b4; stroke: #1f77b4"/>
    <path d="M 552.678713 257.566452 
C 554.465024 257.566452 556.178413 256.856744 557.441526 255.593631 
C 558.704638 254.330519 559.414347 252.61713 559.414347 250.830819 
C 559.414347 249.044508 558.704638 247.331119 557.441526 246.068007 
C 556.178413 244.804894 554.465024 244.095186 552.678713 244.095186 
C 550.892403 244.095186 549.179014 244.804894 547.915901 246.068007 
C 546.652789 247.331119 545.94308 249.044508 545.94308 250.830819 
C 545.94308 252.61713 546.652789 254.330519 547.915901 255.593631 
C 549.179014 256.856744 550.892403 257.566452 552.678713 257.566452 
z
" clip-path="url(#p0ee49c986b)" style="fill: #1f77b4; stroke: #1f77b4"/>
    <path d="M 88.886506 660.341009 
C 90.338711 660.341009 91.731634 659.764041 92.758498 658.737177 
C 93.785362 657.710313 94.36233 656.31739 94.36233 654.865185 
C 94.36233 653.412979 93.785362 652.020057 92.758498 650.993192 
C 91.731634 649.966328 90.338711 649.389361 88.886506 649.389361 
C 87.4343 649.389361 86.041378 649.966328 85.014513 650.993192 
C 83.987649 652.020057 83.410682 653.412979 83.410682 654.865185 
C 83.410682 656.31739 83.987649 657.710313 85.014513 658.737177 
C 86.041378 659.764041 87.4343 660.341009 88.886506 660.341009 
z
" clip-path="url(#p0ee49c986b)" style="fill: #1f77b4; stroke: #1f77b4"/>
    <path d="M 204.834558 576.094618 
C 206.411539 576.094618 207.924144 575.468077 209.039238 574.352982 
C 210.154333 573.237888 210.780874 571.725283 210.780874 570.148302 
C 210.780874 568.57132 210.154333 567.058715 209.039238 565.943621 
C 207.924144 564.828527 206.411539 564.201985 204.834558 564.201985 
C 203.257576 564.201985 201.744971 564.828527 200.629877 565.943621 
C 199.514783 567.058715 198.888241 568.57132 198.888241 570.148302 
C 198.888241 571.725283 199.514783 573.237888 200.629877 574.352982 
C 201.744971 575.468077 203.257576 576.094618 204.834558 576.094618 
z
" clip-path="url(#p0ee49c986b)" style="fill: #1f77b4; stroke: #1f77b4"/>
    <path d="M 320.78261 348.416031 
C 322.467086 348.416031 324.082797 347.746782 325.273901 346.555677 
C 326.465006 345.364573 327.134255 343.748862 327.134255 342.064385 
C 327.134255 340.379909 326.465006 338.764198 325.273901 337.573094 
C 324.082797 336.381989 322.467086 335.71274 320.78261 335.71274 
C 319.098133 335.71274 317.482422 336.381989 316.291318 337.573094 
C 315.100213 338.764198 314.430964 340.379909 314.430964 342.064385 
C 314.430964 343.748862 315.100213 345.364573 316.291318 346.555677 
C 317.482422 347.746782 319.098133 348.416031 320.78261 348.416031 
z
" clip-path="url(#p0ee49c986b)" style="fill: #1f77b4; stroke: #1f77b4"/>
    <path d="M 204.834558 497.315331 
C 206.257964 497.315331 207.623262 496.749806 208.629762 495.743306 
C 209.636262 494.736806 210.201787 493.371508 210.201787 491.948102 
C 210.201787 490.524696 209.636262 489.159397 208.629762 488.152897 
C 207.623262 487.146397 206.257964 486.580872 204.834558 486.580872 
C 203.411152 486.580872 202.045853 487.146397 201.039353 488.152897 
C 200.032853 489.159397 199.467328 490.524696 199.467328 491.948102 
C 199.467328 493.371508 200.032853 494.736806 201.039353 495.743306 
C 202.045853 496.749806 203.411152 497.315331 204.834558 497.315331 
z
" clip-path="url(#p0ee49c986b)" style="fill: #1f77b4; stroke: #1f77b4"/>
    <path d="M 320.78261 621.508343 
C 322.305739 621.508343 323.766691 620.903197 324.843706 619.826181 
C 325.920722 618.749166 326.525868 617.288215 326.525868 615.765085 
C 326.525868 614.241955 325.920722 612.781004 324.843706 611.703988 
C 323.766691 610.626973 322.305739 610.021827 320.78261 610.021827 
C 319.25948 610.021827 317.798528 610.626973 316.721513 611.703988 
C 315.644498 612.781004 315.039352 614.241955 315.039352 615.765085 
C 315.039352 617.288215 315.644498 618.749166 316.721513 619.826181 
C 317.798528 620.903197 319.25948 621.508343 320.78261 621.508343 
z
" clip-path="url(#p0ee49c986b)" style="fill: #1f77b4; stroke: #1f77b4"/>
    <path d="M 436.730662 524.586505 
C 438.473489 524.586505 440.145169 523.894072 441.377534 522.661707 
C 442.609899 521.429342 443.302331 519.757662 443.302331 518.014835 
C 443.302331 516.272008 442.609899 514.600328 441.377534 513.367963 
C 440.145169 512.135598 438.473489 511.443165 436.730662 511.443165 
C 434.987834 511.443165 433.316154 512.135598 432.083789 513.367963 
C 430.851424 514.600328 430.158992 516.272008 430.158992 518.014835 
C 430.158992 519.757662 430.851424 521.429342 432.083789 522.661707 
C 433.316154 523.894072 434.987834 524.586505 436.730662 524.586505 
z
" clip-path="url(#p0ee49c986b)" style="fill: #1f77b4; stroke: #1f77b4"/>
    <path d="M 436.730662 361.372113 
C 438.394641 361.372113 439.990693 360.711006 441.167304 359.534395 
C 442.343916 358.357783 443.005022 356.761732 443.005022 355.097752 
C 443.005022 353.433772 442.343916 351.837721 441.167304 350.661109 
C 439.990693 349.484498 438.394641 348.823392 436.730662 348.823392 
C 435.066682 348.823392 433.47063 349.484498 432.294019 350.661109 
C 431.117407 351.837721 430.456301 353.433772 430.456301 355.097752 
C 430.456301 356.761732 431.117407 358.357783 432.294019 359.534395 
C 433.47063 360.711006 435.066682 361.372113 436.730662 361.372113 
z
" clip-path="url(#p0ee49c986b)" style="fill: #1f77b4; stroke: #1f77b4"/>
    <path d="M 552.678713 368.197031 
C 554.424438 368.197031 556.098897 367.503447 557.333311 366.269033 
C 558.567725 365.034619 559.261309 363.36016 559.261309 361.614435 
C 559.261309 359.868711 558.567725 358.194251 557.333311 356.959838 
C 556.098897 355.725424 554.424438 355.03184 552.678713 355.03184 
C 550.932989 355.03184 549.258529 355.725424 548.024116 356.959838 
C 546.789702 358.194251 546.096118 359.868711 546.096118 361.614435 
C 546.096118 363.36016 546.789702 365.034619 548.024116 366.269033 
C 549.258529 367.503447 550.932989 368.197031 552.678713 368.197031 
z
" clip-path="url(#p0ee49c986b)" style="fill: #1f77b4; stroke: #1f77b4"/>
    <path d="M 668.626765 69.071109 
C 670.542621 69.071109 672.380266 68.309932 673.73498 66.955217 
C 675.089694 65.600503 675.850872 63.762858 675.850872 61.847003 
C 675.850872 59.931148 675.089694 58.093503 673.73498 56.738788 
C 672.380266 55.384074 670.542621 54.622897 668.626765 54.622897 
C 666.71091 54.622897 664.873265 55.384074 663.518551 56.738788 
C 662.163837 58.093503 661.402659 59.931148 661.402659 61.847003 
C 661.402659 63.762858 662.163837 65.600503 663.518551 66.955217 
C 664.873265 68.309932 666.71091 69.071109 668.626765 69.071109 
z
" clip-path="url(#p0ee49c986b)" style="fill: #1f77b4; stroke: #1f77b4"/>
    <path d="M 204.834558 575.906164 
C 206.361561 575.906164 207.826227 575.299479 208.905981 574.219725 
C 209.985735 573.139971 210.59242 571.675305 210.59242 570.148302 
C 210.59242 568.621299 209.985735 567.156632 208.905981 566.076878 
C 207.826227 564.997124 206.361561 564.390439 204.834558 564.390439 
C 203.307555 564.390439 201.842888 564.997124 200.763134 566.076878 
C 199.68338 567.156632 199.076695 568.621299 199.076695 570.148302 
C 199.076695 571.675305 199.68338 573.139971 200.763134 574.219725 
C 201.842888 575.299479 203.307555 575.906164 204.834558 575.906164 
z
" clip-path="url(#p0ee49c986b)" style="fill: #1f77b4; stroke: #1f77b4"/>
    <path d="M 320.78261 628.486178 
C 322.428038 628.486178 324.006296 627.832442 325.16979 626.668948 
C 326.333284 625.505455 326.98702 623.927197 326.98702 622.281768 
C 326.98702 620.636339 326.333284 619.058082 325.16979 617.894588 
C 324.006296 616.731094 322.428038 616.077358 320.78261 616.077358 
C 319.137181 616.077358 317.558923 616.731094 316.395429 617.894588 
C 315.231935 619.058082 314.5782 620.636339 314.5782 622.281768 
C 314.5782 623.927197 315.231935 625.505455 316.395429 626.668948 
C 317.558923 627.832442 319.137181 628.486178 320.78261 628.486178 
z
" clip-path="url(#p0ee49c986b)" style="fill: #1f77b4; stroke: #1f77b4"/>
    <path d="M 436.730662 335.820087 
C 438.531143 335.820087 440.258125 335.104748 441.531258 333.831615 
C 442.804391 332.558482 443.51973 330.831501 443.51973 329.031019 
C 443.51973 327.230537 442.804391 325.503556 441.531258 324.230423 
C 440.258125 322.95729 438.531143 322.241951 436.730662 322.241951 
C 434.93018 322.241951 433.203198 322.95729 431.930065 324.230423 
C 430.656932 325.503556 429.941593 327.230537 429.941593 329.031019 
C 429.941593 330.831501 430.656932 332.558482 431.930065 333.831615 
C 433.203198 335.104748 434.93018 335.820087 436.730662 335.820087 
z
" clip-path="url(#p0ee49c986b)" style="fill: #1f77b4; stroke: #1f77b4"/>
    <path d="M 320.78261 393.844715 
C 322.417201 393.844715 323.985064 393.195285 325.140895 392.039454 
C 326.296726 390.883623 326.946156 389.31576 326.946156 387.681169 
C 326.946156 386.046577 326.296726 384.478714 325.140895 383.322883 
C 323.985064 382.167053 322.417201 381.517622 320.78261 381.517622 
C 319.148018 381.517622 317.580155 382.167053 316.424324 383.322883 
C 315.268493 384.478714 314.619063 386.046577 314.619063 387.681169 
C 314.619063 389.31576 315.268493 390.883623 316.424324 392.039454 
C 317.580155 393.195285 319.148018 393.844715 320.78261 393.844715 
z
" clip-path="url(#p0ee49c986b)" style="fill: #1f77b4; stroke: #1f77b4"/>
    <path d="M 436.730662 244.472312 
C 438.500855 244.472312 440.198784 243.769007 441.4505 242.517291 
C 442.702216 241.265575 443.405521 239.567646 443.405521 237.797452 
C 443.405521 236.027259 442.702216 234.32933 441.4505 233.077614 
C 440.198784 231.825898 438.500855 231.122593 436.730662 231.122593 
C 434.960468 231.122593 433.262539 231.825898 432.010823 233.077614 
C 430.759107 234.32933 430.055802 236.027259 430.055802 237.797452 
C 430.055802 239.567646 430.759107 241.265575 432.010823 242.517291 
C 433.262539 243.769007 434.960468 244.472312 436.730662 244.472312 
z
" clip-path="url(#p0ee49c986b)" style="fill: #1f77b4; stroke: #1f77b4"/>
    <path d="M 552.678713 303.719224 
C 554.60717 303.719224 556.456902 302.95304 557.820526 301.589415 
C 559.184151 300.22579 559.950335 298.376059 559.950335 296.447602 
C 559.950335 294.519146 559.184151 292.669414 557.820526 291.305789 
C 556.456902 289.942165 554.60717 289.175981 552.678713 289.175981 
C 550.750257 289.175981 548.900525 289.942165 547.536901 291.305789 
C 546.173276 292.669414 545.407092 294.519146 545.407092 296.447602 
C 545.407092 298.376059 546.173276 300.22579 547.536901 301.589415 
C 548.900525 302.95304 550.750257 303.719224 552.678713 303.719224 
z
" clip-path="url(#p0ee49c986b)" style="fill: #1f77b4; stroke: #1f77b4"/>
    <path d="M 320.78261 335.265452 
C 322.436001 335.265452 324.021896 334.608553 325.19102 333.439429 
C 326.360144 332.270305 327.017043 330.68441 327.017043 329.031019 
C 327.017043 327.377628 326.360144 325.791733 325.19102 324.622609 
C 324.021896 323.453485 322.436001 322.796585 320.78261 322.796585 
C 319.129219 322.796585 317.543324 323.453485 316.374199 324.622609 
C 315.205075 325.791733 314.548176 327.377628 314.548176 329.031019 
C 314.548176 330.68441 315.205075 332.270305 316.374199 333.439429 
C 317.543324 334.608553 319.129219 335.265452 320.78261 335.265452 
z
" clip-path="url(#p0ee49c986b)" style="fill: #1f77b4; stroke: #1f77b4"/>
    <path d="M 436.730662 218.516785 
C 438.530347 218.516785 440.256565 217.801762 441.529135 216.529192 
C 442.801705 215.256622 443.516728 213.530405 443.516728 211.730719 
C 443.516728 209.931033 442.801705 208.204816 441.529135 206.932246 
C 440.256565 205.659676 438.530347 204.944653 436.730662 204.944653 
C 434.930976 204.944653 433.204758 205.659676 431.932188 206.932246 
C 430.659618 208.204816 429.944595 209.931033 429.944595 211.730719 
C 429.944595 213.530405 430.659618 215.256622 431.932188 216.529192 
C 433.204758 217.801762 434.930976 218.516785 436.730662 218.516785 
z
" clip-path="url(#p0ee49c986b)" style="fill: #1f77b4; stroke: #1f77b4"/>
    <path d="M 552.678713 134.198456 
C 554.584097 134.198456 556.411697 133.441439 557.759007 132.09413 
C 559.106317 130.74682 559.863333 128.91922 559.863333 127.013836 
C 559.863333 125.108453 559.106317 123.280852 557.759007 121.933542 
C 556.411697 120.586233 554.584097 119.829216 552.678713 119.829216 
C 550.77333 119.829216 548.94573 120.586233 547.59842 121.933542 
C 546.25111 123.280852 545.494093 125.108453 545.494093 127.013836 
C 545.494093 128.91922 546.25111 130.74682 547.59842 132.09413 
C 548.94573 133.441439 550.77333 134.198456 552.678713 134.198456 
z
" clip-path="url(#p0ee49c986b)" style="fill: #1f77b4; stroke: #1f77b4"/>
    <path d="M 436.730662 361.36029 
C 438.391506 361.36029 439.98455 360.700429 441.158944 359.526035 
C 442.333339 358.351641 442.993199 356.758596 442.993199 355.097752 
C 442.993199 353.436908 442.333339 351.843864 441.158944 350.669469 
C 439.98455 349.495075 438.391506 348.835214 436.730662 348.835214 
C 435.069817 348.835214 433.476773 349.495075 432.302379 350.669469 
C 431.127984 351.843864 430.468124 353.436908 430.468124 355.097752 
C 430.468124 356.758596 431.127984 358.351641 432.302379 359.526035 
C 433.476773 360.700429 435.069817 361.36029 436.730662 361.36029 
z
" clip-path="url(#p0ee49c986b)" style="fill: #1f77b4; stroke: #1f77b4"/>
    <path d="M 552.678713 68.550596 
C 554.456527 68.550596 556.161766 67.844263 557.41887 66.587159 
C 558.675974 65.330055 559.382307 63.624817 559.382307 61.847003 
C 559.382307 60.069189 558.675974 58.363951 557.41887 57.106846 
C 556.161766 55.849742 554.456527 55.143409 552.678713 55.143409 
C 550.9009 55.143409 549.195661 55.849742 547.938557 57.106846 
C 546.681453 58.363951 545.97512 60.069189 545.97512 61.847003 
C 545.97512 63.624817 546.681453 65.330055 547.938557 66.587159 
C 549.195661 67.844263 550.9009 68.550596 552.678713 68.550596 
z
" clip-path="url(#p0ee49c986b)" style="fill: #1f77b4; stroke: #1f77b4"/>
    <path d="M 668.626765 140.436702 
C 670.458306 140.436702 672.215079 139.709023 673.510174 138.413928 
C 674.805269 137.118833 675.532948 135.36206 675.532948 133.530519 
C 675.532948 131.698978 674.805269 129.942206 673.510174 128.647111 
C 672.215079 127.352016 670.458306 126.624337 668.626765 126.624337 
C 666.795224 126.624337 665.038452 127.352016 663.743357 128.647111 
C 662.448262 129.942206 661.720583 131.698978 661.720583 133.530519 
C 661.720583 135.36206 662.448262 137.118833 663.743357 138.413928 
C 665.038452 139.709023 666.795224 140.436702 668.626765 140.436702 
z
" clip-path="url(#p0ee49c986b)" style="fill: #1f77b4; stroke: #1f77b4"/>
    <path d="M 784.574817 69.103905 
C 786.49937 69.103905 788.345357 68.339272 789.706222 66.978407 
C 791.067086 65.617543 791.831719 63.771556 791.831719 61.847003 
C 791.831719 59.92245 791.067086 58.076463 789.706222 56.715598 
C 788.345357 55.354734 786.49937 54.590101 784.574817 54.590101 
C 782.650265 54.590101 780.804277 55.354734 779.443413 56.715598 
C 778.082549 58.076463 777.317916 59.92245 777.317916 61.847003 
C 777.317916 63.771556 778.082549 65.617543 779.443413 66.978407 
C 780.804277 68.339272 782.650265 69.103905 784.574817 69.103905 
z
" clip-path="url(#p0ee49c986b)" style="fill: #1f77b4; stroke: #1f77b4"/>
    <path d="M 900.522869 69.638228 
C 902.589126 69.638228 904.571033 68.817295 906.032097 67.356231 
C 907.493162 65.895166 908.314094 63.91326 908.314094 61.847003 
C 908.314094 59.780746 907.493162 57.798839 906.032097 56.337775 
C 904.571033 54.876711 902.589126 54.055778 900.522869 54.055778 
C 898.456612 54.055778 896.474706 54.876711 895.013641 56.337775 
C 893.552577 57.798839 892.731644 59.780746 892.731644 61.847003 
C 892.731644 63.91326 893.552577 65.895166 895.013641 67.356231 
C 896.474706 68.817295 898.456612 69.638228 900.522869 69.638228 
z
" clip-path="url(#p0ee49c986b)" style="fill: #1f77b4; stroke: #1f77b4"/>
    <path d="M 436.730662 348.574272 
C 438.457104 348.574272 440.113068 347.88835 441.333847 346.667571 
C 442.554626 345.446792 443.240548 343.790828 443.240548 342.064385 
C 443.240548 340.337943 442.554626 338.681979 441.333847 337.4612 
C 440.113068 336.240421 438.457104 335.554499 436.730662 335.554499 
C 435.004219 335.554499 433.348255 336.240421 432.127476 337.4612 
C 430.906697 338.681979 430.220775 340.337943 430.220775 342.064385 
C 430.220775 343.790828 430.906697 345.446792 432.127476 346.667571 
C 433.348255 347.88835 435.004219 348.574272 436.730662 348.574272 
z
" clip-path="url(#p0ee49c986b)" style="fill: #1f77b4; stroke: #1f77b4"/>
    <path d="M 552.678713 127.65698 
C 554.577522 127.65698 556.398815 126.902575 557.741476 125.559915 
C 559.084136 124.217255 559.838541 122.395961 559.838541 120.497153 
C 559.838541 118.598344 559.084136 116.777051 557.741476 115.43439 
C 556.398815 114.09173 554.577522 113.337326 552.678713 113.337326 
C 550.779905 113.337326 548.958611 114.09173 547.615951 115.43439 
C 546.273291 116.777051 545.518886 118.598344 545.518886 120.497153 
C 545.518886 122.395961 546.273291 124.217255 547.615951 125.559915 
C 548.958611 126.902575 550.779905 127.65698 552.678713 127.65698 
z
" clip-path="url(#p0ee49c986b)" style="fill: #1f77b4; stroke: #1f77b4"/>
    <path d="M 668.626765 297.422533 
C 670.613565 297.422533 672.519257 296.633169 673.924137 295.22829 
C 675.329016 293.823411 676.11838 291.917718 676.11838 289.930919 
C 676.11838 287.94412 675.329016 286.038427 673.924137 284.633548 
C 672.519257 283.228669 670.613565 282.439305 668.626765 282.439305 
C 666.639966 282.439305 664.734274 283.228669 663.329394 284.633548 
C 661.924515 286.038427 661.135151 287.94412 661.135151 289.930919 
C 661.135151 291.917718 661.924515 293.823411 663.329394 295.22829 
C 664.734274 296.633169 666.639966 297.422533 668.626765 297.422533 
z
" clip-path="url(#p0ee49c986b)" style="fill: #1f77b4; stroke: #1f77b4"/>
    <path d="M 552.678713 387.839345 
C 554.448907 387.839345 556.146836 387.13604 557.398552 385.884324 
C 558.650268 384.632608 559.353573 382.934679 559.353573 381.164485 
C 559.353573 379.394292 558.650268 377.696363 557.398552 376.444647 
C 556.146836 375.192931 554.448907 374.489626 552.678713 374.489626 
C 550.90852 374.489626 549.210591 375.192931 547.958875 376.444647 
C 546.707159 377.696363 546.003854 379.394292 546.003854 381.164485 
C 546.003854 382.934679 546.707159 384.632608 547.958875 385.884324 
C 549.210591 387.13604 550.90852 387.839345 552.678713 387.839345 
z
" clip-path="url(#p0ee49c986b)" style="fill: #1f77b4; stroke: #1f77b4"/>
    <path d="M 668.626765 68.937383 
C 670.507156 68.937383 672.310784 68.190296 673.640421 66.860659 
C 674.970058 65.531022 675.717145 63.727394 675.717145 61.847003 
C 675.717145 59.966612 674.970058 58.162984 673.640421 56.833347 
C 672.310784 55.50371 670.507156 54.756623 668.626765 54.756623 
C 666.746375 54.756623 664.942747 55.50371 663.61311 56.833347 
C 662.283473 58.162984 661.536385 59.966612 661.536385 61.847003 
C 661.536385 63.727394 662.283473 65.531022 663.61311 66.860659 
C 664.942747 68.190296 666.746375 68.937383 668.626765 68.937383 
z
" clip-path="url(#p0ee49c986b)" style="fill: #1f77b4; stroke: #1f77b4"/>
    <path d="M 784.574817 336.57979 
C 786.576775 336.57979 788.497007 335.784404 789.912605 334.368806 
C 791.328203 332.953209 792.123589 331.032976 792.123589 329.031019 
C 792.123589 327.029061 791.328203 325.108829 789.912605 323.693231 
C 788.497007 322.277633 786.576775 321.482247 784.574817 321.482247 
C 782.57286 321.482247 780.652628 322.277633 779.23703 323.693231 
C 777.821432 325.108829 777.026046 327.029061 777.026046 329.031019 
C 777.026046 331.032976 777.821432 332.953209 779.23703 334.368806 
C 780.652628 335.784404 782.57286 336.57979 784.574817 336.57979 
z
" clip-path="url(#p0ee49c986b)" style="fill: #1f77b4; stroke: #1f77b4"/>
   </g>
   <g id="matplotlib.axis_1">
    <g id="xtick_1">
     <g id="line2d_1"/>
     <g id="text_1">
      <!-- 16 -->
      <g transform="translate(82.524006 695.614531)scale(0.1 -0.1)">
       <defs>
        <path id="DejaVuSans-31" d="M 794 531 
L 1825 531 
L 1825 4091 
L 703 3866 
L 703 4441 
L 1819 4666 
L 2450 4666 
L 2450 531 
L 3481 531 
L 3481 0 
L 794 0 
L 794 531 
z
" transform="scale(0.015625)"/>
        <path id="DejaVuSans-36" d="M 2113 2584 
Q 1688 2584 1439 2293 
Q 1191 2003 1191 1497 
Q 1191 994 1439 701 
Q 1688 409 2113 409 
Q 2538 409 2786 701 
Q 3034 994 3034 1497 
Q 3034 2003 2786 2293 
Q 2538 2584 2113 2584 
z
M 3366 4563 
L 3366 3988 
Q 3128 4100 2886 4159 
Q 2644 4219 2406 4219 
Q 1781 4219 1451 3797 
Q 1122 3375 1075 2522 
Q 1259 2794 1537 2939 
Q 1816 3084 2150 3084 
Q 2853 3084 3261 2657 
Q 3669 2231 3669 1497 
Q 3669 778 3244 343 
Q 2819 -91 2113 -91 
Q 1303 -91 875 529 
Q 447 1150 447 2328 
Q 447 3434 972 4092 
Q 1497 4750 2381 4750 
Q 2619 4750 2861 4703 
Q 3103 4656 3366 4563 
z
" transform="scale(0.015625)"/>
       </defs>
       <use xlink:href="#DejaVuSans-31"/>
       <use xlink:href="#DejaVuSans-36" x="63.623047"/>
      </g>
     </g>
    </g>
    <g id="xtick_2">
     <g id="line2d_2"/>
     <g id="text_2">
      <!-- 17 -->
      <g transform="translate(198.472058 695.614531)scale(0.1 -0.1)">
       <defs>
        <path id="DejaVuSans-37" d="M 525 4666 
L 3525 4666 
L 3525 4397 
L 1831 0 
L 1172 0 
L 2766 4134 
L 525 4134 
L 525 4666 
z
" transform="scale(0.015625)"/>
       </defs>
       <use xlink:href="#DejaVuSans-31"/>
       <use xlink:href="#DejaVuSans-37" x="63.623047"/>
      </g>
     </g>
    </g>
    <g id="xtick_3">
     <g id="line2d_3"/>
     <g id="text_3">
      <!-- 18 -->
      <g transform="translate(314.42011 695.614531)scale(0.1 -0.1)">
       <defs>
        <path id="DejaVuSans-38" d="M 2034 2216 
Q 1584 2216 1326 1975 
Q 1069 1734 1069 1313 
Q 1069 891 1326 650 
Q 1584 409 2034 409 
Q 2484 409 2743 651 
Q 3003 894 3003 1313 
Q 3003 1734 2745 1975 
Q 2488 2216 2034 2216 
z
M 1403 2484 
Q 997 2584 770 2862 
Q 544 3141 544 3541 
Q 544 4100 942 4425 
Q 1341 4750 2034 4750 
Q 2731 4750 3128 4425 
Q 3525 4100 3525 3541 
Q 3525 3141 3298 2862 
Q 3072 2584 2669 2484 
Q 3125 2378 3379 2068 
Q 3634 1759 3634 1313 
Q 3634 634 3220 271 
Q 2806 -91 2034 -91 
Q 1263 -91 848 271 
Q 434 634 434 1313 
Q 434 1759 690 2068 
Q 947 2378 1403 2484 
z
M 1172 3481 
Q 1172 3119 1398 2916 
Q 1625 2713 2034 2713 
Q 2441 2713 2670 2916 
Q 2900 3119 2900 3481 
Q 2900 3844 2670 4047 
Q 2441 4250 2034 4250 
Q 1625 4250 1398 4047 
Q 1172 3844 1172 3481 
z
" transform="scale(0.015625)"/>
       </defs>
       <use xlink:href="#DejaVuSans-31"/>
       <use xlink:href="#DejaVuSans-38" x="63.623047"/>
      </g>
     </g>
    </g>
    <g id="xtick_4">
     <g id="line2d_4"/>
     <g id="text_4">
      <!-- 19 -->
      <g transform="translate(430.368162 695.614531)scale(0.1 -0.1)">
       <defs>
        <path id="DejaVuSans-39" d="M 703 97 
L 703 672 
Q 941 559 1184 500 
Q 1428 441 1663 441 
Q 2288 441 2617 861 
Q 2947 1281 2994 2138 
Q 2813 1869 2534 1725 
Q 2256 1581 1919 1581 
Q 1219 1581 811 2004 
Q 403 2428 403 3163 
Q 403 3881 828 4315 
Q 1253 4750 1959 4750 
Q 2769 4750 3195 4129 
Q 3622 3509 3622 2328 
Q 3622 1225 3098 567 
Q 2575 -91 1691 -91 
Q 1453 -91 1209 -44 
Q 966 3 703 97 
z
M 1959 2075 
Q 2384 2075 2632 2365 
Q 2881 2656 2881 3163 
Q 2881 3666 2632 3958 
Q 2384 4250 1959 4250 
Q 1534 4250 1286 3958 
Q 1038 3666 1038 3163 
Q 1038 2656 1286 2365 
Q 1534 2075 1959 2075 
z
" transform="scale(0.015625)"/>
       </defs>
       <use xlink:href="#DejaVuSans-31"/>
       <use xlink:href="#DejaVuSans-39" x="63.623047"/>
      </g>
     </g>
    </g>
    <g id="xtick_5">
     <g id="line2d_5"/>
     <g id="text_5">
      <!-- 20 -->
      <g transform="translate(546.316213 695.614531)scale(0.1 -0.1)">
       <defs>
        <path id="DejaVuSans-32" d="M 1228 531 
L 3431 531 
L 3431 0 
L 469 0 
L 469 531 
Q 828 903 1448 1529 
Q 2069 2156 2228 2338 
Q 2531 2678 2651 2914 
Q 2772 3150 2772 3378 
Q 2772 3750 2511 3984 
Q 2250 4219 1831 4219 
Q 1534 4219 1204 4116 
Q 875 4013 500 3803 
L 500 4441 
Q 881 4594 1212 4672 
Q 1544 4750 1819 4750 
Q 2544 4750 2975 4387 
Q 3406 4025 3406 3419 
Q 3406 3131 3298 2873 
Q 3191 2616 2906 2266 
Q 2828 2175 2409 1742 
Q 1991 1309 1228 531 
z
" transform="scale(0.015625)"/>
        <path id="DejaVuSans-30" d="M 2034 4250 
Q 1547 4250 1301 3770 
Q 1056 3291 1056 2328 
Q 1056 1369 1301 889 
Q 1547 409 2034 409 
Q 2525 409 2770 889 
Q 3016 1369 3016 2328 
Q 3016 3291 2770 3770 
Q 2525 4250 2034 4250 
z
M 2034 4750 
Q 2819 4750 3233 4129 
Q 3647 3509 3647 2328 
Q 3647 1150 3233 529 
Q 2819 -91 2034 -91 
Q 1250 -91 836 529 
Q 422 1150 422 2328 
Q 422 3509 836 4129 
Q 1250 4750 2034 4750 
z
" transform="scale(0.015625)"/>
       </defs>
       <use xlink:href="#DejaVuSans-32"/>
       <use xlink:href="#DejaVuSans-30" x="63.623047"/>
      </g>
     </g>
    </g>
    <g id="xtick_6">
     <g id="line2d_6"/>
     <g id="text_6">
      <!-- 21 -->
      <g transform="translate(662.264265 695.614531)scale(0.1 -0.1)">
       <use xlink:href="#DejaVuSans-32"/>
       <use xlink:href="#DejaVuSans-31" x="63.623047"/>
      </g>
     </g>
    </g>
    <g id="xtick_7">
     <g id="line2d_7"/>
     <g id="text_7">
      <!-- 22 -->
      <g transform="translate(778.212317 695.614531)scale(0.1 -0.1)">
       <use xlink:href="#DejaVuSans-32"/>
       <use xlink:href="#DejaVuSans-32" x="63.623047"/>
      </g>
     </g>
    </g>
    <g id="xtick_8">
     <g id="line2d_8"/>
     <g id="text_8">
      <!-- 23 -->
      <g transform="translate(894.160369 695.614531)scale(0.1 -0.1)">
       <defs>
        <path id="DejaVuSans-33" d="M 2597 2516 
Q 3050 2419 3304 2112 
Q 3559 1806 3559 1356 
Q 3559 666 3084 287 
Q 2609 -91 1734 -91 
Q 1441 -91 1130 -33 
Q 819 25 488 141 
L 488 750 
Q 750 597 1062 519 
Q 1375 441 1716 441 
Q 2309 441 2620 675 
Q 2931 909 2931 1356 
Q 2931 1769 2642 2001 
Q 2353 2234 1838 2234 
L 1294 2234 
L 1294 2753 
L 1863 2753 
Q 2328 2753 2575 2939 
Q 2822 3125 2822 3475 
Q 2822 3834 2567 4026 
Q 2313 4219 1838 4219 
Q 1578 4219 1281 4162 
Q 984 4106 628 3988 
L 628 4550 
Q 988 4650 1302 4700 
Q 1616 4750 1894 4750 
Q 2613 4750 3031 4423 
Q 3450 4097 3450 3541 
Q 3450 3153 3228 2886 
Q 3006 2619 2597 2516 
z
" transform="scale(0.015625)"/>
       </defs>
       <use xlink:href="#DejaVuSans-32"/>
       <use xlink:href="#DejaVuSans-33" x="63.623047"/>
      </g>
     </g>
    </g>
    <g id="text_9">
     <!-- Cell Cycle Duration (hours) -->
     <g transform="translate(393.525 713.091875)scale(0.15 -0.15)">
      <defs>
       <path id="DejaVuSans-43" d="M 4122 4306 
L 4122 3641 
Q 3803 3938 3442 4084 
Q 3081 4231 2675 4231 
Q 1875 4231 1450 3742 
Q 1025 3253 1025 2328 
Q 1025 1406 1450 917 
Q 1875 428 2675 428 
Q 3081 428 3442 575 
Q 3803 722 4122 1019 
L 4122 359 
Q 3791 134 3420 21 
Q 3050 -91 2638 -91 
Q 1578 -91 968 557 
Q 359 1206 359 2328 
Q 359 3453 968 4101 
Q 1578 4750 2638 4750 
Q 3056 4750 3426 4639 
Q 3797 4528 4122 4306 
z
" transform="scale(0.015625)"/>
       <path id="DejaVuSans-65" d="M 3597 1894 
L 3597 1613 
L 953 1613 
Q 991 1019 1311 708 
Q 1631 397 2203 397 
Q 2534 397 2845 478 
Q 3156 559 3463 722 
L 3463 178 
Q 3153 47 2828 -22 
Q 2503 -91 2169 -91 
Q 1331 -91 842 396 
Q 353 884 353 1716 
Q 353 2575 817 3079 
Q 1281 3584 2069 3584 
Q 2775 3584 3186 3129 
Q 3597 2675 3597 1894 
z
M 3022 2063 
Q 3016 2534 2758 2815 
Q 2500 3097 2075 3097 
Q 1594 3097 1305 2825 
Q 1016 2553 972 2059 
L 3022 2063 
z
" transform="scale(0.015625)"/>
       <path id="DejaVuSans-6c" d="M 603 4863 
L 1178 4863 
L 1178 0 
L 603 0 
L 603 4863 
z
" transform="scale(0.015625)"/>
       <path id="DejaVuSans-20" transform="scale(0.015625)"/>
       <path id="DejaVuSans-79" d="M 2059 -325 
Q 1816 -950 1584 -1140 
Q 1353 -1331 966 -1331 
L 506 -1331 
L 506 -850 
L 844 -850 
Q 1081 -850 1212 -737 
Q 1344 -625 1503 -206 
L 1606 56 
L 191 3500 
L 800 3500 
L 1894 763 
L 2988 3500 
L 3597 3500 
L 2059 -325 
z
" transform="scale(0.015625)"/>
       <path id="DejaVuSans-63" d="M 3122 3366 
L 3122 2828 
Q 2878 2963 2633 3030 
Q 2388 3097 2138 3097 
Q 1578 3097 1268 2742 
Q 959 2388 959 1747 
Q 959 1106 1268 751 
Q 1578 397 2138 397 
Q 2388 397 2633 464 
Q 2878 531 3122 666 
L 3122 134 
Q 2881 22 2623 -34 
Q 2366 -91 2075 -91 
Q 1284 -91 818 406 
Q 353 903 353 1747 
Q 353 2603 823 3093 
Q 1294 3584 2113 3584 
Q 2378 3584 2631 3529 
Q 2884 3475 3122 3366 
z
" transform="scale(0.015625)"/>
       <path id="DejaVuSans-44" d="M 1259 4147 
L 1259 519 
L 2022 519 
Q 2988 519 3436 956 
Q 3884 1394 3884 2338 
Q 3884 3275 3436 3711 
Q 2988 4147 2022 4147 
L 1259 4147 
z
M 628 4666 
L 1925 4666 
Q 3281 4666 3915 4102 
Q 4550 3538 4550 2338 
Q 4550 1131 3912 565 
Q 3275 0 1925 0 
L 628 0 
L 628 4666 
z
" transform="scale(0.015625)"/>
       <path id="DejaVuSans-75" d="M 544 1381 
L 544 3500 
L 1119 3500 
L 1119 1403 
Q 1119 906 1312 657 
Q 1506 409 1894 409 
Q 2359 409 2629 706 
Q 2900 1003 2900 1516 
L 2900 3500 
L 3475 3500 
L 3475 0 
L 2900 0 
L 2900 538 
Q 2691 219 2414 64 
Q 2138 -91 1772 -91 
Q 1169 -91 856 284 
Q 544 659 544 1381 
z
M 1991 3584 
L 1991 3584 
z
" transform="scale(0.015625)"/>
       <path id="DejaVuSans-72" d="M 2631 2963 
Q 2534 3019 2420 3045 
Q 2306 3072 2169 3072 
Q 1681 3072 1420 2755 
Q 1159 2438 1159 1844 
L 1159 0 
L 581 0 
L 581 3500 
L 1159 3500 
L 1159 2956 
Q 1341 3275 1631 3429 
Q 1922 3584 2338 3584 
Q 2397 3584 2469 3576 
Q 2541 3569 2628 3553 
L 2631 2963 
z
" transform="scale(0.015625)"/>
       <path id="DejaVuSans-61" d="M 2194 1759 
Q 1497 1759 1228 1600 
Q 959 1441 959 1056 
Q 959 750 1161 570 
Q 1363 391 1709 391 
Q 2188 391 2477 730 
Q 2766 1069 2766 1631 
L 2766 1759 
L 2194 1759 
z
M 3341 1997 
L 3341 0 
L 2766 0 
L 2766 531 
Q 2569 213 2275 61 
Q 1981 -91 1556 -91 
Q 1019 -91 701 211 
Q 384 513 384 1019 
Q 384 1609 779 1909 
Q 1175 2209 1959 2209 
L 2766 2209 
L 2766 2266 
Q 2766 2663 2505 2880 
Q 2244 3097 1772 3097 
Q 1472 3097 1187 3025 
Q 903 2953 641 2809 
L 641 3341 
Q 956 3463 1253 3523 
Q 1550 3584 1831 3584 
Q 2591 3584 2966 3190 
Q 3341 2797 3341 1997 
z
" transform="scale(0.015625)"/>
       <path id="DejaVuSans-74" d="M 1172 4494 
L 1172 3500 
L 2356 3500 
L 2356 3053 
L 1172 3053 
L 1172 1153 
Q 1172 725 1289 603 
Q 1406 481 1766 481 
L 2356 481 
L 2356 0 
L 1766 0 
Q 1100 0 847 248 
Q 594 497 594 1153 
L 594 3053 
L 172 3053 
L 172 3500 
L 594 3500 
L 594 4494 
L 1172 4494 
z
" transform="scale(0.015625)"/>
       <path id="DejaVuSans-69" d="M 603 3500 
L 1178 3500 
L 1178 0 
L 603 0 
L 603 3500 
z
M 603 4863 
L 1178 4863 
L 1178 4134 
L 603 4134 
L 603 4863 
z
" transform="scale(0.015625)"/>
       <path id="DejaVuSans-6f" d="M 1959 3097 
Q 1497 3097 1228 2736 
Q 959 2375 959 1747 
Q 959 1119 1226 758 
Q 1494 397 1959 397 
Q 2419 397 2687 759 
Q 2956 1122 2956 1747 
Q 2956 2369 2687 2733 
Q 2419 3097 1959 3097 
z
M 1959 3584 
Q 2709 3584 3137 3096 
Q 3566 2609 3566 1747 
Q 3566 888 3137 398 
Q 2709 -91 1959 -91 
Q 1206 -91 779 398 
Q 353 888 353 1747 
Q 353 2609 779 3096 
Q 1206 3584 1959 3584 
z
" transform="scale(0.015625)"/>
       <path id="DejaVuSans-6e" d="M 3513 2113 
L 3513 0 
L 2938 0 
L 2938 2094 
Q 2938 2591 2744 2837 
Q 2550 3084 2163 3084 
Q 1697 3084 1428 2787 
Q 1159 2491 1159 1978 
L 1159 0 
L 581 0 
L 581 3500 
L 1159 3500 
L 1159 2956 
Q 1366 3272 1645 3428 
Q 1925 3584 2291 3584 
Q 2894 3584 3203 3211 
Q 3513 2838 3513 2113 
z
" transform="scale(0.015625)"/>
       <path id="DejaVuSans-28" d="M 1984 4856 
Q 1566 4138 1362 3434 
Q 1159 2731 1159 2009 
Q 1159 1288 1364 580 
Q 1569 -128 1984 -844 
L 1484 -844 
Q 1016 -109 783 600 
Q 550 1309 550 2009 
Q 550 2706 781 3412 
Q 1013 4119 1484 4856 
L 1984 4856 
z
" transform="scale(0.015625)"/>
       <path id="DejaVuSans-68" d="M 3513 2113 
L 3513 0 
L 2938 0 
L 2938 2094 
Q 2938 2591 2744 2837 
Q 2550 3084 2163 3084 
Q 1697 3084 1428 2787 
Q 1159 2491 1159 1978 
L 1159 0 
L 581 0 
L 581 4863 
L 1159 4863 
L 1159 2956 
Q 1366 3272 1645 3428 
Q 1925 3584 2291 3584 
Q 2894 3584 3203 3211 
Q 3513 2838 3513 2113 
z
" transform="scale(0.015625)"/>
       <path id="DejaVuSans-73" d="M 2834 3397 
L 2834 2853 
Q 2591 2978 2328 3040 
Q 2066 3103 1784 3103 
Q 1356 3103 1142 2972 
Q 928 2841 928 2578 
Q 928 2378 1081 2264 
Q 1234 2150 1697 2047 
L 1894 2003 
Q 2506 1872 2764 1633 
Q 3022 1394 3022 966 
Q 3022 478 2636 193 
Q 2250 -91 1575 -91 
Q 1294 -91 989 -36 
Q 684 19 347 128 
L 347 722 
Q 666 556 975 473 
Q 1284 391 1588 391 
Q 1994 391 2212 530 
Q 2431 669 2431 922 
Q 2431 1156 2273 1281 
Q 2116 1406 1581 1522 
L 1381 1569 
Q 847 1681 609 1914 
Q 372 2147 372 2553 
Q 372 3047 722 3315 
Q 1072 3584 1716 3584 
Q 2034 3584 2315 3537 
Q 2597 3491 2834 3397 
z
" transform="scale(0.015625)"/>
       <path id="DejaVuSans-29" d="M 513 4856 
L 1013 4856 
Q 1481 4119 1714 3412 
Q 1947 2706 1947 2009 
Q 1947 1309 1714 600 
Q 1481 -109 1013 -844 
L 513 -844 
Q 928 -128 1133 580 
Q 1338 1288 1338 2009 
Q 1338 2731 1133 3434 
Q 928 4138 513 4856 
z
" transform="scale(0.015625)"/>
      </defs>
      <use xlink:href="#DejaVuSans-43"/>
      <use xlink:href="#DejaVuSans-65" x="69.824219"/>
      <use xlink:href="#DejaVuSans-6c" x="131.347656"/>
      <use xlink:href="#DejaVuSans-6c" x="159.130859"/>
      <use xlink:href="#DejaVuSans-20" x="186.914062"/>
      <use xlink:href="#DejaVuSans-43" x="218.701172"/>
      <use xlink:href="#DejaVuSans-79" x="288.525391"/>
      <use xlink:href="#DejaVuSans-63" x="347.705078"/>
      <use xlink:href="#DejaVuSans-6c" x="402.685547"/>
      <use xlink:href="#DejaVuSans-65" x="430.46875"/>
      <use xlink:href="#DejaVuSans-20" x="491.992188"/>
      <use xlink:href="#DejaVuSans-44" x="523.779297"/>
      <use xlink:href="#DejaVuSans-75" x="600.78125"/>
      <use xlink:href="#DejaVuSans-72" x="664.160156"/>
      <use xlink:href="#DejaVuSans-61" x="705.273438"/>
      <use xlink:href="#DejaVuSans-74" x="766.552734"/>
      <use xlink:href="#DejaVuSans-69" x="805.761719"/>
      <use xlink:href="#DejaVuSans-6f" x="833.544922"/>
      <use xlink:href="#DejaVuSans-6e" x="894.726562"/>
      <use xlink:href="#DejaVuSans-20" x="958.105469"/>
      <use xlink:href="#DejaVuSans-28" x="989.892578"/>
      <use xlink:href="#DejaVuSans-68" x="1028.90625"/>
      <use xlink:href="#DejaVuSans-6f" x="1092.285156"/>
      <use xlink:href="#DejaVuSans-75" x="1153.466797"/>
      <use xlink:href="#DejaVuSans-72" x="1216.845703"/>
      <use xlink:href="#DejaVuSans-73" x="1257.958984"/>
      <use xlink:href="#DejaVuSans-29" x="1310.058594"/>
     </g>
    </g>
   </g>
   <g id="matplotlib.axis_2">
    <g id="ytick_1">
     <g id="line2d_9">
      <path d="M 48.304688 648.348501 
L 941.104687 648.348501 
" clip-path="url(#p0ee49c986b)" style="fill: none; stroke: #b0b0b0; stroke-opacity: 0.5; stroke-width: 0.8; stroke-linecap: square"/>
     </g>
     <g id="line2d_10"/>
     <g id="text_10">
      <!-- 260 -->
      <g transform="translate(25.717188 652.14772)scale(0.1 -0.1)">
       <use xlink:href="#DejaVuSans-32"/>
       <use xlink:href="#DejaVuSans-36" x="63.623047"/>
       <use xlink:href="#DejaVuSans-30" x="127.246094"/>
      </g>
     </g>
    </g>
    <g id="ytick_2">
     <g id="line2d_11">
      <path d="M 48.304688 518.014835 
L 941.104687 518.014835 
" clip-path="url(#p0ee49c986b)" style="fill: none; stroke: #b0b0b0; stroke-opacity: 0.5; stroke-width: 0.8; stroke-linecap: square"/>
     </g>
     <g id="line2d_12"/>
     <g id="text_11">
      <!-- 280 -->
      <g transform="translate(25.717188 521.814054)scale(0.1 -0.1)">
       <use xlink:href="#DejaVuSans-32"/>
       <use xlink:href="#DejaVuSans-38" x="63.623047"/>
       <use xlink:href="#DejaVuSans-30" x="127.246094"/>
      </g>
     </g>
    </g>
    <g id="ytick_3">
     <g id="line2d_13">
      <path d="M 48.304688 387.681169 
L 941.104687 387.681169 
" clip-path="url(#p0ee49c986b)" style="fill: none; stroke: #b0b0b0; stroke-opacity: 0.5; stroke-width: 0.8; stroke-linecap: square"/>
     </g>
     <g id="line2d_14"/>
     <g id="text_12">
      <!-- 300 -->
      <g transform="translate(25.717188 391.480387)scale(0.1 -0.1)">
       <use xlink:href="#DejaVuSans-33"/>
       <use xlink:href="#DejaVuSans-30" x="63.623047"/>
       <use xlink:href="#DejaVuSans-30" x="127.246094"/>
      </g>
     </g>
    </g>
    <g id="ytick_4">
     <g id="line2d_15">
      <path d="M 48.304688 257.347502 
L 941.104687 257.347502 
" clip-path="url(#p0ee49c986b)" style="fill: none; stroke: #b0b0b0; stroke-opacity: 0.5; stroke-width: 0.8; stroke-linecap: square"/>
     </g>
     <g id="line2d_16"/>
     <g id="text_13">
      <!-- 320 -->
      <g transform="translate(25.717188 261.146721)scale(0.1 -0.1)">
       <use xlink:href="#DejaVuSans-33"/>
       <use xlink:href="#DejaVuSans-32" x="63.623047"/>
       <use xlink:href="#DejaVuSans-30" x="127.246094"/>
      </g>
     </g>
    </g>
    <g id="ytick_5">
     <g id="line2d_17">
      <path d="M 48.304688 127.013836 
L 941.104687 127.013836 
" clip-path="url(#p0ee49c986b)" style="fill: none; stroke: #b0b0b0; stroke-opacity: 0.5; stroke-width: 0.8; stroke-linecap: square"/>
     </g>
     <g id="line2d_18"/>
     <g id="text_14">
      <!-- 340 -->
      <g transform="translate(25.717188 130.813055)scale(0.1 -0.1)">
       <defs>
        <path id="DejaVuSans-34" d="M 2419 4116 
L 825 1625 
L 2419 1625 
L 2419 4116 
z
M 2253 4666 
L 3047 4666 
L 3047 1625 
L 3713 1625 
L 3713 1100 
L 3047 1100 
L 3047 0 
L 2419 0 
L 2419 1100 
L 313 1100 
L 313 1709 
L 2253 4666 
z
" transform="scale(0.015625)"/>
       </defs>
       <use xlink:href="#DejaVuSans-33"/>
       <use xlink:href="#DejaVuSans-34" x="63.623047"/>
       <use xlink:href="#DejaVuSans-30" x="127.246094"/>
      </g>
     </g>
    </g>
    <g id="text_15">
     <!-- Radiotherapy Start (hours) -->
     <g transform="translate(18.597656 458.642812)rotate(-90)scale(0.15 -0.15)">
      <defs>
       <path id="DejaVuSans-52" d="M 2841 2188 
Q 3044 2119 3236 1894 
Q 3428 1669 3622 1275 
L 4263 0 
L 3584 0 
L 2988 1197 
Q 2756 1666 2539 1819 
Q 2322 1972 1947 1972 
L 1259 1972 
L 1259 0 
L 628 0 
L 628 4666 
L 2053 4666 
Q 2853 4666 3247 4331 
Q 3641 3997 3641 3322 
Q 3641 2881 3436 2590 
Q 3231 2300 2841 2188 
z
M 1259 4147 
L 1259 2491 
L 2053 2491 
Q 2509 2491 2742 2702 
Q 2975 2913 2975 3322 
Q 2975 3731 2742 3939 
Q 2509 4147 2053 4147 
L 1259 4147 
z
" transform="scale(0.015625)"/>
       <path id="DejaVuSans-64" d="M 2906 2969 
L 2906 4863 
L 3481 4863 
L 3481 0 
L 2906 0 
L 2906 525 
Q 2725 213 2448 61 
Q 2172 -91 1784 -91 
Q 1150 -91 751 415 
Q 353 922 353 1747 
Q 353 2572 751 3078 
Q 1150 3584 1784 3584 
Q 2172 3584 2448 3432 
Q 2725 3281 2906 2969 
z
M 947 1747 
Q 947 1113 1208 752 
Q 1469 391 1925 391 
Q 2381 391 2643 752 
Q 2906 1113 2906 1747 
Q 2906 2381 2643 2742 
Q 2381 3103 1925 3103 
Q 1469 3103 1208 2742 
Q 947 2381 947 1747 
z
" transform="scale(0.015625)"/>
       <path id="DejaVuSans-70" d="M 1159 525 
L 1159 -1331 
L 581 -1331 
L 581 3500 
L 1159 3500 
L 1159 2969 
Q 1341 3281 1617 3432 
Q 1894 3584 2278 3584 
Q 2916 3584 3314 3078 
Q 3713 2572 3713 1747 
Q 3713 922 3314 415 
Q 2916 -91 2278 -91 
Q 1894 -91 1617 61 
Q 1341 213 1159 525 
z
M 3116 1747 
Q 3116 2381 2855 2742 
Q 2594 3103 2138 3103 
Q 1681 3103 1420 2742 
Q 1159 2381 1159 1747 
Q 1159 1113 1420 752 
Q 1681 391 2138 391 
Q 2594 391 2855 752 
Q 3116 1113 3116 1747 
z
" transform="scale(0.015625)"/>
       <path id="DejaVuSans-53" d="M 3425 4513 
L 3425 3897 
Q 3066 4069 2747 4153 
Q 2428 4238 2131 4238 
Q 1616 4238 1336 4038 
Q 1056 3838 1056 3469 
Q 1056 3159 1242 3001 
Q 1428 2844 1947 2747 
L 2328 2669 
Q 3034 2534 3370 2195 
Q 3706 1856 3706 1288 
Q 3706 609 3251 259 
Q 2797 -91 1919 -91 
Q 1588 -91 1214 -16 
Q 841 59 441 206 
L 441 856 
Q 825 641 1194 531 
Q 1563 422 1919 422 
Q 2459 422 2753 634 
Q 3047 847 3047 1241 
Q 3047 1584 2836 1778 
Q 2625 1972 2144 2069 
L 1759 2144 
Q 1053 2284 737 2584 
Q 422 2884 422 3419 
Q 422 4038 858 4394 
Q 1294 4750 2059 4750 
Q 2388 4750 2728 4690 
Q 3069 4631 3425 4513 
z
" transform="scale(0.015625)"/>
      </defs>
      <use xlink:href="#DejaVuSans-52"/>
      <use xlink:href="#DejaVuSans-61" x="67.232422"/>
      <use xlink:href="#DejaVuSans-64" x="128.511719"/>
      <use xlink:href="#DejaVuSans-69" x="191.988281"/>
      <use xlink:href="#DejaVuSans-6f" x="219.771484"/>
      <use xlink:href="#DejaVuSans-74" x="280.953125"/>
      <use xlink:href="#DejaVuSans-68" x="320.162109"/>
      <use xlink:href="#DejaVuSans-65" x="383.541016"/>
      <use xlink:href="#DejaVuSans-72" x="445.064453"/>
      <use xlink:href="#DejaVuSans-61" x="486.177734"/>
      <use xlink:href="#DejaVuSans-70" x="547.457031"/>
      <use xlink:href="#DejaVuSans-79" x="610.933594"/>
      <use xlink:href="#DejaVuSans-20" x="670.113281"/>
      <use xlink:href="#DejaVuSans-53" x="701.900391"/>
      <use xlink:href="#DejaVuSans-74" x="765.376953"/>
      <use xlink:href="#DejaVuSans-61" x="804.585938"/>
      <use xlink:href="#DejaVuSans-72" x="865.865234"/>
      <use xlink:href="#DejaVuSans-74" x="906.978516"/>
      <use xlink:href="#DejaVuSans-20" x="946.1875"/>
      <use xlink:href="#DejaVuSans-28" x="977.974609"/>
      <use xlink:href="#DejaVuSans-68" x="1016.988281"/>
      <use xlink:href="#DejaVuSans-6f" x="1080.367188"/>
      <use xlink:href="#DejaVuSans-75" x="1141.548828"/>
      <use xlink:href="#DejaVuSans-72" x="1204.927734"/>
      <use xlink:href="#DejaVuSans-73" x="1246.041016"/>
      <use xlink:href="#DejaVuSans-29" x="1298.140625"/>
     </g>
    </g>
   </g>
   <g id="text_16">
    <!-- Start hour of radiotherapy w.r.t. the Cell Cycle Duration -->
    <g transform="translate(148.976172 26.196094)scale(0.25 -0.25)">
     <defs>
      <path id="DejaVuSans-66" d="M 2375 4863 
L 2375 4384 
L 1825 4384 
Q 1516 4384 1395 4259 
Q 1275 4134 1275 3809 
L 1275 3500 
L 2222 3500 
L 2222 3053 
L 1275 3053 
L 1275 0 
L 697 0 
L 697 3053 
L 147 3053 
L 147 3500 
L 697 3500 
L 697 3744 
Q 697 4328 969 4595 
Q 1241 4863 1831 4863 
L 2375 4863 
z
" transform="scale(0.015625)"/>
      <path id="DejaVuSans-77" d="M 269 3500 
L 844 3500 
L 1563 769 
L 2278 3500 
L 2956 3500 
L 3675 769 
L 4391 3500 
L 4966 3500 
L 4050 0 
L 3372 0 
L 2619 2869 
L 1863 0 
L 1184 0 
L 269 3500 
z
" transform="scale(0.015625)"/>
      <path id="DejaVuSans-2e" d="M 684 794 
L 1344 794 
L 1344 0 
L 684 0 
L 684 794 
z
" transform="scale(0.015625)"/>
     </defs>
     <use xlink:href="#DejaVuSans-53"/>
     <use xlink:href="#DejaVuSans-74" x="63.476562"/>
     <use xlink:href="#DejaVuSans-61" x="102.685547"/>
     <use xlink:href="#DejaVuSans-72" x="163.964844"/>
     <use xlink:href="#DejaVuSans-74" x="205.078125"/>
     <use xlink:href="#DejaVuSans-20" x="244.287109"/>
     <use xlink:href="#DejaVuSans-68" x="276.074219"/>
     <use xlink:href="#DejaVuSans-6f" x="339.453125"/>
     <use xlink:href="#DejaVuSans-75" x="400.634766"/>
     <use xlink:href="#DejaVuSans-72" x="464.013672"/>
     <use xlink:href="#DejaVuSans-20" x="505.126953"/>
     <use xlink:href="#DejaVuSans-6f" x="536.914062"/>
     <use xlink:href="#DejaVuSans-66" x="598.095703"/>
     <use xlink:href="#DejaVuSans-20" x="633.300781"/>
     <use xlink:href="#DejaVuSans-72" x="665.087891"/>
     <use xlink:href="#DejaVuSans-61" x="706.201172"/>
     <use xlink:href="#DejaVuSans-64" x="767.480469"/>
     <use xlink:href="#DejaVuSans-69" x="830.957031"/>
     <use xlink:href="#DejaVuSans-6f" x="858.740234"/>
     <use xlink:href="#DejaVuSans-74" x="919.921875"/>
     <use xlink:href="#DejaVuSans-68" x="959.130859"/>
     <use xlink:href="#DejaVuSans-65" x="1022.509766"/>
     <use xlink:href="#DejaVuSans-72" x="1084.033203"/>
     <use xlink:href="#DejaVuSans-61" x="1125.146484"/>
     <use xlink:href="#DejaVuSans-70" x="1186.425781"/>
     <use xlink:href="#DejaVuSans-79" x="1249.902344"/>
     <use xlink:href="#DejaVuSans-20" x="1309.082031"/>
     <use xlink:href="#DejaVuSans-77" x="1340.869141"/>
     <use xlink:href="#DejaVuSans-2e" x="1413.53125"/>
     <use xlink:href="#DejaVuSans-72" x="1445.318359"/>
     <use xlink:href="#DejaVuSans-2e" x="1477.306641"/>
     <use xlink:href="#DejaVuSans-74" x="1509.09375"/>
     <use xlink:href="#DejaVuSans-2e" x="1548.302734"/>
     <use xlink:href="#DejaVuSans-20" x="1580.089844"/>
     <use xlink:href="#DejaVuSans-74" x="1611.876953"/>
     <use xlink:href="#DejaVuSans-68" x="1651.085938"/>
     <use xlink:href="#DejaVuSans-65" x="1714.464844"/>
     <use xlink:href="#DejaVuSans-20" x="1775.988281"/>
     <use xlink:href="#DejaVuSans-43" x="1807.775391"/>
     <use xlink:href="#DejaVuSans-65" x="1877.599609"/>
     <use xlink:href="#DejaVuSans-6c" x="1939.123047"/>
     <use xlink:href="#DejaVuSans-6c" x="1966.90625"/>
     <use xlink:href="#DejaVuSans-20" x="1994.689453"/>
     <use xlink:href="#DejaVuSans-43" x="2026.476562"/>
     <use xlink:href="#DejaVuSans-79" x="2096.300781"/>
     <use xlink:href="#DejaVuSans-63" x="2155.480469"/>
     <use xlink:href="#DejaVuSans-6c" x="2210.460938"/>
     <use xlink:href="#DejaVuSans-65" x="2238.244141"/>
     <use xlink:href="#DejaVuSans-20" x="2299.767578"/>
     <use xlink:href="#DejaVuSans-44" x="2331.554688"/>
     <use xlink:href="#DejaVuSans-75" x="2408.556641"/>
     <use xlink:href="#DejaVuSans-72" x="2471.935547"/>
     <use xlink:href="#DejaVuSans-61" x="2513.048828"/>
     <use xlink:href="#DejaVuSans-74" x="2574.328125"/>
     <use xlink:href="#DejaVuSans-69" x="2613.537109"/>
     <use xlink:href="#DejaVuSans-6f" x="2641.320312"/>
     <use xlink:href="#DejaVuSans-6e" x="2702.501953"/>
    </g>
   </g>
  </g>
 </g>
 <defs>
  <clipPath id="p0ee49c986b">
   <rect x="48.304688" y="32.196094" width="892.8" height="652.32"/>
  </clipPath>
 </defs>
</svg>
