<?xml version="1.0" encoding="utf-8" standalone="no"?>
<!DOCTYPE svg PUBLIC "-//W3C//DTD SVG 1.1//EN"
  "http://www.w3.org/Graphics/SVG/1.1/DTD/svg11.dtd">
<svg xmlns:xlink="http://www.w3.org/1999/xlink" width="961.029687pt" height="723.411406pt" viewBox="0 0 961.029687 723.411406" xmlns="http://www.w3.org/2000/svg" version="1.1">
 <metadata>
  <rdf:RDF xmlns:dc="http://purl.org/dc/elements/1.1/" xmlns:cc="http://creativecommons.org/ns#" xmlns:rdf="http://www.w3.org/1999/02/22-rdf-syntax-ns#">
   <cc:Work>
    <dc:type rdf:resource="http://purl.org/dc/dcmitype/StillImage"/>
    <dc:date>2023-04-22T15:35:41.648148</dc:date>
    <dc:format>image/svg+xml</dc:format>
    <dc:creator>
     <cc:Agent>
      <dc:title>Matplotlib v3.5.3, https://matplotlib.org/</dc:title>
     </cc:Agent>
    </dc:creator>
   </cc:Work>
  </rdf:RDF>
 </metadata>
 <defs>
  <style type="text/css">*{stroke-linejoin: round; stroke-linecap: butt}</style>
 </defs>
 <g id="figure_1">
  <g id="patch_1">
   <path d="M 0 723.411406 
L 961.029687 723.411406 
L 961.029687 0 
L 0 0 
z
" style="fill: #ffffff"/>
  </g>
  <g id="axes_1">
   <g id="patch_2">
    <path d="M 61.029688 684.516094 
L 953.829687 684.516094 
L 953.829687 32.196094 
L 61.029688 32.196094 
z
" style="fill: #ffffff"/>
   </g>
   <g id="PathCollection_1">
    <path d="M 333.50761 128.94343 
C 335.038515 128.94343 336.506926 128.335194 337.589439 127.25268 
C 338.671953 126.170167 339.280189 124.701756 339.280189 123.170851 
C 339.280189 121.639945 338.671953 120.171535 337.589439 119.089021 
C 336.506926 118.006507 335.038515 117.398271 333.50761 117.398271 
C 331.976704 117.398271 330.508294 118.006507 329.42578 119.089021 
C 328.343266 120.171535 327.73503 121.639945 327.73503 123.170851 
C 327.73503 124.701756 328.343266 126.170167 329.42578 127.25268 
C 330.508294 128.335194 331.976704 128.94343 333.50761 128.94343 
z
" clip-path="url(#p9679d3d575)" style="fill: #1f77b4; stroke: #1f77b4"/>
    <path d="M 449.455662 143.57397 
C 451.174429 143.57397 452.823032 142.891096 454.038384 141.675744 
C 455.253736 140.460392 455.93661 138.811789 455.93661 137.093021 
C 455.93661 135.374254 455.253736 133.725651 454.038384 132.510299 
C 452.823032 131.294947 451.174429 130.612073 449.455662 130.612073 
C 447.736894 130.612073 446.088291 131.294947 444.872939 132.510299 
C 443.657587 133.725651 442.974713 135.374254 442.974713 137.093021 
C 442.974713 138.811789 443.657587 140.460392 444.872939 141.675744 
C 446.088291 142.891096 447.736894 143.57397 449.455662 143.57397 
z
" clip-path="url(#p9679d3d575)" style="fill: #1f77b4; stroke: #1f77b4"/>
    <path d="M 565.403713 86.15109 
C 567.190024 86.15109 568.903413 85.441381 570.166526 84.178269 
C 571.429638 82.915156 572.139347 81.201767 572.139347 79.415457 
C 572.139347 77.629146 571.429638 75.915757 570.166526 74.652644 
C 568.903413 73.389532 567.190024 72.679823 565.403713 72.679823 
C 563.617403 72.679823 561.904014 73.389532 560.640901 74.652644 
C 559.377789 75.915757 558.66808 77.629146 558.66808 79.415457 
C 558.66808 81.201767 559.377789 82.915156 560.640901 84.178269 
C 561.904014 85.441381 563.617403 86.15109 565.403713 86.15109 
z
" clip-path="url(#p9679d3d575)" style="fill: #1f77b4; stroke: #1f77b4"/>
    <path d="M 101.611506 168.092825 
C 103.063711 168.092825 104.456634 167.515858 105.483498 166.488994 
C 106.510362 165.462129 107.08733 164.069207 107.08733 162.617001 
C 107.08733 161.164796 106.510362 159.771873 105.483498 158.745009 
C 104.456634 157.718145 103.063711 157.141177 101.611506 157.141177 
C 100.1593 157.141177 98.766378 157.718145 97.739513 158.745009 
C 96.712649 159.771873 96.135682 161.164796 96.135682 162.617001 
C 96.135682 164.069207 96.712649 165.462129 97.739513 166.488994 
C 98.766378 167.515858 100.1593 168.092825 101.611506 168.092825 
z
" clip-path="url(#p9679d3d575)" style="fill: #1f77b4; stroke: #1f77b4"/>
    <path d="M 217.559558 173.204041 
C 219.136539 173.204041 220.649144 172.5775 221.764238 171.462406 
C 222.879333 170.347311 223.505874 168.834706 223.505874 167.257725 
C 223.505874 165.680743 222.879333 164.168139 221.764238 163.053044 
C 220.649144 161.93795 219.136539 161.311409 217.559558 161.311409 
C 215.982576 161.311409 214.469971 161.93795 213.354877 163.053044 
C 212.239783 164.168139 211.613241 165.680743 211.613241 167.257725 
C 211.613241 168.834706 212.239783 170.347311 213.354877 171.462406 
C 214.469971 172.5775 215.982576 173.204041 217.559558 173.204041 
z
" clip-path="url(#p9679d3d575)" style="fill: #1f77b4; stroke: #1f77b4"/>
    <path d="M 333.50761 138.306723 
C 335.192086 138.306723 336.807797 137.637474 337.998901 136.446369 
C 339.190006 135.255265 339.859255 133.639554 339.859255 131.955077 
C 339.859255 130.270601 339.190006 128.65489 337.998901 127.463786 
C 336.807797 126.272681 335.192086 125.603432 333.50761 125.603432 
C 331.823133 125.603432 330.207422 126.272681 329.016318 127.463786 
C 327.825213 128.65489 327.155964 130.270601 327.155964 131.955077 
C 327.155964 133.639554 327.825213 135.255265 329.016318 136.446369 
C 330.207422 137.637474 331.823133 138.306723 333.50761 138.306723 
z
" clip-path="url(#p9679d3d575)" style="fill: #1f77b4; stroke: #1f77b4"/>
    <path d="M 217.559558 113.952949 
C 218.982964 113.952949 220.348262 113.387424 221.354762 112.380924 
C 222.361262 111.374424 222.926787 110.009125 222.926787 108.585719 
C 222.926787 107.162313 222.361262 105.797015 221.354762 104.790515 
C 220.348262 103.784015 218.982964 103.21849 217.559558 103.21849 
C 216.136152 103.21849 214.770853 103.784015 213.764353 104.790515 
C 212.757853 105.797015 212.192328 107.162313 212.192328 108.585719 
C 212.192328 110.009125 212.757853 111.374424 213.764353 112.380924 
C 214.770853 113.387424 216.136152 113.952949 217.559558 113.952949 
z
" clip-path="url(#p9679d3d575)" style="fill: #1f77b4; stroke: #1f77b4"/>
    <path d="M 333.50761 90.462399 
C 335.030739 90.462399 336.491691 89.857253 337.568706 88.780237 
C 338.645722 87.703222 339.250868 86.24227 339.250868 84.719141 
C 339.250868 83.196011 338.645722 81.735059 337.568706 80.658044 
C 336.491691 79.581029 335.030739 78.975883 333.50761 78.975883 
C 331.98448 78.975883 330.523528 79.581029 329.446513 80.658044 
C 328.369498 81.735059 327.764352 83.196011 327.764352 84.719141 
C 327.764352 86.24227 328.369498 87.703222 329.446513 88.780237 
C 330.523528 89.857253 331.98448 90.462399 333.50761 90.462399 
z
" clip-path="url(#p9679d3d575)" style="fill: #1f77b4; stroke: #1f77b4"/>
    <path d="M 449.455662 110.516665 
C 451.198489 110.516665 452.870169 109.824233 454.102534 108.591868 
C 455.334899 107.359503 456.027331 105.687823 456.027331 103.944996 
C 456.027331 102.202168 455.334899 100.530488 454.102534 99.298123 
C 452.870169 98.065758 451.198489 97.373326 449.455662 97.373326 
C 447.712834 97.373326 446.041154 98.065758 444.808789 99.298123 
C 443.576424 100.530488 442.883992 102.202168 442.883992 103.944996 
C 442.883992 105.687823 443.576424 107.359503 444.808789 108.591868 
C 446.041154 109.824233 447.712834 110.516665 449.455662 110.516665 
z
" clip-path="url(#p9679d3d575)" style="fill: #1f77b4; stroke: #1f77b4"/>
    <path d="M 449.455662 174.858006 
C 451.119641 174.858006 452.715693 174.1969 453.892304 173.020289 
C 455.068916 171.843677 455.730022 170.247626 455.730022 168.583646 
C 455.730022 166.919666 455.068916 165.323615 453.892304 164.147003 
C 452.715693 162.970392 451.119641 162.309286 449.455662 162.309286 
C 447.791682 162.309286 446.19563 162.970392 445.019019 164.147003 
C 443.842407 165.323615 443.181301 166.919666 443.181301 168.583646 
C 443.181301 170.247626 443.842407 171.843677 445.019019 173.020289 
C 446.19563 174.1969 447.791682 174.858006 449.455662 174.858006 
z
" clip-path="url(#p9679d3d575)" style="fill: #1f77b4; stroke: #1f77b4"/>
    <path d="M 565.403713 89.147114 
C 567.149438 89.147114 568.823897 88.45353 570.058311 87.219117 
C 571.292725 85.984703 571.986309 84.310244 571.986309 82.564519 
C 571.986309 80.818794 571.292725 79.144335 570.058311 77.909921 
C 568.823897 76.675507 567.149438 75.981924 565.403713 75.981924 
C 563.657989 75.981924 561.983529 76.675507 560.749116 77.909921 
C 559.514702 79.144335 558.821118 80.818794 558.821118 82.564519 
C 558.821118 84.310244 559.514702 85.984703 560.749116 87.219117 
C 561.983529 88.45353 563.657989 89.147114 565.403713 89.147114 
z
" clip-path="url(#p9679d3d575)" style="fill: #1f77b4; stroke: #1f77b4"/>
    <path d="M 681.351765 662.089291 
C 683.267621 662.089291 685.105266 661.328113 686.45998 659.973399 
C 687.814694 658.618685 688.575872 656.78104 688.575872 654.865185 
C 688.575872 652.949329 687.814694 651.111685 686.45998 649.75697 
C 685.105266 648.402256 683.267621 647.641079 681.351765 647.641079 
C 679.43591 647.641079 677.598265 648.402256 676.243551 649.75697 
C 674.888837 651.111685 674.127659 652.949329 674.127659 654.865185 
C 674.127659 656.78104 674.888837 658.618685 676.243551 659.973399 
C 677.598265 661.328113 679.43591 662.089291 681.351765 662.089291 
z
" clip-path="url(#p9679d3d575)" style="fill: #1f77b4; stroke: #1f77b4"/>
    <path d="M 217.559558 97.603829 
C 219.086561 97.603829 220.551227 96.997144 221.630981 95.91739 
C 222.710735 94.837636 223.31742 93.372969 223.31742 91.845966 
C 223.31742 90.318963 222.710735 88.854297 221.630981 87.774543 
C 220.551227 86.694788 219.086561 86.088104 217.559558 86.088104 
C 216.032555 86.088104 214.567888 86.694788 213.488134 87.774543 
C 212.40838 88.854297 211.801695 90.318963 211.801695 91.845966 
C 211.801695 93.372969 212.40838 94.837636 213.488134 95.91739 
C 214.567888 96.997144 216.032555 97.603829 217.559558 97.603829 
z
" clip-path="url(#p9679d3d575)" style="fill: #1f77b4; stroke: #1f77b4"/>
    <path d="M 333.50761 153.407579 
C 335.153038 153.407579 336.731296 152.753844 337.89479 151.59035 
C 339.058284 150.426856 339.71202 148.848598 339.71202 147.203169 
C 339.71202 145.557741 339.058284 143.979483 337.89479 142.815989 
C 336.731296 141.652495 335.153038 140.998759 333.50761 140.998759 
C 331.862181 140.998759 330.283923 141.652495 329.120429 142.815989 
C 327.956935 143.979483 327.3032 145.557741 327.3032 147.203169 
C 327.3032 148.848598 327.956935 150.426856 329.120429 151.59035 
C 330.283923 152.753844 331.862181 153.407579 333.50761 153.407579 
z
" clip-path="url(#p9679d3d575)" style="fill: #1f77b4; stroke: #1f77b4"/>
    <path d="M 449.455662 90.845248 
C 451.256143 90.845248 452.983125 90.129909 454.256258 88.856776 
C 455.529391 87.583643 456.24473 85.856662 456.24473 84.05618 
C 456.24473 82.255698 455.529391 80.528717 454.256258 79.255584 
C 452.983125 77.982451 451.256143 77.267112 449.455662 77.267112 
C 447.65518 77.267112 445.928198 77.982451 444.655065 79.255584 
C 443.381932 80.528717 442.666593 82.255698 442.666593 84.05618 
C 442.666593 85.856662 443.381932 87.583643 444.655065 88.856776 
C 445.928198 90.129909 447.65518 90.845248 449.455662 90.845248 
z
" clip-path="url(#p9679d3d575)" style="fill: #1f77b4; stroke: #1f77b4"/>
    <path d="M 333.50761 201.099873 
C 335.142201 201.099873 336.710064 200.450443 337.865895 199.294612 
C 339.021726 198.138781 339.671156 196.570918 339.671156 194.936326 
C 339.671156 193.301735 339.021726 191.733872 337.865895 190.578041 
C 336.710064 189.42221 335.142201 188.77278 333.50761 188.77278 
C 331.873018 188.77278 330.305155 189.42221 329.149324 190.578041 
C 327.993493 191.733872 327.344063 193.301735 327.344063 194.936326 
C 327.344063 196.570918 327.993493 198.138781 329.149324 199.294612 
C 330.305155 200.450443 331.873018 201.099873 333.50761 201.099873 
z
" clip-path="url(#p9679d3d575)" style="fill: #1f77b4; stroke: #1f77b4"/>
    <path d="M 449.455662 148.905825 
C 451.225855 148.905825 452.923784 148.20252 454.1755 146.950804 
C 455.427216 145.699088 456.130521 144.001159 456.130521 142.230965 
C 456.130521 140.460772 455.427216 138.762843 454.1755 137.511127 
C 452.923784 136.259411 451.225855 135.556106 449.455662 135.556106 
C 447.685468 135.556106 445.987539 136.259411 444.735823 137.511127 
C 443.484107 138.762843 442.780802 140.460772 442.780802 142.230965 
C 442.780802 144.001159 443.484107 145.699088 444.735823 146.950804 
C 445.987539 148.20252 447.685468 148.905825 449.455662 148.905825 
z
" clip-path="url(#p9679d3d575)" style="fill: #1f77b4; stroke: #1f77b4"/>
    <path d="M 565.403713 209.169033 
C 567.33217 209.169033 569.181902 208.40285 570.545526 207.039225 
C 571.909151 205.6756 572.675335 203.825868 572.675335 201.897412 
C 572.675335 199.968955 571.909151 198.119224 570.545526 196.755599 
C 569.181902 195.391974 567.33217 194.62579 565.403713 194.62579 
C 563.475257 194.62579 561.625525 195.391974 560.261901 196.755599 
C 558.898276 198.119224 558.132092 199.968955 558.132092 201.897412 
C 558.132092 203.825868 558.898276 205.6756 560.261901 207.039225 
C 561.625525 208.40285 563.475257 209.169033 565.403713 209.169033 
z
" clip-path="url(#p9679d3d575)" style="fill: #1f77b4; stroke: #1f77b4"/>
    <path d="M 333.50761 146.807998 
C 335.161001 146.807998 336.746896 146.151098 337.91602 144.981974 
C 339.085144 143.81285 339.742043 142.226955 339.742043 140.573564 
C 339.742043 138.920173 339.085144 137.334278 337.91602 136.165154 
C 336.746896 134.99603 335.161001 134.339131 333.50761 134.339131 
C 331.854219 134.339131 330.268324 134.99603 329.099199 136.165154 
C 327.930075 137.334278 327.273176 138.920173 327.273176 140.573564 
C 327.273176 142.226955 327.930075 143.81285 329.099199 144.981974 
C 330.268324 146.151098 331.854219 146.807998 333.50761 146.807998 
z
" clip-path="url(#p9679d3d575)" style="fill: #1f77b4; stroke: #1f77b4"/>
    <path d="M 449.455662 68.633069 
C 451.255347 68.633069 452.981565 67.918046 454.254135 66.645476 
C 455.526705 65.372906 456.241728 63.646689 456.241728 61.847003 
C 456.241728 60.047317 455.526705 58.3211 454.254135 57.04853 
C 452.981565 55.77596 451.255347 55.060937 449.455662 55.060937 
C 447.655976 55.060937 445.929758 55.77596 444.657188 57.04853 
C 443.384618 58.3211 442.669595 60.047317 442.669595 61.847003 
C 442.669595 63.646689 443.384618 65.372906 444.657188 66.645476 
C 445.929758 67.918046 447.655976 68.633069 449.455662 68.633069 
z
" clip-path="url(#p9679d3d575)" style="fill: #1f77b4; stroke: #1f77b4"/>
    <path d="M 565.403713 111.626836 
C 567.309097 111.626836 569.136697 110.869819 570.484007 109.52251 
C 571.831317 108.1752 572.588333 106.3476 572.588333 104.442216 
C 572.588333 102.536833 571.831317 100.709232 570.484007 99.361922 
C 569.136697 98.014613 567.309097 97.257596 565.403713 97.257596 
C 563.49833 97.257596 561.67073 98.014613 560.32342 99.361922 
C 558.97611 100.709232 558.219093 102.536833 558.219093 104.442216 
C 558.219093 106.3476 558.97611 108.1752 560.32342 109.52251 
C 561.67073 110.869819 563.49833 111.626836 565.403713 111.626836 
z
" clip-path="url(#p9679d3d575)" style="fill: #1f77b4; stroke: #1f77b4"/>
    <path d="M 449.455662 125.124145 
C 451.116506 125.124145 452.70955 124.464284 453.883944 123.28989 
C 455.058339 122.115496 455.718199 120.522452 455.718199 118.861607 
C 455.718199 117.200763 455.058339 115.607719 453.883944 114.433324 
C 452.70955 113.25893 451.116506 112.59907 449.455662 112.59907 
C 447.794817 112.59907 446.201773 113.25893 445.027379 114.433324 
C 443.852984 115.607719 443.193124 117.200763 443.193124 118.861607 
C 443.193124 120.522452 443.852984 122.115496 445.027379 123.28989 
C 446.201773 124.464284 447.794817 125.124145 449.455662 125.124145 
z
" clip-path="url(#p9679d3d575)" style="fill: #1f77b4; stroke: #1f77b4"/>
    <path d="M 565.403713 435.002022 
C 567.181527 435.002022 568.886766 434.295689 570.14387 433.038585 
C 571.400974 431.78148 572.107307 430.076242 572.107307 428.298428 
C 572.107307 426.520614 571.400974 424.815376 570.14387 423.558272 
C 568.886766 422.301168 567.181527 421.594835 565.403713 421.594835 
C 563.6259 421.594835 561.920661 422.301168 560.663557 423.558272 
C 559.406453 424.815376 558.70012 426.520614 558.70012 428.298428 
C 558.70012 430.076242 559.406453 431.78148 560.663557 433.038585 
C 561.920661 434.295689 563.6259 435.002022 565.403713 435.002022 
z
" clip-path="url(#p9679d3d575)" style="fill: #1f77b4; stroke: #1f77b4"/>
    <path d="M 681.351765 189.412 
C 683.183306 189.412 684.940079 188.684321 686.235174 187.389225 
C 687.530269 186.09413 688.257948 184.337358 688.257948 182.505817 
C 688.257948 180.674276 687.530269 178.917503 686.235174 177.622408 
C 684.940079 176.327313 683.183306 175.599634 681.351765 175.599634 
C 679.520224 175.599634 677.763452 176.327313 676.468357 177.622408 
C 675.173262 178.917503 674.445583 180.674276 674.445583 182.505817 
C 674.445583 184.337358 675.173262 186.09413 676.468357 187.389225 
C 677.763452 188.684321 679.520224 189.412 681.351765 189.412 
z
" clip-path="url(#p9679d3d575)" style="fill: #1f77b4; stroke: #1f77b4"/>
    <path d="M 797.299817 638.918468 
C 799.22437 638.918468 801.070357 638.153835 802.431222 636.792971 
C 803.792086 635.432107 804.556719 633.586119 804.556719 631.661567 
C 804.556719 629.737014 803.792086 627.891027 802.431222 626.530162 
C 801.070357 625.169298 799.22437 624.404665 797.299817 624.404665 
C 795.375265 624.404665 793.529277 625.169298 792.168413 626.530162 
C 790.807549 627.891027 790.042916 629.737014 790.042916 631.661567 
C 790.042916 633.586119 790.807549 635.432107 792.168413 636.792971 
C 793.529277 638.153835 795.375265 638.918468 797.299817 638.918468 
z
" clip-path="url(#p9679d3d575)" style="fill: #1f77b4; stroke: #1f77b4"/>
    <path d="M 913.247869 470.5636 
C 915.314126 470.5636 917.296033 469.742667 918.757097 468.281603 
C 920.218162 466.820539 921.039094 464.838632 921.039094 462.772375 
C 921.039094 460.706118 920.218162 458.724211 918.757097 457.263147 
C 917.296033 455.802083 915.314126 454.98115 913.247869 454.98115 
C 911.181612 454.98115 909.199706 455.802083 907.738641 457.263147 
C 906.277577 458.724211 905.456644 460.706118 905.456644 462.772375 
C 905.456644 464.838632 906.277577 466.820539 907.738641 468.281603 
C 909.199706 469.742667 911.181612 470.5636 913.247869 470.5636 
z
" clip-path="url(#p9679d3d575)" style="fill: #1f77b4; stroke: #1f77b4"/>
    <path d="M 449.455662 108.300261 
C 451.182104 108.300261 452.838068 107.614338 454.058847 106.393559 
C 455.279626 105.17278 455.965548 103.516816 455.965548 101.790374 
C 455.965548 100.063932 455.279626 98.407968 454.058847 97.187189 
C 452.838068 95.96641 451.182104 95.280487 449.455662 95.280487 
C 447.729219 95.280487 446.073255 95.96641 444.852476 97.187189 
C 443.631697 98.407968 442.945775 100.063932 442.945775 101.790374 
C 442.945775 103.516816 443.631697 105.17278 444.852476 106.393559 
C 446.073255 107.614338 447.729219 108.300261 449.455662 108.300261 
z
" clip-path="url(#p9679d3d575)" style="fill: #1f77b4; stroke: #1f77b4"/>
    <path d="M 565.403713 190.991565 
C 567.302522 190.991565 569.123815 190.23716 570.466476 188.8945 
C 571.809136 187.55184 572.563541 185.730546 572.563541 183.831738 
C 572.563541 181.93293 571.809136 180.111636 570.466476 178.768976 
C 569.123815 177.426315 567.302522 176.671911 565.403713 176.671911 
C 563.504905 176.671911 561.683611 177.426315 560.340951 178.768976 
C 558.998291 180.111636 558.243886 181.93293 558.243886 183.831738 
C 558.243886 185.730546 558.998291 187.55184 560.340951 188.8945 
C 561.683611 190.23716 563.504905 190.991565 565.403713 190.991565 
z
" clip-path="url(#p9679d3d575)" style="fill: #1f77b4; stroke: #1f77b4"/>
    <path d="M 681.351765 122.541198 
C 683.338565 122.541198 685.244257 121.751835 686.649137 120.346955 
C 688.054016 118.942076 688.84338 117.036384 688.84338 115.049584 
C 688.84338 113.062785 688.054016 111.157092 686.649137 109.752213 
C 685.244257 108.347334 683.338565 107.55797 681.351765 107.55797 
C 679.364966 107.55797 677.459274 108.347334 676.054394 109.752213 
C 674.649515 111.157092 673.860151 113.062785 673.860151 115.049584 
C 673.860151 117.036384 674.649515 118.942076 676.054394 120.346955 
C 677.459274 121.751835 679.364966 122.541198 681.351765 122.541198 
z
" clip-path="url(#p9679d3d575)" style="fill: #1f77b4; stroke: #1f77b4"/>
    <path d="M 565.403713 126.530908 
C 567.173907 126.530908 568.871836 125.827602 570.123552 124.575886 
C 571.375268 123.324171 572.078573 121.626241 572.078573 119.856048 
C 572.078573 118.085855 571.375268 116.387925 570.123552 115.13621 
C 568.871836 113.884494 567.173907 113.181188 565.403713 113.181188 
C 563.63352 113.181188 561.935591 113.884494 560.683875 115.13621 
C 559.432159 116.387925 558.728854 118.085855 558.728854 119.856048 
C 558.728854 121.626241 559.432159 123.324171 560.683875 124.575886 
C 561.935591 125.827602 563.63352 126.530908 565.403713 126.530908 
z
" clip-path="url(#p9679d3d575)" style="fill: #1f77b4; stroke: #1f77b4"/>
    <path d="M 681.351765 362.628892 
C 683.232156 362.628892 685.035784 361.881804 686.365421 360.552167 
C 687.695058 359.22253 688.442145 357.418902 688.442145 355.538512 
C 688.442145 353.658121 687.695058 351.854493 686.365421 350.524856 
C 685.035784 349.195219 683.232156 348.448132 681.351765 348.448132 
C 679.471375 348.448132 677.667747 349.195219 676.33811 350.524856 
C 675.008473 351.854493 674.261385 353.658121 674.261385 355.538512 
C 674.261385 357.418902 675.008473 359.22253 676.33811 360.552167 
C 677.667747 361.881804 679.471375 362.628892 681.351765 362.628892 
z
" clip-path="url(#p9679d3d575)" style="fill: #1f77b4; stroke: #1f77b4"/>
    <path d="M 797.299817 184.087944 
C 799.301775 184.087944 801.222007 183.292558 802.637605 181.87696 
C 804.053203 180.461362 804.848589 178.54113 804.848589 176.539172 
C 804.848589 174.537215 804.053203 172.616982 802.637605 171.201385 
C 801.222007 169.785787 799.301775 168.990401 797.299817 168.990401 
C 795.29786 168.990401 793.377628 169.785787 791.96203 171.201385 
C 790.546432 172.616982 789.751046 174.537215 789.751046 176.539172 
C 789.751046 178.54113 790.546432 180.461362 791.96203 181.87696 
C 793.377628 183.292558 795.29786 184.087944 797.299817 184.087944 
z
" clip-path="url(#p9679d3d575)" style="fill: #1f77b4; stroke: #1f77b4"/>
   </g>
   <g id="matplotlib.axis_1">
    <g id="xtick_1">
     <g id="line2d_1"/>
     <g id="text_1">
      <!-- 16 -->
      <g transform="translate(95.249006 695.614531)scale(0.1 -0.1)">
       <defs>
        <path id="DejaVuSans-31" d="M 794 531 
L 1825 531 
L 1825 4091 
L 703 3866 
L 703 4441 
L 1819 4666 
L 2450 4666 
L 2450 531 
L 3481 531 
L 3481 0 
L 794 0 
L 794 531 
z
" transform="scale(0.015625)"/>
        <path id="DejaVuSans-36" d="M 2113 2584 
Q 1688 2584 1439 2293 
Q 1191 2003 1191 1497 
Q 1191 994 1439 701 
Q 1688 409 2113 409 
Q 2538 409 2786 701 
Q 3034 994 3034 1497 
Q 3034 2003 2786 2293 
Q 2538 2584 2113 2584 
z
M 3366 4563 
L 3366 3988 
Q 3128 4100 2886 4159 
Q 2644 4219 2406 4219 
Q 1781 4219 1451 3797 
Q 1122 3375 1075 2522 
Q 1259 2794 1537 2939 
Q 1816 3084 2150 3084 
Q 2853 3084 3261 2657 
Q 3669 2231 3669 1497 
Q 3669 778 3244 343 
Q 2819 -91 2113 -91 
Q 1303 -91 875 529 
Q 447 1150 447 2328 
Q 447 3434 972 4092 
Q 1497 4750 2381 4750 
Q 2619 4750 2861 4703 
Q 3103 4656 3366 4563 
z
" transform="scale(0.015625)"/>
       </defs>
       <use xlink:href="#DejaVuSans-31"/>
       <use xlink:href="#DejaVuSans-36" x="63.623047"/>
      </g>
     </g>
    </g>
    <g id="xtick_2">
     <g id="line2d_2"/>
     <g id="text_2">
      <!-- 17 -->
      <g transform="translate(211.197058 695.614531)scale(0.1 -0.1)">
       <defs>
        <path id="DejaVuSans-37" d="M 525 4666 
L 3525 4666 
L 3525 4397 
L 1831 0 
L 1172 0 
L 2766 4134 
L 525 4134 
L 525 4666 
z
" transform="scale(0.015625)"/>
       </defs>
       <use xlink:href="#DejaVuSans-31"/>
       <use xlink:href="#DejaVuSans-37" x="63.623047"/>
      </g>
     </g>
    </g>
    <g id="xtick_3">
     <g id="line2d_3"/>
     <g id="text_3">
      <!-- 18 -->
      <g transform="translate(327.14511 695.614531)scale(0.1 -0.1)">
       <defs>
        <path id="DejaVuSans-38" d="M 2034 2216 
Q 1584 2216 1326 1975 
Q 1069 1734 1069 1313 
Q 1069 891 1326 650 
Q 1584 409 2034 409 
Q 2484 409 2743 651 
Q 3003 894 3003 1313 
Q 3003 1734 2745 1975 
Q 2488 2216 2034 2216 
z
M 1403 2484 
Q 997 2584 770 2862 
Q 544 3141 544 3541 
Q 544 4100 942 4425 
Q 1341 4750 2034 4750 
Q 2731 4750 3128 4425 
Q 3525 4100 3525 3541 
Q 3525 3141 3298 2862 
Q 3072 2584 2669 2484 
Q 3125 2378 3379 2068 
Q 3634 1759 3634 1313 
Q 3634 634 3220 271 
Q 2806 -91 2034 -91 
Q 1263 -91 848 271 
Q 434 634 434 1313 
Q 434 1759 690 2068 
Q 947 2378 1403 2484 
z
M 1172 3481 
Q 1172 3119 1398 2916 
Q 1625 2713 2034 2713 
Q 2441 2713 2670 2916 
Q 2900 3119 2900 3481 
Q 2900 3844 2670 4047 
Q 2441 4250 2034 4250 
Q 1625 4250 1398 4047 
Q 1172 3844 1172 3481 
z
" transform="scale(0.015625)"/>
       </defs>
       <use xlink:href="#DejaVuSans-31"/>
       <use xlink:href="#DejaVuSans-38" x="63.623047"/>
      </g>
     </g>
    </g>
    <g id="xtick_4">
     <g id="line2d_4"/>
     <g id="text_4">
      <!-- 19 -->
      <g transform="translate(443.093162 695.614531)scale(0.1 -0.1)">
       <defs>
        <path id="DejaVuSans-39" d="M 703 97 
L 703 672 
Q 941 559 1184 500 
Q 1428 441 1663 441 
Q 2288 441 2617 861 
Q 2947 1281 2994 2138 
Q 2813 1869 2534 1725 
Q 2256 1581 1919 1581 
Q 1219 1581 811 2004 
Q 403 2428 403 3163 
Q 403 3881 828 4315 
Q 1253 4750 1959 4750 
Q 2769 4750 3195 4129 
Q 3622 3509 3622 2328 
Q 3622 1225 3098 567 
Q 2575 -91 1691 -91 
Q 1453 -91 1209 -44 
Q 966 3 703 97 
z
M 1959 2075 
Q 2384 2075 2632 2365 
Q 2881 2656 2881 3163 
Q 2881 3666 2632 3958 
Q 2384 4250 1959 4250 
Q 1534 4250 1286 3958 
Q 1038 3666 1038 3163 
Q 1038 2656 1286 2365 
Q 1534 2075 1959 2075 
z
" transform="scale(0.015625)"/>
       </defs>
       <use xlink:href="#DejaVuSans-31"/>
       <use xlink:href="#DejaVuSans-39" x="63.623047"/>
      </g>
     </g>
    </g>
    <g id="xtick_5">
     <g id="line2d_5"/>
     <g id="text_5">
      <!-- 20 -->
      <g transform="translate(559.041213 695.614531)scale(0.1 -0.1)">
       <defs>
        <path id="DejaVuSans-32" d="M 1228 531 
L 3431 531 
L 3431 0 
L 469 0 
L 469 531 
Q 828 903 1448 1529 
Q 2069 2156 2228 2338 
Q 2531 2678 2651 2914 
Q 2772 3150 2772 3378 
Q 2772 3750 2511 3984 
Q 2250 4219 1831 4219 
Q 1534 4219 1204 4116 
Q 875 4013 500 3803 
L 500 4441 
Q 881 4594 1212 4672 
Q 1544 4750 1819 4750 
Q 2544 4750 2975 4387 
Q 3406 4025 3406 3419 
Q 3406 3131 3298 2873 
Q 3191 2616 2906 2266 
Q 2828 2175 2409 1742 
Q 1991 1309 1228 531 
z
" transform="scale(0.015625)"/>
        <path id="DejaVuSans-30" d="M 2034 4250 
Q 1547 4250 1301 3770 
Q 1056 3291 1056 2328 
Q 1056 1369 1301 889 
Q 1547 409 2034 409 
Q 2525 409 2770 889 
Q 3016 1369 3016 2328 
Q 3016 3291 2770 3770 
Q 2525 4250 2034 4250 
z
M 2034 4750 
Q 2819 4750 3233 4129 
Q 3647 3509 3647 2328 
Q 3647 1150 3233 529 
Q 2819 -91 2034 -91 
Q 1250 -91 836 529 
Q 422 1150 422 2328 
Q 422 3509 836 4129 
Q 1250 4750 2034 4750 
z
" transform="scale(0.015625)"/>
       </defs>
       <use xlink:href="#DejaVuSans-32"/>
       <use xlink:href="#DejaVuSans-30" x="63.623047"/>
      </g>
     </g>
    </g>
    <g id="xtick_6">
     <g id="line2d_6"/>
     <g id="text_6">
      <!-- 21 -->
      <g transform="translate(674.989265 695.614531)scale(0.1 -0.1)">
       <use xlink:href="#DejaVuSans-32"/>
       <use xlink:href="#DejaVuSans-31" x="63.623047"/>
      </g>
     </g>
    </g>
    <g id="xtick_7">
     <g id="line2d_7"/>
     <g id="text_7">
      <!-- 22 -->
      <g transform="translate(790.937317 695.614531)scale(0.1 -0.1)">
       <use xlink:href="#DejaVuSans-32"/>
       <use xlink:href="#DejaVuSans-32" x="63.623047"/>
      </g>
     </g>
    </g>
    <g id="xtick_8">
     <g id="line2d_8"/>
     <g id="text_8">
      <!-- 23 -->
      <g transform="translate(906.885369 695.614531)scale(0.1 -0.1)">
       <defs>
        <path id="DejaVuSans-33" d="M 2597 2516 
Q 3050 2419 3304 2112 
Q 3559 1806 3559 1356 
Q 3559 666 3084 287 
Q 2609 -91 1734 -91 
Q 1441 -91 1130 -33 
Q 819 25 488 141 
L 488 750 
Q 750 597 1062 519 
Q 1375 441 1716 441 
Q 2309 441 2620 675 
Q 2931 909 2931 1356 
Q 2931 1769 2642 2001 
Q 2353 2234 1838 2234 
L 1294 2234 
L 1294 2753 
L 1863 2753 
Q 2328 2753 2575 2939 
Q 2822 3125 2822 3475 
Q 2822 3834 2567 4026 
Q 2313 4219 1838 4219 
Q 1578 4219 1281 4162 
Q 984 4106 628 3988 
L 628 4550 
Q 988 4650 1302 4700 
Q 1616 4750 1894 4750 
Q 2613 4750 3031 4423 
Q 3450 4097 3450 3541 
Q 3450 3153 3228 2886 
Q 3006 2619 2597 2516 
z
" transform="scale(0.015625)"/>
       </defs>
       <use xlink:href="#DejaVuSans-32"/>
       <use xlink:href="#DejaVuSans-33" x="63.623047"/>
      </g>
     </g>
    </g>
    <g id="text_9">
     <!-- Cell Cycle Duration (hours) -->
     <g transform="translate(406.25 713.091875)scale(0.15 -0.15)">
      <defs>
       <path id="DejaVuSans-43" d="M 4122 4306 
L 4122 3641 
Q 3803 3938 3442 4084 
Q 3081 4231 2675 4231 
Q 1875 4231 1450 3742 
Q 1025 3253 1025 2328 
Q 1025 1406 1450 917 
Q 1875 428 2675 428 
Q 3081 428 3442 575 
Q 3803 722 4122 1019 
L 4122 359 
Q 3791 134 3420 21 
Q 3050 -91 2638 -91 
Q 1578 -91 968 557 
Q 359 1206 359 2328 
Q 359 3453 968 4101 
Q 1578 4750 2638 4750 
Q 3056 4750 3426 4639 
Q 3797 4528 4122 4306 
z
" transform="scale(0.015625)"/>
       <path id="DejaVuSans-65" d="M 3597 1894 
L 3597 1613 
L 953 1613 
Q 991 1019 1311 708 
Q 1631 397 2203 397 
Q 2534 397 2845 478 
Q 3156 559 3463 722 
L 3463 178 
Q 3153 47 2828 -22 
Q 2503 -91 2169 -91 
Q 1331 -91 842 396 
Q 353 884 353 1716 
Q 353 2575 817 3079 
Q 1281 3584 2069 3584 
Q 2775 3584 3186 3129 
Q 3597 2675 3597 1894 
z
M 3022 2063 
Q 3016 2534 2758 2815 
Q 2500 3097 2075 3097 
Q 1594 3097 1305 2825 
Q 1016 2553 972 2059 
L 3022 2063 
z
" transform="scale(0.015625)"/>
       <path id="DejaVuSans-6c" d="M 603 4863 
L 1178 4863 
L 1178 0 
L 603 0 
L 603 4863 
z
" transform="scale(0.015625)"/>
       <path id="DejaVuSans-20" transform="scale(0.015625)"/>
       <path id="DejaVuSans-79" d="M 2059 -325 
Q 1816 -950 1584 -1140 
Q 1353 -1331 966 -1331 
L 506 -1331 
L 506 -850 
L 844 -850 
Q 1081 -850 1212 -737 
Q 1344 -625 1503 -206 
L 1606 56 
L 191 3500 
L 800 3500 
L 1894 763 
L 2988 3500 
L 3597 3500 
L 2059 -325 
z
" transform="scale(0.015625)"/>
       <path id="DejaVuSans-63" d="M 3122 3366 
L 3122 2828 
Q 2878 2963 2633 3030 
Q 2388 3097 2138 3097 
Q 1578 3097 1268 2742 
Q 959 2388 959 1747 
Q 959 1106 1268 751 
Q 1578 397 2138 397 
Q 2388 397 2633 464 
Q 2878 531 3122 666 
L 3122 134 
Q 2881 22 2623 -34 
Q 2366 -91 2075 -91 
Q 1284 -91 818 406 
Q 353 903 353 1747 
Q 353 2603 823 3093 
Q 1294 3584 2113 3584 
Q 2378 3584 2631 3529 
Q 2884 3475 3122 3366 
z
" transform="scale(0.015625)"/>
       <path id="DejaVuSans-44" d="M 1259 4147 
L 1259 519 
L 2022 519 
Q 2988 519 3436 956 
Q 3884 1394 3884 2338 
Q 3884 3275 3436 3711 
Q 2988 4147 2022 4147 
L 1259 4147 
z
M 628 4666 
L 1925 4666 
Q 3281 4666 3915 4102 
Q 4550 3538 4550 2338 
Q 4550 1131 3912 565 
Q 3275 0 1925 0 
L 628 0 
L 628 4666 
z
" transform="scale(0.015625)"/>
       <path id="DejaVuSans-75" d="M 544 1381 
L 544 3500 
L 1119 3500 
L 1119 1403 
Q 1119 906 1312 657 
Q 1506 409 1894 409 
Q 2359 409 2629 706 
Q 2900 1003 2900 1516 
L 2900 3500 
L 3475 3500 
L 3475 0 
L 2900 0 
L 2900 538 
Q 2691 219 2414 64 
Q 2138 -91 1772 -91 
Q 1169 -91 856 284 
Q 544 659 544 1381 
z
M 1991 3584 
L 1991 3584 
z
" transform="scale(0.015625)"/>
       <path id="DejaVuSans-72" d="M 2631 2963 
Q 2534 3019 2420 3045 
Q 2306 3072 2169 3072 
Q 1681 3072 1420 2755 
Q 1159 2438 1159 1844 
L 1159 0 
L 581 0 
L 581 3500 
L 1159 3500 
L 1159 2956 
Q 1341 3275 1631 3429 
Q 1922 3584 2338 3584 
Q 2397 3584 2469 3576 
Q 2541 3569 2628 3553 
L 2631 2963 
z
" transform="scale(0.015625)"/>
       <path id="DejaVuSans-61" d="M 2194 1759 
Q 1497 1759 1228 1600 
Q 959 1441 959 1056 
Q 959 750 1161 570 
Q 1363 391 1709 391 
Q 2188 391 2477 730 
Q 2766 1069 2766 1631 
L 2766 1759 
L 2194 1759 
z
M 3341 1997 
L 3341 0 
L 2766 0 
L 2766 531 
Q 2569 213 2275 61 
Q 1981 -91 1556 -91 
Q 1019 -91 701 211 
Q 384 513 384 1019 
Q 384 1609 779 1909 
Q 1175 2209 1959 2209 
L 2766 2209 
L 2766 2266 
Q 2766 2663 2505 2880 
Q 2244 3097 1772 3097 
Q 1472 3097 1187 3025 
Q 903 2953 641 2809 
L 641 3341 
Q 956 3463 1253 3523 
Q 1550 3584 1831 3584 
Q 2591 3584 2966 3190 
Q 3341 2797 3341 1997 
z
" transform="scale(0.015625)"/>
       <path id="DejaVuSans-74" d="M 1172 4494 
L 1172 3500 
L 2356 3500 
L 2356 3053 
L 1172 3053 
L 1172 1153 
Q 1172 725 1289 603 
Q 1406 481 1766 481 
L 2356 481 
L 2356 0 
L 1766 0 
Q 1100 0 847 248 
Q 594 497 594 1153 
L 594 3053 
L 172 3053 
L 172 3500 
L 594 3500 
L 594 4494 
L 1172 4494 
z
" transform="scale(0.015625)"/>
       <path id="DejaVuSans-69" d="M 603 3500 
L 1178 3500 
L 1178 0 
L 603 0 
L 603 3500 
z
M 603 4863 
L 1178 4863 
L 1178 4134 
L 603 4134 
L 603 4863 
z
" transform="scale(0.015625)"/>
       <path id="DejaVuSans-6f" d="M 1959 3097 
Q 1497 3097 1228 2736 
Q 959 2375 959 1747 
Q 959 1119 1226 758 
Q 1494 397 1959 397 
Q 2419 397 2687 759 
Q 2956 1122 2956 1747 
Q 2956 2369 2687 2733 
Q 2419 3097 1959 3097 
z
M 1959 3584 
Q 2709 3584 3137 3096 
Q 3566 2609 3566 1747 
Q 3566 888 3137 398 
Q 2709 -91 1959 -91 
Q 1206 -91 779 398 
Q 353 888 353 1747 
Q 353 2609 779 3096 
Q 1206 3584 1959 3584 
z
" transform="scale(0.015625)"/>
       <path id="DejaVuSans-6e" d="M 3513 2113 
L 3513 0 
L 2938 0 
L 2938 2094 
Q 2938 2591 2744 2837 
Q 2550 3084 2163 3084 
Q 1697 3084 1428 2787 
Q 1159 2491 1159 1978 
L 1159 0 
L 581 0 
L 581 3500 
L 1159 3500 
L 1159 2956 
Q 1366 3272 1645 3428 
Q 1925 3584 2291 3584 
Q 2894 3584 3203 3211 
Q 3513 2838 3513 2113 
z
" transform="scale(0.015625)"/>
       <path id="DejaVuSans-28" d="M 1984 4856 
Q 1566 4138 1362 3434 
Q 1159 2731 1159 2009 
Q 1159 1288 1364 580 
Q 1569 -128 1984 -844 
L 1484 -844 
Q 1016 -109 783 600 
Q 550 1309 550 2009 
Q 550 2706 781 3412 
Q 1013 4119 1484 4856 
L 1984 4856 
z
" transform="scale(0.015625)"/>
       <path id="DejaVuSans-68" d="M 3513 2113 
L 3513 0 
L 2938 0 
L 2938 2094 
Q 2938 2591 2744 2837 
Q 2550 3084 2163 3084 
Q 1697 3084 1428 2787 
Q 1159 2491 1159 1978 
L 1159 0 
L 581 0 
L 581 4863 
L 1159 4863 
L 1159 2956 
Q 1366 3272 1645 3428 
Q 1925 3584 2291 3584 
Q 2894 3584 3203 3211 
Q 3513 2838 3513 2113 
z
" transform="scale(0.015625)"/>
       <path id="DejaVuSans-73" d="M 2834 3397 
L 2834 2853 
Q 2591 2978 2328 3040 
Q 2066 3103 1784 3103 
Q 1356 3103 1142 2972 
Q 928 2841 928 2578 
Q 928 2378 1081 2264 
Q 1234 2150 1697 2047 
L 1894 2003 
Q 2506 1872 2764 1633 
Q 3022 1394 3022 966 
Q 3022 478 2636 193 
Q 2250 -91 1575 -91 
Q 1294 -91 989 -36 
Q 684 19 347 128 
L 347 722 
Q 666 556 975 473 
Q 1284 391 1588 391 
Q 1994 391 2212 530 
Q 2431 669 2431 922 
Q 2431 1156 2273 1281 
Q 2116 1406 1581 1522 
L 1381 1569 
Q 847 1681 609 1914 
Q 372 2147 372 2553 
Q 372 3047 722 3315 
Q 1072 3584 1716 3584 
Q 2034 3584 2315 3537 
Q 2597 3491 2834 3397 
z
" transform="scale(0.015625)"/>
       <path id="DejaVuSans-29" d="M 513 4856 
L 1013 4856 
Q 1481 4119 1714 3412 
Q 1947 2706 1947 2009 
Q 1947 1309 1714 600 
Q 1481 -109 1013 -844 
L 513 -844 
Q 928 -128 1133 580 
Q 1338 1288 1338 2009 
Q 1338 2731 1133 3434 
Q 928 4138 513 4856 
z
" transform="scale(0.015625)"/>
      </defs>
      <use xlink:href="#DejaVuSans-43"/>
      <use xlink:href="#DejaVuSans-65" x="69.824219"/>
      <use xlink:href="#DejaVuSans-6c" x="131.347656"/>
      <use xlink:href="#DejaVuSans-6c" x="159.130859"/>
      <use xlink:href="#DejaVuSans-20" x="186.914062"/>
      <use xlink:href="#DejaVuSans-43" x="218.701172"/>
      <use xlink:href="#DejaVuSans-79" x="288.525391"/>
      <use xlink:href="#DejaVuSans-63" x="347.705078"/>
      <use xlink:href="#DejaVuSans-6c" x="402.685547"/>
      <use xlink:href="#DejaVuSans-65" x="430.46875"/>
      <use xlink:href="#DejaVuSans-20" x="491.992188"/>
      <use xlink:href="#DejaVuSans-44" x="523.779297"/>
      <use xlink:href="#DejaVuSans-75" x="600.78125"/>
      <use xlink:href="#DejaVuSans-72" x="664.160156"/>
      <use xlink:href="#DejaVuSans-61" x="705.273438"/>
      <use xlink:href="#DejaVuSans-74" x="766.552734"/>
      <use xlink:href="#DejaVuSans-69" x="805.761719"/>
      <use xlink:href="#DejaVuSans-6f" x="833.544922"/>
      <use xlink:href="#DejaVuSans-6e" x="894.726562"/>
      <use xlink:href="#DejaVuSans-20" x="958.105469"/>
      <use xlink:href="#DejaVuSans-28" x="989.892578"/>
      <use xlink:href="#DejaVuSans-68" x="1028.90625"/>
      <use xlink:href="#DejaVuSans-6f" x="1092.285156"/>
      <use xlink:href="#DejaVuSans-75" x="1153.466797"/>
      <use xlink:href="#DejaVuSans-72" x="1216.845703"/>
      <use xlink:href="#DejaVuSans-73" x="1257.958984"/>
      <use xlink:href="#DejaVuSans-29" x="1310.058594"/>
     </g>
    </g>
   </g>
   <g id="matplotlib.axis_2">
    <g id="ytick_1">
     <g id="line2d_9">
      <path d="M 61.029688 616.744955 
L 953.829687 616.744955 
" clip-path="url(#p9679d3d575)" style="fill: none; stroke: #b0b0b0; stroke-opacity: 0.5; stroke-width: 0.8; stroke-linecap: square"/>
     </g>
     <g id="line2d_10"/>
     <g id="text_10">
      <!-- 4000 -->
      <g transform="translate(32.079688 620.544174)scale(0.1 -0.1)">
       <defs>
        <path id="DejaVuSans-34" d="M 2419 4116 
L 825 1625 
L 2419 1625 
L 2419 4116 
z
M 2253 4666 
L 3047 4666 
L 3047 1625 
L 3713 1625 
L 3713 1100 
L 3047 1100 
L 3047 0 
L 2419 0 
L 2419 1100 
L 313 1100 
L 313 1709 
L 2253 4666 
z
" transform="scale(0.015625)"/>
       </defs>
       <use xlink:href="#DejaVuSans-34"/>
       <use xlink:href="#DejaVuSans-30" x="63.623047"/>
       <use xlink:href="#DejaVuSans-30" x="127.246094"/>
       <use xlink:href="#DejaVuSans-30" x="190.869141"/>
      </g>
     </g>
    </g>
    <g id="ytick_2">
     <g id="line2d_11">
      <path d="M 61.029688 533.87489 
L 953.829687 533.87489 
" clip-path="url(#p9679d3d575)" style="fill: none; stroke: #b0b0b0; stroke-opacity: 0.5; stroke-width: 0.8; stroke-linecap: square"/>
     </g>
     <g id="line2d_12"/>
     <g id="text_11">
      <!-- 5000 -->
      <g transform="translate(32.079688 537.674109)scale(0.1 -0.1)">
       <defs>
        <path id="DejaVuSans-35" d="M 691 4666 
L 3169 4666 
L 3169 4134 
L 1269 4134 
L 1269 2991 
Q 1406 3038 1543 3061 
Q 1681 3084 1819 3084 
Q 2600 3084 3056 2656 
Q 3513 2228 3513 1497 
Q 3513 744 3044 326 
Q 2575 -91 1722 -91 
Q 1428 -91 1123 -41 
Q 819 9 494 109 
L 494 744 
Q 775 591 1075 516 
Q 1375 441 1709 441 
Q 2250 441 2565 725 
Q 2881 1009 2881 1497 
Q 2881 1984 2565 2268 
Q 2250 2553 1709 2553 
Q 1456 2553 1204 2497 
Q 953 2441 691 2322 
L 691 4666 
z
" transform="scale(0.015625)"/>
       </defs>
       <use xlink:href="#DejaVuSans-35"/>
       <use xlink:href="#DejaVuSans-30" x="63.623047"/>
       <use xlink:href="#DejaVuSans-30" x="127.246094"/>
       <use xlink:href="#DejaVuSans-30" x="190.869141"/>
      </g>
     </g>
    </g>
    <g id="ytick_3">
     <g id="line2d_13">
      <path d="M 61.029688 451.004826 
L 953.829687 451.004826 
" clip-path="url(#p9679d3d575)" style="fill: none; stroke: #b0b0b0; stroke-opacity: 0.5; stroke-width: 0.8; stroke-linecap: square"/>
     </g>
     <g id="line2d_14"/>
     <g id="text_12">
      <!-- 6000 -->
      <g transform="translate(32.079688 454.804045)scale(0.1 -0.1)">
       <use xlink:href="#DejaVuSans-36"/>
       <use xlink:href="#DejaVuSans-30" x="63.623047"/>
       <use xlink:href="#DejaVuSans-30" x="127.246094"/>
       <use xlink:href="#DejaVuSans-30" x="190.869141"/>
      </g>
     </g>
    </g>
    <g id="ytick_4">
     <g id="line2d_15">
      <path d="M 61.029688 368.134761 
L 953.829687 368.134761 
" clip-path="url(#p9679d3d575)" style="fill: none; stroke: #b0b0b0; stroke-opacity: 0.5; stroke-width: 0.8; stroke-linecap: square"/>
     </g>
     <g id="line2d_16"/>
     <g id="text_13">
      <!-- 7000 -->
      <g transform="translate(32.079688 371.93398)scale(0.1 -0.1)">
       <use xlink:href="#DejaVuSans-37"/>
       <use xlink:href="#DejaVuSans-30" x="63.623047"/>
       <use xlink:href="#DejaVuSans-30" x="127.246094"/>
       <use xlink:href="#DejaVuSans-30" x="190.869141"/>
      </g>
     </g>
    </g>
    <g id="ytick_5">
     <g id="line2d_17">
      <path d="M 61.029688 285.264697 
L 953.829687 285.264697 
" clip-path="url(#p9679d3d575)" style="fill: none; stroke: #b0b0b0; stroke-opacity: 0.5; stroke-width: 0.8; stroke-linecap: square"/>
     </g>
     <g id="line2d_18"/>
     <g id="text_14">
      <!-- 8000 -->
      <g transform="translate(32.079688 289.063916)scale(0.1 -0.1)">
       <use xlink:href="#DejaVuSans-38"/>
       <use xlink:href="#DejaVuSans-30" x="63.623047"/>
       <use xlink:href="#DejaVuSans-30" x="127.246094"/>
       <use xlink:href="#DejaVuSans-30" x="190.869141"/>
      </g>
     </g>
    </g>
    <g id="ytick_6">
     <g id="line2d_19">
      <path d="M 61.029688 202.394632 
L 953.829687 202.394632 
" clip-path="url(#p9679d3d575)" style="fill: none; stroke: #b0b0b0; stroke-opacity: 0.5; stroke-width: 0.8; stroke-linecap: square"/>
     </g>
     <g id="line2d_20"/>
     <g id="text_15">
      <!-- 9000 -->
      <g transform="translate(32.079688 206.193851)scale(0.1 -0.1)">
       <use xlink:href="#DejaVuSans-39"/>
       <use xlink:href="#DejaVuSans-30" x="63.623047"/>
       <use xlink:href="#DejaVuSans-30" x="127.246094"/>
       <use xlink:href="#DejaVuSans-30" x="190.869141"/>
      </g>
     </g>
    </g>
    <g id="ytick_7">
     <g id="line2d_21">
      <path d="M 61.029688 119.524568 
L 953.829687 119.524568 
" clip-path="url(#p9679d3d575)" style="fill: none; stroke: #b0b0b0; stroke-opacity: 0.5; stroke-width: 0.8; stroke-linecap: square"/>
     </g>
     <g id="line2d_22"/>
     <g id="text_16">
      <!-- 10000 -->
      <g transform="translate(25.717188 123.323787)scale(0.1 -0.1)">
       <use xlink:href="#DejaVuSans-31"/>
       <use xlink:href="#DejaVuSans-30" x="63.623047"/>
       <use xlink:href="#DejaVuSans-30" x="127.246094"/>
       <use xlink:href="#DejaVuSans-30" x="190.869141"/>
       <use xlink:href="#DejaVuSans-30" x="254.492188"/>
      </g>
     </g>
    </g>
    <g id="ytick_8">
     <g id="line2d_23">
      <path d="M 61.029688 36.654503 
L 953.829687 36.654503 
" clip-path="url(#p9679d3d575)" style="fill: none; stroke: #b0b0b0; stroke-opacity: 0.5; stroke-width: 0.8; stroke-linecap: square"/>
     </g>
     <g id="line2d_24"/>
     <g id="text_17">
      <!-- 11000 -->
      <g transform="translate(25.717188 40.453722)scale(0.1 -0.1)">
       <use xlink:href="#DejaVuSans-31"/>
       <use xlink:href="#DejaVuSans-31" x="63.623047"/>
       <use xlink:href="#DejaVuSans-30" x="127.246094"/>
       <use xlink:href="#DejaVuSans-30" x="190.869141"/>
       <use xlink:href="#DejaVuSans-30" x="254.492188"/>
      </g>
     </g>
    </g>
    <g id="text_18">
     <!-- Init Cancer Cells -->
     <g transform="translate(18.597656 419.447109)rotate(-90)scale(0.15 -0.15)">
      <defs>
       <path id="DejaVuSans-49" d="M 628 4666 
L 1259 4666 
L 1259 0 
L 628 0 
L 628 4666 
z
" transform="scale(0.015625)"/>
      </defs>
      <use xlink:href="#DejaVuSans-49"/>
      <use xlink:href="#DejaVuSans-6e" x="29.492188"/>
      <use xlink:href="#DejaVuSans-69" x="92.871094"/>
      <use xlink:href="#DejaVuSans-74" x="120.654297"/>
      <use xlink:href="#DejaVuSans-20" x="159.863281"/>
      <use xlink:href="#DejaVuSans-43" x="191.650391"/>
      <use xlink:href="#DejaVuSans-61" x="261.474609"/>
      <use xlink:href="#DejaVuSans-6e" x="322.753906"/>
      <use xlink:href="#DejaVuSans-63" x="386.132812"/>
      <use xlink:href="#DejaVuSans-65" x="441.113281"/>
      <use xlink:href="#DejaVuSans-72" x="502.636719"/>
      <use xlink:href="#DejaVuSans-20" x="543.75"/>
      <use xlink:href="#DejaVuSans-43" x="575.537109"/>
      <use xlink:href="#DejaVuSans-65" x="645.361328"/>
      <use xlink:href="#DejaVuSans-6c" x="706.884766"/>
      <use xlink:href="#DejaVuSans-6c" x="734.667969"/>
      <use xlink:href="#DejaVuSans-73" x="762.451172"/>
     </g>
    </g>
   </g>
   <g id="text_19">
    <!-- Number of init Cancer Cells w.r.t. the Cell Cycle Duration -->
    <g transform="translate(153.523438 26.196094)scale(0.25 -0.25)">
     <defs>
      <path id="DejaVuSans-4e" d="M 628 4666 
L 1478 4666 
L 3547 763 
L 3547 4666 
L 4159 4666 
L 4159 0 
L 3309 0 
L 1241 3903 
L 1241 0 
L 628 0 
L 628 4666 
z
" transform="scale(0.015625)"/>
      <path id="DejaVuSans-6d" d="M 3328 2828 
Q 3544 3216 3844 3400 
Q 4144 3584 4550 3584 
Q 5097 3584 5394 3201 
Q 5691 2819 5691 2113 
L 5691 0 
L 5113 0 
L 5113 2094 
Q 5113 2597 4934 2840 
Q 4756 3084 4391 3084 
Q 3944 3084 3684 2787 
Q 3425 2491 3425 1978 
L 3425 0 
L 2847 0 
L 2847 2094 
Q 2847 2600 2669 2842 
Q 2491 3084 2119 3084 
Q 1678 3084 1418 2786 
Q 1159 2488 1159 1978 
L 1159 0 
L 581 0 
L 581 3500 
L 1159 3500 
L 1159 2956 
Q 1356 3278 1631 3431 
Q 1906 3584 2284 3584 
Q 2666 3584 2933 3390 
Q 3200 3197 3328 2828 
z
" transform="scale(0.015625)"/>
      <path id="DejaVuSans-62" d="M 3116 1747 
Q 3116 2381 2855 2742 
Q 2594 3103 2138 3103 
Q 1681 3103 1420 2742 
Q 1159 2381 1159 1747 
Q 1159 1113 1420 752 
Q 1681 391 2138 391 
Q 2594 391 2855 752 
Q 3116 1113 3116 1747 
z
M 1159 2969 
Q 1341 3281 1617 3432 
Q 1894 3584 2278 3584 
Q 2916 3584 3314 3078 
Q 3713 2572 3713 1747 
Q 3713 922 3314 415 
Q 2916 -91 2278 -91 
Q 1894 -91 1617 61 
Q 1341 213 1159 525 
L 1159 0 
L 581 0 
L 581 4863 
L 1159 4863 
L 1159 2969 
z
" transform="scale(0.015625)"/>
      <path id="DejaVuSans-66" d="M 2375 4863 
L 2375 4384 
L 1825 4384 
Q 1516 4384 1395 4259 
Q 1275 4134 1275 3809 
L 1275 3500 
L 2222 3500 
L 2222 3053 
L 1275 3053 
L 1275 0 
L 697 0 
L 697 3053 
L 147 3053 
L 147 3500 
L 697 3500 
L 697 3744 
Q 697 4328 969 4595 
Q 1241 4863 1831 4863 
L 2375 4863 
z
" transform="scale(0.015625)"/>
      <path id="DejaVuSans-77" d="M 269 3500 
L 844 3500 
L 1563 769 
L 2278 3500 
L 2956 3500 
L 3675 769 
L 4391 3500 
L 4966 3500 
L 4050 0 
L 3372 0 
L 2619 2869 
L 1863 0 
L 1184 0 
L 269 3500 
z
" transform="scale(0.015625)"/>
      <path id="DejaVuSans-2e" d="M 684 794 
L 1344 794 
L 1344 0 
L 684 0 
L 684 794 
z
" transform="scale(0.015625)"/>
     </defs>
     <use xlink:href="#DejaVuSans-4e"/>
     <use xlink:href="#DejaVuSans-75" x="74.804688"/>
     <use xlink:href="#DejaVuSans-6d" x="138.183594"/>
     <use xlink:href="#DejaVuSans-62" x="235.595703"/>
     <use xlink:href="#DejaVuSans-65" x="299.072266"/>
     <use xlink:href="#DejaVuSans-72" x="360.595703"/>
     <use xlink:href="#DejaVuSans-20" x="401.708984"/>
     <use xlink:href="#DejaVuSans-6f" x="433.496094"/>
     <use xlink:href="#DejaVuSans-66" x="494.677734"/>
     <use xlink:href="#DejaVuSans-20" x="529.882812"/>
     <use xlink:href="#DejaVuSans-69" x="561.669922"/>
     <use xlink:href="#DejaVuSans-6e" x="589.453125"/>
     <use xlink:href="#DejaVuSans-69" x="652.832031"/>
     <use xlink:href="#DejaVuSans-74" x="680.615234"/>
     <use xlink:href="#DejaVuSans-20" x="719.824219"/>
     <use xlink:href="#DejaVuSans-43" x="751.611328"/>
     <use xlink:href="#DejaVuSans-61" x="821.435547"/>
     <use xlink:href="#DejaVuSans-6e" x="882.714844"/>
     <use xlink:href="#DejaVuSans-63" x="946.09375"/>
     <use xlink:href="#DejaVuSans-65" x="1001.074219"/>
     <use xlink:href="#DejaVuSans-72" x="1062.597656"/>
     <use xlink:href="#DejaVuSans-20" x="1103.710938"/>
     <use xlink:href="#DejaVuSans-43" x="1135.498047"/>
     <use xlink:href="#DejaVuSans-65" x="1205.322266"/>
     <use xlink:href="#DejaVuSans-6c" x="1266.845703"/>
     <use xlink:href="#DejaVuSans-6c" x="1294.628906"/>
     <use xlink:href="#DejaVuSans-73" x="1322.412109"/>
     <use xlink:href="#DejaVuSans-20" x="1374.511719"/>
     <use xlink:href="#DejaVuSans-77" x="1406.298828"/>
     <use xlink:href="#DejaVuSans-2e" x="1478.960938"/>
     <use xlink:href="#DejaVuSans-72" x="1510.748047"/>
     <use xlink:href="#DejaVuSans-2e" x="1542.736328"/>
     <use xlink:href="#DejaVuSans-74" x="1574.523438"/>
     <use xlink:href="#DejaVuSans-2e" x="1613.732422"/>
     <use xlink:href="#DejaVuSans-20" x="1645.519531"/>
     <use xlink:href="#DejaVuSans-74" x="1677.306641"/>
     <use xlink:href="#DejaVuSans-68" x="1716.515625"/>
     <use xlink:href="#DejaVuSans-65" x="1779.894531"/>
     <use xlink:href="#DejaVuSans-20" x="1841.417969"/>
     <use xlink:href="#DejaVuSans-43" x="1873.205078"/>
     <use xlink:href="#DejaVuSans-65" x="1943.029297"/>
     <use xlink:href="#DejaVuSans-6c" x="2004.552734"/>
     <use xlink:href="#DejaVuSans-6c" x="2032.335938"/>
     <use xlink:href="#DejaVuSans-20" x="2060.119141"/>
     <use xlink:href="#DejaVuSans-43" x="2091.90625"/>
     <use xlink:href="#DejaVuSans-79" x="2161.730469"/>
     <use xlink:href="#DejaVuSans-63" x="2220.910156"/>
     <use xlink:href="#DejaVuSans-6c" x="2275.890625"/>
     <use xlink:href="#DejaVuSans-65" x="2303.673828"/>
     <use xlink:href="#DejaVuSans-20" x="2365.197266"/>
     <use xlink:href="#DejaVuSans-44" x="2396.984375"/>
     <use xlink:href="#DejaVuSans-75" x="2473.986328"/>
     <use xlink:href="#DejaVuSans-72" x="2537.365234"/>
     <use xlink:href="#DejaVuSans-61" x="2578.478516"/>
     <use xlink:href="#DejaVuSans-74" x="2639.757812"/>
     <use xlink:href="#DejaVuSans-69" x="2678.966797"/>
     <use xlink:href="#DejaVuSans-6f" x="2706.75"/>
     <use xlink:href="#DejaVuSans-6e" x="2767.931641"/>
    </g>
   </g>
  </g>
 </g>
 <defs>
  <clipPath id="p9679d3d575">
   <rect x="61.029688" y="32.196094" width="892.8" height="652.32"/>
  </clipPath>
 </defs>
</svg>
