<?xml version="1.0" encoding="utf-8" standalone="no"?>
<!DOCTYPE svg PUBLIC "-//W3C//DTD SVG 1.1//EN"
  "http://www.w3.org/Graphics/SVG/1.1/DTD/svg11.dtd">
<svg xmlns:xlink="http://www.w3.org/1999/xlink" width="948.304687pt" height="723.411406pt" viewBox="0 0 948.304687 723.411406" xmlns="http://www.w3.org/2000/svg" version="1.1">
 <metadata>
  <rdf:RDF xmlns:dc="http://purl.org/dc/elements/1.1/" xmlns:cc="http://creativecommons.org/ns#" xmlns:rdf="http://www.w3.org/1999/02/22-rdf-syntax-ns#">
   <cc:Work>
    <dc:type rdf:resource="http://purl.org/dc/dcmitype/StillImage"/>
    <dc:date>2023-04-22T15:35:41.157036</dc:date>
    <dc:format>image/svg+xml</dc:format>
    <dc:creator>
     <cc:Agent>
      <dc:title>Matplotlib v3.5.3, https://matplotlib.org/</dc:title>
     </cc:Agent>
    </dc:creator>
   </cc:Work>
  </rdf:RDF>
 </metadata>
 <defs>
  <style type="text/css">*{stroke-linejoin: round; stroke-linecap: butt}</style>
 </defs>
 <g id="figure_1">
  <g id="patch_1">
   <path d="M 0 723.411406 
L 948.304687 723.411406 
L 948.304687 0 
L 0 0 
z
" style="fill: #ffffff"/>
  </g>
  <g id="axes_1">
   <g id="patch_2">
    <path d="M 48.304688 684.516094 
L 941.104687 684.516094 
L 941.104687 32.196094 
L 48.304688 32.196094 
z
" style="fill: #ffffff"/>
   </g>
   <g id="PathCollection_1">
    <path d="M 320.78261 279.41179 
C 322.313515 279.41179 323.781926 278.803554 324.864439 277.72104 
C 325.946953 276.638527 326.555189 275.170117 326.555189 273.639211 
C 326.555189 272.108305 325.946953 270.639895 324.864439 269.557381 
C 323.781926 268.474867 322.313515 267.866631 320.78261 267.866631 
C 319.251704 267.866631 317.783294 268.474867 316.70078 269.557381 
C 315.618266 270.639895 315.01003 272.108305 315.01003 273.639211 
C 315.01003 275.170117 315.618266 276.638527 316.70078 277.72104 
C 317.783294 278.803554 319.251704 279.41179 320.78261 279.41179 
z
" clip-path="url(#p9b83d32e9c)" style="fill: #1f77b4; stroke: #1f77b4"/>
    <path d="M 436.730662 68.327951 
C 438.449429 68.327951 440.098032 67.645077 441.313384 66.429725 
C 442.528736 65.214373 443.21161 63.56577 443.21161 61.847003 
C 443.21161 60.128235 442.528736 58.479633 441.313384 57.26428 
C 440.098032 56.048928 438.449429 55.366055 436.730662 55.366055 
C 435.011894 55.366055 433.363291 56.048928 432.147939 57.26428 
C 430.932587 58.479633 430.249713 60.128235 430.249713 61.847003 
C 430.249713 63.56577 430.932587 65.214373 432.147939 66.429725 
C 433.363291 67.645077 435.011894 68.327951 436.730662 68.327951 
z
" clip-path="url(#p9b83d32e9c)" style="fill: #1f77b4; stroke: #1f77b4"/>
    <path d="M 552.678713 68.582636 
C 554.465024 68.582636 556.178413 67.872927 557.441526 66.609815 
C 558.704638 65.346702 559.414347 63.633314 559.414347 61.847003 
C 559.414347 60.060692 558.704638 58.347303 557.441526 57.084191 
C 556.178413 55.821078 554.465024 55.111369 552.678713 55.111369 
C 550.892403 55.111369 549.179014 55.821078 547.915901 57.084191 
C 546.652789 58.347303 545.94308 60.060692 545.94308 61.847003 
C 545.94308 63.633314 546.652789 65.346702 547.915901 66.609815 
C 549.179014 67.872927 550.892403 68.582636 552.678713 68.582636 
z
" clip-path="url(#p9b83d32e9c)" style="fill: #1f77b4; stroke: #1f77b4"/>
    <path d="M 88.886506 660.341009 
C 90.338711 660.341009 91.731634 659.764041 92.758498 658.737177 
C 93.785362 657.710313 94.36233 656.31739 94.36233 654.865185 
C 94.36233 653.412979 93.785362 652.020057 92.758498 650.993192 
C 91.731634 649.966328 90.338711 649.389361 88.886506 649.389361 
C 87.4343 649.389361 86.041378 649.966328 85.014513 650.993192 
C 83.987649 652.020057 83.410682 653.412979 83.410682 654.865185 
C 83.410682 656.31739 83.987649 657.710313 85.014513 658.737177 
C 86.041378 659.764041 87.4343 660.341009 88.886506 660.341009 
z
" clip-path="url(#p9b83d32e9c)" style="fill: #1f77b4; stroke: #1f77b4"/>
    <path d="M 204.834558 194.868644 
C 206.411539 194.868644 207.924144 194.242102 209.039238 193.127008 
C 210.154333 192.011914 210.780874 190.499309 210.780874 188.922328 
C 210.780874 187.345346 210.154333 185.832741 209.039238 184.717647 
C 207.924144 183.602553 206.411539 182.976011 204.834558 182.976011 
C 203.257576 182.976011 201.744971 183.602553 200.629877 184.717647 
C 199.514783 185.832741 198.888241 187.345346 198.888241 188.922328 
C 198.888241 190.499309 199.514783 192.011914 200.629877 193.127008 
C 201.744971 194.242102 203.257576 194.868644 204.834558 194.868644 
z
" clip-path="url(#p9b83d32e9c)" style="fill: #1f77b4; stroke: #1f77b4"/>
    <path d="M 320.78261 68.198649 
C 322.467086 68.198649 324.082797 67.529399 325.273901 66.338295 
C 326.465006 65.14719 327.134255 63.531479 327.134255 61.847003 
C 327.134255 60.162527 326.465006 58.546816 325.273901 57.355711 
C 324.082797 56.164607 322.467086 55.495357 320.78261 55.495357 
C 319.098133 55.495357 317.482422 56.164607 316.291318 57.355711 
C 315.100213 58.546816 314.430964 60.162527 314.430964 61.847003 
C 314.430964 63.531479 315.100213 65.14719 316.291318 66.338295 
C 317.482422 67.529399 319.098133 68.198649 320.78261 68.198649 
z
" clip-path="url(#p9b83d32e9c)" style="fill: #1f77b4; stroke: #1f77b4"/>
    <path d="M 204.834558 533.15709 
C 206.257964 533.15709 207.623262 532.591564 208.629762 531.585064 
C 209.636262 530.578564 210.201787 529.213266 210.201787 527.78986 
C 210.201787 526.366454 209.636262 525.001156 208.629762 523.994656 
C 207.623262 522.988156 206.257964 522.42263 204.834558 522.42263 
C 203.411152 522.42263 202.045853 522.988156 201.039353 523.994656 
C 200.032853 525.001156 199.467328 526.366454 199.467328 527.78986 
C 199.467328 529.213266 200.032853 530.578564 201.039353 531.585064 
C 202.045853 532.591564 203.411152 533.15709 204.834558 533.15709 
z
" clip-path="url(#p9b83d32e9c)" style="fill: #1f77b4; stroke: #1f77b4"/>
    <path d="M 320.78261 194.665585 
C 322.305739 194.665585 323.766691 194.06044 324.843706 192.983424 
C 325.920722 191.906409 326.525868 190.445457 326.525868 188.922328 
C 326.525868 187.399198 325.920722 185.938246 324.843706 184.861231 
C 323.766691 183.784215 322.305739 183.17907 320.78261 183.17907 
C 319.25948 183.17907 317.798528 183.784215 316.721513 184.861231 
C 315.644498 185.938246 315.039352 187.399198 315.039352 188.922328 
C 315.039352 190.445457 315.644498 191.906409 316.721513 192.983424 
C 317.798528 194.06044 319.25948 194.665585 320.78261 194.665585 
z
" clip-path="url(#p9b83d32e9c)" style="fill: #1f77b4; stroke: #1f77b4"/>
    <path d="M 436.730662 110.777114 
C 438.473489 110.777114 440.145169 110.084682 441.377534 108.852317 
C 442.609899 107.619952 443.302331 105.948272 443.302331 104.205444 
C 443.302331 102.462617 442.609899 100.790937 441.377534 99.558572 
C 440.145169 98.326207 438.473489 97.633775 436.730662 97.633775 
C 434.987834 97.633775 433.316154 98.326207 432.083789 99.558572 
C 430.851424 100.790937 430.158992 102.462617 430.158992 104.205444 
C 430.158992 105.948272 430.851424 107.619952 432.083789 108.852317 
C 433.316154 110.084682 434.987834 110.777114 436.730662 110.777114 
z
" clip-path="url(#p9b83d32e9c)" style="fill: #1f77b4; stroke: #1f77b4"/>
    <path d="M 436.730662 152.838246 
C 438.394641 152.838246 439.990693 152.17714 441.167304 151.000529 
C 442.343916 149.823917 443.005022 148.227866 443.005022 146.563886 
C 443.005022 144.899906 442.343916 143.303855 441.167304 142.127243 
C 439.990693 140.950632 438.394641 140.289526 436.730662 140.289526 
C 435.066682 140.289526 433.47063 140.950632 432.294019 142.127243 
C 431.117407 143.303855 430.456301 144.899906 430.456301 146.563886 
C 430.456301 148.227866 431.117407 149.823917 432.294019 151.000529 
C 433.47063 152.17714 435.066682 152.838246 436.730662 152.838246 
z
" clip-path="url(#p9b83d32e9c)" style="fill: #1f77b4; stroke: #1f77b4"/>
    <path d="M 552.678713 110.78804 
C 554.424438 110.78804 556.098897 110.094456 557.333311 108.860042 
C 558.567725 107.625628 559.261309 105.951169 559.261309 104.205444 
C 559.261309 102.45972 558.567725 100.78526 557.333311 99.550847 
C 556.098897 98.316433 554.424438 97.622849 552.678713 97.622849 
C 550.932989 97.622849 549.258529 98.316433 548.024116 99.550847 
C 546.789702 100.78526 546.096118 102.45972 546.096118 104.205444 
C 546.096118 105.951169 546.789702 107.625628 548.024116 108.860042 
C 549.258529 110.094456 550.932989 110.78804 552.678713 110.78804 
z
" clip-path="url(#p9b83d32e9c)" style="fill: #1f77b4; stroke: #1f77b4"/>
    <path d="M 668.626765 69.071109 
C 670.542621 69.071109 672.380266 68.309932 673.73498 66.955217 
C 675.089694 65.600503 675.850872 63.762858 675.850872 61.847003 
C 675.850872 59.931148 675.089694 58.093503 673.73498 56.738788 
C 672.380266 55.384074 670.542621 54.622897 668.626765 54.622897 
C 666.71091 54.622897 664.873265 55.384074 663.518551 56.738788 
C 662.163837 58.093503 661.402659 59.931148 661.402659 61.847003 
C 661.402659 63.762858 662.163837 65.600503 663.518551 66.955217 
C 664.873265 68.309932 666.71091 69.071109 668.626765 69.071109 
z
" clip-path="url(#p9b83d32e9c)" style="fill: #1f77b4; stroke: #1f77b4"/>
    <path d="M 204.834558 321.755515 
C 206.361561 321.755515 207.826227 321.14883 208.905981 320.069076 
C 209.985735 318.989322 210.59242 317.524655 210.59242 315.997652 
C 210.59242 314.470649 209.985735 313.005983 208.905981 311.926229 
C 207.826227 310.846474 206.361561 310.23979 204.834558 310.23979 
C 203.307555 310.23979 201.842888 310.846474 200.763134 311.926229 
C 199.68338 313.005983 199.076695 314.470649 199.076695 315.997652 
C 199.076695 317.524655 199.68338 318.989322 200.763134 320.069076 
C 201.842888 321.14883 203.307555 321.755515 204.834558 321.755515 
z
" clip-path="url(#p9b83d32e9c)" style="fill: #1f77b4; stroke: #1f77b4"/>
    <path d="M 320.78261 68.051413 
C 322.428038 68.051413 324.006296 67.397677 325.16979 66.234183 
C 326.333284 65.070689 326.98702 63.492432 326.98702 61.847003 
C 326.98702 60.201574 326.333284 58.623316 325.16979 57.459822 
C 324.006296 56.296329 322.428038 55.642593 320.78261 55.642593 
C 319.137181 55.642593 317.558923 56.296329 316.395429 57.459822 
C 315.231935 58.623316 314.5782 60.201574 314.5782 61.847003 
C 314.5782 63.492432 315.231935 65.070689 316.395429 66.234183 
C 317.558923 67.397677 319.137181 68.051413 320.78261 68.051413 
z
" clip-path="url(#p9b83d32e9c)" style="fill: #1f77b4; stroke: #1f77b4"/>
    <path d="M 436.730662 68.636071 
C 438.531143 68.636071 440.258125 67.920732 441.531258 66.647599 
C 442.804391 65.374466 443.51973 63.647485 443.51973 61.847003 
C 443.51973 60.046521 442.804391 58.31954 441.531258 57.046407 
C 440.258125 55.773274 438.531143 55.057935 436.730662 55.057935 
C 434.93018 55.057935 433.203198 55.773274 431.930065 57.046407 
C 430.656932 58.31954 429.941593 60.046521 429.941593 61.847003 
C 429.941593 63.647485 430.656932 65.374466 431.930065 66.647599 
C 433.203198 67.920732 434.93018 68.636071 436.730662 68.636071 
z
" clip-path="url(#p9b83d32e9c)" style="fill: #1f77b4; stroke: #1f77b4"/>
    <path d="M 320.78261 152.727432 
C 322.417201 152.727432 323.985064 152.078002 325.140895 150.922171 
C 326.296726 149.766341 326.946156 148.198478 326.946156 146.563886 
C 326.946156 144.929294 326.296726 143.361431 325.140895 142.205601 
C 323.985064 141.04977 322.417201 140.40034 320.78261 140.40034 
C 319.148018 140.40034 317.580155 141.04977 316.424324 142.205601 
C 315.268493 143.361431 314.619063 144.929294 314.619063 146.563886 
C 314.619063 148.198478 315.268493 149.766341 316.424324 150.922171 
C 317.580155 152.078002 319.148018 152.727432 320.78261 152.727432 
z
" clip-path="url(#p9b83d32e9c)" style="fill: #1f77b4; stroke: #1f77b4"/>
    <path d="M 436.730662 68.521862 
C 438.500855 68.521862 440.198784 67.818557 441.4505 66.566841 
C 442.702216 65.315125 443.405521 63.617196 443.405521 61.847003 
C 443.405521 60.076809 442.702216 58.37888 441.4505 57.127164 
C 440.198784 55.875449 438.500855 55.172143 436.730662 55.172143 
C 434.960468 55.172143 433.262539 55.875449 432.010823 57.127164 
C 430.759107 58.37888 430.055802 60.076809 430.055802 61.847003 
C 430.055802 63.617196 430.759107 65.315125 432.010823 66.566841 
C 433.262539 67.818557 434.960468 68.521862 436.730662 68.521862 
z
" clip-path="url(#p9b83d32e9c)" style="fill: #1f77b4; stroke: #1f77b4"/>
    <path d="M 552.678713 69.118624 
C 554.60717 69.118624 556.456902 68.352441 557.820526 66.988816 
C 559.184151 65.625191 559.950335 63.775459 559.950335 61.847003 
C 559.950335 59.918546 559.184151 58.068815 557.820526 56.70519 
C 556.456902 55.341565 554.60717 54.575381 552.678713 54.575381 
C 550.750257 54.575381 548.900525 55.341565 547.536901 56.70519 
C 546.173276 58.068815 545.407092 59.918546 545.407092 61.847003 
C 545.407092 63.775459 546.173276 65.625191 547.536901 66.988816 
C 548.900525 68.352441 550.750257 69.118624 552.678713 69.118624 
z
" clip-path="url(#p9b83d32e9c)" style="fill: #1f77b4; stroke: #1f77b4"/>
    <path d="M 320.78261 152.798319 
C 322.436001 152.798319 324.021896 152.14142 325.19102 150.972296 
C 326.360144 149.803172 327.017043 148.217277 327.017043 146.563886 
C 327.017043 144.910495 326.360144 143.3246 325.19102 142.155476 
C 324.021896 140.986352 322.436001 140.329453 320.78261 140.329453 
C 319.129219 140.329453 317.543324 140.986352 316.374199 142.155476 
C 315.205075 143.3246 314.548176 144.910495 314.548176 146.563886 
C 314.548176 148.217277 315.205075 149.803172 316.374199 150.972296 
C 317.543324 152.14142 319.129219 152.798319 320.78261 152.798319 
z
" clip-path="url(#p9b83d32e9c)" style="fill: #1f77b4; stroke: #1f77b4"/>
    <path d="M 436.730662 68.633069 
C 438.530347 68.633069 440.256565 67.918046 441.529135 66.645476 
C 442.801705 65.372906 443.516728 63.646689 443.516728 61.847003 
C 443.516728 60.047317 442.801705 58.3211 441.529135 57.04853 
C 440.256565 55.77596 438.530347 55.060937 436.730662 55.060937 
C 434.930976 55.060937 433.204758 55.77596 431.932188 57.04853 
C 430.659618 58.3211 429.944595 60.047317 429.944595 61.847003 
C 429.944595 63.646689 430.659618 65.372906 431.932188 66.645476 
C 433.204758 67.918046 434.930976 68.633069 436.730662 68.633069 
z
" clip-path="url(#p9b83d32e9c)" style="fill: #1f77b4; stroke: #1f77b4"/>
    <path d="M 552.678713 69.031623 
C 554.584097 69.031623 556.411697 68.274606 557.759007 66.927296 
C 559.106317 65.579987 559.863333 63.752386 559.863333 61.847003 
C 559.863333 59.941619 559.106317 58.114019 557.759007 56.766709 
C 556.411697 55.4194 554.584097 54.662383 552.678713 54.662383 
C 550.77333 54.662383 548.94573 55.4194 547.59842 56.766709 
C 546.25111 58.114019 545.494093 59.941619 545.494093 61.847003 
C 545.494093 63.752386 546.25111 65.579987 547.59842 66.927296 
C 548.94573 68.274606 550.77333 69.031623 552.678713 69.031623 
z
" clip-path="url(#p9b83d32e9c)" style="fill: #1f77b4; stroke: #1f77b4"/>
    <path d="M 436.730662 110.467982 
C 438.391506 110.467982 439.98455 109.808122 441.158944 108.633727 
C 442.333339 107.459333 442.993199 105.866289 442.993199 104.205444 
C 442.993199 102.5446 442.333339 100.951556 441.158944 99.777162 
C 439.98455 98.602767 438.391506 97.942907 436.730662 97.942907 
C 435.069817 97.942907 433.476773 98.602767 432.302379 99.777162 
C 431.127984 100.951556 430.468124 102.5446 430.468124 104.205444 
C 430.468124 105.866289 431.127984 107.459333 432.302379 108.633727 
C 433.476773 109.808122 435.069817 110.467982 436.730662 110.467982 
z
" clip-path="url(#p9b83d32e9c)" style="fill: #1f77b4; stroke: #1f77b4"/>
    <path d="M 552.678713 110.909038 
C 554.456527 110.909038 556.161766 110.202705 557.41887 108.945601 
C 558.675974 107.688497 559.382307 105.983258 559.382307 104.205444 
C 559.382307 102.427631 558.675974 100.722392 557.41887 99.465288 
C 556.161766 98.208184 554.456527 97.501851 552.678713 97.501851 
C 550.9009 97.501851 549.195661 98.208184 547.938557 99.465288 
C 546.681453 100.722392 545.97512 102.427631 545.97512 104.205444 
C 545.97512 105.983258 546.681453 107.688497 547.938557 108.945601 
C 549.195661 110.202705 550.9009 110.909038 552.678713 110.909038 
z
" clip-path="url(#p9b83d32e9c)" style="fill: #1f77b4; stroke: #1f77b4"/>
    <path d="M 668.626765 68.753186 
C 670.458306 68.753186 672.215079 68.025507 673.510174 66.730411 
C 674.805269 65.435316 675.532948 63.678544 675.532948 61.847003 
C 675.532948 60.015462 674.805269 58.258689 673.510174 56.963594 
C 672.215079 55.668499 670.458306 54.94082 668.626765 54.94082 
C 666.795224 54.94082 665.038452 55.668499 663.743357 56.963594 
C 662.448262 58.258689 661.720583 60.015462 661.720583 61.847003 
C 661.720583 63.678544 662.448262 65.435316 663.743357 66.730411 
C 665.038452 68.025507 666.795224 68.753186 668.626765 68.753186 
z
" clip-path="url(#p9b83d32e9c)" style="fill: #1f77b4; stroke: #1f77b4"/>
    <path d="M 784.574817 69.103905 
C 786.49937 69.103905 788.345357 68.339272 789.706222 66.978407 
C 791.067086 65.617543 791.831719 63.771556 791.831719 61.847003 
C 791.831719 59.92245 791.067086 58.076463 789.706222 56.715598 
C 788.345357 55.354734 786.49937 54.590101 784.574817 54.590101 
C 782.650265 54.590101 780.804277 55.354734 779.443413 56.715598 
C 778.082549 58.076463 777.317916 59.92245 777.317916 61.847003 
C 777.317916 63.771556 778.082549 65.617543 779.443413 66.978407 
C 780.804277 68.339272 782.650265 69.103905 784.574817 69.103905 
z
" clip-path="url(#p9b83d32e9c)" style="fill: #1f77b4; stroke: #1f77b4"/>
    <path d="M 900.522869 69.638228 
C 902.589126 69.638228 904.571033 68.817295 906.032097 67.356231 
C 907.493162 65.895166 908.314094 63.91326 908.314094 61.847003 
C 908.314094 59.780746 907.493162 57.798839 906.032097 56.337775 
C 904.571033 54.876711 902.589126 54.055778 900.522869 54.055778 
C 898.456612 54.055778 896.474706 54.876711 895.013641 56.337775 
C 893.552577 57.798839 892.731644 59.780746 892.731644 61.847003 
C 892.731644 63.91326 893.552577 65.895166 895.013641 67.356231 
C 896.474706 68.817295 898.456612 69.638228 900.522869 69.638228 
z
" clip-path="url(#p9b83d32e9c)" style="fill: #1f77b4; stroke: #1f77b4"/>
    <path d="M 436.730662 68.35689 
C 438.457104 68.35689 440.113068 67.670967 441.333847 66.450188 
C 442.554626 65.229409 443.240548 63.573445 443.240548 61.847003 
C 443.240548 60.120561 442.554626 58.464597 441.333847 57.243818 
C 440.113068 56.023039 438.457104 55.337116 436.730662 55.337116 
C 435.004219 55.337116 433.348255 56.023039 432.127476 57.243818 
C 430.906697 58.464597 430.220775 60.120561 430.220775 61.847003 
C 430.220775 63.573445 430.906697 65.229409 432.127476 66.450188 
C 433.348255 67.670967 435.004219 68.35689 436.730662 68.35689 
z
" clip-path="url(#p9b83d32e9c)" style="fill: #1f77b4; stroke: #1f77b4"/>
    <path d="M 552.678713 69.00683 
C 554.577522 69.00683 556.398815 68.252425 557.741476 66.909765 
C 559.084136 65.567105 559.838541 63.745811 559.838541 61.847003 
C 559.838541 59.948195 559.084136 58.126901 557.741476 56.784241 
C 556.398815 55.44158 554.577522 54.687176 552.678713 54.687176 
C 550.779905 54.687176 548.958611 55.44158 547.615951 56.784241 
C 546.273291 58.126901 545.518886 59.948195 545.518886 61.847003 
C 545.518886 63.745811 546.273291 65.567105 547.615951 66.909765 
C 548.958611 68.252425 550.779905 69.00683 552.678713 69.00683 
z
" clip-path="url(#p9b83d32e9c)" style="fill: #1f77b4; stroke: #1f77b4"/>
    <path d="M 668.626765 69.338617 
C 670.613565 69.338617 672.519257 68.549253 673.924137 67.144374 
C 675.329016 65.739495 676.11838 63.833802 676.11838 61.847003 
C 676.11838 59.860204 675.329016 57.954511 673.924137 56.549632 
C 672.519257 55.144752 670.613565 54.355389 668.626765 54.355389 
C 666.639966 54.355389 664.734274 55.144752 663.329394 56.549632 
C 661.924515 57.954511 661.135151 59.860204 661.135151 61.847003 
C 661.135151 63.833802 661.924515 65.739495 663.329394 67.144374 
C 664.734274 68.549253 666.639966 69.338617 668.626765 69.338617 
z
" clip-path="url(#p9b83d32e9c)" style="fill: #1f77b4; stroke: #1f77b4"/>
    <path d="M 552.678713 153.238745 
C 554.448907 153.238745 556.146836 152.53544 557.398552 151.283724 
C 558.650268 150.032009 559.353573 148.334079 559.353573 146.563886 
C 559.353573 144.793693 558.650268 143.095763 557.398552 141.844048 
C 556.146836 140.592332 554.448907 139.889026 552.678713 139.889026 
C 550.90852 139.889026 549.210591 140.592332 547.958875 141.844048 
C 546.707159 143.095763 546.003854 144.793693 546.003854 146.563886 
C 546.003854 148.334079 546.707159 150.032009 547.958875 151.283724 
C 549.210591 152.53544 550.90852 153.238745 552.678713 153.238745 
z
" clip-path="url(#p9b83d32e9c)" style="fill: #1f77b4; stroke: #1f77b4"/>
    <path d="M 668.626765 68.937383 
C 670.507156 68.937383 672.310784 68.190296 673.640421 66.860659 
C 674.970058 65.531022 675.717145 63.727394 675.717145 61.847003 
C 675.717145 59.966612 674.970058 58.162984 673.640421 56.833347 
C 672.310784 55.50371 670.507156 54.756623 668.626765 54.756623 
C 666.746375 54.756623 664.942747 55.50371 663.61311 56.833347 
C 662.283473 58.162984 661.536385 59.966612 661.536385 61.847003 
C 661.536385 63.727394 662.283473 65.531022 663.61311 66.860659 
C 664.942747 68.190296 666.746375 68.937383 668.626765 68.937383 
z
" clip-path="url(#p9b83d32e9c)" style="fill: #1f77b4; stroke: #1f77b4"/>
    <path d="M 784.574817 69.395774 
C 786.576775 69.395774 788.497007 68.600388 789.912605 67.18479 
C 791.328203 65.769193 792.123589 63.84896 792.123589 61.847003 
C 792.123589 59.845045 791.328203 57.924813 789.912605 56.509215 
C 788.497007 55.093617 786.576775 54.298231 784.574817 54.298231 
C 782.57286 54.298231 780.652628 55.093617 779.23703 56.509215 
C 777.821432 57.924813 777.026046 59.845045 777.026046 61.847003 
C 777.026046 63.84896 777.821432 65.769193 779.23703 67.18479 
C 780.652628 68.600388 782.57286 69.395774 784.574817 69.395774 
z
" clip-path="url(#p9b83d32e9c)" style="fill: #1f77b4; stroke: #1f77b4"/>
   </g>
   <g id="matplotlib.axis_1">
    <g id="xtick_1">
     <g id="line2d_1"/>
     <g id="text_1">
      <!-- 16 -->
      <g transform="translate(82.524006 695.614531)scale(0.1 -0.1)">
       <defs>
        <path id="DejaVuSans-31" d="M 794 531 
L 1825 531 
L 1825 4091 
L 703 3866 
L 703 4441 
L 1819 4666 
L 2450 4666 
L 2450 531 
L 3481 531 
L 3481 0 
L 794 0 
L 794 531 
z
" transform="scale(0.015625)"/>
        <path id="DejaVuSans-36" d="M 2113 2584 
Q 1688 2584 1439 2293 
Q 1191 2003 1191 1497 
Q 1191 994 1439 701 
Q 1688 409 2113 409 
Q 2538 409 2786 701 
Q 3034 994 3034 1497 
Q 3034 2003 2786 2293 
Q 2538 2584 2113 2584 
z
M 3366 4563 
L 3366 3988 
Q 3128 4100 2886 4159 
Q 2644 4219 2406 4219 
Q 1781 4219 1451 3797 
Q 1122 3375 1075 2522 
Q 1259 2794 1537 2939 
Q 1816 3084 2150 3084 
Q 2853 3084 3261 2657 
Q 3669 2231 3669 1497 
Q 3669 778 3244 343 
Q 2819 -91 2113 -91 
Q 1303 -91 875 529 
Q 447 1150 447 2328 
Q 447 3434 972 4092 
Q 1497 4750 2381 4750 
Q 2619 4750 2861 4703 
Q 3103 4656 3366 4563 
z
" transform="scale(0.015625)"/>
       </defs>
       <use xlink:href="#DejaVuSans-31"/>
       <use xlink:href="#DejaVuSans-36" x="63.623047"/>
      </g>
     </g>
    </g>
    <g id="xtick_2">
     <g id="line2d_2"/>
     <g id="text_2">
      <!-- 17 -->
      <g transform="translate(198.472058 695.614531)scale(0.1 -0.1)">
       <defs>
        <path id="DejaVuSans-37" d="M 525 4666 
L 3525 4666 
L 3525 4397 
L 1831 0 
L 1172 0 
L 2766 4134 
L 525 4134 
L 525 4666 
z
" transform="scale(0.015625)"/>
       </defs>
       <use xlink:href="#DejaVuSans-31"/>
       <use xlink:href="#DejaVuSans-37" x="63.623047"/>
      </g>
     </g>
    </g>
    <g id="xtick_3">
     <g id="line2d_3"/>
     <g id="text_3">
      <!-- 18 -->
      <g transform="translate(314.42011 695.614531)scale(0.1 -0.1)">
       <defs>
        <path id="DejaVuSans-38" d="M 2034 2216 
Q 1584 2216 1326 1975 
Q 1069 1734 1069 1313 
Q 1069 891 1326 650 
Q 1584 409 2034 409 
Q 2484 409 2743 651 
Q 3003 894 3003 1313 
Q 3003 1734 2745 1975 
Q 2488 2216 2034 2216 
z
M 1403 2484 
Q 997 2584 770 2862 
Q 544 3141 544 3541 
Q 544 4100 942 4425 
Q 1341 4750 2034 4750 
Q 2731 4750 3128 4425 
Q 3525 4100 3525 3541 
Q 3525 3141 3298 2862 
Q 3072 2584 2669 2484 
Q 3125 2378 3379 2068 
Q 3634 1759 3634 1313 
Q 3634 634 3220 271 
Q 2806 -91 2034 -91 
Q 1263 -91 848 271 
Q 434 634 434 1313 
Q 434 1759 690 2068 
Q 947 2378 1403 2484 
z
M 1172 3481 
Q 1172 3119 1398 2916 
Q 1625 2713 2034 2713 
Q 2441 2713 2670 2916 
Q 2900 3119 2900 3481 
Q 2900 3844 2670 4047 
Q 2441 4250 2034 4250 
Q 1625 4250 1398 4047 
Q 1172 3844 1172 3481 
z
" transform="scale(0.015625)"/>
       </defs>
       <use xlink:href="#DejaVuSans-31"/>
       <use xlink:href="#DejaVuSans-38" x="63.623047"/>
      </g>
     </g>
    </g>
    <g id="xtick_4">
     <g id="line2d_4"/>
     <g id="text_4">
      <!-- 19 -->
      <g transform="translate(430.368162 695.614531)scale(0.1 -0.1)">
       <defs>
        <path id="DejaVuSans-39" d="M 703 97 
L 703 672 
Q 941 559 1184 500 
Q 1428 441 1663 441 
Q 2288 441 2617 861 
Q 2947 1281 2994 2138 
Q 2813 1869 2534 1725 
Q 2256 1581 1919 1581 
Q 1219 1581 811 2004 
Q 403 2428 403 3163 
Q 403 3881 828 4315 
Q 1253 4750 1959 4750 
Q 2769 4750 3195 4129 
Q 3622 3509 3622 2328 
Q 3622 1225 3098 567 
Q 2575 -91 1691 -91 
Q 1453 -91 1209 -44 
Q 966 3 703 97 
z
M 1959 2075 
Q 2384 2075 2632 2365 
Q 2881 2656 2881 3163 
Q 2881 3666 2632 3958 
Q 2384 4250 1959 4250 
Q 1534 4250 1286 3958 
Q 1038 3666 1038 3163 
Q 1038 2656 1286 2365 
Q 1534 2075 1959 2075 
z
" transform="scale(0.015625)"/>
       </defs>
       <use xlink:href="#DejaVuSans-31"/>
       <use xlink:href="#DejaVuSans-39" x="63.623047"/>
      </g>
     </g>
    </g>
    <g id="xtick_5">
     <g id="line2d_5"/>
     <g id="text_5">
      <!-- 20 -->
      <g transform="translate(546.316213 695.614531)scale(0.1 -0.1)">
       <defs>
        <path id="DejaVuSans-32" d="M 1228 531 
L 3431 531 
L 3431 0 
L 469 0 
L 469 531 
Q 828 903 1448 1529 
Q 2069 2156 2228 2338 
Q 2531 2678 2651 2914 
Q 2772 3150 2772 3378 
Q 2772 3750 2511 3984 
Q 2250 4219 1831 4219 
Q 1534 4219 1204 4116 
Q 875 4013 500 3803 
L 500 4441 
Q 881 4594 1212 4672 
Q 1544 4750 1819 4750 
Q 2544 4750 2975 4387 
Q 3406 4025 3406 3419 
Q 3406 3131 3298 2873 
Q 3191 2616 2906 2266 
Q 2828 2175 2409 1742 
Q 1991 1309 1228 531 
z
" transform="scale(0.015625)"/>
        <path id="DejaVuSans-30" d="M 2034 4250 
Q 1547 4250 1301 3770 
Q 1056 3291 1056 2328 
Q 1056 1369 1301 889 
Q 1547 409 2034 409 
Q 2525 409 2770 889 
Q 3016 1369 3016 2328 
Q 3016 3291 2770 3770 
Q 2525 4250 2034 4250 
z
M 2034 4750 
Q 2819 4750 3233 4129 
Q 3647 3509 3647 2328 
Q 3647 1150 3233 529 
Q 2819 -91 2034 -91 
Q 1250 -91 836 529 
Q 422 1150 422 2328 
Q 422 3509 836 4129 
Q 1250 4750 2034 4750 
z
" transform="scale(0.015625)"/>
       </defs>
       <use xlink:href="#DejaVuSans-32"/>
       <use xlink:href="#DejaVuSans-30" x="63.623047"/>
      </g>
     </g>
    </g>
    <g id="xtick_6">
     <g id="line2d_6"/>
     <g id="text_6">
      <!-- 21 -->
      <g transform="translate(662.264265 695.614531)scale(0.1 -0.1)">
       <use xlink:href="#DejaVuSans-32"/>
       <use xlink:href="#DejaVuSans-31" x="63.623047"/>
      </g>
     </g>
    </g>
    <g id="xtick_7">
     <g id="line2d_7"/>
     <g id="text_7">
      <!-- 22 -->
      <g transform="translate(778.212317 695.614531)scale(0.1 -0.1)">
       <use xlink:href="#DejaVuSans-32"/>
       <use xlink:href="#DejaVuSans-32" x="63.623047"/>
      </g>
     </g>
    </g>
    <g id="xtick_8">
     <g id="line2d_8"/>
     <g id="text_8">
      <!-- 23 -->
      <g transform="translate(894.160369 695.614531)scale(0.1 -0.1)">
       <defs>
        <path id="DejaVuSans-33" d="M 2597 2516 
Q 3050 2419 3304 2112 
Q 3559 1806 3559 1356 
Q 3559 666 3084 287 
Q 2609 -91 1734 -91 
Q 1441 -91 1130 -33 
Q 819 25 488 141 
L 488 750 
Q 750 597 1062 519 
Q 1375 441 1716 441 
Q 2309 441 2620 675 
Q 2931 909 2931 1356 
Q 2931 1769 2642 2001 
Q 2353 2234 1838 2234 
L 1294 2234 
L 1294 2753 
L 1863 2753 
Q 2328 2753 2575 2939 
Q 2822 3125 2822 3475 
Q 2822 3834 2567 4026 
Q 2313 4219 1838 4219 
Q 1578 4219 1281 4162 
Q 984 4106 628 3988 
L 628 4550 
Q 988 4650 1302 4700 
Q 1616 4750 1894 4750 
Q 2613 4750 3031 4423 
Q 3450 4097 3450 3541 
Q 3450 3153 3228 2886 
Q 3006 2619 2597 2516 
z
" transform="scale(0.015625)"/>
       </defs>
       <use xlink:href="#DejaVuSans-32"/>
       <use xlink:href="#DejaVuSans-33" x="63.623047"/>
      </g>
     </g>
    </g>
    <g id="text_9">
     <!-- Cell Cycle Duration (hours) -->
     <g transform="translate(393.525 713.091875)scale(0.15 -0.15)">
      <defs>
       <path id="DejaVuSans-43" d="M 4122 4306 
L 4122 3641 
Q 3803 3938 3442 4084 
Q 3081 4231 2675 4231 
Q 1875 4231 1450 3742 
Q 1025 3253 1025 2328 
Q 1025 1406 1450 917 
Q 1875 428 2675 428 
Q 3081 428 3442 575 
Q 3803 722 4122 1019 
L 4122 359 
Q 3791 134 3420 21 
Q 3050 -91 2638 -91 
Q 1578 -91 968 557 
Q 359 1206 359 2328 
Q 359 3453 968 4101 
Q 1578 4750 2638 4750 
Q 3056 4750 3426 4639 
Q 3797 4528 4122 4306 
z
" transform="scale(0.015625)"/>
       <path id="DejaVuSans-65" d="M 3597 1894 
L 3597 1613 
L 953 1613 
Q 991 1019 1311 708 
Q 1631 397 2203 397 
Q 2534 397 2845 478 
Q 3156 559 3463 722 
L 3463 178 
Q 3153 47 2828 -22 
Q 2503 -91 2169 -91 
Q 1331 -91 842 396 
Q 353 884 353 1716 
Q 353 2575 817 3079 
Q 1281 3584 2069 3584 
Q 2775 3584 3186 3129 
Q 3597 2675 3597 1894 
z
M 3022 2063 
Q 3016 2534 2758 2815 
Q 2500 3097 2075 3097 
Q 1594 3097 1305 2825 
Q 1016 2553 972 2059 
L 3022 2063 
z
" transform="scale(0.015625)"/>
       <path id="DejaVuSans-6c" d="M 603 4863 
L 1178 4863 
L 1178 0 
L 603 0 
L 603 4863 
z
" transform="scale(0.015625)"/>
       <path id="DejaVuSans-20" transform="scale(0.015625)"/>
       <path id="DejaVuSans-79" d="M 2059 -325 
Q 1816 -950 1584 -1140 
Q 1353 -1331 966 -1331 
L 506 -1331 
L 506 -850 
L 844 -850 
Q 1081 -850 1212 -737 
Q 1344 -625 1503 -206 
L 1606 56 
L 191 3500 
L 800 3500 
L 1894 763 
L 2988 3500 
L 3597 3500 
L 2059 -325 
z
" transform="scale(0.015625)"/>
       <path id="DejaVuSans-63" d="M 3122 3366 
L 3122 2828 
Q 2878 2963 2633 3030 
Q 2388 3097 2138 3097 
Q 1578 3097 1268 2742 
Q 959 2388 959 1747 
Q 959 1106 1268 751 
Q 1578 397 2138 397 
Q 2388 397 2633 464 
Q 2878 531 3122 666 
L 3122 134 
Q 2881 22 2623 -34 
Q 2366 -91 2075 -91 
Q 1284 -91 818 406 
Q 353 903 353 1747 
Q 353 2603 823 3093 
Q 1294 3584 2113 3584 
Q 2378 3584 2631 3529 
Q 2884 3475 3122 3366 
z
" transform="scale(0.015625)"/>
       <path id="DejaVuSans-44" d="M 1259 4147 
L 1259 519 
L 2022 519 
Q 2988 519 3436 956 
Q 3884 1394 3884 2338 
Q 3884 3275 3436 3711 
Q 2988 4147 2022 4147 
L 1259 4147 
z
M 628 4666 
L 1925 4666 
Q 3281 4666 3915 4102 
Q 4550 3538 4550 2338 
Q 4550 1131 3912 565 
Q 3275 0 1925 0 
L 628 0 
L 628 4666 
z
" transform="scale(0.015625)"/>
       <path id="DejaVuSans-75" d="M 544 1381 
L 544 3500 
L 1119 3500 
L 1119 1403 
Q 1119 906 1312 657 
Q 1506 409 1894 409 
Q 2359 409 2629 706 
Q 2900 1003 2900 1516 
L 2900 3500 
L 3475 3500 
L 3475 0 
L 2900 0 
L 2900 538 
Q 2691 219 2414 64 
Q 2138 -91 1772 -91 
Q 1169 -91 856 284 
Q 544 659 544 1381 
z
M 1991 3584 
L 1991 3584 
z
" transform="scale(0.015625)"/>
       <path id="DejaVuSans-72" d="M 2631 2963 
Q 2534 3019 2420 3045 
Q 2306 3072 2169 3072 
Q 1681 3072 1420 2755 
Q 1159 2438 1159 1844 
L 1159 0 
L 581 0 
L 581 3500 
L 1159 3500 
L 1159 2956 
Q 1341 3275 1631 3429 
Q 1922 3584 2338 3584 
Q 2397 3584 2469 3576 
Q 2541 3569 2628 3553 
L 2631 2963 
z
" transform="scale(0.015625)"/>
       <path id="DejaVuSans-61" d="M 2194 1759 
Q 1497 1759 1228 1600 
Q 959 1441 959 1056 
Q 959 750 1161 570 
Q 1363 391 1709 391 
Q 2188 391 2477 730 
Q 2766 1069 2766 1631 
L 2766 1759 
L 2194 1759 
z
M 3341 1997 
L 3341 0 
L 2766 0 
L 2766 531 
Q 2569 213 2275 61 
Q 1981 -91 1556 -91 
Q 1019 -91 701 211 
Q 384 513 384 1019 
Q 384 1609 779 1909 
Q 1175 2209 1959 2209 
L 2766 2209 
L 2766 2266 
Q 2766 2663 2505 2880 
Q 2244 3097 1772 3097 
Q 1472 3097 1187 3025 
Q 903 2953 641 2809 
L 641 3341 
Q 956 3463 1253 3523 
Q 1550 3584 1831 3584 
Q 2591 3584 2966 3190 
Q 3341 2797 3341 1997 
z
" transform="scale(0.015625)"/>
       <path id="DejaVuSans-74" d="M 1172 4494 
L 1172 3500 
L 2356 3500 
L 2356 3053 
L 1172 3053 
L 1172 1153 
Q 1172 725 1289 603 
Q 1406 481 1766 481 
L 2356 481 
L 2356 0 
L 1766 0 
Q 1100 0 847 248 
Q 594 497 594 1153 
L 594 3053 
L 172 3053 
L 172 3500 
L 594 3500 
L 594 4494 
L 1172 4494 
z
" transform="scale(0.015625)"/>
       <path id="DejaVuSans-69" d="M 603 3500 
L 1178 3500 
L 1178 0 
L 603 0 
L 603 3500 
z
M 603 4863 
L 1178 4863 
L 1178 4134 
L 603 4134 
L 603 4863 
z
" transform="scale(0.015625)"/>
       <path id="DejaVuSans-6f" d="M 1959 3097 
Q 1497 3097 1228 2736 
Q 959 2375 959 1747 
Q 959 1119 1226 758 
Q 1494 397 1959 397 
Q 2419 397 2687 759 
Q 2956 1122 2956 1747 
Q 2956 2369 2687 2733 
Q 2419 3097 1959 3097 
z
M 1959 3584 
Q 2709 3584 3137 3096 
Q 3566 2609 3566 1747 
Q 3566 888 3137 398 
Q 2709 -91 1959 -91 
Q 1206 -91 779 398 
Q 353 888 353 1747 
Q 353 2609 779 3096 
Q 1206 3584 1959 3584 
z
" transform="scale(0.015625)"/>
       <path id="DejaVuSans-6e" d="M 3513 2113 
L 3513 0 
L 2938 0 
L 2938 2094 
Q 2938 2591 2744 2837 
Q 2550 3084 2163 3084 
Q 1697 3084 1428 2787 
Q 1159 2491 1159 1978 
L 1159 0 
L 581 0 
L 581 3500 
L 1159 3500 
L 1159 2956 
Q 1366 3272 1645 3428 
Q 1925 3584 2291 3584 
Q 2894 3584 3203 3211 
Q 3513 2838 3513 2113 
z
" transform="scale(0.015625)"/>
       <path id="DejaVuSans-28" d="M 1984 4856 
Q 1566 4138 1362 3434 
Q 1159 2731 1159 2009 
Q 1159 1288 1364 580 
Q 1569 -128 1984 -844 
L 1484 -844 
Q 1016 -109 783 600 
Q 550 1309 550 2009 
Q 550 2706 781 3412 
Q 1013 4119 1484 4856 
L 1984 4856 
z
" transform="scale(0.015625)"/>
       <path id="DejaVuSans-68" d="M 3513 2113 
L 3513 0 
L 2938 0 
L 2938 2094 
Q 2938 2591 2744 2837 
Q 2550 3084 2163 3084 
Q 1697 3084 1428 2787 
Q 1159 2491 1159 1978 
L 1159 0 
L 581 0 
L 581 4863 
L 1159 4863 
L 1159 2956 
Q 1366 3272 1645 3428 
Q 1925 3584 2291 3584 
Q 2894 3584 3203 3211 
Q 3513 2838 3513 2113 
z
" transform="scale(0.015625)"/>
       <path id="DejaVuSans-73" d="M 2834 3397 
L 2834 2853 
Q 2591 2978 2328 3040 
Q 2066 3103 1784 3103 
Q 1356 3103 1142 2972 
Q 928 2841 928 2578 
Q 928 2378 1081 2264 
Q 1234 2150 1697 2047 
L 1894 2003 
Q 2506 1872 2764 1633 
Q 3022 1394 3022 966 
Q 3022 478 2636 193 
Q 2250 -91 1575 -91 
Q 1294 -91 989 -36 
Q 684 19 347 128 
L 347 722 
Q 666 556 975 473 
Q 1284 391 1588 391 
Q 1994 391 2212 530 
Q 2431 669 2431 922 
Q 2431 1156 2273 1281 
Q 2116 1406 1581 1522 
L 1381 1569 
Q 847 1681 609 1914 
Q 372 2147 372 2553 
Q 372 3047 722 3315 
Q 1072 3584 1716 3584 
Q 2034 3584 2315 3537 
Q 2597 3491 2834 3397 
z
" transform="scale(0.015625)"/>
       <path id="DejaVuSans-29" d="M 513 4856 
L 1013 4856 
Q 1481 4119 1714 3412 
Q 1947 2706 1947 2009 
Q 1947 1309 1714 600 
Q 1481 -109 1013 -844 
L 513 -844 
Q 928 -128 1133 580 
Q 1338 1288 1338 2009 
Q 1338 2731 1133 3434 
Q 928 4138 513 4856 
z
" transform="scale(0.015625)"/>
      </defs>
      <use xlink:href="#DejaVuSans-43"/>
      <use xlink:href="#DejaVuSans-65" x="69.824219"/>
      <use xlink:href="#DejaVuSans-6c" x="131.347656"/>
      <use xlink:href="#DejaVuSans-6c" x="159.130859"/>
      <use xlink:href="#DejaVuSans-20" x="186.914062"/>
      <use xlink:href="#DejaVuSans-43" x="218.701172"/>
      <use xlink:href="#DejaVuSans-79" x="288.525391"/>
      <use xlink:href="#DejaVuSans-63" x="347.705078"/>
      <use xlink:href="#DejaVuSans-6c" x="402.685547"/>
      <use xlink:href="#DejaVuSans-65" x="430.46875"/>
      <use xlink:href="#DejaVuSans-20" x="491.992188"/>
      <use xlink:href="#DejaVuSans-44" x="523.779297"/>
      <use xlink:href="#DejaVuSans-75" x="600.78125"/>
      <use xlink:href="#DejaVuSans-72" x="664.160156"/>
      <use xlink:href="#DejaVuSans-61" x="705.273438"/>
      <use xlink:href="#DejaVuSans-74" x="766.552734"/>
      <use xlink:href="#DejaVuSans-69" x="805.761719"/>
      <use xlink:href="#DejaVuSans-6f" x="833.544922"/>
      <use xlink:href="#DejaVuSans-6e" x="894.726562"/>
      <use xlink:href="#DejaVuSans-20" x="958.105469"/>
      <use xlink:href="#DejaVuSans-28" x="989.892578"/>
      <use xlink:href="#DejaVuSans-68" x="1028.90625"/>
      <use xlink:href="#DejaVuSans-6f" x="1092.285156"/>
      <use xlink:href="#DejaVuSans-75" x="1153.466797"/>
      <use xlink:href="#DejaVuSans-72" x="1216.845703"/>
      <use xlink:href="#DejaVuSans-73" x="1257.958984"/>
      <use xlink:href="#DejaVuSans-29" x="1310.058594"/>
     </g>
    </g>
   </g>
   <g id="matplotlib.axis_2">
    <g id="ytick_1">
     <g id="line2d_9">
      <path d="M 48.304688 591.327522 
L 941.104687 591.327522 
" clip-path="url(#p9b83d32e9c)" style="fill: none; stroke: #b0b0b0; stroke-opacity: 0.5; stroke-width: 0.8; stroke-linecap: square"/>
     </g>
     <g id="line2d_10"/>
     <g id="text_10">
      <!-- 75 -->
      <g transform="translate(32.079688 595.126741)scale(0.1 -0.1)">
       <defs>
        <path id="DejaVuSans-35" d="M 691 4666 
L 3169 4666 
L 3169 4134 
L 1269 4134 
L 1269 2991 
Q 1406 3038 1543 3061 
Q 1681 3084 1819 3084 
Q 2600 3084 3056 2656 
Q 3513 2228 3513 1497 
Q 3513 744 3044 326 
Q 2575 -91 1722 -91 
Q 1428 -91 1123 -41 
Q 819 9 494 109 
L 494 744 
Q 775 591 1075 516 
Q 1375 441 1709 441 
Q 2250 441 2565 725 
Q 2881 1009 2881 1497 
Q 2881 1984 2565 2268 
Q 2250 2553 1709 2553 
Q 1456 2553 1204 2497 
Q 953 2441 691 2322 
L 691 4666 
z
" transform="scale(0.015625)"/>
       </defs>
       <use xlink:href="#DejaVuSans-37"/>
       <use xlink:href="#DejaVuSans-35" x="63.623047"/>
      </g>
     </g>
    </g>
    <g id="ytick_2">
     <g id="line2d_11">
      <path d="M 48.304688 485.431418 
L 941.104687 485.431418 
" clip-path="url(#p9b83d32e9c)" style="fill: none; stroke: #b0b0b0; stroke-opacity: 0.5; stroke-width: 0.8; stroke-linecap: square"/>
     </g>
     <g id="line2d_12"/>
     <g id="text_11">
      <!-- 80 -->
      <g transform="translate(32.079688 489.230637)scale(0.1 -0.1)">
       <use xlink:href="#DejaVuSans-38"/>
       <use xlink:href="#DejaVuSans-30" x="63.623047"/>
      </g>
     </g>
    </g>
    <g id="ytick_3">
     <g id="line2d_13">
      <path d="M 48.304688 379.535315 
L 941.104687 379.535315 
" clip-path="url(#p9b83d32e9c)" style="fill: none; stroke: #b0b0b0; stroke-opacity: 0.5; stroke-width: 0.8; stroke-linecap: square"/>
     </g>
     <g id="line2d_14"/>
     <g id="text_12">
      <!-- 85 -->
      <g transform="translate(32.079688 383.334533)scale(0.1 -0.1)">
       <use xlink:href="#DejaVuSans-38"/>
       <use xlink:href="#DejaVuSans-35" x="63.623047"/>
      </g>
     </g>
    </g>
    <g id="ytick_4">
     <g id="line2d_15">
      <path d="M 48.304688 273.639211 
L 941.104687 273.639211 
" clip-path="url(#p9b83d32e9c)" style="fill: none; stroke: #b0b0b0; stroke-opacity: 0.5; stroke-width: 0.8; stroke-linecap: square"/>
     </g>
     <g id="line2d_16"/>
     <g id="text_13">
      <!-- 90 -->
      <g transform="translate(32.079688 277.438429)scale(0.1 -0.1)">
       <use xlink:href="#DejaVuSans-39"/>
       <use xlink:href="#DejaVuSans-30" x="63.623047"/>
      </g>
     </g>
    </g>
    <g id="ytick_5">
     <g id="line2d_17">
      <path d="M 48.304688 167.743107 
L 941.104687 167.743107 
" clip-path="url(#p9b83d32e9c)" style="fill: none; stroke: #b0b0b0; stroke-opacity: 0.5; stroke-width: 0.8; stroke-linecap: square"/>
     </g>
     <g id="line2d_18"/>
     <g id="text_14">
      <!-- 95 -->
      <g transform="translate(32.079688 171.542325)scale(0.1 -0.1)">
       <use xlink:href="#DejaVuSans-39"/>
       <use xlink:href="#DejaVuSans-35" x="63.623047"/>
      </g>
     </g>
    </g>
    <g id="ytick_6">
     <g id="line2d_19">
      <path d="M 48.304688 61.847003 
L 941.104687 61.847003 
" clip-path="url(#p9b83d32e9c)" style="fill: none; stroke: #b0b0b0; stroke-opacity: 0.5; stroke-width: 0.8; stroke-linecap: square"/>
     </g>
     <g id="line2d_20"/>
     <g id="text_15">
      <!-- 100 -->
      <g transform="translate(25.717188 65.646222)scale(0.1 -0.1)">
       <use xlink:href="#DejaVuSans-31"/>
       <use xlink:href="#DejaVuSans-30" x="63.623047"/>
       <use xlink:href="#DejaVuSans-30" x="127.246094"/>
      </g>
     </g>
    </g>
    <g id="text_16">
     <!-- TCP (%) -->
     <g transform="translate(18.597656 387.617812)rotate(-90)scale(0.15 -0.15)">
      <defs>
       <path id="DejaVuSans-54" d="M -19 4666 
L 3928 4666 
L 3928 4134 
L 2272 4134 
L 2272 0 
L 1638 0 
L 1638 4134 
L -19 4134 
L -19 4666 
z
" transform="scale(0.015625)"/>
       <path id="DejaVuSans-50" d="M 1259 4147 
L 1259 2394 
L 2053 2394 
Q 2494 2394 2734 2622 
Q 2975 2850 2975 3272 
Q 2975 3691 2734 3919 
Q 2494 4147 2053 4147 
L 1259 4147 
z
M 628 4666 
L 2053 4666 
Q 2838 4666 3239 4311 
Q 3641 3956 3641 3272 
Q 3641 2581 3239 2228 
Q 2838 1875 2053 1875 
L 1259 1875 
L 1259 0 
L 628 0 
L 628 4666 
z
" transform="scale(0.015625)"/>
       <path id="DejaVuSans-25" d="M 4653 2053 
Q 4381 2053 4226 1822 
Q 4072 1591 4072 1178 
Q 4072 772 4226 539 
Q 4381 306 4653 306 
Q 4919 306 5073 539 
Q 5228 772 5228 1178 
Q 5228 1588 5073 1820 
Q 4919 2053 4653 2053 
z
M 4653 2450 
Q 5147 2450 5437 2106 
Q 5728 1763 5728 1178 
Q 5728 594 5436 251 
Q 5144 -91 4653 -91 
Q 4153 -91 3862 251 
Q 3572 594 3572 1178 
Q 3572 1766 3864 2108 
Q 4156 2450 4653 2450 
z
M 1428 4353 
Q 1159 4353 1004 4120 
Q 850 3888 850 3481 
Q 850 3069 1003 2837 
Q 1156 2606 1428 2606 
Q 1700 2606 1854 2837 
Q 2009 3069 2009 3481 
Q 2009 3884 1853 4118 
Q 1697 4353 1428 4353 
z
M 4250 4750 
L 4750 4750 
L 1831 -91 
L 1331 -91 
L 4250 4750 
z
M 1428 4750 
Q 1922 4750 2215 4408 
Q 2509 4066 2509 3481 
Q 2509 2891 2217 2550 
Q 1925 2209 1428 2209 
Q 931 2209 642 2551 
Q 353 2894 353 3481 
Q 353 4063 643 4406 
Q 934 4750 1428 4750 
z
" transform="scale(0.015625)"/>
      </defs>
      <use xlink:href="#DejaVuSans-54"/>
      <use xlink:href="#DejaVuSans-43" x="55.208984"/>
      <use xlink:href="#DejaVuSans-50" x="125.033203"/>
      <use xlink:href="#DejaVuSans-20" x="185.335938"/>
      <use xlink:href="#DejaVuSans-28" x="217.123047"/>
      <use xlink:href="#DejaVuSans-25" x="256.136719"/>
      <use xlink:href="#DejaVuSans-29" x="351.15625"/>
     </g>
    </g>
   </g>
   <g id="text_17">
    <!-- TCP w.r.t. the Cell Cycle Duration -->
    <g transform="translate(289.444922 26.196094)scale(0.25 -0.25)">
     <defs>
      <path id="DejaVuSans-77" d="M 269 3500 
L 844 3500 
L 1563 769 
L 2278 3500 
L 2956 3500 
L 3675 769 
L 4391 3500 
L 4966 3500 
L 4050 0 
L 3372 0 
L 2619 2869 
L 1863 0 
L 1184 0 
L 269 3500 
z
" transform="scale(0.015625)"/>
      <path id="DejaVuSans-2e" d="M 684 794 
L 1344 794 
L 1344 0 
L 684 0 
L 684 794 
z
" transform="scale(0.015625)"/>
     </defs>
     <use xlink:href="#DejaVuSans-54"/>
     <use xlink:href="#DejaVuSans-43" x="55.208984"/>
     <use xlink:href="#DejaVuSans-50" x="125.033203"/>
     <use xlink:href="#DejaVuSans-20" x="185.335938"/>
     <use xlink:href="#DejaVuSans-77" x="217.123047"/>
     <use xlink:href="#DejaVuSans-2e" x="289.785156"/>
     <use xlink:href="#DejaVuSans-72" x="321.572266"/>
     <use xlink:href="#DejaVuSans-2e" x="353.560547"/>
     <use xlink:href="#DejaVuSans-74" x="385.347656"/>
     <use xlink:href="#DejaVuSans-2e" x="424.556641"/>
     <use xlink:href="#DejaVuSans-20" x="456.34375"/>
     <use xlink:href="#DejaVuSans-74" x="488.130859"/>
     <use xlink:href="#DejaVuSans-68" x="527.339844"/>
     <use xlink:href="#DejaVuSans-65" x="590.71875"/>
     <use xlink:href="#DejaVuSans-20" x="652.242188"/>
     <use xlink:href="#DejaVuSans-43" x="684.029297"/>
     <use xlink:href="#DejaVuSans-65" x="753.853516"/>
     <use xlink:href="#DejaVuSans-6c" x="815.376953"/>
     <use xlink:href="#DejaVuSans-6c" x="843.160156"/>
     <use xlink:href="#DejaVuSans-20" x="870.943359"/>
     <use xlink:href="#DejaVuSans-43" x="902.730469"/>
     <use xlink:href="#DejaVuSans-79" x="972.554688"/>
     <use xlink:href="#DejaVuSans-63" x="1031.734375"/>
     <use xlink:href="#DejaVuSans-6c" x="1086.714844"/>
     <use xlink:href="#DejaVuSans-65" x="1114.498047"/>
     <use xlink:href="#DejaVuSans-20" x="1176.021484"/>
     <use xlink:href="#DejaVuSans-44" x="1207.808594"/>
     <use xlink:href="#DejaVuSans-75" x="1284.810547"/>
     <use xlink:href="#DejaVuSans-72" x="1348.189453"/>
     <use xlink:href="#DejaVuSans-61" x="1389.302734"/>
     <use xlink:href="#DejaVuSans-74" x="1450.582031"/>
     <use xlink:href="#DejaVuSans-69" x="1489.791016"/>
     <use xlink:href="#DejaVuSans-6f" x="1517.574219"/>
     <use xlink:href="#DejaVuSans-6e" x="1578.755859"/>
    </g>
   </g>
  </g>
 </g>
 <defs>
  <clipPath id="p9b83d32e9c">
   <rect x="48.304688" y="32.196094" width="892.8" height="652.32"/>
  </clipPath>
 </defs>
</svg>
